%TF.GenerationSoftware,KiCad,Pcbnew,7.0.5*%
%TF.CreationDate,2024-04-29T12:28:37+10:00*%
%TF.ProjectId,8 key thingy,38206b65-7920-4746-9869-6e67792e6b69,rev?*%
%TF.SameCoordinates,Original*%
%TF.FileFunction,Copper,L2,Bot*%
%TF.FilePolarity,Positive*%
%FSLAX46Y46*%
G04 Gerber Fmt 4.6, Leading zero omitted, Abs format (unit mm)*
G04 Created by KiCad (PCBNEW 7.0.5) date 2024-04-29 12:28:37*
%MOMM*%
%LPD*%
G01*
G04 APERTURE LIST*
G04 Aperture macros list*
%AMRoundRect*
0 Rectangle with rounded corners*
0 $1 Rounding radius*
0 $2 $3 $4 $5 $6 $7 $8 $9 X,Y pos of 4 corners*
0 Add a 4 corners polygon primitive as box body*
4,1,4,$2,$3,$4,$5,$6,$7,$8,$9,$2,$3,0*
0 Add four circle primitives for the rounded corners*
1,1,$1+$1,$2,$3*
1,1,$1+$1,$4,$5*
1,1,$1+$1,$6,$7*
1,1,$1+$1,$8,$9*
0 Add four rect primitives between the rounded corners*
20,1,$1+$1,$2,$3,$4,$5,0*
20,1,$1+$1,$4,$5,$6,$7,0*
20,1,$1+$1,$6,$7,$8,$9,0*
20,1,$1+$1,$8,$9,$2,$3,0*%
G04 Aperture macros list end*
%TA.AperFunction,SMDPad,CuDef*%
%ADD10RoundRect,0.135000X-0.185000X0.135000X-0.185000X-0.135000X0.185000X-0.135000X0.185000X0.135000X0*%
%TD*%
%TA.AperFunction,SMDPad,CuDef*%
%ADD11RoundRect,0.150000X0.150000X-0.587500X0.150000X0.587500X-0.150000X0.587500X-0.150000X-0.587500X0*%
%TD*%
%TA.AperFunction,SMDPad,CuDef*%
%ADD12RoundRect,0.135000X-0.135000X-0.185000X0.135000X-0.185000X0.135000X0.185000X-0.135000X0.185000X0*%
%TD*%
%TA.AperFunction,SMDPad,CuDef*%
%ADD13RoundRect,0.140000X0.140000X0.170000X-0.140000X0.170000X-0.140000X-0.170000X0.140000X-0.170000X0*%
%TD*%
%TA.AperFunction,SMDPad,CuDef*%
%ADD14RoundRect,0.140000X-0.170000X0.140000X-0.170000X-0.140000X0.170000X-0.140000X0.170000X0.140000X0*%
%TD*%
%TA.AperFunction,SMDPad,CuDef*%
%ADD15R,1.700000X1.000000*%
%TD*%
%TA.AperFunction,SMDPad,CuDef*%
%ADD16RoundRect,0.140000X-0.140000X-0.170000X0.140000X-0.170000X0.140000X0.170000X-0.140000X0.170000X0*%
%TD*%
%TA.AperFunction,SMDPad,CuDef*%
%ADD17RoundRect,0.150000X-0.587500X-0.150000X0.587500X-0.150000X0.587500X0.150000X-0.587500X0.150000X0*%
%TD*%
%TA.AperFunction,SMDPad,CuDef*%
%ADD18RoundRect,0.135000X0.135000X0.185000X-0.135000X0.185000X-0.135000X-0.185000X0.135000X-0.185000X0*%
%TD*%
%TA.AperFunction,SMDPad,CuDef*%
%ADD19RoundRect,0.250000X-0.475000X0.250000X-0.475000X-0.250000X0.475000X-0.250000X0.475000X0.250000X0*%
%TD*%
%TA.AperFunction,SMDPad,CuDef*%
%ADD20R,0.200000X0.675000*%
%TD*%
%TA.AperFunction,SMDPad,CuDef*%
%ADD21R,0.400000X0.775000*%
%TD*%
%TA.AperFunction,SMDPad,CuDef*%
%ADD22RoundRect,0.250000X0.475000X-0.250000X0.475000X0.250000X-0.475000X0.250000X-0.475000X-0.250000X0*%
%TD*%
%TA.AperFunction,SMDPad,CuDef*%
%ADD23RoundRect,0.150000X-0.150000X0.587500X-0.150000X-0.587500X0.150000X-0.587500X0.150000X0.587500X0*%
%TD*%
%TA.AperFunction,ComponentPad*%
%ADD24R,1.700000X1.700000*%
%TD*%
%TA.AperFunction,ComponentPad*%
%ADD25O,1.700000X1.700000*%
%TD*%
%TA.AperFunction,SMDPad,CuDef*%
%ADD26RoundRect,0.075000X0.075000X-0.662500X0.075000X0.662500X-0.075000X0.662500X-0.075000X-0.662500X0*%
%TD*%
%TA.AperFunction,SMDPad,CuDef*%
%ADD27RoundRect,0.075000X0.662500X-0.075000X0.662500X0.075000X-0.662500X0.075000X-0.662500X-0.075000X0*%
%TD*%
%TA.AperFunction,SMDPad,CuDef*%
%ADD28R,1.400000X1.200000*%
%TD*%
%TA.AperFunction,SMDPad,CuDef*%
%ADD29RoundRect,0.250000X0.375000X0.625000X-0.375000X0.625000X-0.375000X-0.625000X0.375000X-0.625000X0*%
%TD*%
%TA.AperFunction,SMDPad,CuDef*%
%ADD30R,0.600000X1.450000*%
%TD*%
%TA.AperFunction,SMDPad,CuDef*%
%ADD31R,0.300000X1.450000*%
%TD*%
%TA.AperFunction,ComponentPad*%
%ADD32O,1.000000X1.600000*%
%TD*%
%TA.AperFunction,ComponentPad*%
%ADD33O,1.000000X2.100000*%
%TD*%
%TA.AperFunction,ViaPad*%
%ADD34C,0.600000*%
%TD*%
%TA.AperFunction,Conductor*%
%ADD35C,0.200000*%
%TD*%
%TA.AperFunction,Conductor*%
%ADD36C,0.500000*%
%TD*%
%TA.AperFunction,Conductor*%
%ADD37C,0.300000*%
%TD*%
%TA.AperFunction,Conductor*%
%ADD38C,0.600000*%
%TD*%
G04 APERTURE END LIST*
D10*
%TO.P,R5,1*%
%TO.N,+3.3V*%
X66421000Y-40384000D03*
%TO.P,R5,2*%
%TO.N,USB_D+*%
X66421000Y-41404000D03*
%TD*%
D11*
%TO.P,HALL2,1,VDD*%
%TO.N,+3.3V*%
X58100000Y-39037500D03*
%TO.P,HALL2,2,OUT*%
%TO.N,Net-(HALL2-OUT)*%
X56200000Y-39037500D03*
%TO.P,HALL2,3,GND*%
%TO.N,GND*%
X57150000Y-37162500D03*
%TD*%
D12*
%TO.P,R8,1*%
%TO.N,ADC9*%
X74674000Y-40640000D03*
%TO.P,R8,2*%
%TO.N,Net-(HALL3-OUT)*%
X75694000Y-40640000D03*
%TD*%
D13*
%TO.P,C15,1*%
%TO.N,+3.3V*%
X39596000Y-40640000D03*
%TO.P,C15,2*%
%TO.N,GND*%
X38636000Y-40640000D03*
%TD*%
D14*
%TO.P,C14,1*%
%TO.N,RESET*%
X68961000Y-53368000D03*
%TO.P,C14,2*%
%TO.N,GND*%
X68961000Y-54328000D03*
%TD*%
D13*
%TO.P,C9,1*%
%TO.N,+3.3V*%
X71981000Y-51435000D03*
%TO.P,C9,2*%
%TO.N,GND*%
X71021000Y-51435000D03*
%TD*%
D15*
%TO.P,SW2,1,A*%
%TO.N,BOOT*%
X88875000Y-55250000D03*
X82575000Y-55250000D03*
%TO.P,SW2,2,B*%
%TO.N,+3.3V*%
X88875000Y-59050000D03*
X82575000Y-59050000D03*
%TD*%
D16*
%TO.P,C29,1*%
%TO.N,+3.3V*%
X93754000Y-54610000D03*
%TO.P,C29,2*%
%TO.N,GND*%
X94714000Y-54610000D03*
%TD*%
D17*
%TO.P,U1,1,GND*%
%TO.N,GND*%
X46687500Y-35240000D03*
%TO.P,U1,2,VO*%
%TO.N,+3.3V*%
X46687500Y-33340000D03*
%TO.P,U1,3,VI*%
%TO.N,+5V*%
X48562500Y-34290000D03*
%TD*%
D18*
%TO.P,R2,1*%
%TO.N,Net-(J1-CC2)*%
X68836000Y-36957000D03*
%TO.P,R2,2*%
%TO.N,GND*%
X67816000Y-36957000D03*
%TD*%
D11*
%TO.P,HALL1,1,VDD*%
%TO.N,+3.3V*%
X39050000Y-39037500D03*
%TO.P,HALL1,2,OUT*%
%TO.N,Net-(HALL1-OUT)*%
X37150000Y-39037500D03*
%TO.P,HALL1,3,GND*%
%TO.N,GND*%
X38100000Y-37162500D03*
%TD*%
D13*
%TO.P,C18,1*%
%TO.N,GND*%
X56614000Y-41656000D03*
%TO.P,C18,2*%
%TO.N,ADC8*%
X55654000Y-41656000D03*
%TD*%
D19*
%TO.P,C3,1*%
%TO.N,+3.3V*%
X44704000Y-33340000D03*
%TO.P,C3,2*%
%TO.N,GND*%
X44704000Y-35240000D03*
%TD*%
D14*
%TO.P,C11,1*%
%TO.N,+3.3V*%
X65405000Y-53368000D03*
%TO.P,C11,2*%
%TO.N,GND*%
X65405000Y-54328000D03*
%TD*%
D16*
%TO.P,C5,1*%
%TO.N,+3.3V*%
X61369000Y-42799000D03*
%TO.P,C5,2*%
%TO.N,GND*%
X62329000Y-42799000D03*
%TD*%
D20*
%TO.P,U2,1,IO1*%
%TO.N,SWCLK*%
X69453000Y-41331500D03*
%TO.P,U2,2,IO2*%
%TO.N,SWDIO*%
X68953000Y-41331500D03*
D21*
%TO.P,U2,3,GND*%
%TO.N,GND*%
X68453000Y-41281500D03*
D20*
%TO.P,U2,4,D2+*%
%TO.N,USB_D+*%
X67953000Y-41331500D03*
%TO.P,U2,5,D2-*%
%TO.N,USB_D-*%
X67453000Y-41331500D03*
%TO.P,U2,6,NC*%
X67453000Y-40456500D03*
%TO.P,U2,7,NC*%
%TO.N,USB_D+*%
X67953000Y-40456500D03*
D21*
%TO.P,U2,8,GND*%
%TO.N,GND*%
X68453000Y-40506500D03*
D20*
%TO.P,U2,9,NC*%
%TO.N,SWDIO*%
X68953000Y-40456500D03*
%TO.P,U2,10,NC*%
%TO.N,SWCLK*%
X69453000Y-40456500D03*
%TD*%
D16*
%TO.P,C25,1*%
%TO.N,+3.3V*%
X55654000Y-54610000D03*
%TO.P,C25,2*%
%TO.N,GND*%
X56614000Y-54610000D03*
%TD*%
D13*
%TO.P,C21,1*%
%TO.N,+3.3V*%
X96746000Y-40640000D03*
%TO.P,C21,2*%
%TO.N,GND*%
X95786000Y-40640000D03*
%TD*%
D12*
%TO.P,R7,1*%
%TO.N,ADC8*%
X55624000Y-40640000D03*
%TO.P,R7,2*%
%TO.N,Net-(HALL2-OUT)*%
X56644000Y-40640000D03*
%TD*%
D14*
%TO.P,C7,1*%
%TO.N,+3.3V*%
X71501000Y-42319000D03*
%TO.P,C7,2*%
%TO.N,GND*%
X71501000Y-43279000D03*
%TD*%
D16*
%TO.P,C27,1*%
%TO.N,+3.3V*%
X74704000Y-54610000D03*
%TO.P,C27,2*%
%TO.N,GND*%
X75664000Y-54610000D03*
%TD*%
D18*
%TO.P,R10,1*%
%TO.N,ADC4*%
X39625999Y-54610000D03*
%TO.P,R10,2*%
%TO.N,Net-(HALL5-OUT)*%
X38605999Y-54610000D03*
%TD*%
D13*
%TO.P,C16,1*%
%TO.N,GND*%
X37564000Y-41656000D03*
%TO.P,C16,2*%
%TO.N,ADC6*%
X36604000Y-41656000D03*
%TD*%
D11*
%TO.P,HALL4,1,VDD*%
%TO.N,+3.3V*%
X96200000Y-39037500D03*
%TO.P,HALL4,2,OUT*%
%TO.N,Net-(HALL4-OUT)*%
X94300000Y-39037500D03*
%TO.P,HALL4,3,GND*%
%TO.N,GND*%
X95250000Y-37162500D03*
%TD*%
D22*
%TO.P,C2,1*%
%TO.N,GND*%
X50546000Y-35240000D03*
%TO.P,C2,2*%
%TO.N,+5V*%
X50546000Y-33340000D03*
%TD*%
D11*
%TO.P,HALL3,1,VDD*%
%TO.N,+3.3V*%
X77150000Y-39037500D03*
%TO.P,HALL3,2,OUT*%
%TO.N,Net-(HALL3-OUT)*%
X75250000Y-39037500D03*
%TO.P,HALL3,3,GND*%
%TO.N,GND*%
X76200000Y-37162500D03*
%TD*%
D12*
%TO.P,R9,1*%
%TO.N,ADC7*%
X93724000Y-40640000D03*
%TO.P,R9,2*%
%TO.N,Net-(HALL4-OUT)*%
X94744000Y-40640000D03*
%TD*%
D23*
%TO.P,HALL5,1,VDD*%
%TO.N,+3.3V*%
X37150000Y-56212500D03*
%TO.P,HALL5,2,OUT*%
%TO.N,Net-(HALL5-OUT)*%
X39050000Y-56212500D03*
%TO.P,HALL5,3,GND*%
%TO.N,GND*%
X38100000Y-58087500D03*
%TD*%
D24*
%TO.P,J2,1,Pin_1*%
%TO.N,GND*%
X85725000Y-34290000D03*
D25*
%TO.P,J2,2,Pin_2*%
%TO.N,SWDIO*%
X85725000Y-36830000D03*
%TO.P,J2,3,Pin_3*%
%TO.N,SWCLK*%
X85725000Y-39370000D03*
%TO.P,J2,4,Pin_4*%
%TO.N,+3.3V*%
X85725000Y-41910000D03*
%TD*%
D13*
%TO.P,C19,1*%
%TO.N,+3.3V*%
X77696000Y-40640000D03*
%TO.P,C19,2*%
%TO.N,GND*%
X76736000Y-40640000D03*
%TD*%
D16*
%TO.P,C30,1*%
%TO.N,GND*%
X95785999Y-53594000D03*
%TO.P,C30,2*%
%TO.N,ADC5*%
X96745999Y-53594000D03*
%TD*%
D18*
%TO.P,R4,1*%
%TO.N,GND*%
X83568000Y-53594000D03*
%TO.P,R4,2*%
%TO.N,BOOT*%
X82548000Y-53594000D03*
%TD*%
%TO.P,R11,1*%
%TO.N,ADC2*%
X58675999Y-54610000D03*
%TO.P,R11,2*%
%TO.N,Net-(HALL6-OUT)*%
X57655999Y-54610000D03*
%TD*%
D13*
%TO.P,C17,1*%
%TO.N,+3.3V*%
X58646000Y-40640000D03*
%TO.P,C17,2*%
%TO.N,GND*%
X57686000Y-40640000D03*
%TD*%
D18*
%TO.P,R3,1*%
%TO.N,Net-(J1-CC1)*%
X65788000Y-36957000D03*
%TO.P,R3,2*%
%TO.N,GND*%
X64768000Y-36957000D03*
%TD*%
%TO.P,R13,1*%
%TO.N,ADC5*%
X96775999Y-54610000D03*
%TO.P,R13,2*%
%TO.N,Net-(HALL8-OUT)*%
X95755999Y-54610000D03*
%TD*%
D16*
%TO.P,C26,1*%
%TO.N,GND*%
X57685999Y-53594000D03*
%TO.P,C26,2*%
%TO.N,ADC2*%
X58645999Y-53594000D03*
%TD*%
D13*
%TO.P,C20,1*%
%TO.N,GND*%
X75664000Y-41656000D03*
%TO.P,C20,2*%
%TO.N,ADC9*%
X74704000Y-41656000D03*
%TD*%
D23*
%TO.P,HALL8,1,VDD*%
%TO.N,+3.3V*%
X94300000Y-56212500D03*
%TO.P,HALL8,2,OUT*%
%TO.N,Net-(HALL8-OUT)*%
X96200000Y-56212500D03*
%TO.P,HALL8,3,GND*%
%TO.N,GND*%
X95250000Y-58087500D03*
%TD*%
D26*
%TO.P,U3,1,VBAT*%
%TO.N,+3.3V*%
X69425000Y-51787500D03*
%TO.P,U3,2,PC13*%
%TO.N,unconnected-(U3-PC13-Pad2)*%
X68925000Y-51787500D03*
%TO.P,U3,3,PC14*%
%TO.N,unconnected-(U3-PC14-Pad3)*%
X68425000Y-51787500D03*
%TO.P,U3,4,PC15*%
%TO.N,unconnected-(U3-PC15-Pad4)*%
X67925000Y-51787500D03*
%TO.P,U3,5,PF0*%
%TO.N,OSC_IN*%
X67425000Y-51787500D03*
%TO.P,U3,6,PF1*%
%TO.N,OSC_OUT*%
X66925000Y-51787500D03*
%TO.P,U3,7,NRST*%
%TO.N,RESET*%
X66425000Y-51787500D03*
%TO.P,U3,8,VSSA*%
%TO.N,GND*%
X65925000Y-51787500D03*
%TO.P,U3,9,VDDA*%
%TO.N,+3.3V*%
X65425000Y-51787500D03*
%TO.P,U3,10,PA0*%
%TO.N,ADC0*%
X64925000Y-51787500D03*
%TO.P,U3,11,PA1*%
%TO.N,ADC1*%
X64425000Y-51787500D03*
%TO.P,U3,12,PA2*%
%TO.N,ADC2*%
X63925000Y-51787500D03*
D27*
%TO.P,U3,13,PA3*%
%TO.N,ADC3*%
X62512500Y-50375000D03*
%TO.P,U3,14,PA4*%
%TO.N,ADC4*%
X62512500Y-49875000D03*
%TO.P,U3,15,PA5*%
%TO.N,ADC5*%
X62512500Y-49375000D03*
%TO.P,U3,16,PA6*%
%TO.N,ADC6*%
X62512500Y-48875000D03*
%TO.P,U3,17,PA7*%
%TO.N,ADC7*%
X62512500Y-48375000D03*
%TO.P,U3,18,PB0*%
%TO.N,ADC8*%
X62512500Y-47875000D03*
%TO.P,U3,19,PB1*%
%TO.N,ADC9*%
X62512500Y-47375000D03*
%TO.P,U3,20,PB2*%
%TO.N,unconnected-(U3-PB2-Pad20)*%
X62512500Y-46875000D03*
%TO.P,U3,21,PB10*%
%TO.N,unconnected-(U3-PB10-Pad21)*%
X62512500Y-46375000D03*
%TO.P,U3,22,PB11*%
%TO.N,unconnected-(U3-PB11-Pad22)*%
X62512500Y-45875000D03*
%TO.P,U3,23,VSS*%
%TO.N,GND*%
X62512500Y-45375000D03*
%TO.P,U3,24,VDD*%
%TO.N,+3.3V*%
X62512500Y-44875000D03*
D26*
%TO.P,U3,25,PB12*%
%TO.N,unconnected-(U3-PB12-Pad25)*%
X63925000Y-43462500D03*
%TO.P,U3,26,PB13*%
%TO.N,unconnected-(U3-PB13-Pad26)*%
X64425000Y-43462500D03*
%TO.P,U3,27,PB14*%
%TO.N,unconnected-(U3-PB14-Pad27)*%
X64925000Y-43462500D03*
%TO.P,U3,28,PB15*%
%TO.N,unconnected-(U3-PB15-Pad28)*%
X65425000Y-43462500D03*
%TO.P,U3,29,PA8*%
%TO.N,unconnected-(U3-PA8-Pad29)*%
X65925000Y-43462500D03*
%TO.P,U3,30,PA9*%
%TO.N,unconnected-(U3-PA9-Pad30)*%
X66425000Y-43462500D03*
%TO.P,U3,31,PA10*%
%TO.N,unconnected-(U3-PA10-Pad31)*%
X66925000Y-43462500D03*
%TO.P,U3,32,PA11*%
%TO.N,USB_D-*%
X67425000Y-43462500D03*
%TO.P,U3,33,PA12*%
%TO.N,USB_D+*%
X67925000Y-43462500D03*
%TO.P,U3,34,PA13*%
%TO.N,SWDIO*%
X68425000Y-43462500D03*
%TO.P,U3,35,VSS*%
%TO.N,GND*%
X68925000Y-43462500D03*
%TO.P,U3,36,VDDIO2*%
%TO.N,+3.3V*%
X69425000Y-43462500D03*
D27*
%TO.P,U3,37,PA14*%
%TO.N,SWCLK*%
X70837500Y-44875000D03*
%TO.P,U3,38,PA15*%
%TO.N,RGB*%
X70837500Y-45375000D03*
%TO.P,U3,39,PB3*%
%TO.N,unconnected-(U3-PB3-Pad39)*%
X70837500Y-45875000D03*
%TO.P,U3,40,PB4*%
%TO.N,unconnected-(U3-PB4-Pad40)*%
X70837500Y-46375000D03*
%TO.P,U3,41,PB5*%
%TO.N,unconnected-(U3-PB5-Pad41)*%
X70837500Y-46875000D03*
%TO.P,U3,42,PB6*%
%TO.N,unconnected-(U3-PB6-Pad42)*%
X70837500Y-47375000D03*
%TO.P,U3,43,PB7*%
%TO.N,unconnected-(U3-PB7-Pad43)*%
X70837500Y-47875000D03*
%TO.P,U3,44,BOOT0*%
%TO.N,BOOT*%
X70837500Y-48375000D03*
%TO.P,U3,45,PB8*%
%TO.N,unconnected-(U3-PB8-Pad45)*%
X70837500Y-48875000D03*
%TO.P,U3,46,PB9*%
%TO.N,unconnected-(U3-PB9-Pad46)*%
X70837500Y-49375000D03*
%TO.P,U3,47,VSS*%
%TO.N,GND*%
X70837500Y-49875000D03*
%TO.P,U3,48,VDD*%
%TO.N,+3.3V*%
X70837500Y-50375000D03*
%TD*%
D13*
%TO.P,C22,1*%
%TO.N,GND*%
X94714000Y-41656000D03*
%TO.P,C22,2*%
%TO.N,ADC7*%
X93754000Y-41656000D03*
%TD*%
D28*
%TO.P,Y1,1,1*%
%TO.N,OSC_IN*%
X68283000Y-58508000D03*
%TO.P,Y1,2,2*%
%TO.N,GND*%
X66083000Y-58508000D03*
%TO.P,Y1,3,3*%
%TO.N,OSC_OUT*%
X66083000Y-56808000D03*
%TO.P,Y1,4,4*%
%TO.N,GND*%
X68283000Y-56808000D03*
%TD*%
D29*
%TO.P,F1,1*%
%TO.N,VBUS*%
X58550000Y-33655000D03*
%TO.P,F1,2*%
%TO.N,+5V*%
X55750000Y-33655000D03*
%TD*%
D16*
%TO.P,C23,1*%
%TO.N,+3.3V*%
X36604000Y-54610000D03*
%TO.P,C23,2*%
%TO.N,GND*%
X37564000Y-54610000D03*
%TD*%
D30*
%TO.P,J1,A1,GND*%
%TO.N,GND*%
X63425000Y-35160000D03*
%TO.P,J1,A4,VBUS*%
%TO.N,VBUS*%
X64225000Y-35160000D03*
D31*
%TO.P,J1,A5,CC1*%
%TO.N,Net-(J1-CC1)*%
X65425000Y-35160000D03*
%TO.P,J1,A6,D+*%
%TO.N,USB_D+*%
X66425000Y-35160000D03*
%TO.P,J1,A7,D-*%
%TO.N,USB_D-*%
X66925000Y-35160000D03*
%TO.P,J1,A8,SBU1*%
%TO.N,unconnected-(J1-SBU1-PadA8)*%
X67925000Y-35160000D03*
D30*
%TO.P,J1,A9,VBUS*%
%TO.N,VBUS*%
X69125000Y-35160000D03*
%TO.P,J1,A12,GND*%
%TO.N,GND*%
X69925000Y-35160000D03*
%TO.P,J1,B1,GND*%
X69925000Y-35160000D03*
%TO.P,J1,B4,VBUS*%
%TO.N,VBUS*%
X69125000Y-35160000D03*
D31*
%TO.P,J1,B5,CC2*%
%TO.N,Net-(J1-CC2)*%
X68425000Y-35160000D03*
%TO.P,J1,B6,D+*%
%TO.N,USB_D+*%
X67425000Y-35160000D03*
%TO.P,J1,B7,D-*%
%TO.N,USB_D-*%
X65925000Y-35160000D03*
%TO.P,J1,B8,SBU2*%
%TO.N,unconnected-(J1-SBU2-PadB8)*%
X64925000Y-35160000D03*
D30*
%TO.P,J1,B9,VBUS*%
%TO.N,VBUS*%
X64225000Y-35160000D03*
%TO.P,J1,B12,GND*%
%TO.N,GND*%
X63425000Y-35160000D03*
D32*
%TO.P,J1,S1,SHIELD*%
X62355000Y-30065000D03*
D33*
X62355000Y-34245000D03*
D32*
X70995000Y-30065000D03*
D33*
X70995000Y-34245000D03*
%TD*%
D14*
%TO.P,C10,1*%
%TO.N,+3.3V*%
X64389000Y-53368000D03*
%TO.P,C10,2*%
%TO.N,GND*%
X64389000Y-54328000D03*
%TD*%
D12*
%TO.P,R6,1*%
%TO.N,ADC6*%
X36574000Y-40640000D03*
%TO.P,R6,2*%
%TO.N,Net-(HALL1-OUT)*%
X37594000Y-40640000D03*
%TD*%
D13*
%TO.P,C13,1*%
%TO.N,OSC_OUT*%
X66647000Y-55372000D03*
%TO.P,C13,2*%
%TO.N,GND*%
X65687000Y-55372000D03*
%TD*%
D23*
%TO.P,HALL7,1,VDD*%
%TO.N,+3.3V*%
X75250000Y-56212500D03*
%TO.P,HALL7,2,OUT*%
%TO.N,Net-(HALL7-OUT)*%
X77150000Y-56212500D03*
%TO.P,HALL7,3,GND*%
%TO.N,GND*%
X76200000Y-58087500D03*
%TD*%
D16*
%TO.P,C4,1*%
%TO.N,+3.3V*%
X70386000Y-52578000D03*
%TO.P,C4,2*%
%TO.N,GND*%
X71346000Y-52578000D03*
%TD*%
%TO.P,C6,1*%
%TO.N,+3.3V*%
X61369000Y-43815000D03*
%TO.P,C6,2*%
%TO.N,GND*%
X62329000Y-43815000D03*
%TD*%
D23*
%TO.P,HALL6,1,VDD*%
%TO.N,+3.3V*%
X56200000Y-56212500D03*
%TO.P,HALL6,2,OUT*%
%TO.N,Net-(HALL6-OUT)*%
X58100000Y-56212500D03*
%TO.P,HALL6,3,GND*%
%TO.N,GND*%
X57150000Y-58087500D03*
%TD*%
D16*
%TO.P,C24,1*%
%TO.N,GND*%
X38635999Y-53594000D03*
%TO.P,C24,2*%
%TO.N,ADC4*%
X39595999Y-53594000D03*
%TD*%
D14*
%TO.P,C8,1*%
%TO.N,+3.3V*%
X70485000Y-42319000D03*
%TO.P,C8,2*%
%TO.N,GND*%
X70485000Y-43279000D03*
%TD*%
D13*
%TO.P,C12,1*%
%TO.N,GND*%
X68679000Y-55372000D03*
%TO.P,C12,2*%
%TO.N,OSC_IN*%
X67719000Y-55372000D03*
%TD*%
D18*
%TO.P,R12,1*%
%TO.N,ADC3*%
X77725999Y-54610000D03*
%TO.P,R12,2*%
%TO.N,Net-(HALL7-OUT)*%
X76705999Y-54610000D03*
%TD*%
D16*
%TO.P,C28,1*%
%TO.N,GND*%
X76735999Y-53594000D03*
%TO.P,C28,2*%
%TO.N,ADC3*%
X77695999Y-53594000D03*
%TD*%
D34*
%TO.N,USB_D+*%
X66421000Y-42164000D03*
X66421000Y-44704000D03*
%TO.N,GND*%
X75664000Y-53594000D03*
X57686000Y-41656000D03*
X76200000Y-35940999D03*
X48006000Y-35240000D03*
X43434000Y-35240000D03*
X71501000Y-44069000D03*
X94714000Y-53594000D03*
X76200000Y-59309000D03*
X49276000Y-35240000D03*
X68925000Y-44704000D03*
X64897000Y-58508000D03*
X57150000Y-59309000D03*
X38636000Y-41656000D03*
X84328000Y-53594000D03*
X56614000Y-53594000D03*
X66294000Y-54328000D03*
X95250000Y-59309000D03*
X66294000Y-53086000D03*
X69596000Y-49875000D03*
X63119000Y-43815000D03*
X70485000Y-44069000D03*
X37564000Y-53594000D03*
X72136000Y-52578000D03*
X95250000Y-35940999D03*
X63754000Y-45375000D03*
X67816000Y-37844000D03*
X63119000Y-42799000D03*
X69469000Y-56808000D03*
X38100000Y-59309000D03*
X64768000Y-37846000D03*
X38100000Y-35940999D03*
X76736000Y-41656000D03*
X64897000Y-55372000D03*
X57150000Y-35940999D03*
X68072000Y-54328000D03*
X69469000Y-55372000D03*
X95786000Y-41656000D03*
X63500000Y-54328000D03*
X68453000Y-38989000D03*
X70231000Y-51435000D03*
%TO.N,RESET*%
X68072000Y-53086000D03*
X66425000Y-50546000D03*
%TO.N,SWDIO*%
X69596000Y-38989000D03*
%TO.N,SWCLK*%
X70104000Y-39624000D03*
X69596000Y-42037000D03*
X72390000Y-44704000D03*
%TO.N,ADC3*%
X69596000Y-48895000D03*
X72390000Y-49022000D03*
%TO.N,ADC5*%
X72390000Y-47752000D03*
X69596000Y-47879000D03*
%TO.N,ADC7*%
X69596000Y-46863000D03*
X72390000Y-46736000D03*
%TO.N,ADC9*%
X69596000Y-45847000D03*
X72390000Y-45720000D03*
%TD*%
D35*
%TO.N,Net-(J1-CC2)*%
X68425010Y-36131786D02*
G75*
G03*
X68717893Y-36838893I999990J-14D01*
G01*
X68717893Y-36838893D02*
X68836000Y-36957000D01*
X68425000Y-35160000D02*
X68425000Y-36131786D01*
%TO.N,GND*%
X67816000Y-37844000D02*
X67816000Y-36957000D01*
%TO.N,SWDIO*%
X68754270Y-42167696D02*
G75*
G03*
X68959312Y-41672739I-494970J494996D01*
G01*
X68630001Y-42291949D02*
G75*
G03*
X68425000Y-42786949I494999J-494951D01*
G01*
X69164337Y-39420663D02*
X69596000Y-38989000D01*
X68959312Y-41672739D02*
X68959312Y-39915637D01*
X68630026Y-42291974D02*
X68754287Y-42167713D01*
X68425000Y-43462500D02*
X68425000Y-42786949D01*
X69164321Y-39420647D02*
G75*
G03*
X68959312Y-39915637I494979J-494953D01*
G01*
%TO.N,SWCLK*%
X69953000Y-39624000D02*
G75*
G03*
X69453000Y-40124000I0J-500000D01*
G01*
X69453000Y-41894000D02*
X69596000Y-42037000D01*
X69453000Y-40124000D02*
X69453000Y-41894000D01*
X70104000Y-39624000D02*
X69953000Y-39624000D01*
%TO.N,USB_D+*%
X67425000Y-44704000D02*
G75*
G03*
X67925000Y-44204000I0J500000D01*
G01*
X66421000Y-44704000D02*
X67425000Y-44704000D01*
X67925000Y-44204000D02*
X67925000Y-43462500D01*
X66421000Y-41404000D02*
X66421000Y-42164000D01*
D36*
%TO.N,+5V*%
X55435000Y-33340000D02*
X55750000Y-33655000D01*
X50546000Y-33340000D02*
X50340928Y-33340000D01*
X48926714Y-33925787D02*
X48562501Y-34290000D01*
X50546000Y-33340000D02*
X55435000Y-33340000D01*
X50340928Y-33340020D02*
G75*
G03*
X48926714Y-33925787I-28J-1999980D01*
G01*
D35*
%TO.N,GND*%
X69469000Y-56808000D02*
X68283000Y-56808000D01*
D37*
X71501000Y-43279000D02*
X71501000Y-44069000D01*
X94714000Y-53594000D02*
X95786000Y-53594000D01*
X75664000Y-53594000D02*
X76736000Y-53594000D01*
X76736000Y-41656000D02*
X75664000Y-41656000D01*
D38*
X46687500Y-35240000D02*
X44704000Y-35240000D01*
D37*
X66294000Y-53086000D02*
X66071446Y-52863446D01*
X95786000Y-41656000D02*
X95786000Y-40640000D01*
X38636000Y-41656000D02*
X37564000Y-41656000D01*
D35*
X84328000Y-53594000D02*
X83568000Y-53594000D01*
D38*
X48006000Y-35240000D02*
X49276000Y-35240000D01*
D37*
X70485000Y-43279000D02*
X70485000Y-44069000D01*
X56614000Y-53594000D02*
X56614000Y-54610000D01*
X63500000Y-54328000D02*
X64389000Y-54328000D01*
X71021000Y-51435000D02*
X70231000Y-51435000D01*
X68925000Y-44704000D02*
X68925000Y-43462500D01*
X65925000Y-52509893D02*
X65925000Y-51787500D01*
X37564000Y-53594000D02*
X37564000Y-54610000D01*
D35*
X65687000Y-55372000D02*
X64897000Y-55372000D01*
D38*
X49276000Y-35240000D02*
X50545999Y-35240000D01*
D37*
X66294000Y-54328000D02*
X65405000Y-54328000D01*
X62329000Y-43815000D02*
X63119000Y-43815000D01*
D35*
X95250000Y-37162499D02*
X95250000Y-35940999D01*
D37*
X71346000Y-52578000D02*
X72136000Y-52578000D01*
D35*
X38100000Y-37162499D02*
X38100000Y-35940999D01*
X68072000Y-54328000D02*
X68961000Y-54328000D01*
D37*
X63754000Y-45375000D02*
X62512500Y-45375000D01*
X95786000Y-41656000D02*
X94714000Y-41656000D01*
X62329000Y-42799000D02*
X63119000Y-42799000D01*
X68453000Y-38989000D02*
X68453000Y-41281500D01*
D35*
X76200000Y-58087500D02*
X76200000Y-59309000D01*
D37*
X76736000Y-41656000D02*
X76736000Y-40640000D01*
D35*
X38100000Y-58087500D02*
X38100000Y-59309000D01*
D37*
X38636000Y-41656000D02*
X38636000Y-40640000D01*
X94714000Y-53594000D02*
X94714000Y-54610000D01*
D35*
X64768000Y-37846000D02*
X64768000Y-36957000D01*
D37*
X57686000Y-41656000D02*
X56614000Y-41656000D01*
X56614000Y-53594000D02*
X57686000Y-53594000D01*
X57686000Y-41656000D02*
X57686000Y-40640000D01*
D35*
X76200000Y-37162499D02*
X76200000Y-35940999D01*
D38*
X48006000Y-35240000D02*
X46687500Y-35240000D01*
D35*
X57150000Y-37162499D02*
X57150000Y-35940999D01*
X68679000Y-55372000D02*
X69469000Y-55372000D01*
D37*
X75664000Y-53594000D02*
X75664000Y-54610000D01*
X69596000Y-49875000D02*
X70837500Y-49875000D01*
D38*
X43434000Y-35240000D02*
X44704001Y-35240000D01*
D35*
X64897000Y-58508000D02*
X66083000Y-58508000D01*
D37*
X37564000Y-53594000D02*
X38636000Y-53594000D01*
D35*
X57150000Y-58087500D02*
X57150000Y-59309000D01*
X95250000Y-58087500D02*
X95250000Y-59309000D01*
D37*
X65925005Y-52509893D02*
G75*
G03*
X66071446Y-52863446I499995J-7D01*
G01*
D35*
%TO.N,Net-(J1-CC1)*%
X65717893Y-36886893D02*
X65788000Y-36957000D01*
X65425000Y-35160000D02*
X65425000Y-36179786D01*
X65425010Y-36179786D02*
G75*
G03*
X65717893Y-36886893I999990J-14D01*
G01*
D36*
%TO.N,VBUS*%
X60260000Y-33655000D02*
X58550000Y-33655000D01*
X63525000Y-36576000D02*
X61660000Y-36576000D01*
X60960000Y-35876000D02*
X60960000Y-34355000D01*
X64225000Y-35160000D02*
X64225000Y-35876000D01*
X63525000Y-36576000D02*
G75*
G03*
X64225000Y-35876000I0J700000D01*
G01*
X60960000Y-35876000D02*
G75*
G03*
X61660000Y-36576000I700000J0D01*
G01*
X60960000Y-34355000D02*
G75*
G03*
X60260000Y-33655000I-700000J0D01*
G01*
D35*
%TO.N,USB_D+*%
X66929000Y-37031107D02*
X66929000Y-37558786D01*
X66425000Y-35160000D02*
X66425000Y-34336000D01*
X67278553Y-36474447D02*
X67075446Y-36677554D01*
X67425000Y-35160000D02*
X67425000Y-36120893D01*
X67945000Y-39610320D02*
X67945000Y-43442500D01*
X67221893Y-38265893D02*
X67505660Y-38549660D01*
X67425000Y-34336000D02*
X67425000Y-35160000D01*
X66725000Y-34036000D02*
X67125000Y-34036000D01*
X67945000Y-43442500D02*
X67925000Y-43462500D01*
X67944985Y-39610320D02*
G75*
G03*
X67505660Y-38549660I-1499985J20D01*
G01*
X67075443Y-36677551D02*
G75*
G03*
X66929000Y-37031107I353557J-353549D01*
G01*
X66929010Y-37558786D02*
G75*
G03*
X67221893Y-38265893I999990J-14D01*
G01*
X67278556Y-36474450D02*
G75*
G03*
X67425000Y-36120893I-353556J353550D01*
G01*
X67425000Y-34336000D02*
G75*
G03*
X67125000Y-34036000I-300000J0D01*
G01*
X66725000Y-34036000D02*
G75*
G03*
X66425000Y-34336000I0J-300000D01*
G01*
%TO.N,RESET*%
X68825447Y-53232447D02*
X68961000Y-53368000D01*
X68072000Y-53086000D02*
X68471893Y-53086000D01*
X66425000Y-50546000D02*
X66425000Y-51787500D01*
X68825450Y-53232444D02*
G75*
G03*
X68471893Y-53086000I-353550J-353556D01*
G01*
%TO.N,BOOT*%
X78207680Y-49253680D02*
X82548000Y-53594000D01*
X85725000Y-55250000D02*
X88875000Y-55250000D01*
X70837500Y-48375000D02*
X76086359Y-48375000D01*
X82548000Y-55223000D02*
X82575000Y-55250000D01*
X82575000Y-55250000D02*
X85725000Y-55250000D01*
X82548000Y-53594000D02*
X82548000Y-55223000D01*
X78207700Y-49253660D02*
G75*
G03*
X76086359Y-48375000I-2121300J-2121340D01*
G01*
D37*
%TO.N,+3.3V*%
X69425000Y-43462500D02*
X69425000Y-43252000D01*
X70837500Y-50375000D02*
X71076000Y-50375000D01*
X39596000Y-40640000D02*
X39342894Y-40386893D01*
X93754000Y-54610000D02*
X94007107Y-54863107D01*
X58100000Y-39679786D02*
X58100000Y-39037500D01*
X70485000Y-42319000D02*
X71501000Y-42319000D01*
X75250000Y-55570214D02*
X75250000Y-56212500D01*
X55654000Y-54610000D02*
X55907107Y-54863107D01*
X61369000Y-43942000D02*
X61369000Y-43815000D01*
X56200000Y-55570214D02*
X56200000Y-56212500D01*
D36*
X44704000Y-33340000D02*
X43434000Y-33340000D01*
D37*
X36604000Y-54610000D02*
X36857107Y-54863107D01*
X39050000Y-39679786D02*
X39050000Y-39037500D01*
X70386000Y-52578000D02*
X70215500Y-52578000D01*
X70215500Y-52578000D02*
X69425000Y-51787500D01*
X74704000Y-54610000D02*
X74957107Y-54863107D01*
X65405000Y-53368000D02*
X64389000Y-53368000D01*
X71981000Y-51280000D02*
X71981000Y-51435000D01*
D36*
X44704000Y-33340000D02*
X46687500Y-33340000D01*
D37*
X94300000Y-55570214D02*
X94300000Y-56212500D01*
X71076000Y-50375000D02*
X71981000Y-51280000D01*
X58646000Y-40640000D02*
X58392894Y-40386893D01*
X61369000Y-43815000D02*
X61369000Y-42799000D01*
X96746000Y-40640000D02*
X96492894Y-40386893D01*
D36*
X44704000Y-33340000D02*
X44704000Y-32258000D01*
D37*
X77696000Y-40640000D02*
X77442894Y-40386893D01*
X70358000Y-42319000D02*
X70485000Y-42319000D01*
X37150000Y-55570214D02*
X37150000Y-56212500D01*
X62512500Y-44875000D02*
X62302000Y-44875000D01*
X65425000Y-53348000D02*
X65405000Y-53368000D01*
X77150000Y-39679786D02*
X77150000Y-39037500D01*
X69425000Y-43252000D02*
X70358000Y-42319000D01*
X62302000Y-44875000D02*
X61369000Y-43942000D01*
X96200000Y-39679786D02*
X96200000Y-39037500D01*
X65425000Y-51787500D02*
X65425000Y-53348000D01*
X58100011Y-39679786D02*
G75*
G03*
X58392894Y-40386893I999989J-14D01*
G01*
X56199990Y-55570214D02*
G75*
G03*
X55907107Y-54863107I-999990J14D01*
G01*
X75249990Y-55570214D02*
G75*
G03*
X74957107Y-54863107I-999990J14D01*
G01*
X77150011Y-39679786D02*
G75*
G03*
X77442894Y-40386893I999989J-14D01*
G01*
X39050011Y-39679786D02*
G75*
G03*
X39342894Y-40386893I999989J-14D01*
G01*
X94299990Y-55570214D02*
G75*
G03*
X94007107Y-54863107I-999990J14D01*
G01*
X96200011Y-39679786D02*
G75*
G03*
X96492894Y-40386893I999989J-14D01*
G01*
X37149990Y-55570214D02*
G75*
G03*
X36857107Y-54863107I-999990J14D01*
G01*
D35*
%TO.N,USB_D-*%
X67437000Y-43450500D02*
X67425000Y-43462500D01*
X66421000Y-36322000D02*
X66421000Y-37605680D01*
X65925000Y-35160000D02*
X65925000Y-36022000D01*
X66225000Y-36322000D02*
X66421000Y-36322000D01*
X66421000Y-36322000D02*
X66625000Y-36322000D01*
X67437000Y-39657214D02*
X67437000Y-43450500D01*
X66860340Y-38666340D02*
X67144107Y-38950107D01*
X66925000Y-36022000D02*
X66925000Y-35160000D01*
X66625000Y-36322000D02*
G75*
G03*
X66925000Y-36022000I0J300000D01*
G01*
X65925000Y-36022000D02*
G75*
G03*
X66225000Y-36322000I300000J0D01*
G01*
X66421015Y-37605680D02*
G75*
G03*
X66860340Y-38666340I1499985J-20D01*
G01*
X67436990Y-39657214D02*
G75*
G03*
X67144107Y-38950107I-999990J14D01*
G01*
%TO.N,SWCLK*%
X72390000Y-44704000D02*
X72263000Y-44831000D01*
X72263000Y-44831000D02*
X70881500Y-44831000D01*
X70881500Y-44831000D02*
X70837500Y-44875000D01*
%TO.N,ADC2*%
X58646000Y-53594000D02*
X59573821Y-52666179D01*
X61695141Y-51787500D02*
X63925000Y-51787500D01*
D37*
X58646000Y-53594000D02*
X58646000Y-54580000D01*
D35*
X58646000Y-54580000D02*
X58676000Y-54610000D01*
X61695141Y-51787529D02*
G75*
G03*
X59573821Y-52666179I-41J-2999971D01*
G01*
%TO.N,ADC3*%
X77696000Y-53538641D02*
X77696000Y-53594000D01*
X77696000Y-54580000D02*
X77726000Y-54610000D01*
X72390000Y-49022000D02*
X73179359Y-49022000D01*
X66089213Y-49480787D02*
X65780787Y-49789213D01*
X64366573Y-50375000D02*
X62512500Y-50375000D01*
D37*
X77696000Y-53594000D02*
X77696000Y-54580000D01*
D35*
X69596000Y-48895000D02*
X67503427Y-48895000D01*
X75300680Y-49900680D02*
X76817321Y-51417321D01*
X77695971Y-53538641D02*
G75*
G03*
X76817321Y-51417321I-2999971J41D01*
G01*
X64366573Y-50374980D02*
G75*
G03*
X65780786Y-49789212I27J1999980D01*
G01*
X67503427Y-48895020D02*
G75*
G03*
X66089214Y-49480788I-27J-1999980D01*
G01*
X75300700Y-49900660D02*
G75*
G03*
X73179359Y-49022000I-2121300J-2121340D01*
G01*
%TO.N,ADC4*%
X39596000Y-53594000D02*
X49684359Y-53594000D01*
X55888641Y-49875000D02*
X62512500Y-49875000D01*
D37*
X39596000Y-53594000D02*
X39596000Y-54580000D01*
D35*
X39596000Y-54580000D02*
X39626000Y-54610000D01*
X51805680Y-52715320D02*
X53767321Y-50753679D01*
X55888641Y-49875029D02*
G75*
G03*
X53767321Y-50753679I-41J-2999971D01*
G01*
X49684359Y-53593971D02*
G75*
G03*
X51805680Y-52715320I41J2999971D01*
G01*
%TO.N,ADC5*%
X72390000Y-47752000D02*
X78894359Y-47752000D01*
X85062641Y-51435000D02*
X94007359Y-51435000D01*
X96746000Y-54580000D02*
X96776000Y-54610000D01*
X62512500Y-49374500D02*
X62512500Y-49375000D01*
X96128680Y-52313680D02*
X96453107Y-52638107D01*
X96746000Y-53345214D02*
X96746000Y-53594000D01*
X65835213Y-48464787D02*
X65560787Y-48739213D01*
X64146573Y-49325000D02*
X62562000Y-49325000D01*
X62562000Y-49325000D02*
X62512500Y-49374500D01*
X69596000Y-47879000D02*
X67249427Y-47879000D01*
X81015680Y-48630680D02*
X82941321Y-50556321D01*
D37*
X96746000Y-53594000D02*
X96746000Y-54580000D01*
D35*
X96745990Y-53345214D02*
G75*
G03*
X96453107Y-52638107I-999990J14D01*
G01*
X96128700Y-52313660D02*
G75*
G03*
X94007359Y-51435000I-2121300J-2121340D01*
G01*
X81015700Y-48630660D02*
G75*
G03*
X78894359Y-47752000I-2121300J-2121340D01*
G01*
X64146573Y-49324980D02*
G75*
G03*
X65560786Y-48739212I27J1999980D01*
G01*
X67249427Y-47879020D02*
G75*
G03*
X65835214Y-48464788I-27J-1999980D01*
G01*
X82941301Y-50556341D02*
G75*
G03*
X85062641Y-51435000I2121299J2121341D01*
G01*
%TO.N,ADC6*%
X53332641Y-48875000D02*
X62512500Y-48875000D01*
X50408680Y-50556320D02*
X51211321Y-49753679D01*
X46962641Y-51435000D02*
X48287359Y-51435000D01*
X36604000Y-41656000D02*
X36604000Y-41904786D01*
D37*
X36604000Y-41656000D02*
X36604000Y-40670000D01*
D35*
X36896893Y-42611893D02*
X44841321Y-50556321D01*
X36604000Y-40670000D02*
X36574000Y-40640000D01*
X48287359Y-51434971D02*
G75*
G03*
X50408680Y-50556320I41J2999971D01*
G01*
X53332641Y-48875029D02*
G75*
G03*
X51211321Y-49753679I-41J-2999971D01*
G01*
X44841301Y-50556341D02*
G75*
G03*
X46962641Y-51435000I2121299J2121341D01*
G01*
X36604010Y-41904786D02*
G75*
G03*
X36896893Y-42611893I999990J-14D01*
G01*
%TO.N,ADC7*%
X63826573Y-48375000D02*
X62512500Y-48375000D01*
X69596000Y-46863000D02*
X66995427Y-46863000D01*
X65581213Y-47448787D02*
X65240787Y-47789213D01*
X85062641Y-43815000D02*
X90352359Y-43815000D01*
X81777680Y-45857320D02*
X82941321Y-44693679D01*
D37*
X93754000Y-41656000D02*
X93754000Y-40670000D01*
D35*
X92473680Y-42936320D02*
X93754000Y-41656000D01*
X93754000Y-40670000D02*
X93724000Y-40640000D01*
X72390000Y-46736000D02*
X79656359Y-46736000D01*
X90352359Y-43814971D02*
G75*
G03*
X92473680Y-42936320I41J2999971D01*
G01*
X63826573Y-48374980D02*
G75*
G03*
X65240786Y-47789212I27J1999980D01*
G01*
X85062641Y-43815029D02*
G75*
G03*
X82941321Y-44693679I-41J-2999971D01*
G01*
X79656359Y-46735971D02*
G75*
G03*
X81777680Y-45857320I41J2999971D01*
G01*
X66995427Y-46863020D02*
G75*
G03*
X65581214Y-47448788I-27J-1999980D01*
G01*
%TO.N,ADC8*%
X55654000Y-40670000D02*
X55624000Y-40640000D01*
X55654000Y-41656000D02*
X55654000Y-41711359D01*
X56532680Y-43832680D02*
X59696321Y-46996321D01*
X61817641Y-47875000D02*
X62512500Y-47875000D01*
D37*
X55654000Y-41656000D02*
X55654000Y-40670000D01*
D35*
X55654029Y-41711359D02*
G75*
G03*
X56532680Y-43832680I2999971J-41D01*
G01*
X59696301Y-46996341D02*
G75*
G03*
X61817641Y-47875000I2121299J2121341D01*
G01*
%TO.N,ADC9*%
X74704000Y-42166888D02*
X74704000Y-41656000D01*
D37*
X74704000Y-41656000D02*
X74704000Y-40670000D01*
D35*
X74704000Y-40670000D02*
X74674000Y-40640000D01*
X72635000Y-45475000D02*
X72638529Y-45475000D01*
X72390000Y-45720000D02*
X72635000Y-45475000D01*
X69596000Y-45847000D02*
X66741427Y-45847000D01*
X65327213Y-46432787D02*
X64970787Y-46789213D01*
X63556573Y-47375000D02*
X62512500Y-47375000D01*
X72638529Y-45475000D02*
X73825321Y-44288208D01*
X63556573Y-47374980D02*
G75*
G03*
X64970786Y-46789212I27J1999980D01*
G01*
X73825327Y-44288214D02*
G75*
G03*
X74704000Y-42166888I-2121327J2121314D01*
G01*
X66741427Y-45847020D02*
G75*
G03*
X65327214Y-46432788I-27J-1999980D01*
G01*
%TO.N,OSC_IN*%
X67719000Y-55372000D02*
X67329446Y-55761554D01*
X67571447Y-55224447D02*
X67719000Y-55372000D01*
X68033000Y-58508000D02*
X68283000Y-58508000D01*
X67425000Y-51787500D02*
X67425000Y-54870893D01*
X67183000Y-56115107D02*
X67183000Y-57450893D01*
X67329447Y-57804447D02*
X68033000Y-58508000D01*
X67425005Y-54870893D02*
G75*
G03*
X67571447Y-55224447I499995J-7D01*
G01*
X67329443Y-55761551D02*
G75*
G03*
X67183000Y-56115107I353557J-353549D01*
G01*
X67183005Y-57450893D02*
G75*
G03*
X67329447Y-57804447I499995J-7D01*
G01*
%TO.N,OSC_OUT*%
X66925000Y-51787500D02*
X66925000Y-54886893D01*
X66778553Y-55240447D02*
X66647000Y-55372000D01*
X66647000Y-56808000D02*
X66083000Y-56808000D01*
X66647000Y-55372000D02*
X66647000Y-56808000D01*
X66778556Y-55240450D02*
G75*
G03*
X66925000Y-54886893I-353556J353550D01*
G01*
D37*
%TO.N,Net-(HALL1-OUT)*%
X37150000Y-39037500D02*
X37150000Y-39781786D01*
X37442893Y-40488893D02*
X37594000Y-40640000D01*
X37150010Y-39781786D02*
G75*
G03*
X37442893Y-40488893I999990J-14D01*
G01*
%TO.N,Net-(HALL2-OUT)*%
X56492893Y-40488893D02*
X56644000Y-40640000D01*
X56200000Y-39037500D02*
X56200000Y-39781786D01*
X56200010Y-39781786D02*
G75*
G03*
X56492893Y-40488893I999990J-14D01*
G01*
%TO.N,Net-(HALL3-OUT)*%
X75250000Y-39037500D02*
X75250000Y-39781786D01*
X75542893Y-40488893D02*
X75694000Y-40640000D01*
X75250010Y-39781786D02*
G75*
G03*
X75542893Y-40488893I999990J-14D01*
G01*
%TO.N,Net-(HALL4-OUT)*%
X94592893Y-40488893D02*
X94744000Y-40640000D01*
X94300000Y-39037500D02*
X94300000Y-39781786D01*
X94300010Y-39781786D02*
G75*
G03*
X94592893Y-40488893I999990J-14D01*
G01*
%TO.N,Net-(HALL5-OUT)*%
X39050000Y-56212500D02*
X39050000Y-55468214D01*
X38757107Y-54761107D02*
X38606000Y-54610000D01*
X39049990Y-55468214D02*
G75*
G03*
X38757107Y-54761107I-999990J14D01*
G01*
%TO.N,Net-(HALL6-OUT)*%
X57807107Y-54761107D02*
X57656000Y-54610000D01*
X58100000Y-56212500D02*
X58100000Y-55468214D01*
X58099990Y-55468214D02*
G75*
G03*
X57807107Y-54761107I-999990J14D01*
G01*
%TO.N,Net-(HALL7-OUT)*%
X76857107Y-54761107D02*
X76706000Y-54610000D01*
X77150000Y-56212500D02*
X77150000Y-55468214D01*
X77149990Y-55468214D02*
G75*
G03*
X76857107Y-54761107I-999990J14D01*
G01*
%TO.N,Net-(HALL8-OUT)*%
X95907107Y-54761107D02*
X95756000Y-54610000D01*
X96200000Y-56212500D02*
X96200000Y-55468214D01*
X96199990Y-55468214D02*
G75*
G03*
X95907107Y-54761107I-999990J14D01*
G01*
%TD*%
%TA.AperFunction,Conductor*%
%TO.N,+3.3V*%
G36*
X70235191Y-28895185D02*
G01*
X70280946Y-28947989D01*
X70290890Y-29017147D01*
X70261865Y-29080703D01*
X70253600Y-29089357D01*
X70231947Y-29109941D01*
X70231946Y-29109942D01*
X70115705Y-29276949D01*
X70035459Y-29463943D01*
X69994500Y-29663258D01*
X69994500Y-30415743D01*
X70009925Y-30567439D01*
X70070837Y-30761579D01*
X70070844Y-30761594D01*
X70169589Y-30939499D01*
X70169592Y-30939504D01*
X70302132Y-31093893D01*
X70302134Y-31093895D01*
X70463037Y-31218445D01*
X70463038Y-31218445D01*
X70463042Y-31218448D01*
X70645729Y-31308060D01*
X70842715Y-31359063D01*
X71045936Y-31369369D01*
X71247071Y-31338556D01*
X71437887Y-31267886D01*
X71610571Y-31160252D01*
X71758053Y-31020059D01*
X71874295Y-30853049D01*
X71907431Y-30775833D01*
X71951957Y-30721991D01*
X72018525Y-30700768D01*
X72086000Y-30718903D01*
X72125695Y-30757694D01*
X72137354Y-30775835D01*
X72145539Y-30788571D01*
X72292651Y-30958348D01*
X72462430Y-31105462D01*
X72462436Y-31105466D01*
X72651405Y-31226909D01*
X72651413Y-31226913D01*
X72651417Y-31226916D01*
X72651420Y-31226917D01*
X72651423Y-31226919D01*
X72855766Y-31320240D01*
X72855772Y-31320242D01*
X72987988Y-31359063D01*
X73071313Y-31383529D01*
X73293676Y-31415500D01*
X73349827Y-31415500D01*
X101810500Y-31415500D01*
X101877539Y-31435185D01*
X101923294Y-31487989D01*
X101934500Y-31539500D01*
X101934500Y-63710500D01*
X101914815Y-63777539D01*
X101862011Y-63823294D01*
X101810500Y-63834500D01*
X31539500Y-63834500D01*
X31472461Y-63814815D01*
X31426706Y-63762011D01*
X31415500Y-63710500D01*
X31415500Y-57097401D01*
X31915746Y-57097401D01*
X31925745Y-57307327D01*
X31975296Y-57511578D01*
X31975298Y-57511582D01*
X32062598Y-57702743D01*
X32062601Y-57702748D01*
X32062602Y-57702750D01*
X32062604Y-57702753D01*
X32174670Y-57860128D01*
X32184515Y-57873953D01*
X32184520Y-57873959D01*
X32336620Y-58018985D01*
X32431578Y-58080011D01*
X32513428Y-58132613D01*
X32708543Y-58210725D01*
X32811728Y-58230612D01*
X32914914Y-58250500D01*
X32914915Y-58250500D01*
X33072419Y-58250500D01*
X33072425Y-58250500D01*
X33229218Y-58235528D01*
X33430875Y-58176316D01*
X33617682Y-58080011D01*
X33782886Y-57950092D01*
X33920519Y-57791256D01*
X34025604Y-57609244D01*
X34094344Y-57410633D01*
X34124254Y-57202602D01*
X34114254Y-56992670D01*
X34064704Y-56788424D01*
X34064701Y-56788417D01*
X33977401Y-56597256D01*
X33977398Y-56597251D01*
X33977397Y-56597250D01*
X33977396Y-56597247D01*
X33855486Y-56426048D01*
X33855484Y-56426046D01*
X33855479Y-56426040D01*
X33703379Y-56281014D01*
X33526574Y-56167388D01*
X33501545Y-56157368D01*
X33399107Y-56116358D01*
X33331455Y-56089274D01*
X33125086Y-56049500D01*
X33125085Y-56049500D01*
X32967575Y-56049500D01*
X32810803Y-56064470D01*
X32810782Y-56064472D01*
X32810778Y-56064473D01*
X32609127Y-56123683D01*
X32422313Y-56219991D01*
X32257116Y-56349905D01*
X32257112Y-56349909D01*
X32119478Y-56508746D01*
X32014398Y-56690750D01*
X31945656Y-56889365D01*
X31945656Y-56889367D01*
X31930804Y-56992670D01*
X31915746Y-57097401D01*
X31415500Y-57097401D01*
X31415500Y-54460000D01*
X35824000Y-54460000D01*
X36454000Y-54460000D01*
X36454000Y-53800000D01*
X36453999Y-53799999D01*
X36399363Y-53800000D01*
X36363089Y-53802854D01*
X36207803Y-53847969D01*
X36068625Y-53930278D01*
X36068616Y-53930285D01*
X35954285Y-54044616D01*
X35954278Y-54044625D01*
X35871969Y-54183803D01*
X35826854Y-54339089D01*
X35826854Y-54339092D01*
X35824000Y-54375355D01*
X35824000Y-54460000D01*
X31415500Y-54460000D01*
X31415500Y-40889169D01*
X35803500Y-40889169D01*
X35803501Y-40889191D01*
X35806335Y-40925205D01*
X35851129Y-41079388D01*
X35851132Y-41079396D01*
X35868406Y-41108604D01*
X35885589Y-41176328D01*
X35872339Y-41221463D01*
X35874605Y-41222444D01*
X35871504Y-41229610D01*
X35826357Y-41385002D01*
X35826356Y-41385008D01*
X35823500Y-41421302D01*
X35823500Y-41890697D01*
X35826356Y-41926991D01*
X35826357Y-41926997D01*
X35871504Y-42082390D01*
X35871505Y-42082393D01*
X35951910Y-42218352D01*
X35953883Y-42221687D01*
X36037045Y-42304849D01*
X36069138Y-42360438D01*
X36085187Y-42420338D01*
X36085189Y-42420343D01*
X36085190Y-42420346D01*
X36165476Y-42614181D01*
X36270376Y-42795878D01*
X36395845Y-42959396D01*
X36398097Y-42962330D01*
X36398101Y-42962335D01*
X36420698Y-42984931D01*
X36442790Y-43007024D01*
X36442820Y-43007056D01*
X44365149Y-50929384D01*
X44379740Y-50943975D01*
X44379791Y-50944069D01*
X44541757Y-51106031D01*
X44541762Y-51106035D01*
X44541763Y-51106036D01*
X44815229Y-51330459D01*
X44815233Y-51330462D01*
X44932776Y-51409000D01*
X45109375Y-51526997D01*
X45421369Y-51693756D01*
X45748206Y-51829132D01*
X46046329Y-51919562D01*
X46086646Y-51931792D01*
X46086739Y-51931820D01*
X46433706Y-52000832D01*
X46785767Y-52035502D01*
X46962649Y-52035500D01*
X48287351Y-52035500D01*
X48326720Y-52035500D01*
X48328347Y-52035500D01*
X48329213Y-52035471D01*
X48464232Y-52035473D01*
X48816290Y-52000803D01*
X49163255Y-51931792D01*
X49501785Y-51829105D01*
X49828619Y-51693730D01*
X50140611Y-51526971D01*
X50434755Y-51330435D01*
X50708219Y-51106014D01*
X50796973Y-51017259D01*
X50796979Y-51017256D01*
X50833293Y-50980941D01*
X50833294Y-50980942D01*
X50884852Y-50929384D01*
X50884852Y-50929382D01*
X50895056Y-50919179D01*
X50895059Y-50919174D01*
X51634712Y-50179522D01*
X51637204Y-50177166D01*
X51833991Y-50001309D01*
X51839400Y-49996996D01*
X52053210Y-49845294D01*
X52059063Y-49841617D01*
X52288490Y-49714820D01*
X52294742Y-49711809D01*
X52536922Y-49611499D01*
X52543472Y-49609207D01*
X52795357Y-49536644D01*
X52802111Y-49535101D01*
X53060557Y-49491193D01*
X53067437Y-49490418D01*
X53331435Y-49475596D01*
X53334882Y-49475500D01*
X53405547Y-49475501D01*
X53405551Y-49475500D01*
X54115702Y-49475500D01*
X54182741Y-49495185D01*
X54228496Y-49547989D01*
X54238440Y-49617147D01*
X54209415Y-49680703D01*
X54174154Y-49708859D01*
X54035394Y-49783025D01*
X54035388Y-49783028D01*
X53741250Y-49979560D01*
X53741243Y-49979565D01*
X53467788Y-50203980D01*
X53467782Y-50203985D01*
X53467783Y-50203985D01*
X53370538Y-50301226D01*
X53370536Y-50301229D01*
X53366208Y-50305557D01*
X53366207Y-50305556D01*
X51409738Y-52262027D01*
X51382285Y-52289478D01*
X51379758Y-52291866D01*
X51183025Y-52467675D01*
X51177585Y-52472013D01*
X50963823Y-52623682D01*
X50957931Y-52627385D01*
X50728516Y-52754173D01*
X50722247Y-52757192D01*
X50480080Y-52857498D01*
X50473512Y-52859796D01*
X50221650Y-52932353D01*
X50214867Y-52933901D01*
X50139200Y-52946757D01*
X49956461Y-52977803D01*
X49949547Y-52978582D01*
X49685592Y-52993401D01*
X49682116Y-52993499D01*
X49607714Y-52993499D01*
X49607698Y-52993500D01*
X40262665Y-52993500D01*
X40195626Y-52973815D01*
X40174983Y-52957180D01*
X40131691Y-52913887D01*
X40131683Y-52913881D01*
X40036344Y-52857498D01*
X39992394Y-52831506D01*
X39992393Y-52831505D01*
X39992392Y-52831505D01*
X39992389Y-52831504D01*
X39836996Y-52786357D01*
X39836990Y-52786356D01*
X39800696Y-52783500D01*
X39800689Y-52783500D01*
X39391309Y-52783500D01*
X39391301Y-52783500D01*
X39355007Y-52786356D01*
X39355001Y-52786357D01*
X39199609Y-52831504D01*
X39199598Y-52831508D01*
X39179114Y-52843622D01*
X39111390Y-52860801D01*
X39052879Y-52843620D01*
X39032395Y-52831506D01*
X39032389Y-52831504D01*
X38876996Y-52786357D01*
X38876990Y-52786356D01*
X38840696Y-52783500D01*
X38840689Y-52783500D01*
X38431309Y-52783500D01*
X38431301Y-52783500D01*
X38395007Y-52786356D01*
X38395001Y-52786357D01*
X38239608Y-52831504D01*
X38239607Y-52831504D01*
X38106607Y-52910159D01*
X38038883Y-52927340D01*
X37977515Y-52908420D01*
X37913522Y-52868211D01*
X37913518Y-52868209D01*
X37743262Y-52808633D01*
X37743249Y-52808630D01*
X37564004Y-52788435D01*
X37563996Y-52788435D01*
X37384750Y-52808630D01*
X37384745Y-52808631D01*
X37214476Y-52868211D01*
X37061737Y-52964184D01*
X36934184Y-53091737D01*
X36838211Y-53244476D01*
X36778631Y-53414745D01*
X36778630Y-53414750D01*
X36758435Y-53593996D01*
X36758435Y-53594004D01*
X36772159Y-53715815D01*
X36760104Y-53784637D01*
X36754000Y-53793147D01*
X36754000Y-54636000D01*
X36734315Y-54703039D01*
X36681511Y-54748794D01*
X36630000Y-54760000D01*
X35824001Y-54760000D01*
X35824001Y-54844649D01*
X35826854Y-54880910D01*
X35871969Y-55036196D01*
X35954278Y-55175374D01*
X35954285Y-55175383D01*
X36068616Y-55289714D01*
X36068625Y-55289721D01*
X36207804Y-55372031D01*
X36264289Y-55388441D01*
X36323175Y-55426047D01*
X36352382Y-55489519D01*
X36353313Y-55517244D01*
X36350268Y-55555946D01*
X36327244Y-55618725D01*
X36321997Y-55626004D01*
X36195000Y-55879998D01*
X36195000Y-58420001D01*
X36321997Y-58673997D01*
X36322000Y-58674000D01*
X36576000Y-58928000D01*
X36703000Y-58991500D01*
X36829999Y-59055000D01*
X36830000Y-59055000D01*
X37184298Y-59055000D01*
X37251337Y-59074685D01*
X37297092Y-59127489D01*
X37307518Y-59192884D01*
X37294435Y-59308997D01*
X37294435Y-59309003D01*
X37314630Y-59488249D01*
X37314631Y-59488254D01*
X37374211Y-59658523D01*
X37458135Y-59792086D01*
X37470184Y-59811262D01*
X37597738Y-59938816D01*
X37750478Y-60034789D01*
X37775653Y-60043598D01*
X37920745Y-60094368D01*
X37920750Y-60094369D01*
X38099996Y-60114565D01*
X38100000Y-60114565D01*
X38100004Y-60114565D01*
X38279249Y-60094369D01*
X38279252Y-60094368D01*
X38279255Y-60094368D01*
X38449522Y-60034789D01*
X38602262Y-59938816D01*
X38729816Y-59811262D01*
X38825789Y-59658522D01*
X38885368Y-59488255D01*
X38885369Y-59488249D01*
X38905565Y-59309003D01*
X38905565Y-59308997D01*
X38892482Y-59192884D01*
X38904536Y-59124062D01*
X38951885Y-59072682D01*
X39015702Y-59055000D01*
X39370001Y-59055000D01*
X39496999Y-58991500D01*
X39624000Y-58928000D01*
X39878000Y-58674000D01*
X39941500Y-58546998D01*
X40005000Y-58420001D01*
X40005000Y-57097401D01*
X42075746Y-57097401D01*
X42085745Y-57307327D01*
X42135296Y-57511578D01*
X42135298Y-57511582D01*
X42222598Y-57702743D01*
X42222601Y-57702748D01*
X42222602Y-57702750D01*
X42222604Y-57702753D01*
X42334670Y-57860128D01*
X42344515Y-57873953D01*
X42344520Y-57873959D01*
X42496620Y-58018985D01*
X42591578Y-58080011D01*
X42673428Y-58132613D01*
X42868543Y-58210725D01*
X42971728Y-58230612D01*
X43074914Y-58250500D01*
X43074915Y-58250500D01*
X43232419Y-58250500D01*
X43232425Y-58250500D01*
X43389218Y-58235528D01*
X43590875Y-58176316D01*
X43777682Y-58080011D01*
X43942886Y-57950092D01*
X44080519Y-57791256D01*
X44185604Y-57609244D01*
X44254344Y-57410633D01*
X44284254Y-57202602D01*
X44279243Y-57097401D01*
X50965746Y-57097401D01*
X50975745Y-57307327D01*
X51025296Y-57511578D01*
X51025298Y-57511582D01*
X51112598Y-57702743D01*
X51112601Y-57702748D01*
X51112602Y-57702750D01*
X51112604Y-57702753D01*
X51224670Y-57860128D01*
X51234515Y-57873953D01*
X51234520Y-57873959D01*
X51386620Y-58018985D01*
X51481578Y-58080011D01*
X51563428Y-58132613D01*
X51758543Y-58210725D01*
X51861729Y-58230612D01*
X51964914Y-58250500D01*
X51964915Y-58250500D01*
X52122419Y-58250500D01*
X52122425Y-58250500D01*
X52279218Y-58235528D01*
X52480875Y-58176316D01*
X52667682Y-58080011D01*
X52832886Y-57950092D01*
X52970519Y-57791256D01*
X53075604Y-57609244D01*
X53144344Y-57410633D01*
X53174254Y-57202602D01*
X53164254Y-56992670D01*
X53114704Y-56788424D01*
X53114701Y-56788417D01*
X53027401Y-56597256D01*
X53027398Y-56597251D01*
X53027397Y-56597250D01*
X53027396Y-56597247D01*
X52905486Y-56426048D01*
X52905484Y-56426046D01*
X52905479Y-56426040D01*
X52753379Y-56281014D01*
X52576574Y-56167388D01*
X52551545Y-56157368D01*
X52449107Y-56116358D01*
X52381455Y-56089274D01*
X52175086Y-56049500D01*
X52175085Y-56049500D01*
X52017575Y-56049500D01*
X51860803Y-56064470D01*
X51860782Y-56064472D01*
X51860778Y-56064473D01*
X51659127Y-56123683D01*
X51472313Y-56219991D01*
X51307116Y-56349905D01*
X51307112Y-56349909D01*
X51169478Y-56508746D01*
X51064398Y-56690750D01*
X50995656Y-56889365D01*
X50995656Y-56889367D01*
X50980804Y-56992670D01*
X50965746Y-57097401D01*
X44279243Y-57097401D01*
X44274254Y-56992670D01*
X44224704Y-56788424D01*
X44224701Y-56788417D01*
X44137401Y-56597256D01*
X44137398Y-56597251D01*
X44137397Y-56597250D01*
X44137396Y-56597247D01*
X44015486Y-56426048D01*
X44015484Y-56426046D01*
X44015479Y-56426040D01*
X43863379Y-56281014D01*
X43686574Y-56167388D01*
X43661545Y-56157368D01*
X43559107Y-56116358D01*
X43491455Y-56089274D01*
X43285086Y-56049500D01*
X43285085Y-56049500D01*
X43127575Y-56049500D01*
X42970803Y-56064470D01*
X42970782Y-56064472D01*
X42970778Y-56064473D01*
X42769127Y-56123683D01*
X42582313Y-56219991D01*
X42417116Y-56349905D01*
X42417112Y-56349909D01*
X42279478Y-56508746D01*
X42174398Y-56690750D01*
X42105656Y-56889365D01*
X42105656Y-56889367D01*
X42090804Y-56992670D01*
X42075746Y-57097401D01*
X40005000Y-57097401D01*
X40005000Y-55879998D01*
X39878001Y-55626002D01*
X39873324Y-55619513D01*
X39850297Y-55556731D01*
X39850235Y-55555946D01*
X39848530Y-55534285D01*
X39862897Y-55465908D01*
X39911949Y-55416152D01*
X39937549Y-55405484D01*
X40015392Y-55382869D01*
X40153597Y-55301135D01*
X40267134Y-55187598D01*
X40348868Y-55049393D01*
X40393664Y-54895204D01*
X40396499Y-54859181D01*
X40396498Y-54460000D01*
X54874000Y-54460000D01*
X55504000Y-54460000D01*
X55504000Y-53800000D01*
X55503999Y-53799999D01*
X55449363Y-53800000D01*
X55413089Y-53802854D01*
X55257803Y-53847969D01*
X55118625Y-53930278D01*
X55118616Y-53930285D01*
X55004285Y-54044616D01*
X55004278Y-54044625D01*
X54921969Y-54183803D01*
X54876854Y-54339089D01*
X54876854Y-54339092D01*
X54874000Y-54375355D01*
X54874000Y-54460000D01*
X40396498Y-54460000D01*
X40396498Y-54360820D01*
X40394789Y-54339092D01*
X40393934Y-54328225D01*
X40408300Y-54259848D01*
X40457353Y-54210093D01*
X40517552Y-54194500D01*
X49725347Y-54194500D01*
X49726213Y-54194471D01*
X49861232Y-54194473D01*
X50213290Y-54159803D01*
X50560255Y-54090792D01*
X50898785Y-53988105D01*
X51225619Y-53852730D01*
X51537611Y-53685971D01*
X51831755Y-53489435D01*
X52105219Y-53265014D01*
X52193973Y-53176259D01*
X52193979Y-53176256D01*
X52230293Y-53139941D01*
X52230294Y-53139942D01*
X52281852Y-53088384D01*
X52281852Y-53088382D01*
X52292056Y-53078179D01*
X52292059Y-53078174D01*
X54190712Y-51179522D01*
X54193204Y-51177166D01*
X54389991Y-51001309D01*
X54395400Y-50996996D01*
X54609210Y-50845294D01*
X54615063Y-50841617D01*
X54844490Y-50714820D01*
X54850742Y-50711809D01*
X55092922Y-50611499D01*
X55099472Y-50609207D01*
X55351357Y-50536644D01*
X55358111Y-50535101D01*
X55616557Y-50491193D01*
X55623437Y-50490418D01*
X55887435Y-50475596D01*
X55890882Y-50475500D01*
X55961547Y-50475501D01*
X55961551Y-50475500D01*
X61164146Y-50475500D01*
X61231185Y-50495185D01*
X61276940Y-50547989D01*
X61287085Y-50583313D01*
X61288646Y-50595173D01*
X61289313Y-50600235D01*
X61289313Y-50600236D01*
X61330966Y-50700796D01*
X61347302Y-50740233D01*
X61439549Y-50860451D01*
X61559767Y-50952698D01*
X61559770Y-50952699D01*
X61559771Y-50952700D01*
X61566225Y-50956427D01*
X61614438Y-51006997D01*
X61627657Y-51075605D01*
X61601685Y-51140468D01*
X61544769Y-51180993D01*
X61516371Y-51187213D01*
X61464079Y-51192363D01*
X61166215Y-51221696D01*
X61166210Y-51221696D01*
X60819240Y-51290709D01*
X60819238Y-51290709D01*
X60480713Y-51393395D01*
X60480706Y-51393398D01*
X60153885Y-51528768D01*
X60153881Y-51528769D01*
X59841894Y-51695525D01*
X59841888Y-51695528D01*
X59547750Y-51892060D01*
X59547743Y-51892065D01*
X59274288Y-52116480D01*
X59274282Y-52116485D01*
X59274283Y-52116485D01*
X59177038Y-52213726D01*
X59177036Y-52213729D01*
X59172708Y-52218057D01*
X59172707Y-52218056D01*
X59172704Y-52218060D01*
X58643584Y-52747181D01*
X58582261Y-52780666D01*
X58555903Y-52783500D01*
X58441301Y-52783500D01*
X58405007Y-52786356D01*
X58405001Y-52786357D01*
X58249609Y-52831504D01*
X58249598Y-52831508D01*
X58229114Y-52843622D01*
X58161390Y-52860801D01*
X58102879Y-52843620D01*
X58082395Y-52831506D01*
X58082389Y-52831504D01*
X57926996Y-52786357D01*
X57926990Y-52786356D01*
X57890696Y-52783500D01*
X57890689Y-52783500D01*
X57481309Y-52783500D01*
X57481301Y-52783500D01*
X57445007Y-52786356D01*
X57445001Y-52786357D01*
X57289608Y-52831504D01*
X57289607Y-52831504D01*
X57156607Y-52910159D01*
X57088883Y-52927340D01*
X57027515Y-52908420D01*
X56963522Y-52868211D01*
X56963518Y-52868209D01*
X56793262Y-52808633D01*
X56793249Y-52808630D01*
X56614004Y-52788435D01*
X56613996Y-52788435D01*
X56434750Y-52808630D01*
X56434745Y-52808631D01*
X56264476Y-52868211D01*
X56111737Y-52964184D01*
X55984184Y-53091737D01*
X55888211Y-53244476D01*
X55828631Y-53414745D01*
X55828630Y-53414750D01*
X55808435Y-53593996D01*
X55808435Y-53594004D01*
X55822159Y-53715815D01*
X55810104Y-53784637D01*
X55804000Y-53793147D01*
X55804000Y-54636000D01*
X55784315Y-54703039D01*
X55731511Y-54748794D01*
X55680000Y-54760000D01*
X54874001Y-54760000D01*
X54874001Y-54844649D01*
X54876854Y-54880910D01*
X54921969Y-55036196D01*
X55004278Y-55175374D01*
X55004285Y-55175383D01*
X55118616Y-55289714D01*
X55118625Y-55289721D01*
X55257804Y-55372031D01*
X55314289Y-55388441D01*
X55373175Y-55426047D01*
X55402382Y-55489519D01*
X55403313Y-55517244D01*
X55400268Y-55555946D01*
X55377244Y-55618725D01*
X55371997Y-55626004D01*
X55245000Y-55879998D01*
X55245000Y-58420000D01*
X55289001Y-58508003D01*
X55372000Y-58674000D01*
X55626000Y-58928000D01*
X55753001Y-58991500D01*
X55879999Y-59055000D01*
X55880000Y-59055000D01*
X56234298Y-59055000D01*
X56301337Y-59074685D01*
X56347092Y-59127489D01*
X56357518Y-59192884D01*
X56344435Y-59308997D01*
X56344435Y-59309003D01*
X56364630Y-59488249D01*
X56364631Y-59488254D01*
X56424211Y-59658523D01*
X56508135Y-59792086D01*
X56520184Y-59811262D01*
X56647738Y-59938816D01*
X56800478Y-60034789D01*
X56825653Y-60043598D01*
X56970745Y-60094368D01*
X56970750Y-60094369D01*
X57149996Y-60114565D01*
X57150000Y-60114565D01*
X57150004Y-60114565D01*
X57329249Y-60094369D01*
X57329252Y-60094368D01*
X57329255Y-60094368D01*
X57499522Y-60034789D01*
X57652262Y-59938816D01*
X57779816Y-59811262D01*
X57875789Y-59658522D01*
X57935368Y-59488255D01*
X57935369Y-59488249D01*
X57955565Y-59309003D01*
X57955565Y-59308997D01*
X57942482Y-59192884D01*
X57954536Y-59124062D01*
X58001885Y-59072682D01*
X58065702Y-59055000D01*
X58420001Y-59055000D01*
X58546999Y-58991500D01*
X58674000Y-58928000D01*
X58928000Y-58674000D01*
X59055000Y-58420000D01*
X59055000Y-57097401D01*
X61125746Y-57097401D01*
X61135745Y-57307327D01*
X61185296Y-57511578D01*
X61185298Y-57511582D01*
X61272598Y-57702743D01*
X61272601Y-57702748D01*
X61272602Y-57702750D01*
X61272604Y-57702753D01*
X61384670Y-57860128D01*
X61394515Y-57873953D01*
X61394520Y-57873959D01*
X61546620Y-58018985D01*
X61641578Y-58080011D01*
X61723428Y-58132613D01*
X61918543Y-58210725D01*
X62021729Y-58230612D01*
X62124914Y-58250500D01*
X62124915Y-58250500D01*
X62282419Y-58250500D01*
X62282425Y-58250500D01*
X62439218Y-58235528D01*
X62640875Y-58176316D01*
X62827682Y-58080011D01*
X62992886Y-57950092D01*
X63130519Y-57791256D01*
X63235604Y-57609244D01*
X63304344Y-57410633D01*
X63334254Y-57202602D01*
X63324254Y-56992670D01*
X63274704Y-56788424D01*
X63274701Y-56788417D01*
X63187401Y-56597256D01*
X63187398Y-56597251D01*
X63187397Y-56597250D01*
X63187396Y-56597247D01*
X63065486Y-56426048D01*
X63065484Y-56426046D01*
X63065479Y-56426040D01*
X62913379Y-56281014D01*
X62736574Y-56167388D01*
X62711545Y-56157368D01*
X62609107Y-56116358D01*
X62541455Y-56089274D01*
X62335086Y-56049500D01*
X62335085Y-56049500D01*
X62177575Y-56049500D01*
X62020803Y-56064470D01*
X62020782Y-56064472D01*
X62020778Y-56064473D01*
X61819127Y-56123683D01*
X61632313Y-56219991D01*
X61467116Y-56349905D01*
X61467112Y-56349909D01*
X61329478Y-56508746D01*
X61224398Y-56690750D01*
X61155656Y-56889365D01*
X61155656Y-56889367D01*
X61140804Y-56992670D01*
X61125746Y-57097401D01*
X59055000Y-57097401D01*
X59055000Y-55880000D01*
X59055000Y-55879999D01*
X59055000Y-55879998D01*
X58928001Y-55626002D01*
X58923324Y-55619513D01*
X58900297Y-55556731D01*
X58900235Y-55555946D01*
X58898530Y-55534285D01*
X58912897Y-55465908D01*
X58961949Y-55416152D01*
X58987549Y-55405484D01*
X59065392Y-55382869D01*
X59203597Y-55301135D01*
X59317134Y-55187598D01*
X59398868Y-55049393D01*
X59443664Y-54895204D01*
X59446499Y-54859181D01*
X59446498Y-54360820D01*
X59443664Y-54324796D01*
X59398868Y-54170607D01*
X59381592Y-54141395D01*
X59364409Y-54073673D01*
X59377672Y-54028539D01*
X59375395Y-54027554D01*
X59378488Y-54020402D01*
X59378493Y-54020395D01*
X59423642Y-53864993D01*
X59426499Y-53828690D01*
X59426499Y-53714097D01*
X59446184Y-53647058D01*
X59462813Y-53626421D01*
X59997212Y-53092022D01*
X59999704Y-53089666D01*
X60196491Y-52913809D01*
X60201900Y-52909496D01*
X60415710Y-52757794D01*
X60421563Y-52754117D01*
X60650990Y-52627320D01*
X60657242Y-52624309D01*
X60899422Y-52523999D01*
X60905972Y-52521707D01*
X61157857Y-52449144D01*
X61164611Y-52447601D01*
X61423057Y-52403693D01*
X61429937Y-52402918D01*
X61693935Y-52388096D01*
X61697382Y-52388000D01*
X61768047Y-52388001D01*
X61768051Y-52388000D01*
X63152627Y-52388000D01*
X63219666Y-52407685D01*
X63265421Y-52460489D01*
X63275566Y-52495815D01*
X63289312Y-52600234D01*
X63289313Y-52600236D01*
X63346501Y-52738301D01*
X63347302Y-52740233D01*
X63439549Y-52860451D01*
X63500993Y-52907599D01*
X63552024Y-52946757D01*
X63593226Y-53003185D01*
X63597381Y-53072931D01*
X63595614Y-53079725D01*
X63581856Y-53127082D01*
X63581854Y-53127092D01*
X63579000Y-53163355D01*
X63579000Y-53163370D01*
X63578999Y-53217999D01*
X63579000Y-53218000D01*
X65255000Y-53218000D01*
X65263523Y-53209476D01*
X65274685Y-53171465D01*
X65327489Y-53125710D01*
X65396647Y-53115766D01*
X65460203Y-53144791D01*
X65479337Y-53165645D01*
X65481506Y-53168632D01*
X65504389Y-53227604D01*
X65508632Y-53265255D01*
X65539351Y-53353047D01*
X65542912Y-53422825D01*
X65508183Y-53483452D01*
X65446189Y-53515679D01*
X65422309Y-53518000D01*
X63553852Y-53518000D01*
X63547898Y-53521250D01*
X63507681Y-53523300D01*
X63500001Y-53522435D01*
X63499996Y-53522435D01*
X63320750Y-53542630D01*
X63320745Y-53542631D01*
X63150476Y-53602211D01*
X62997737Y-53698184D01*
X62870184Y-53825737D01*
X62774211Y-53978476D01*
X62714631Y-54148745D01*
X62714630Y-54148750D01*
X62694435Y-54327996D01*
X62694435Y-54328003D01*
X62714630Y-54507249D01*
X62714631Y-54507254D01*
X62774211Y-54677523D01*
X62789676Y-54702135D01*
X62870184Y-54830262D01*
X62997738Y-54957816D01*
X63088080Y-55014581D01*
X63146817Y-55051489D01*
X63150478Y-55053789D01*
X63298668Y-55105643D01*
X63320745Y-55113368D01*
X63320750Y-55113369D01*
X63499996Y-55133565D01*
X63500000Y-55133565D01*
X63500004Y-55133565D01*
X63679249Y-55113369D01*
X63679251Y-55113368D01*
X63679255Y-55113368D01*
X63679258Y-55113366D01*
X63679262Y-55113366D01*
X63856095Y-55051489D01*
X63856888Y-55053757D01*
X63914723Y-55044223D01*
X63955187Y-55058000D01*
X63955449Y-55057397D01*
X63962600Y-55060491D01*
X63962605Y-55060494D01*
X63979106Y-55065288D01*
X64021014Y-55077464D01*
X64079900Y-55115070D01*
X64109106Y-55178542D01*
X64109639Y-55210423D01*
X64091435Y-55371995D01*
X64091435Y-55372003D01*
X64111630Y-55551249D01*
X64111631Y-55551254D01*
X64171211Y-55721523D01*
X64219187Y-55797876D01*
X64267184Y-55874262D01*
X64394738Y-56001816D01*
X64547478Y-56097789D01*
X64717745Y-56157368D01*
X64772385Y-56163524D01*
X64836796Y-56190589D01*
X64876352Y-56248184D01*
X64882500Y-56286744D01*
X64882500Y-57455870D01*
X64882501Y-57455876D01*
X64888909Y-57515484D01*
X64900662Y-57546998D01*
X64905644Y-57616689D01*
X64872158Y-57678012D01*
X64810834Y-57711495D01*
X64798363Y-57713548D01*
X64717749Y-57722630D01*
X64717745Y-57722631D01*
X64547476Y-57782211D01*
X64394737Y-57878184D01*
X64267184Y-58005737D01*
X64171211Y-58158476D01*
X64111631Y-58328745D01*
X64111630Y-58328750D01*
X64091435Y-58507996D01*
X64091435Y-58508003D01*
X64111630Y-58687249D01*
X64111631Y-58687254D01*
X64171211Y-58857523D01*
X64267183Y-59010261D01*
X64267184Y-59010262D01*
X64394738Y-59137816D01*
X64482378Y-59192884D01*
X64518342Y-59215482D01*
X64547478Y-59233789D01*
X64717745Y-59293367D01*
X64717745Y-59293368D01*
X64717749Y-59293369D01*
X64818441Y-59304713D01*
X64859770Y-59309370D01*
X64924184Y-59336436D01*
X64945153Y-59358279D01*
X65025452Y-59465544D01*
X65025455Y-59465547D01*
X65140664Y-59551793D01*
X65140671Y-59551797D01*
X65275517Y-59602091D01*
X65275516Y-59602091D01*
X65282444Y-59602835D01*
X65335127Y-59608500D01*
X66830872Y-59608499D01*
X66890483Y-59602091D01*
X67025331Y-59551796D01*
X67108688Y-59489394D01*
X67174151Y-59464977D01*
X67242425Y-59479828D01*
X67257310Y-59489394D01*
X67340668Y-59551795D01*
X67340671Y-59551797D01*
X67475517Y-59602091D01*
X67475516Y-59602091D01*
X67482444Y-59602835D01*
X67535127Y-59608500D01*
X69030872Y-59608499D01*
X69090483Y-59602091D01*
X69225331Y-59551796D01*
X69340546Y-59465546D01*
X69426796Y-59350331D01*
X69477091Y-59215483D01*
X69483500Y-59155873D01*
X69483499Y-57860128D01*
X69477091Y-57800517D01*
X69465337Y-57769005D01*
X69460353Y-57699314D01*
X69493837Y-57637991D01*
X69555160Y-57604505D01*
X69567610Y-57602454D01*
X69648255Y-57593368D01*
X69818522Y-57533789D01*
X69905997Y-57478824D01*
X69973233Y-57459824D01*
X70040068Y-57480191D01*
X70084763Y-57532307D01*
X70162598Y-57702743D01*
X70162601Y-57702748D01*
X70162602Y-57702750D01*
X70162604Y-57702753D01*
X70274670Y-57860128D01*
X70284515Y-57873953D01*
X70284520Y-57873959D01*
X70436620Y-58018985D01*
X70531578Y-58080011D01*
X70613428Y-58132613D01*
X70808543Y-58210725D01*
X70911729Y-58230612D01*
X71014914Y-58250500D01*
X71014915Y-58250500D01*
X71172419Y-58250500D01*
X71172425Y-58250500D01*
X71329218Y-58235528D01*
X71530875Y-58176316D01*
X71717682Y-58080011D01*
X71882886Y-57950092D01*
X72020519Y-57791256D01*
X72125604Y-57609244D01*
X72194344Y-57410633D01*
X72224254Y-57202602D01*
X72214254Y-56992670D01*
X72164704Y-56788424D01*
X72164701Y-56788417D01*
X72077401Y-56597256D01*
X72077398Y-56597251D01*
X72077397Y-56597250D01*
X72077396Y-56597247D01*
X71955486Y-56426048D01*
X71955484Y-56426046D01*
X71955479Y-56426040D01*
X71803379Y-56281014D01*
X71626574Y-56167388D01*
X71601545Y-56157368D01*
X71499107Y-56116358D01*
X71431455Y-56089274D01*
X71225086Y-56049500D01*
X71225085Y-56049500D01*
X71067575Y-56049500D01*
X70910803Y-56064470D01*
X70910782Y-56064472D01*
X70910778Y-56064473D01*
X70709127Y-56123683D01*
X70522313Y-56219991D01*
X70357116Y-56349905D01*
X70357111Y-56349910D01*
X70333110Y-56377609D01*
X70274331Y-56415383D01*
X70204462Y-56415382D01*
X70145684Y-56377607D01*
X70134408Y-56362383D01*
X70098816Y-56305738D01*
X69971262Y-56178184D01*
X69970759Y-56177681D01*
X69937274Y-56116358D01*
X69942258Y-56046666D01*
X69970759Y-56002319D01*
X70012208Y-55960870D01*
X70098816Y-55874262D01*
X70194789Y-55721522D01*
X70254368Y-55551255D01*
X70261324Y-55489519D01*
X70274565Y-55372003D01*
X70274565Y-55371996D01*
X70254369Y-55192750D01*
X70254368Y-55192745D01*
X70226592Y-55113366D01*
X70194789Y-55022478D01*
X70098816Y-54869738D01*
X69971262Y-54742184D01*
X69908963Y-54703039D01*
X69828735Y-54652628D01*
X69782444Y-54600293D01*
X69771090Y-54537897D01*
X69771499Y-54532700D01*
X69771500Y-54532682D01*
X69771500Y-54460000D01*
X73924000Y-54460000D01*
X74554000Y-54460000D01*
X74554000Y-53800000D01*
X74553999Y-53799999D01*
X74499363Y-53800000D01*
X74463089Y-53802854D01*
X74307803Y-53847969D01*
X74168625Y-53930278D01*
X74168616Y-53930285D01*
X74054285Y-54044616D01*
X74054278Y-54044625D01*
X73971969Y-54183803D01*
X73926854Y-54339089D01*
X73926854Y-54339092D01*
X73924000Y-54375355D01*
X73924000Y-54460000D01*
X69771500Y-54460000D01*
X69771500Y-54123317D01*
X69771499Y-54123302D01*
X69768643Y-54087008D01*
X69768642Y-54087002D01*
X69735400Y-53972587D01*
X69723494Y-53931605D01*
X69711378Y-53911119D01*
X69694196Y-53843396D01*
X69711379Y-53784878D01*
X69723494Y-53764395D01*
X69768643Y-53608993D01*
X69771500Y-53572690D01*
X69771500Y-53428321D01*
X69791185Y-53361282D01*
X69843989Y-53315527D01*
X69913147Y-53305583D01*
X69958622Y-53321590D01*
X69989802Y-53340030D01*
X70145090Y-53385145D01*
X70181362Y-53387999D01*
X70235999Y-53387998D01*
X70236000Y-53387998D01*
X70236000Y-52552000D01*
X70255685Y-52484961D01*
X70308489Y-52439206D01*
X70360000Y-52428000D01*
X70412000Y-52428000D01*
X70479039Y-52447685D01*
X70524794Y-52500489D01*
X70536000Y-52552000D01*
X70536000Y-53387999D01*
X70590624Y-53387999D01*
X70590649Y-53387998D01*
X70626911Y-53385145D01*
X70782194Y-53340032D01*
X70802384Y-53328091D01*
X70870108Y-53310906D01*
X70928629Y-53328089D01*
X70949605Y-53340494D01*
X70990587Y-53352400D01*
X71105002Y-53385642D01*
X71105005Y-53385642D01*
X71105007Y-53385643D01*
X71141310Y-53388500D01*
X71141318Y-53388500D01*
X71550682Y-53388500D01*
X71550690Y-53388500D01*
X71586993Y-53385643D01*
X71586995Y-53385642D01*
X71586997Y-53385642D01*
X71627975Y-53373736D01*
X71742395Y-53340494D01*
X71748127Y-53337103D01*
X71815848Y-53319916D01*
X71852210Y-53326790D01*
X71956737Y-53363366D01*
X71956743Y-53363367D01*
X71956745Y-53363368D01*
X71956746Y-53363368D01*
X71956750Y-53363369D01*
X72135996Y-53383565D01*
X72136000Y-53383565D01*
X72136004Y-53383565D01*
X72315249Y-53363369D01*
X72315252Y-53363368D01*
X72315255Y-53363368D01*
X72485522Y-53303789D01*
X72638262Y-53207816D01*
X72765816Y-53080262D01*
X72861789Y-52927522D01*
X72921368Y-52757255D01*
X72921375Y-52757192D01*
X72941565Y-52578003D01*
X72941565Y-52577996D01*
X72921369Y-52398750D01*
X72921368Y-52398745D01*
X72917618Y-52388029D01*
X72861789Y-52228478D01*
X72855240Y-52218056D01*
X72765815Y-52075737D01*
X72720931Y-52030853D01*
X72687446Y-51969530D01*
X72692430Y-51899838D01*
X72701882Y-51880048D01*
X72713031Y-51861196D01*
X72758144Y-51705913D01*
X72758145Y-51705907D01*
X72760999Y-51669644D01*
X72761000Y-51669629D01*
X72761000Y-51585000D01*
X71955000Y-51585000D01*
X71887961Y-51565315D01*
X71842206Y-51512511D01*
X71831000Y-51461000D01*
X71831000Y-51409000D01*
X71850685Y-51341961D01*
X71903489Y-51296206D01*
X71955000Y-51285000D01*
X72760999Y-51285000D01*
X72760999Y-51200375D01*
X72760998Y-51200350D01*
X72758145Y-51164089D01*
X72713030Y-51008803D01*
X72630721Y-50869625D01*
X72630714Y-50869616D01*
X72516383Y-50755285D01*
X72516374Y-50755278D01*
X72377196Y-50672969D01*
X72221909Y-50627854D01*
X72188509Y-50625226D01*
X72123220Y-50600342D01*
X72081749Y-50544111D01*
X72081018Y-50537463D01*
X72070088Y-50525000D01*
X72035635Y-50525000D01*
X71968596Y-50505315D01*
X71922841Y-50452511D01*
X71912897Y-50383353D01*
X71937259Y-50325514D01*
X71937422Y-50325302D01*
X71977161Y-50273513D01*
X72033588Y-50232311D01*
X72069105Y-50226120D01*
X72070088Y-50224999D01*
X72059196Y-50142270D01*
X72061409Y-50108529D01*
X72059626Y-50108295D01*
X72061524Y-50093877D01*
X72075500Y-49987720D01*
X72075500Y-49930885D01*
X72095185Y-49863847D01*
X72147989Y-49818092D01*
X72213383Y-49807666D01*
X72389996Y-49827565D01*
X72390000Y-49827565D01*
X72390004Y-49827565D01*
X72569249Y-49807369D01*
X72569252Y-49807368D01*
X72569255Y-49807368D01*
X72739522Y-49747789D01*
X72892262Y-49651816D01*
X72892267Y-49651810D01*
X72895097Y-49649555D01*
X72897275Y-49648665D01*
X72898158Y-49648111D01*
X72898255Y-49648265D01*
X72959783Y-49623145D01*
X72972412Y-49622500D01*
X73106449Y-49622500D01*
X73106453Y-49622501D01*
X73177626Y-49622500D01*
X73181086Y-49622596D01*
X73444564Y-49637389D01*
X73451448Y-49638165D01*
X73709873Y-49682070D01*
X73716653Y-49683617D01*
X73968531Y-49756178D01*
X73975094Y-49758475D01*
X74217264Y-49858781D01*
X74223528Y-49861797D01*
X74452943Y-49988588D01*
X74458813Y-49992275D01*
X74672609Y-50143967D01*
X74678036Y-50148295D01*
X74857505Y-50308675D01*
X74874392Y-50323766D01*
X74876902Y-50326138D01*
X74899447Y-50348682D01*
X76391459Y-51840694D01*
X76393849Y-51843222D01*
X76401882Y-51852211D01*
X76569680Y-52039980D01*
X76574011Y-52045412D01*
X76725696Y-52259198D01*
X76729389Y-52265076D01*
X76856173Y-52494479D01*
X76859192Y-52500748D01*
X76905293Y-52612049D01*
X76912760Y-52681518D01*
X76881485Y-52743997D01*
X76821395Y-52779649D01*
X76790731Y-52783500D01*
X76531301Y-52783500D01*
X76495007Y-52786356D01*
X76495001Y-52786357D01*
X76339608Y-52831504D01*
X76339607Y-52831504D01*
X76206607Y-52910159D01*
X76138883Y-52927340D01*
X76077515Y-52908420D01*
X76013522Y-52868211D01*
X76013518Y-52868209D01*
X75843262Y-52808633D01*
X75843249Y-52808630D01*
X75664004Y-52788435D01*
X75663996Y-52788435D01*
X75484750Y-52808630D01*
X75484745Y-52808631D01*
X75314476Y-52868211D01*
X75161737Y-52964184D01*
X75034184Y-53091737D01*
X74938211Y-53244476D01*
X74878631Y-53414745D01*
X74878630Y-53414750D01*
X74858435Y-53593996D01*
X74858435Y-53594004D01*
X74872159Y-53715815D01*
X74860104Y-53784637D01*
X74854000Y-53793147D01*
X74854000Y-54636000D01*
X74834315Y-54703039D01*
X74781511Y-54748794D01*
X74730000Y-54760000D01*
X73924001Y-54760000D01*
X73924001Y-54844649D01*
X73926854Y-54880910D01*
X73971969Y-55036196D01*
X74054278Y-55175374D01*
X74054285Y-55175383D01*
X74168616Y-55289714D01*
X74168625Y-55289721D01*
X74307804Y-55372031D01*
X74364289Y-55388441D01*
X74423175Y-55426047D01*
X74452382Y-55489519D01*
X74453313Y-55517244D01*
X74450268Y-55555946D01*
X74427244Y-55618725D01*
X74421997Y-55626004D01*
X74295000Y-55879999D01*
X74295000Y-58420000D01*
X74422000Y-58674000D01*
X74675999Y-58927999D01*
X74676003Y-58928002D01*
X74929999Y-59055000D01*
X74930000Y-59055000D01*
X75284298Y-59055000D01*
X75351337Y-59074685D01*
X75397092Y-59127489D01*
X75407518Y-59192884D01*
X75394435Y-59308997D01*
X75394435Y-59309003D01*
X75414630Y-59488249D01*
X75414631Y-59488254D01*
X75474211Y-59658523D01*
X75558135Y-59792086D01*
X75570184Y-59811262D01*
X75697738Y-59938816D01*
X75850478Y-60034789D01*
X75875653Y-60043598D01*
X76020745Y-60094368D01*
X76020750Y-60094369D01*
X76199996Y-60114565D01*
X76200000Y-60114565D01*
X76200004Y-60114565D01*
X76379249Y-60094369D01*
X76379252Y-60094368D01*
X76379255Y-60094368D01*
X76549522Y-60034789D01*
X76702262Y-59938816D01*
X76829816Y-59811262D01*
X76925789Y-59658522D01*
X76985368Y-59488255D01*
X76985369Y-59488249D01*
X77005565Y-59309003D01*
X77005565Y-59308997D01*
X76993284Y-59200000D01*
X81225000Y-59200000D01*
X81225000Y-59597844D01*
X81231401Y-59657372D01*
X81231403Y-59657379D01*
X81281645Y-59792086D01*
X81281649Y-59792093D01*
X81367809Y-59907187D01*
X81367812Y-59907190D01*
X81482906Y-59993350D01*
X81482913Y-59993354D01*
X81617620Y-60043596D01*
X81617627Y-60043598D01*
X81677155Y-60049999D01*
X81677172Y-60050000D01*
X82425000Y-60050000D01*
X82425000Y-59200000D01*
X82725000Y-59200000D01*
X82725000Y-60050000D01*
X83472828Y-60050000D01*
X83472844Y-60049999D01*
X83532372Y-60043598D01*
X83532379Y-60043596D01*
X83667086Y-59993354D01*
X83667093Y-59993350D01*
X83782187Y-59907190D01*
X83782190Y-59907187D01*
X83868350Y-59792093D01*
X83868354Y-59792086D01*
X83918596Y-59657379D01*
X83918598Y-59657372D01*
X83924999Y-59597844D01*
X83925000Y-59597827D01*
X83925000Y-59200000D01*
X87525000Y-59200000D01*
X87525000Y-59597844D01*
X87531401Y-59657372D01*
X87531403Y-59657379D01*
X87581645Y-59792086D01*
X87581649Y-59792093D01*
X87667809Y-59907187D01*
X87667812Y-59907190D01*
X87782906Y-59993350D01*
X87782913Y-59993354D01*
X87917620Y-60043596D01*
X87917627Y-60043598D01*
X87977155Y-60049999D01*
X87977172Y-60050000D01*
X88725000Y-60050000D01*
X88725000Y-59200000D01*
X89025000Y-59200000D01*
X89025000Y-60050000D01*
X89772828Y-60050000D01*
X89772844Y-60049999D01*
X89832372Y-60043598D01*
X89832379Y-60043596D01*
X89967086Y-59993354D01*
X89967093Y-59993350D01*
X90082187Y-59907190D01*
X90082190Y-59907187D01*
X90168350Y-59792093D01*
X90168354Y-59792086D01*
X90218596Y-59657379D01*
X90218598Y-59657372D01*
X90224999Y-59597844D01*
X90225000Y-59597827D01*
X90225000Y-59200000D01*
X89025000Y-59200000D01*
X88725000Y-59200000D01*
X87525000Y-59200000D01*
X83925000Y-59200000D01*
X82725000Y-59200000D01*
X82425000Y-59200000D01*
X81225000Y-59200000D01*
X76993284Y-59200000D01*
X76992482Y-59192884D01*
X77004536Y-59124062D01*
X77051885Y-59072682D01*
X77115702Y-59055000D01*
X77470001Y-59055000D01*
X77723997Y-58928002D01*
X77723998Y-58928000D01*
X77724000Y-58928000D01*
X77978000Y-58674000D01*
X78105000Y-58420000D01*
X78105000Y-55880000D01*
X78105000Y-55879999D01*
X78105000Y-55879998D01*
X77978001Y-55626002D01*
X77973324Y-55619513D01*
X77950297Y-55556731D01*
X77950235Y-55555946D01*
X77948530Y-55534285D01*
X77962897Y-55465908D01*
X78011949Y-55416152D01*
X78037549Y-55405484D01*
X78115392Y-55382869D01*
X78253597Y-55301135D01*
X78367134Y-55187598D01*
X78448868Y-55049393D01*
X78493664Y-54895204D01*
X78496499Y-54859181D01*
X78496498Y-54360820D01*
X78493664Y-54324796D01*
X78448868Y-54170607D01*
X78431592Y-54141395D01*
X78414409Y-54073673D01*
X78427672Y-54028539D01*
X78425395Y-54027554D01*
X78428488Y-54020402D01*
X78428493Y-54020395D01*
X78473642Y-53864993D01*
X78476499Y-53828690D01*
X78476499Y-53359310D01*
X78473642Y-53323007D01*
X78473230Y-53321590D01*
X78428494Y-53167609D01*
X78428493Y-53167606D01*
X78428493Y-53167605D01*
X78346116Y-53028313D01*
X78346114Y-53028311D01*
X78346111Y-53028307D01*
X78272087Y-52954283D01*
X78238602Y-52892960D01*
X78238150Y-52890792D01*
X78231100Y-52855345D01*
X78192792Y-52662746D01*
X78188903Y-52649926D01*
X78090104Y-52324213D01*
X78090101Y-52324206D01*
X78050450Y-52228478D01*
X77954730Y-51997381D01*
X77787972Y-51685390D01*
X77707742Y-51565315D01*
X77591439Y-51391250D01*
X77591434Y-51391243D01*
X77367014Y-51117782D01*
X77269772Y-51020537D01*
X77269772Y-51020536D01*
X77269771Y-51020536D01*
X75783922Y-49534687D01*
X75783920Y-49534684D01*
X75761633Y-49512397D01*
X75761582Y-49512304D01*
X75600243Y-49350969D01*
X75468733Y-49243044D01*
X75410620Y-49195353D01*
X75371286Y-49137609D01*
X75369415Y-49067764D01*
X75405601Y-49007996D01*
X75468357Y-48977279D01*
X75489285Y-48975500D01*
X76013449Y-48975500D01*
X76013453Y-48975501D01*
X76084626Y-48975500D01*
X76088086Y-48975596D01*
X76351564Y-48990389D01*
X76358448Y-48991165D01*
X76616873Y-49035070D01*
X76623653Y-49036617D01*
X76875531Y-49109178D01*
X76882094Y-49111475D01*
X77124264Y-49211781D01*
X77130528Y-49214797D01*
X77359943Y-49341588D01*
X77365813Y-49345275D01*
X77579609Y-49496967D01*
X77585036Y-49501295D01*
X77781384Y-49676759D01*
X77783911Y-49679148D01*
X77800497Y-49695733D01*
X77800512Y-49695747D01*
X81741181Y-53636416D01*
X81774666Y-53697739D01*
X81777500Y-53724096D01*
X81777500Y-53843168D01*
X81777501Y-53843192D01*
X81780335Y-53879205D01*
X81825129Y-54033388D01*
X81825130Y-54033391D01*
X81842274Y-54062380D01*
X81859455Y-54130104D01*
X81837295Y-54196366D01*
X81782829Y-54240129D01*
X81735543Y-54249500D01*
X81677130Y-54249500D01*
X81677123Y-54249501D01*
X81617516Y-54255908D01*
X81482671Y-54306202D01*
X81482664Y-54306206D01*
X81367455Y-54392452D01*
X81367452Y-54392455D01*
X81281206Y-54507664D01*
X81281202Y-54507671D01*
X81230908Y-54642517D01*
X81227145Y-54677522D01*
X81224501Y-54702123D01*
X81224500Y-54702135D01*
X81224500Y-55797870D01*
X81224501Y-55797876D01*
X81230908Y-55857483D01*
X81243476Y-55891178D01*
X81248460Y-55960870D01*
X81214974Y-56022193D01*
X81153651Y-56055677D01*
X81139082Y-56057949D01*
X81070792Y-56064470D01*
X81070783Y-56064471D01*
X81070782Y-56064472D01*
X81070780Y-56064472D01*
X81070778Y-56064473D01*
X80869127Y-56123683D01*
X80682313Y-56219991D01*
X80517116Y-56349905D01*
X80517112Y-56349909D01*
X80379478Y-56508746D01*
X80274398Y-56690750D01*
X80205656Y-56889365D01*
X80205656Y-56889367D01*
X80190804Y-56992670D01*
X80175746Y-57097401D01*
X80185745Y-57307327D01*
X80235296Y-57511578D01*
X80235298Y-57511582D01*
X80322598Y-57702743D01*
X80322601Y-57702748D01*
X80322602Y-57702750D01*
X80322604Y-57702753D01*
X80434670Y-57860128D01*
X80444515Y-57873953D01*
X80444520Y-57873959D01*
X80596620Y-58018985D01*
X80691578Y-58080011D01*
X80773428Y-58132613D01*
X80968543Y-58210725D01*
X81150523Y-58245799D01*
X81212625Y-58277814D01*
X81247560Y-58338323D01*
X81244235Y-58408113D01*
X81243238Y-58410888D01*
X81231403Y-58442620D01*
X81231401Y-58442627D01*
X81225000Y-58502155D01*
X81225000Y-58900000D01*
X82425000Y-58900000D01*
X82425000Y-58050000D01*
X82725000Y-58050000D01*
X82725000Y-58900000D01*
X83925000Y-58900000D01*
X87525000Y-58900000D01*
X88725000Y-58900000D01*
X88725000Y-58050000D01*
X87977155Y-58050000D01*
X87917627Y-58056401D01*
X87917620Y-58056403D01*
X87782913Y-58106645D01*
X87782906Y-58106649D01*
X87667812Y-58192809D01*
X87667809Y-58192812D01*
X87581649Y-58307906D01*
X87581645Y-58307913D01*
X87531403Y-58442620D01*
X87531401Y-58442627D01*
X87525000Y-58502155D01*
X87525000Y-58900000D01*
X83925000Y-58900000D01*
X83925000Y-58502172D01*
X83924999Y-58502155D01*
X83918598Y-58442627D01*
X83918596Y-58442620D01*
X83868354Y-58307913D01*
X83868350Y-58307906D01*
X83782190Y-58192812D01*
X83782187Y-58192809D01*
X83667093Y-58106649D01*
X83667086Y-58106645D01*
X83532379Y-58056403D01*
X83532372Y-58056401D01*
X83472844Y-58050000D01*
X82725000Y-58050000D01*
X82425000Y-58050000D01*
X82227838Y-58050000D01*
X82160799Y-58030315D01*
X82115044Y-57977511D01*
X82105100Y-57908353D01*
X82134125Y-57844797D01*
X82172495Y-57800516D01*
X82180519Y-57791256D01*
X82285604Y-57609244D01*
X82354344Y-57410633D01*
X82384254Y-57202602D01*
X82374254Y-56992670D01*
X82324704Y-56788424D01*
X82324701Y-56788417D01*
X82237401Y-56597256D01*
X82237398Y-56597251D01*
X82237397Y-56597250D01*
X82237396Y-56597247D01*
X82129996Y-56446425D01*
X82107145Y-56380399D01*
X82123618Y-56312499D01*
X82174185Y-56264283D01*
X82231005Y-56250499D01*
X83472871Y-56250499D01*
X83472872Y-56250499D01*
X83532483Y-56244091D01*
X83667331Y-56193796D01*
X83782546Y-56107546D01*
X83868796Y-55992331D01*
X83891608Y-55931167D01*
X83933480Y-55875233D01*
X83998944Y-55850816D01*
X84007791Y-55850500D01*
X85685639Y-55850500D01*
X87442209Y-55850500D01*
X87509248Y-55870185D01*
X87555003Y-55922989D01*
X87558391Y-55931167D01*
X87581202Y-55992328D01*
X87581206Y-55992335D01*
X87667452Y-56107544D01*
X87667455Y-56107547D01*
X87782664Y-56193793D01*
X87782671Y-56193797D01*
X87917517Y-56244091D01*
X87917516Y-56244091D01*
X87924444Y-56244835D01*
X87977127Y-56250500D01*
X89221729Y-56250499D01*
X89288768Y-56270184D01*
X89334523Y-56322987D01*
X89344467Y-56392146D01*
X89315442Y-56455702D01*
X89269478Y-56508746D01*
X89164398Y-56690750D01*
X89095656Y-56889365D01*
X89095656Y-56889367D01*
X89080804Y-56992670D01*
X89065746Y-57097401D01*
X89075745Y-57307327D01*
X89125296Y-57511578D01*
X89125298Y-57511582D01*
X89212598Y-57702743D01*
X89212605Y-57702755D01*
X89320358Y-57854073D01*
X89343211Y-57920100D01*
X89326738Y-57988000D01*
X89276171Y-58036216D01*
X89219351Y-58050000D01*
X89025000Y-58050000D01*
X89025000Y-58900000D01*
X90225000Y-58900000D01*
X90225000Y-58502172D01*
X90224999Y-58502155D01*
X90218598Y-58442627D01*
X90218596Y-58442619D01*
X90206009Y-58408872D01*
X90201023Y-58339180D01*
X90234508Y-58277857D01*
X90295830Y-58244371D01*
X90310387Y-58242100D01*
X90379218Y-58235528D01*
X90580875Y-58176316D01*
X90767682Y-58080011D01*
X90932886Y-57950092D01*
X91070519Y-57791256D01*
X91175604Y-57609244D01*
X91244344Y-57410633D01*
X91274254Y-57202602D01*
X91264254Y-56992670D01*
X91214704Y-56788424D01*
X91214701Y-56788417D01*
X91127401Y-56597256D01*
X91127398Y-56597251D01*
X91127397Y-56597250D01*
X91127396Y-56597247D01*
X91005486Y-56426048D01*
X91005484Y-56426046D01*
X91005479Y-56426040D01*
X90853379Y-56281014D01*
X90676574Y-56167388D01*
X90651545Y-56157368D01*
X90549107Y-56116358D01*
X90481455Y-56089274D01*
X90299974Y-56054297D01*
X90237871Y-56022281D01*
X90202936Y-55961772D01*
X90206261Y-55891981D01*
X90207260Y-55889203D01*
X90219091Y-55857483D01*
X90219842Y-55850500D01*
X90225500Y-55797873D01*
X90225499Y-54702128D01*
X90219091Y-54642517D01*
X90216660Y-54636000D01*
X90168797Y-54507671D01*
X90168793Y-54507664D01*
X90133112Y-54460000D01*
X92974000Y-54460000D01*
X93603999Y-54460000D01*
X93604000Y-53800000D01*
X93603999Y-53799999D01*
X93549363Y-53800000D01*
X93513089Y-53802854D01*
X93357803Y-53847969D01*
X93218625Y-53930278D01*
X93218616Y-53930285D01*
X93104285Y-54044616D01*
X93104278Y-54044625D01*
X93021969Y-54183803D01*
X92976854Y-54339089D01*
X92976854Y-54339092D01*
X92974000Y-54375355D01*
X92974000Y-54460000D01*
X90133112Y-54460000D01*
X90082547Y-54392455D01*
X90082544Y-54392452D01*
X89967335Y-54306206D01*
X89967328Y-54306202D01*
X89832482Y-54255908D01*
X89832483Y-54255908D01*
X89772883Y-54249501D01*
X89772881Y-54249500D01*
X89772873Y-54249500D01*
X89772864Y-54249500D01*
X87977129Y-54249500D01*
X87977123Y-54249501D01*
X87917516Y-54255908D01*
X87782671Y-54306202D01*
X87782664Y-54306206D01*
X87667455Y-54392452D01*
X87667452Y-54392455D01*
X87581206Y-54507664D01*
X87581202Y-54507671D01*
X87558391Y-54568833D01*
X87516520Y-54624767D01*
X87451056Y-54649184D01*
X87442209Y-54649500D01*
X84007791Y-54649500D01*
X83940752Y-54629815D01*
X83894997Y-54577011D01*
X83891609Y-54568834D01*
X83876753Y-54529004D01*
X83871769Y-54459312D01*
X83905253Y-54397989D01*
X83950722Y-54371100D01*
X83950232Y-54369968D01*
X83957389Y-54366870D01*
X83957393Y-54366869D01*
X83965600Y-54362014D01*
X84033322Y-54344828D01*
X84069680Y-54351701D01*
X84121882Y-54369968D01*
X84148748Y-54379369D01*
X84327996Y-54399565D01*
X84328000Y-54399565D01*
X84328004Y-54399565D01*
X84507249Y-54379369D01*
X84507252Y-54379368D01*
X84507255Y-54379368D01*
X84677522Y-54319789D01*
X84830262Y-54223816D01*
X84957816Y-54096262D01*
X85053789Y-53943522D01*
X85113368Y-53773255D01*
X85113369Y-53773249D01*
X85133565Y-53594003D01*
X85133565Y-53593996D01*
X85113369Y-53414750D01*
X85113368Y-53414745D01*
X85103184Y-53385642D01*
X85053789Y-53244478D01*
X85043186Y-53227604D01*
X84990458Y-53143687D01*
X84957816Y-53091738D01*
X84830262Y-52964184D01*
X84781139Y-52933318D01*
X84677523Y-52868211D01*
X84507254Y-52808631D01*
X84507249Y-52808630D01*
X84328004Y-52788435D01*
X84327996Y-52788435D01*
X84148746Y-52808631D01*
X84148745Y-52808631D01*
X84069679Y-52836297D01*
X83999900Y-52839858D01*
X83965609Y-52825990D01*
X83957392Y-52821130D01*
X83957388Y-52821129D01*
X83803208Y-52776335D01*
X83803202Y-52776334D01*
X83767181Y-52773500D01*
X83368830Y-52773500D01*
X83368808Y-52773501D01*
X83332794Y-52776335D01*
X83178611Y-52821129D01*
X83178604Y-52821132D01*
X83121119Y-52855128D01*
X83053395Y-52872309D01*
X82994881Y-52855128D01*
X82937395Y-52821132D01*
X82937388Y-52821129D01*
X82783208Y-52776335D01*
X82783202Y-52776334D01*
X82747188Y-52773500D01*
X82747181Y-52773500D01*
X82628097Y-52773500D01*
X82561058Y-52753815D01*
X82540416Y-52737181D01*
X78690922Y-48887687D01*
X78690920Y-48887684D01*
X78668633Y-48865397D01*
X78668582Y-48865304D01*
X78507243Y-48703969D01*
X78370562Y-48591800D01*
X78346865Y-48572353D01*
X78307531Y-48514609D01*
X78305660Y-48444764D01*
X78341847Y-48384995D01*
X78404602Y-48354279D01*
X78425530Y-48352500D01*
X78821449Y-48352500D01*
X78821453Y-48352501D01*
X78892626Y-48352500D01*
X78896086Y-48352596D01*
X79159564Y-48367389D01*
X79166448Y-48368165D01*
X79424873Y-48412070D01*
X79431653Y-48413617D01*
X79683531Y-48486178D01*
X79690094Y-48488475D01*
X79932264Y-48588781D01*
X79938528Y-48591797D01*
X80167943Y-48718588D01*
X80173813Y-48722275D01*
X80324285Y-48829038D01*
X80387602Y-48873963D01*
X80393036Y-48878295D01*
X80570203Y-49036618D01*
X80589390Y-49053764D01*
X80591918Y-49056154D01*
X80604346Y-49068582D01*
X80604361Y-49068596D01*
X82479740Y-50943975D01*
X82479791Y-50944069D01*
X82641757Y-51106031D01*
X82641762Y-51106035D01*
X82641763Y-51106036D01*
X82915229Y-51330459D01*
X82915233Y-51330462D01*
X83032776Y-51409000D01*
X83209375Y-51526997D01*
X83521369Y-51693756D01*
X83848206Y-51829132D01*
X84146329Y-51919562D01*
X84186646Y-51931792D01*
X84186739Y-51931820D01*
X84533706Y-52000832D01*
X84885767Y-52035502D01*
X85062649Y-52035500D01*
X93934449Y-52035500D01*
X93934453Y-52035501D01*
X94005626Y-52035500D01*
X94009086Y-52035596D01*
X94272564Y-52050389D01*
X94279448Y-52051165D01*
X94537873Y-52095070D01*
X94544653Y-52096617D01*
X94796531Y-52169178D01*
X94803094Y-52171475D01*
X95045264Y-52271781D01*
X95051528Y-52274797D01*
X95280943Y-52401588D01*
X95286813Y-52405275D01*
X95500609Y-52556967D01*
X95506043Y-52561302D01*
X95538803Y-52590577D01*
X95575674Y-52649926D01*
X95574605Y-52719788D01*
X95535936Y-52777981D01*
X95490772Y-52802113D01*
X95389607Y-52831504D01*
X95256607Y-52910159D01*
X95188883Y-52927340D01*
X95127515Y-52908420D01*
X95063522Y-52868211D01*
X95063518Y-52868209D01*
X94893262Y-52808633D01*
X94893249Y-52808630D01*
X94714004Y-52788435D01*
X94713996Y-52788435D01*
X94534750Y-52808630D01*
X94534745Y-52808631D01*
X94364476Y-52868211D01*
X94211737Y-52964184D01*
X94084184Y-53091737D01*
X93988211Y-53244476D01*
X93928631Y-53414745D01*
X93928630Y-53414750D01*
X93908435Y-53593996D01*
X93908435Y-53594004D01*
X93922159Y-53715815D01*
X93910104Y-53784637D01*
X93904000Y-53793147D01*
X93904000Y-54636000D01*
X93884315Y-54703039D01*
X93831511Y-54748794D01*
X93780000Y-54760000D01*
X92974001Y-54760000D01*
X92974001Y-54844649D01*
X92976854Y-54880910D01*
X93021969Y-55036196D01*
X93104278Y-55175374D01*
X93104285Y-55175383D01*
X93218616Y-55289714D01*
X93218625Y-55289721D01*
X93357804Y-55372031D01*
X93414289Y-55388441D01*
X93473175Y-55426047D01*
X93502382Y-55489519D01*
X93503313Y-55517244D01*
X93500268Y-55555945D01*
X93477246Y-55618720D01*
X93472000Y-55625998D01*
X93345000Y-55879998D01*
X93345000Y-58420001D01*
X93471998Y-58673997D01*
X93472000Y-58674000D01*
X93725999Y-58927999D01*
X93726003Y-58928002D01*
X93979999Y-59055000D01*
X93980000Y-59055000D01*
X94334298Y-59055000D01*
X94401337Y-59074685D01*
X94447092Y-59127489D01*
X94457518Y-59192884D01*
X94444435Y-59308997D01*
X94444435Y-59309003D01*
X94464630Y-59488249D01*
X94464631Y-59488254D01*
X94524211Y-59658523D01*
X94608135Y-59792086D01*
X94620184Y-59811262D01*
X94747738Y-59938816D01*
X94900478Y-60034789D01*
X94925653Y-60043598D01*
X95070745Y-60094368D01*
X95070750Y-60094369D01*
X95249996Y-60114565D01*
X95250000Y-60114565D01*
X95250004Y-60114565D01*
X95429249Y-60094369D01*
X95429252Y-60094368D01*
X95429255Y-60094368D01*
X95599522Y-60034789D01*
X95752262Y-59938816D01*
X95879816Y-59811262D01*
X95975789Y-59658522D01*
X96035368Y-59488255D01*
X96035369Y-59488249D01*
X96055565Y-59309003D01*
X96055565Y-59308997D01*
X96042482Y-59192884D01*
X96054536Y-59124062D01*
X96101885Y-59072682D01*
X96165702Y-59055000D01*
X96520001Y-59055000D01*
X96646998Y-58991500D01*
X96774000Y-58928000D01*
X97028000Y-58674000D01*
X97028001Y-58673996D01*
X97155000Y-58420001D01*
X97155000Y-57097401D01*
X99225746Y-57097401D01*
X99235745Y-57307327D01*
X99285296Y-57511578D01*
X99285298Y-57511582D01*
X99372598Y-57702743D01*
X99372601Y-57702748D01*
X99372602Y-57702750D01*
X99372604Y-57702753D01*
X99484670Y-57860128D01*
X99494515Y-57873953D01*
X99494520Y-57873959D01*
X99646620Y-58018985D01*
X99741578Y-58080011D01*
X99823428Y-58132613D01*
X100018543Y-58210725D01*
X100121728Y-58230612D01*
X100224914Y-58250500D01*
X100224915Y-58250500D01*
X100382419Y-58250500D01*
X100382425Y-58250500D01*
X100539218Y-58235528D01*
X100740875Y-58176316D01*
X100927682Y-58080011D01*
X101092886Y-57950092D01*
X101230519Y-57791256D01*
X101335604Y-57609244D01*
X101404344Y-57410633D01*
X101434254Y-57202602D01*
X101424254Y-56992670D01*
X101374704Y-56788424D01*
X101374701Y-56788417D01*
X101287401Y-56597256D01*
X101287398Y-56597251D01*
X101287397Y-56597250D01*
X101287396Y-56597247D01*
X101165486Y-56426048D01*
X101165484Y-56426046D01*
X101165479Y-56426040D01*
X101013379Y-56281014D01*
X100836574Y-56167388D01*
X100811545Y-56157368D01*
X100709107Y-56116358D01*
X100641455Y-56089274D01*
X100435086Y-56049500D01*
X100435085Y-56049500D01*
X100277575Y-56049500D01*
X100120803Y-56064470D01*
X100120782Y-56064472D01*
X100120778Y-56064473D01*
X99919127Y-56123683D01*
X99732313Y-56219991D01*
X99567116Y-56349905D01*
X99567112Y-56349909D01*
X99429478Y-56508746D01*
X99324398Y-56690750D01*
X99255656Y-56889365D01*
X99255656Y-56889367D01*
X99240804Y-56992670D01*
X99225746Y-57097401D01*
X97155000Y-57097401D01*
X97155000Y-55879998D01*
X97028001Y-55626002D01*
X97023324Y-55619513D01*
X97000297Y-55556731D01*
X97000235Y-55555946D01*
X96998530Y-55534285D01*
X97012897Y-55465908D01*
X97061949Y-55416152D01*
X97087549Y-55405484D01*
X97165392Y-55382869D01*
X97303597Y-55301135D01*
X97417134Y-55187598D01*
X97498868Y-55049393D01*
X97543664Y-54895204D01*
X97546499Y-54859181D01*
X97546498Y-54360820D01*
X97543664Y-54324796D01*
X97498868Y-54170607D01*
X97481592Y-54141395D01*
X97464409Y-54073673D01*
X97477672Y-54028539D01*
X97475395Y-54027554D01*
X97478488Y-54020402D01*
X97478493Y-54020395D01*
X97523642Y-53864993D01*
X97526499Y-53828690D01*
X97526499Y-53359310D01*
X97523642Y-53323007D01*
X97523230Y-53321590D01*
X97478494Y-53167609D01*
X97478493Y-53167606D01*
X97478493Y-53167605D01*
X97396116Y-53028313D01*
X97396114Y-53028311D01*
X97396111Y-53028307D01*
X97312956Y-52945152D01*
X97280862Y-52889562D01*
X97264812Y-52829661D01*
X97264811Y-52829660D01*
X97264810Y-52829654D01*
X97184524Y-52635819D01*
X97079624Y-52454122D01*
X96951905Y-52287672D01*
X96951901Y-52287668D01*
X96951898Y-52287664D01*
X96907712Y-52243478D01*
X96907692Y-52243457D01*
X96611922Y-51947687D01*
X96611920Y-51947684D01*
X96589633Y-51925397D01*
X96589582Y-51925304D01*
X96428243Y-51763969D01*
X96357493Y-51705907D01*
X96154772Y-51539542D01*
X96154770Y-51539540D01*
X96154767Y-51539538D01*
X95860627Y-51343004D01*
X95860621Y-51343001D01*
X95548631Y-51176243D01*
X95548627Y-51176242D01*
X95462258Y-51140468D01*
X95221795Y-51040868D01*
X95151903Y-51019667D01*
X94883268Y-50938181D01*
X94787681Y-50919169D01*
X94536294Y-50869168D01*
X94536288Y-50869167D01*
X94536281Y-50869166D01*
X94273573Y-50843296D01*
X94184233Y-50834498D01*
X94184230Y-50834498D01*
X94007351Y-50834500D01*
X85139302Y-50834500D01*
X85139286Y-50834499D01*
X85064371Y-50834499D01*
X85060895Y-50834402D01*
X84797449Y-50819611D01*
X84790536Y-50818832D01*
X84532121Y-50774929D01*
X84525342Y-50773381D01*
X84273475Y-50700823D01*
X84266907Y-50698525D01*
X84024736Y-50598218D01*
X84018467Y-50595199D01*
X83926027Y-50544111D01*
X83789047Y-50468407D01*
X83783168Y-50464712D01*
X83729686Y-50426765D01*
X83569394Y-50313033D01*
X83563962Y-50308702D01*
X83367587Y-50133214D01*
X83365059Y-50130824D01*
X81498922Y-48264687D01*
X81498920Y-48264684D01*
X81476633Y-48242397D01*
X81476582Y-48242304D01*
X81315243Y-48080969D01*
X81254090Y-48030783D01*
X81041772Y-47856542D01*
X81041770Y-47856540D01*
X81041767Y-47856538D01*
X80796655Y-47692763D01*
X83870787Y-47692763D01*
X83900413Y-47962013D01*
X83900415Y-47962024D01*
X83945312Y-48133756D01*
X83968928Y-48224088D01*
X84074870Y-48473390D01*
X84162068Y-48616269D01*
X84215979Y-48704605D01*
X84215986Y-48704615D01*
X84389253Y-48912819D01*
X84389259Y-48912824D01*
X84526346Y-49035654D01*
X84590998Y-49093582D01*
X84816910Y-49243044D01*
X85062176Y-49358020D01*
X85062183Y-49358022D01*
X85062185Y-49358023D01*
X85321557Y-49436057D01*
X85321564Y-49436058D01*
X85321569Y-49436060D01*
X85589561Y-49475500D01*
X85589566Y-49475500D01*
X85792629Y-49475500D01*
X85792631Y-49475500D01*
X85792636Y-49475499D01*
X85792648Y-49475499D01*
X85830191Y-49472750D01*
X85995156Y-49460677D01*
X86107758Y-49435593D01*
X86259546Y-49401782D01*
X86259548Y-49401781D01*
X86259553Y-49401780D01*
X86512558Y-49305014D01*
X86748777Y-49172441D01*
X86963177Y-49006888D01*
X87151186Y-48811881D01*
X87308799Y-48591579D01*
X87400295Y-48413618D01*
X87432649Y-48350690D01*
X87432651Y-48350684D01*
X87432656Y-48350675D01*
X87520118Y-48094305D01*
X87569319Y-47827933D01*
X87579212Y-47557235D01*
X87549586Y-47287982D01*
X87481072Y-47025912D01*
X87375130Y-46776610D01*
X87234018Y-46545390D01*
X87186025Y-46487720D01*
X87060746Y-46337180D01*
X87060740Y-46337175D01*
X86859002Y-46156418D01*
X86633092Y-46006957D01*
X86620022Y-46000830D01*
X86387824Y-45891980D01*
X86387819Y-45891978D01*
X86387814Y-45891976D01*
X86128442Y-45813942D01*
X86128428Y-45813939D01*
X86012791Y-45796921D01*
X85860439Y-45774500D01*
X85657369Y-45774500D01*
X85657351Y-45774500D01*
X85454844Y-45789323D01*
X85454831Y-45789325D01*
X85190453Y-45848217D01*
X85190446Y-45848220D01*
X84937439Y-45944987D01*
X84701226Y-46077557D01*
X84701224Y-46077558D01*
X84701223Y-46077559D01*
X84646515Y-46119803D01*
X84486822Y-46243112D01*
X84298822Y-46438109D01*
X84298816Y-46438116D01*
X84141202Y-46658419D01*
X84141199Y-46658424D01*
X84017350Y-46899309D01*
X84017343Y-46899327D01*
X83929884Y-47155685D01*
X83929881Y-47155699D01*
X83880681Y-47422068D01*
X83880680Y-47422075D01*
X83870787Y-47692763D01*
X80796655Y-47692763D01*
X80747627Y-47660004D01*
X80747621Y-47660001D01*
X80435631Y-47493243D01*
X80435620Y-47493238D01*
X80419838Y-47486701D01*
X80365436Y-47442859D01*
X80343372Y-47376565D01*
X80360652Y-47308866D01*
X80411790Y-47261256D01*
X80443099Y-47250525D01*
X80532255Y-47232792D01*
X80870785Y-47130105D01*
X81197619Y-46994730D01*
X81509611Y-46827971D01*
X81803755Y-46631435D01*
X82077219Y-46407014D01*
X82165973Y-46318259D01*
X82165979Y-46318256D01*
X82202293Y-46281941D01*
X82202294Y-46281942D01*
X82253852Y-46230384D01*
X82253852Y-46230382D01*
X82264056Y-46220179D01*
X82264059Y-46220174D01*
X83364712Y-45119522D01*
X83367204Y-45117166D01*
X83563991Y-44941309D01*
X83569400Y-44936996D01*
X83783210Y-44785294D01*
X83789063Y-44781617D01*
X84018490Y-44654820D01*
X84024742Y-44651809D01*
X84266922Y-44551499D01*
X84273472Y-44549207D01*
X84525357Y-44476644D01*
X84532111Y-44475101D01*
X84790557Y-44431193D01*
X84797437Y-44430418D01*
X85061435Y-44415596D01*
X85064882Y-44415500D01*
X85135547Y-44415501D01*
X85135551Y-44415500D01*
X90352351Y-44415500D01*
X90391720Y-44415500D01*
X90393347Y-44415500D01*
X90394213Y-44415471D01*
X90529232Y-44415473D01*
X90881290Y-44380803D01*
X91228255Y-44311792D01*
X91237948Y-44308852D01*
X91259494Y-44302315D01*
X91566785Y-44209105D01*
X91893619Y-44073730D01*
X92205611Y-43906971D01*
X92499755Y-43710435D01*
X92773219Y-43486014D01*
X92861973Y-43397259D01*
X92861979Y-43397256D01*
X92898293Y-43360941D01*
X92898294Y-43360942D01*
X92949852Y-43309384D01*
X92949852Y-43309382D01*
X92960056Y-43299179D01*
X92960059Y-43299174D01*
X93756415Y-42502819D01*
X93817739Y-42469334D01*
X93844097Y-42466500D01*
X93958682Y-42466500D01*
X93958690Y-42466500D01*
X93994993Y-42463643D01*
X93994995Y-42463642D01*
X93994997Y-42463642D01*
X94044310Y-42449315D01*
X94150395Y-42418494D01*
X94170879Y-42406379D01*
X94238601Y-42389196D01*
X94297119Y-42406379D01*
X94317605Y-42418494D01*
X94317607Y-42418494D01*
X94317608Y-42418495D01*
X94473002Y-42463642D01*
X94473005Y-42463642D01*
X94473007Y-42463643D01*
X94509310Y-42466500D01*
X94509318Y-42466500D01*
X94918682Y-42466500D01*
X94918690Y-42466500D01*
X94954993Y-42463643D01*
X94954995Y-42463642D01*
X94954997Y-42463642D01*
X95110389Y-42418496D01*
X95110389Y-42418495D01*
X95110395Y-42418494D01*
X95243393Y-42339838D01*
X95311113Y-42322657D01*
X95372484Y-42341579D01*
X95436478Y-42381789D01*
X95436481Y-42381790D01*
X95606737Y-42441366D01*
X95606743Y-42441367D01*
X95606745Y-42441368D01*
X95606746Y-42441368D01*
X95606750Y-42441369D01*
X95785996Y-42461565D01*
X95786000Y-42461565D01*
X95786004Y-42461565D01*
X95965249Y-42441369D01*
X95965252Y-42441368D01*
X95965255Y-42441368D01*
X96135522Y-42381789D01*
X96288262Y-42285816D01*
X96415816Y-42158262D01*
X96511789Y-42005522D01*
X96571368Y-41835255D01*
X96576085Y-41793392D01*
X96591565Y-41656003D01*
X96591565Y-41655997D01*
X96577840Y-41534184D01*
X96589894Y-41465362D01*
X96596000Y-41456848D01*
X96596000Y-40790000D01*
X96896000Y-40790000D01*
X96896000Y-41449999D01*
X96950624Y-41449999D01*
X96950649Y-41449998D01*
X96986910Y-41447145D01*
X97142196Y-41402030D01*
X97281374Y-41319721D01*
X97281383Y-41319714D01*
X97395714Y-41205383D01*
X97395721Y-41205374D01*
X97478030Y-41066196D01*
X97523145Y-40910910D01*
X97523145Y-40910907D01*
X97525999Y-40874644D01*
X97526000Y-40874629D01*
X97526000Y-40790000D01*
X96896000Y-40790000D01*
X96596000Y-40790000D01*
X96596000Y-40614000D01*
X96615685Y-40546961D01*
X96668489Y-40501206D01*
X96720000Y-40490000D01*
X97525999Y-40490000D01*
X97525999Y-40405375D01*
X97525998Y-40405350D01*
X97523145Y-40369089D01*
X97478030Y-40213803D01*
X97395721Y-40074625D01*
X97395714Y-40074616D01*
X97281383Y-39960285D01*
X97281374Y-39960278D01*
X97142195Y-39877968D01*
X97142190Y-39877966D01*
X97085709Y-39861557D01*
X97026823Y-39823951D01*
X96997617Y-39760479D01*
X96996686Y-39732755D01*
X96999731Y-39694053D01*
X97022761Y-39631267D01*
X97027996Y-39624003D01*
X97028000Y-39624000D01*
X97037296Y-39605408D01*
X97155000Y-39370001D01*
X97155000Y-38047401D01*
X99225746Y-38047401D01*
X99235745Y-38257327D01*
X99285296Y-38461578D01*
X99285298Y-38461582D01*
X99372598Y-38652743D01*
X99372601Y-38652748D01*
X99372602Y-38652750D01*
X99372604Y-38652753D01*
X99493899Y-38823088D01*
X99494515Y-38823953D01*
X99494520Y-38823959D01*
X99646620Y-38968985D01*
X99741578Y-39030011D01*
X99823428Y-39082613D01*
X100018543Y-39160725D01*
X100121729Y-39180612D01*
X100224914Y-39200500D01*
X100224915Y-39200500D01*
X100382419Y-39200500D01*
X100382425Y-39200500D01*
X100539218Y-39185528D01*
X100740875Y-39126316D01*
X100927682Y-39030011D01*
X101092886Y-38900092D01*
X101230519Y-38741256D01*
X101258860Y-38692169D01*
X101335601Y-38559249D01*
X101335600Y-38559249D01*
X101335604Y-38559244D01*
X101404344Y-38360633D01*
X101434254Y-38152602D01*
X101424254Y-37942670D01*
X101374704Y-37738424D01*
X101357796Y-37701401D01*
X101287401Y-37547256D01*
X101287398Y-37547251D01*
X101287397Y-37547250D01*
X101287396Y-37547247D01*
X101165486Y-37376048D01*
X101165484Y-37376046D01*
X101165479Y-37376040D01*
X101013379Y-37231014D01*
X100836574Y-37117388D01*
X100834553Y-37116579D01*
X100641457Y-37039275D01*
X100641455Y-37039274D01*
X100435086Y-36999500D01*
X100435085Y-36999500D01*
X100277575Y-36999500D01*
X100120781Y-37014472D01*
X100120782Y-37014472D01*
X100120778Y-37014473D01*
X99919127Y-37073683D01*
X99732313Y-37169991D01*
X99567116Y-37299905D01*
X99567112Y-37299909D01*
X99429478Y-37458746D01*
X99324398Y-37640750D01*
X99255656Y-37839365D01*
X99255656Y-37839367D01*
X99229218Y-38023255D01*
X99225746Y-38047401D01*
X97155000Y-38047401D01*
X97155000Y-36829998D01*
X97037293Y-36594586D01*
X97028000Y-36576000D01*
X96774000Y-36322000D01*
X96773997Y-36321998D01*
X96520001Y-36195000D01*
X96520000Y-36195000D01*
X96165702Y-36195000D01*
X96098663Y-36175315D01*
X96052908Y-36122511D01*
X96042482Y-36057116D01*
X96055565Y-35941001D01*
X96055565Y-35940995D01*
X96035369Y-35761749D01*
X96035368Y-35761744D01*
X95996171Y-35649725D01*
X95975789Y-35591477D01*
X95970963Y-35583797D01*
X95920081Y-35502819D01*
X95879816Y-35438737D01*
X95752262Y-35311183D01*
X95752261Y-35311183D01*
X95599523Y-35215210D01*
X95429254Y-35155630D01*
X95429249Y-35155629D01*
X95250004Y-35135434D01*
X95249996Y-35135434D01*
X95070750Y-35155629D01*
X95070745Y-35155630D01*
X94900476Y-35215210D01*
X94747737Y-35311183D01*
X94620184Y-35438736D01*
X94524211Y-35591475D01*
X94464631Y-35761744D01*
X94464630Y-35761749D01*
X94444435Y-35940995D01*
X94444435Y-35941001D01*
X94457518Y-36057116D01*
X94445464Y-36125938D01*
X94398115Y-36177318D01*
X94334298Y-36195000D01*
X93979999Y-36195000D01*
X93726002Y-36321998D01*
X93725999Y-36322000D01*
X93472000Y-36575999D01*
X93471997Y-36576003D01*
X93345000Y-36829999D01*
X93345000Y-36830000D01*
X93345000Y-39370000D01*
X93472000Y-39624000D01*
X93472002Y-39624002D01*
X93476677Y-39630488D01*
X93499702Y-39693268D01*
X93501468Y-39715714D01*
X93487102Y-39784091D01*
X93438050Y-39833847D01*
X93412446Y-39844516D01*
X93334610Y-39867129D01*
X93334606Y-39867131D01*
X93196404Y-39948863D01*
X93196396Y-39948869D01*
X93082869Y-40062396D01*
X93082863Y-40062404D01*
X93001131Y-40200606D01*
X93001129Y-40200611D01*
X92956335Y-40354791D01*
X92956334Y-40354797D01*
X92953500Y-40390811D01*
X92953500Y-40889169D01*
X92953501Y-40889191D01*
X92956335Y-40925205D01*
X93001129Y-41079388D01*
X93001132Y-41079396D01*
X93018406Y-41108604D01*
X93035589Y-41176328D01*
X93022339Y-41221463D01*
X93024605Y-41222444D01*
X93021504Y-41229610D01*
X92976357Y-41385002D01*
X92976356Y-41385008D01*
X92973500Y-41421302D01*
X92973500Y-41535903D01*
X92953815Y-41602942D01*
X92937181Y-41623584D01*
X92081721Y-42479044D01*
X92050285Y-42510477D01*
X92047758Y-42512866D01*
X91851025Y-42688675D01*
X91845585Y-42693013D01*
X91631823Y-42844682D01*
X91625931Y-42848385D01*
X91396516Y-42975173D01*
X91390247Y-42978192D01*
X91148080Y-43078498D01*
X91141512Y-43080796D01*
X90889650Y-43153353D01*
X90882866Y-43154902D01*
X90624461Y-43198803D01*
X90617547Y-43199582D01*
X90353592Y-43214401D01*
X90350116Y-43214499D01*
X90275714Y-43214499D01*
X90275698Y-43214500D01*
X87122000Y-43214500D01*
X87122000Y-40640000D01*
X86361885Y-40640000D01*
X86359588Y-40617804D01*
X86391110Y-40555449D01*
X86410406Y-40538730D01*
X86463996Y-40501206D01*
X86596401Y-40408495D01*
X86763495Y-40241401D01*
X86899035Y-40047830D01*
X86998903Y-39833663D01*
X87060063Y-39605408D01*
X87080659Y-39370000D01*
X87060063Y-39134592D01*
X86998903Y-38906337D01*
X86899035Y-38692171D01*
X86871435Y-38652753D01*
X86763494Y-38498597D01*
X86596402Y-38331506D01*
X86596401Y-38331505D01*
X86413780Y-38203632D01*
X86410841Y-38201574D01*
X86367216Y-38146997D01*
X86360024Y-38077498D01*
X86375239Y-38047401D01*
X89065746Y-38047401D01*
X89075745Y-38257327D01*
X89125296Y-38461578D01*
X89125298Y-38461582D01*
X89212598Y-38652743D01*
X89212601Y-38652748D01*
X89212602Y-38652750D01*
X89212604Y-38652753D01*
X89333899Y-38823088D01*
X89334515Y-38823953D01*
X89334520Y-38823959D01*
X89486620Y-38968985D01*
X89581578Y-39030011D01*
X89663428Y-39082613D01*
X89858543Y-39160725D01*
X89961729Y-39180612D01*
X90064914Y-39200500D01*
X90064915Y-39200500D01*
X90222419Y-39200500D01*
X90222425Y-39200500D01*
X90379218Y-39185528D01*
X90580875Y-39126316D01*
X90767682Y-39030011D01*
X90932886Y-38900092D01*
X91070519Y-38741256D01*
X91098860Y-38692169D01*
X91175601Y-38559249D01*
X91175600Y-38559249D01*
X91175604Y-38559244D01*
X91244344Y-38360633D01*
X91274254Y-38152602D01*
X91264254Y-37942670D01*
X91214704Y-37738424D01*
X91197796Y-37701401D01*
X91127401Y-37547256D01*
X91127398Y-37547251D01*
X91127397Y-37547250D01*
X91127396Y-37547247D01*
X91005486Y-37376048D01*
X91005484Y-37376046D01*
X91005479Y-37376040D01*
X90853379Y-37231014D01*
X90676574Y-37117388D01*
X90674553Y-37116579D01*
X90481457Y-37039275D01*
X90481455Y-37039274D01*
X90275086Y-36999500D01*
X90275085Y-36999500D01*
X90117575Y-36999500D01*
X89960781Y-37014472D01*
X89960782Y-37014472D01*
X89960778Y-37014473D01*
X89759127Y-37073683D01*
X89572313Y-37169991D01*
X89407116Y-37299905D01*
X89407112Y-37299909D01*
X89269478Y-37458746D01*
X89164398Y-37640750D01*
X89095656Y-37839365D01*
X89095656Y-37839367D01*
X89069218Y-38023255D01*
X89065746Y-38047401D01*
X86375239Y-38047401D01*
X86391546Y-38015144D01*
X86410836Y-37998428D01*
X86596401Y-37868495D01*
X86763495Y-37701401D01*
X86899035Y-37507830D01*
X86998903Y-37293663D01*
X87060063Y-37065408D01*
X87080659Y-36830000D01*
X87060063Y-36594592D01*
X87005992Y-36392795D01*
X86998905Y-36366344D01*
X86998904Y-36366343D01*
X86998903Y-36366337D01*
X86899035Y-36152171D01*
X86881648Y-36127340D01*
X86763496Y-35958600D01*
X86719234Y-35914338D01*
X86641567Y-35836671D01*
X86608084Y-35775351D01*
X86613068Y-35705659D01*
X86654939Y-35649725D01*
X86685915Y-35632810D01*
X86817331Y-35583796D01*
X86932546Y-35497546D01*
X87018796Y-35382331D01*
X87069091Y-35247483D01*
X87075500Y-35187873D01*
X87075499Y-33392128D01*
X87069091Y-33332517D01*
X87055519Y-33296129D01*
X87018797Y-33197671D01*
X87018793Y-33197664D01*
X86932547Y-33082455D01*
X86932544Y-33082452D01*
X86817335Y-32996206D01*
X86817328Y-32996202D01*
X86682482Y-32945908D01*
X86682483Y-32945908D01*
X86622883Y-32939501D01*
X86622881Y-32939500D01*
X86622873Y-32939500D01*
X86622864Y-32939500D01*
X84827129Y-32939500D01*
X84827123Y-32939501D01*
X84767516Y-32945908D01*
X84632671Y-32996202D01*
X84632664Y-32996206D01*
X84517455Y-33082452D01*
X84517452Y-33082455D01*
X84431206Y-33197664D01*
X84431202Y-33197671D01*
X84380908Y-33332517D01*
X84377309Y-33366000D01*
X84374501Y-33392123D01*
X84374500Y-33392135D01*
X84374500Y-35187870D01*
X84374501Y-35187876D01*
X84380908Y-35247483D01*
X84431202Y-35382328D01*
X84431206Y-35382335D01*
X84517452Y-35497544D01*
X84517455Y-35497547D01*
X84632664Y-35583793D01*
X84632671Y-35583797D01*
X84764081Y-35632810D01*
X84820015Y-35674681D01*
X84844432Y-35740145D01*
X84829580Y-35808418D01*
X84808430Y-35836673D01*
X84686503Y-35958600D01*
X84550965Y-36152169D01*
X84550964Y-36152171D01*
X84451098Y-36366335D01*
X84451094Y-36366344D01*
X84389938Y-36594586D01*
X84389936Y-36594596D01*
X84369341Y-36829999D01*
X84369341Y-36830000D01*
X84389936Y-37065403D01*
X84389938Y-37065413D01*
X84451094Y-37293655D01*
X84451096Y-37293659D01*
X84451097Y-37293663D01*
X84498999Y-37396388D01*
X84550965Y-37507830D01*
X84550967Y-37507834D01*
X84686501Y-37701395D01*
X84686506Y-37701402D01*
X84853597Y-37868493D01*
X84853603Y-37868498D01*
X85039158Y-37998425D01*
X85082783Y-38053002D01*
X85089977Y-38122500D01*
X85058454Y-38184855D01*
X85039158Y-38201575D01*
X84853597Y-38331505D01*
X84686505Y-38498597D01*
X84550965Y-38692169D01*
X84550964Y-38692171D01*
X84451098Y-38906335D01*
X84451094Y-38906344D01*
X84389938Y-39134586D01*
X84389936Y-39134596D01*
X84369341Y-39369999D01*
X84369341Y-39370000D01*
X84389936Y-39605403D01*
X84389938Y-39605413D01*
X84451094Y-39833655D01*
X84451096Y-39833659D01*
X84451097Y-39833663D01*
X84471756Y-39877966D01*
X84550965Y-40047830D01*
X84550967Y-40047834D01*
X84686501Y-40241395D01*
X84686506Y-40241402D01*
X84853597Y-40408493D01*
X84853603Y-40408498D01*
X85039594Y-40538730D01*
X85083219Y-40593307D01*
X85088052Y-40640000D01*
X84328000Y-40640000D01*
X84328000Y-43290112D01*
X84186740Y-43318209D01*
X84186738Y-43318209D01*
X83848213Y-43420895D01*
X83848206Y-43420898D01*
X83521385Y-43556268D01*
X83521381Y-43556269D01*
X83209394Y-43723025D01*
X83209388Y-43723028D01*
X82915250Y-43919560D01*
X82915243Y-43919565D01*
X82641788Y-44143980D01*
X82641782Y-44143985D01*
X82641783Y-44143985D01*
X82544538Y-44241226D01*
X82544536Y-44241229D01*
X82540208Y-44245557D01*
X82540207Y-44245556D01*
X81386229Y-45399536D01*
X81354285Y-45431477D01*
X81351758Y-45433866D01*
X81155025Y-45609675D01*
X81149585Y-45614013D01*
X80935823Y-45765682D01*
X80929931Y-45769385D01*
X80700516Y-45896173D01*
X80694247Y-45899192D01*
X80452080Y-45999498D01*
X80445512Y-46001796D01*
X80193650Y-46074353D01*
X80186867Y-46075901D01*
X80057663Y-46097852D01*
X79928461Y-46119803D01*
X79921547Y-46120582D01*
X79657592Y-46135401D01*
X79654116Y-46135499D01*
X79579714Y-46135499D01*
X79579698Y-46135500D01*
X73267464Y-46135500D01*
X73200425Y-46115815D01*
X73154670Y-46063011D01*
X73144726Y-45993853D01*
X73150423Y-45970545D01*
X73175367Y-45899258D01*
X73175367Y-45899257D01*
X73175368Y-45899255D01*
X73184713Y-45816306D01*
X73211778Y-45751895D01*
X73220242Y-45742520D01*
X74213614Y-44749149D01*
X74213641Y-44749134D01*
X74249945Y-44712829D01*
X74249946Y-44712830D01*
X74375019Y-44587756D01*
X74599443Y-44314292D01*
X74795982Y-44020149D01*
X74962744Y-43708157D01*
X75098122Y-43381323D01*
X75200813Y-43042792D01*
X75269827Y-42695827D01*
X75281796Y-42574289D01*
X75307957Y-42509501D01*
X75364992Y-42469142D01*
X75416521Y-42465283D01*
X75416690Y-42463146D01*
X75427683Y-42464011D01*
X75459310Y-42466500D01*
X75459318Y-42466500D01*
X75868682Y-42466500D01*
X75868690Y-42466500D01*
X75904993Y-42463643D01*
X75904995Y-42463642D01*
X75904997Y-42463642D01*
X76060389Y-42418496D01*
X76060389Y-42418495D01*
X76060395Y-42418494D01*
X76193393Y-42339838D01*
X76261113Y-42322657D01*
X76322484Y-42341579D01*
X76386478Y-42381789D01*
X76386481Y-42381790D01*
X76556737Y-42441366D01*
X76556743Y-42441367D01*
X76556745Y-42441368D01*
X76556746Y-42441368D01*
X76556750Y-42441369D01*
X76735996Y-42461565D01*
X76736000Y-42461565D01*
X76736004Y-42461565D01*
X76915249Y-42441369D01*
X76915252Y-42441368D01*
X76915255Y-42441368D01*
X77085522Y-42381789D01*
X77238262Y-42285816D01*
X77365816Y-42158262D01*
X77461789Y-42005522D01*
X77521368Y-41835255D01*
X77526085Y-41793392D01*
X77541565Y-41656003D01*
X77541565Y-41655997D01*
X77527840Y-41534184D01*
X77539894Y-41465362D01*
X77546000Y-41456848D01*
X77546000Y-40790000D01*
X77846000Y-40790000D01*
X77846000Y-41449999D01*
X77900624Y-41449999D01*
X77900649Y-41449998D01*
X77936910Y-41447145D01*
X78092196Y-41402030D01*
X78231374Y-41319721D01*
X78231383Y-41319714D01*
X78345714Y-41205383D01*
X78345721Y-41205374D01*
X78428030Y-41066196D01*
X78473145Y-40910910D01*
X78473145Y-40910907D01*
X78475999Y-40874644D01*
X78476000Y-40874629D01*
X78476000Y-40790000D01*
X77846000Y-40790000D01*
X77546000Y-40790000D01*
X77546000Y-40614000D01*
X77565685Y-40546961D01*
X77618489Y-40501206D01*
X77670000Y-40490000D01*
X78475999Y-40490000D01*
X78475999Y-40405375D01*
X78475998Y-40405350D01*
X78473145Y-40369089D01*
X78428030Y-40213803D01*
X78345721Y-40074625D01*
X78345714Y-40074616D01*
X78231383Y-39960285D01*
X78231374Y-39960278D01*
X78092195Y-39877968D01*
X78092190Y-39877966D01*
X78035709Y-39861557D01*
X77976823Y-39823951D01*
X77947617Y-39760479D01*
X77946686Y-39732755D01*
X77949731Y-39694053D01*
X77972761Y-39631267D01*
X77977996Y-39624003D01*
X77978000Y-39624000D01*
X77987296Y-39605408D01*
X78105000Y-39370001D01*
X78105000Y-38047401D01*
X80175746Y-38047401D01*
X80185745Y-38257327D01*
X80235296Y-38461578D01*
X80235298Y-38461582D01*
X80322598Y-38652743D01*
X80322601Y-38652748D01*
X80322602Y-38652750D01*
X80322604Y-38652753D01*
X80443899Y-38823088D01*
X80444515Y-38823953D01*
X80444520Y-38823959D01*
X80596620Y-38968985D01*
X80691578Y-39030011D01*
X80773428Y-39082613D01*
X80968543Y-39160725D01*
X81071729Y-39180612D01*
X81174914Y-39200500D01*
X81174915Y-39200500D01*
X81332419Y-39200500D01*
X81332425Y-39200500D01*
X81489218Y-39185528D01*
X81690875Y-39126316D01*
X81877682Y-39030011D01*
X82042886Y-38900092D01*
X82180519Y-38741256D01*
X82208860Y-38692169D01*
X82285601Y-38559249D01*
X82285600Y-38559249D01*
X82285604Y-38559244D01*
X82354344Y-38360633D01*
X82384254Y-38152602D01*
X82374254Y-37942670D01*
X82324704Y-37738424D01*
X82307796Y-37701401D01*
X82237401Y-37547256D01*
X82237398Y-37547251D01*
X82237397Y-37547250D01*
X82237396Y-37547247D01*
X82115486Y-37376048D01*
X82115484Y-37376046D01*
X82115479Y-37376040D01*
X81963379Y-37231014D01*
X81786574Y-37117388D01*
X81784553Y-37116579D01*
X81591457Y-37039275D01*
X81591455Y-37039274D01*
X81385086Y-36999500D01*
X81385085Y-36999500D01*
X81227575Y-36999500D01*
X81070782Y-37014472D01*
X81070778Y-37014473D01*
X80869127Y-37073683D01*
X80682313Y-37169991D01*
X80517116Y-37299905D01*
X80517112Y-37299909D01*
X80379478Y-37458746D01*
X80274398Y-37640750D01*
X80205656Y-37839365D01*
X80205656Y-37839367D01*
X80179218Y-38023255D01*
X80175746Y-38047401D01*
X78105000Y-38047401D01*
X78105000Y-36829998D01*
X77987293Y-36594586D01*
X77978000Y-36576000D01*
X77724000Y-36322000D01*
X77723997Y-36321997D01*
X77470001Y-36195000D01*
X77470000Y-36195000D01*
X77115702Y-36195000D01*
X77048663Y-36175315D01*
X77002908Y-36122511D01*
X76992482Y-36057116D01*
X77005565Y-35941001D01*
X77005565Y-35940995D01*
X76985369Y-35761749D01*
X76985368Y-35761744D01*
X76946171Y-35649725D01*
X76925789Y-35591477D01*
X76920963Y-35583797D01*
X76870081Y-35502819D01*
X76829816Y-35438737D01*
X76702262Y-35311183D01*
X76702262Y-35311182D01*
X76549523Y-35215210D01*
X76379254Y-35155630D01*
X76379249Y-35155629D01*
X76200004Y-35135434D01*
X76199996Y-35135434D01*
X76020750Y-35155629D01*
X76020745Y-35155630D01*
X75850476Y-35215210D01*
X75697737Y-35311183D01*
X75570184Y-35438736D01*
X75474211Y-35591475D01*
X75414631Y-35761744D01*
X75414630Y-35761749D01*
X75394435Y-35940995D01*
X75394435Y-35941001D01*
X75407518Y-36057116D01*
X75395464Y-36125938D01*
X75348115Y-36177318D01*
X75284298Y-36195000D01*
X74929999Y-36195000D01*
X74675999Y-36322000D01*
X74422000Y-36575999D01*
X74421997Y-36576003D01*
X74295000Y-36829999D01*
X74295000Y-39370000D01*
X74421998Y-39623997D01*
X74426676Y-39630487D01*
X74449702Y-39693268D01*
X74451468Y-39715714D01*
X74437102Y-39784091D01*
X74388050Y-39833847D01*
X74362446Y-39844516D01*
X74284610Y-39867129D01*
X74284606Y-39867131D01*
X74146404Y-39948863D01*
X74146396Y-39948869D01*
X74032869Y-40062396D01*
X74032863Y-40062404D01*
X73951131Y-40200606D01*
X73951129Y-40200611D01*
X73906335Y-40354791D01*
X73906334Y-40354797D01*
X73903500Y-40390811D01*
X73903500Y-40889169D01*
X73903501Y-40889191D01*
X73906335Y-40925205D01*
X73951129Y-41079388D01*
X73951132Y-41079396D01*
X73968406Y-41108604D01*
X73985589Y-41176328D01*
X73972339Y-41221463D01*
X73974605Y-41222444D01*
X73971504Y-41229610D01*
X73926357Y-41385002D01*
X73926356Y-41385008D01*
X73923500Y-41421302D01*
X73923500Y-41890697D01*
X73926356Y-41926991D01*
X73926357Y-41926997D01*
X73971504Y-42082390D01*
X73971505Y-42082393D01*
X74051910Y-42218352D01*
X74053883Y-42221687D01*
X74053884Y-42221688D01*
X74053886Y-42221690D01*
X74058709Y-42226513D01*
X74092197Y-42287834D01*
X74094837Y-42321151D01*
X74088608Y-42432072D01*
X74087829Y-42438986D01*
X74043925Y-42697392D01*
X74042377Y-42704176D01*
X73969814Y-42956050D01*
X73967516Y-42962618D01*
X73867213Y-43204773D01*
X73864194Y-43211042D01*
X73737404Y-43440453D01*
X73733702Y-43446344D01*
X73582026Y-43660115D01*
X73577687Y-43665556D01*
X73401959Y-43862196D01*
X73399569Y-43864723D01*
X73128866Y-44135426D01*
X73067543Y-44168911D01*
X72997851Y-44163927D01*
X72953504Y-44135426D01*
X72892262Y-44074184D01*
X72739523Y-43978211D01*
X72569254Y-43918631D01*
X72569249Y-43918630D01*
X72390004Y-43898435D01*
X72383037Y-43898435D01*
X72383037Y-43896791D01*
X72322646Y-43886201D01*
X72271275Y-43838842D01*
X72260565Y-43816004D01*
X72249788Y-43785208D01*
X72246228Y-43715430D01*
X72260102Y-43681129D01*
X72263494Y-43675395D01*
X72308643Y-43519993D01*
X72311500Y-43483690D01*
X72311500Y-43074310D01*
X72308643Y-43038007D01*
X72299637Y-43007010D01*
X72263495Y-42882609D01*
X72263494Y-42882605D01*
X72263493Y-42882604D01*
X72251089Y-42861630D01*
X72233906Y-42793909D01*
X72251091Y-42735384D01*
X72263032Y-42715194D01*
X72308144Y-42559913D01*
X72308145Y-42559907D01*
X72310999Y-42523644D01*
X72311000Y-42523629D01*
X72311000Y-42469000D01*
X70467691Y-42469000D01*
X70400652Y-42449315D01*
X70354897Y-42396511D01*
X70344953Y-42327353D01*
X70350649Y-42304047D01*
X70364048Y-42265752D01*
X70381368Y-42216255D01*
X70383532Y-42197047D01*
X70387780Y-42159350D01*
X70414846Y-42094936D01*
X70472441Y-42055381D01*
X70542278Y-42053243D01*
X70602184Y-42089201D01*
X70633140Y-42151838D01*
X70634596Y-42168596D01*
X70635000Y-42169000D01*
X71351000Y-42169000D01*
X71351000Y-41539000D01*
X71651000Y-41539000D01*
X71651000Y-42169000D01*
X72310999Y-42169000D01*
X72310999Y-42114375D01*
X72310998Y-42114350D01*
X72308145Y-42078089D01*
X72263030Y-41922803D01*
X72180721Y-41783625D01*
X72180714Y-41783616D01*
X72066383Y-41669285D01*
X72066374Y-41669278D01*
X71927196Y-41586969D01*
X71771909Y-41541854D01*
X71735644Y-41539000D01*
X71651000Y-41539000D01*
X71351000Y-41539000D01*
X71350999Y-41538999D01*
X71266375Y-41539000D01*
X71266351Y-41539001D01*
X71230089Y-41541854D01*
X71074803Y-41586969D01*
X71056118Y-41598019D01*
X70988394Y-41615199D01*
X70929882Y-41598019D01*
X70911196Y-41586969D01*
X70755909Y-41541854D01*
X70719644Y-41539000D01*
X70660807Y-41539000D01*
X70613354Y-41529561D01*
X70612000Y-41529000D01*
X70358000Y-41529000D01*
X70357999Y-41529000D01*
X70356642Y-41529562D01*
X70309192Y-41539000D01*
X70281441Y-41539000D01*
X70214402Y-41519315D01*
X70193760Y-41502682D01*
X70147926Y-41456848D01*
X70098262Y-41407184D01*
X70098259Y-41407182D01*
X70093338Y-41402261D01*
X70094696Y-41400902D01*
X70060042Y-41351517D01*
X70053500Y-41311772D01*
X70053500Y-40546068D01*
X70073185Y-40479029D01*
X70125989Y-40433274D01*
X70163617Y-40422848D01*
X70283249Y-40409369D01*
X70283252Y-40409368D01*
X70283255Y-40409368D01*
X70453522Y-40349789D01*
X70606262Y-40253816D01*
X70733816Y-40126262D01*
X70829789Y-39973522D01*
X70889368Y-39803255D01*
X70889369Y-39803249D01*
X70909565Y-39624003D01*
X70909565Y-39623996D01*
X70889369Y-39444750D01*
X70889367Y-39444740D01*
X70865992Y-39377941D01*
X70859857Y-39360410D01*
X70856295Y-39290632D01*
X70891024Y-39230004D01*
X70953017Y-39197777D01*
X71000366Y-39197696D01*
X71014914Y-39200500D01*
X71014915Y-39200500D01*
X71172419Y-39200500D01*
X71172425Y-39200500D01*
X71329218Y-39185528D01*
X71530875Y-39126316D01*
X71717682Y-39030011D01*
X71882886Y-38900092D01*
X72020519Y-38741256D01*
X72048860Y-38692169D01*
X72125601Y-38559249D01*
X72125600Y-38559249D01*
X72125604Y-38559244D01*
X72194344Y-38360633D01*
X72224254Y-38152602D01*
X72214254Y-37942670D01*
X72164704Y-37738424D01*
X72147796Y-37701401D01*
X72077401Y-37547256D01*
X72077398Y-37547251D01*
X72077397Y-37547250D01*
X72077396Y-37547247D01*
X71955486Y-37376048D01*
X71955484Y-37376046D01*
X71955479Y-37376040D01*
X71803379Y-37231014D01*
X71626574Y-37117388D01*
X71624553Y-37116579D01*
X71431457Y-37039275D01*
X71431455Y-37039274D01*
X71225086Y-36999500D01*
X71225085Y-36999500D01*
X71067575Y-36999500D01*
X70910782Y-37014472D01*
X70910778Y-37014473D01*
X70709127Y-37073683D01*
X70522313Y-37169991D01*
X70357116Y-37299905D01*
X70357112Y-37299909D01*
X70219478Y-37458746D01*
X70114398Y-37640750D01*
X70045656Y-37839365D01*
X70045656Y-37839367D01*
X70019218Y-38023255D01*
X70015746Y-38047401D01*
X70018641Y-38108184D01*
X70002168Y-38176084D01*
X69951600Y-38224299D01*
X69882993Y-38237521D01*
X69853827Y-38231125D01*
X69775257Y-38203632D01*
X69775249Y-38203630D01*
X69596004Y-38183435D01*
X69595996Y-38183435D01*
X69416750Y-38203630D01*
X69416745Y-38203631D01*
X69246476Y-38263211D01*
X69090472Y-38361236D01*
X69023235Y-38380236D01*
X68958528Y-38361236D01*
X68802523Y-38263211D01*
X68665546Y-38215281D01*
X68608770Y-38174559D01*
X68583023Y-38109606D01*
X68589459Y-38057287D01*
X68601368Y-38023255D01*
X68608712Y-37958073D01*
X68616651Y-37887616D01*
X68643717Y-37823202D01*
X68701312Y-37783647D01*
X68739866Y-37777499D01*
X69035180Y-37777499D01*
X69071204Y-37774665D01*
X69225393Y-37729869D01*
X69363598Y-37648135D01*
X69477135Y-37534598D01*
X69558869Y-37396393D01*
X69603665Y-37242204D01*
X69606500Y-37206181D01*
X69606499Y-36707820D01*
X69603665Y-36671796D01*
X69566564Y-36544093D01*
X69566763Y-36474225D01*
X69604705Y-36415555D01*
X69668343Y-36386711D01*
X69685632Y-36385499D01*
X69781103Y-36385499D01*
X69820596Y-36393649D01*
X69820836Y-36392795D01*
X69967323Y-36433920D01*
X69967333Y-36433922D01*
X70034186Y-36442724D01*
X70050645Y-36444345D01*
X70050682Y-36444347D01*
X70050688Y-36444348D01*
X70075219Y-36445956D01*
X70075235Y-36445956D01*
X70075252Y-36445958D01*
X70091792Y-36446500D01*
X70091807Y-36446500D01*
X71005194Y-36446500D01*
X71005210Y-36446500D01*
X71021754Y-36445958D01*
X71021786Y-36445955D01*
X71021806Y-36445955D01*
X71032036Y-36445283D01*
X71046360Y-36444344D01*
X71062816Y-36442723D01*
X71196613Y-36425108D01*
X71229075Y-36418651D01*
X71292309Y-36401707D01*
X71323647Y-36391069D01*
X71406266Y-36356846D01*
X71444638Y-36340953D01*
X71444641Y-36340951D01*
X71444647Y-36340949D01*
X71474328Y-36326312D01*
X71531026Y-36293579D01*
X71558547Y-36275190D01*
X71662460Y-36195455D01*
X71687343Y-36173633D01*
X71733636Y-36127340D01*
X71755459Y-36102456D01*
X71835188Y-35998551D01*
X71853574Y-35971033D01*
X71886307Y-35914338D01*
X71900946Y-35884653D01*
X71951068Y-35763649D01*
X71961706Y-35732309D01*
X71978650Y-35669074D01*
X71985107Y-35636615D01*
X72002723Y-35502819D01*
X72004344Y-35486353D01*
X72005958Y-35461743D01*
X72006499Y-35445206D01*
X72006499Y-33769794D01*
X72005958Y-33753257D01*
X72004345Y-33728648D01*
X72002723Y-33712185D01*
X71996030Y-33661353D01*
X71995500Y-33653254D01*
X71995500Y-33644256D01*
X71980074Y-33492560D01*
X71919162Y-33298420D01*
X71919160Y-33298416D01*
X71919159Y-33298412D01*
X71820409Y-33120498D01*
X71820408Y-33120497D01*
X71820407Y-33120495D01*
X71687867Y-32966106D01*
X71687865Y-32966104D01*
X71526962Y-32841554D01*
X71526959Y-32841553D01*
X71526958Y-32841552D01*
X71344271Y-32751940D01*
X71147285Y-32700937D01*
X71147287Y-32700937D01*
X71011804Y-32694066D01*
X70944064Y-32690631D01*
X70944063Y-32690631D01*
X70944061Y-32690631D01*
X70742936Y-32721442D01*
X70742924Y-32721445D01*
X70552118Y-32792111D01*
X70552111Y-32792115D01*
X70379432Y-32899745D01*
X70379427Y-32899749D01*
X70231949Y-33039938D01*
X70231947Y-33039940D01*
X70231947Y-33039941D01*
X70193199Y-33095611D01*
X70115703Y-33206953D01*
X70112349Y-33214769D01*
X70067818Y-33268609D01*
X70001248Y-33289828D01*
X69933775Y-33271688D01*
X69922914Y-33264236D01*
X69920637Y-33262489D01*
X69876073Y-33228293D01*
X69855234Y-33212302D01*
X69855230Y-33212300D01*
X69715232Y-33154311D01*
X69707385Y-33152209D01*
X69707777Y-33150742D01*
X69652209Y-33126155D01*
X69613743Y-33067827D01*
X69613352Y-33066527D01*
X69596607Y-33009496D01*
X69518819Y-32888457D01*
X69515663Y-32884815D01*
X69473070Y-32835659D01*
X69473066Y-32835656D01*
X69473064Y-32835653D01*
X69364330Y-32741433D01*
X69364327Y-32741431D01*
X69364325Y-32741430D01*
X69233457Y-32681663D01*
X69166417Y-32661978D01*
X69166419Y-32661978D01*
X69166414Y-32661977D01*
X69166410Y-32661976D01*
X69023994Y-32641500D01*
X64326006Y-32641500D01*
X64326000Y-32641500D01*
X64198084Y-32657954D01*
X64198081Y-32657954D01*
X64137365Y-32673836D01*
X64017768Y-32722128D01*
X64017764Y-32722130D01*
X63903613Y-32809722D01*
X63903613Y-32809723D01*
X63856877Y-32857585D01*
X63855244Y-32859104D01*
X63769953Y-32975912D01*
X63734920Y-33073367D01*
X63693717Y-33129795D01*
X63642312Y-33151089D01*
X63642613Y-33152210D01*
X63634762Y-33154313D01*
X63494769Y-33212300D01*
X63494766Y-33212302D01*
X63424145Y-33266492D01*
X63358976Y-33291686D01*
X63290531Y-33277648D01*
X63240542Y-33228834D01*
X63240240Y-33228293D01*
X63199177Y-33154311D01*
X63180409Y-33120498D01*
X63180408Y-33120497D01*
X63180407Y-33120495D01*
X63047867Y-32966106D01*
X63047865Y-32966104D01*
X62886962Y-32841554D01*
X62886959Y-32841553D01*
X62886958Y-32841552D01*
X62704271Y-32751940D01*
X62507285Y-32700937D01*
X62507287Y-32700937D01*
X62371804Y-32694066D01*
X62304064Y-32690631D01*
X62304063Y-32690631D01*
X62304061Y-32690631D01*
X62102936Y-32721442D01*
X62102924Y-32721445D01*
X61912118Y-32792111D01*
X61912111Y-32792115D01*
X61739432Y-32899745D01*
X61739427Y-32899749D01*
X61591949Y-33039938D01*
X61591947Y-33039940D01*
X61591947Y-33039941D01*
X61542273Y-33111310D01*
X61475704Y-33206952D01*
X61454076Y-33257350D01*
X61409549Y-33311193D01*
X61342980Y-33332415D01*
X61275505Y-33314279D01*
X61252445Y-33296129D01*
X61204938Y-33248622D01*
X61177702Y-33228834D01*
X61020228Y-33114421D01*
X61014122Y-33111310D01*
X60816803Y-33010770D01*
X60599660Y-32940215D01*
X60374162Y-32904500D01*
X60374157Y-32904500D01*
X60347721Y-32904500D01*
X59763585Y-32904500D01*
X59696546Y-32884815D01*
X59650791Y-32832011D01*
X59645879Y-32819504D01*
X59642637Y-32809720D01*
X59609814Y-32710666D01*
X59517712Y-32561344D01*
X59393656Y-32437288D01*
X59252938Y-32350493D01*
X59244336Y-32345187D01*
X59244331Y-32345185D01*
X59227175Y-32339500D01*
X59077797Y-32290001D01*
X59077795Y-32290000D01*
X58975010Y-32279500D01*
X58124998Y-32279500D01*
X58124980Y-32279501D01*
X58022203Y-32290000D01*
X58022200Y-32290001D01*
X57855668Y-32345185D01*
X57855663Y-32345187D01*
X57706342Y-32437289D01*
X57582289Y-32561342D01*
X57490187Y-32710663D01*
X57490185Y-32710668D01*
X57486614Y-32721445D01*
X57435001Y-32877203D01*
X57435001Y-32877204D01*
X57435000Y-32877204D01*
X57424500Y-32979983D01*
X57424500Y-34330001D01*
X57424501Y-34330018D01*
X57435000Y-34432796D01*
X57435001Y-34432799D01*
X57467045Y-34529500D01*
X57490186Y-34599334D01*
X57582288Y-34748656D01*
X57706344Y-34872712D01*
X57855666Y-34964814D01*
X58022203Y-35019999D01*
X58124991Y-35030500D01*
X58975008Y-35030499D01*
X58975016Y-35030498D01*
X58975019Y-35030498D01*
X59031302Y-35024748D01*
X59077797Y-35019999D01*
X59244334Y-34964814D01*
X59393656Y-34872712D01*
X59517712Y-34748656D01*
X59609814Y-34599334D01*
X59645879Y-34490494D01*
X59685652Y-34433051D01*
X59750167Y-34406228D01*
X59763585Y-34405500D01*
X60085500Y-34405500D01*
X60152539Y-34425185D01*
X60198294Y-34477989D01*
X60209499Y-34529499D01*
X60209499Y-35215210D01*
X60209499Y-35848472D01*
X60209500Y-35848482D01*
X60209500Y-35990162D01*
X60245215Y-36215660D01*
X60315770Y-36432803D01*
X60372476Y-36544094D01*
X60419421Y-36636228D01*
X60553621Y-36820937D01*
X60715063Y-36982379D01*
X60899772Y-37116579D01*
X61103201Y-37220231D01*
X61264190Y-37272539D01*
X61321865Y-37311977D01*
X61349063Y-37376335D01*
X61337148Y-37445182D01*
X61332194Y-37453489D01*
X61332434Y-37453628D01*
X61224398Y-37640750D01*
X61155656Y-37839365D01*
X61155656Y-37839367D01*
X61129218Y-38023255D01*
X61125746Y-38047401D01*
X61135745Y-38257327D01*
X61185296Y-38461578D01*
X61185298Y-38461582D01*
X61272598Y-38652743D01*
X61272601Y-38652748D01*
X61272602Y-38652750D01*
X61272604Y-38652753D01*
X61393899Y-38823088D01*
X61394515Y-38823953D01*
X61394520Y-38823959D01*
X61546620Y-38968985D01*
X61641578Y-39030011D01*
X61723428Y-39082613D01*
X61918543Y-39160725D01*
X62021729Y-39180612D01*
X62124914Y-39200500D01*
X62124915Y-39200500D01*
X62282419Y-39200500D01*
X62282425Y-39200500D01*
X62439218Y-39185528D01*
X62640875Y-39126316D01*
X62827682Y-39030011D01*
X62992886Y-38900092D01*
X63130519Y-38741256D01*
X63158860Y-38692169D01*
X63235601Y-38559249D01*
X63235600Y-38559249D01*
X63235604Y-38559244D01*
X63304344Y-38360633D01*
X63334254Y-38152602D01*
X63324254Y-37942670D01*
X63274704Y-37738424D01*
X63257796Y-37701401D01*
X63187401Y-37547256D01*
X63187394Y-37547244D01*
X63169722Y-37522427D01*
X63146869Y-37456401D01*
X63163342Y-37388500D01*
X63213909Y-37340285D01*
X63270729Y-37326500D01*
X63639162Y-37326500D01*
X63864654Y-37290785D01*
X63864654Y-37290784D01*
X63864660Y-37290784D01*
X63879833Y-37285853D01*
X63949671Y-37283857D01*
X64009504Y-37319936D01*
X64037226Y-37369186D01*
X64039304Y-37376335D01*
X64047308Y-37403885D01*
X64045360Y-37404450D01*
X64052614Y-37463272D01*
X64044237Y-37489810D01*
X64044510Y-37489906D01*
X63982633Y-37666737D01*
X63982630Y-37666750D01*
X63962435Y-37845996D01*
X63962435Y-37846003D01*
X63982630Y-38025249D01*
X63982631Y-38025254D01*
X64042211Y-38195523D01*
X64084743Y-38263211D01*
X64138184Y-38348262D01*
X64265738Y-38475816D01*
X64301994Y-38498597D01*
X64398520Y-38559249D01*
X64418478Y-38571789D01*
X64565762Y-38623326D01*
X64588745Y-38631368D01*
X64588750Y-38631369D01*
X64767996Y-38651565D01*
X64768000Y-38651565D01*
X64768004Y-38651565D01*
X64947249Y-38631369D01*
X64947252Y-38631368D01*
X64947255Y-38631368D01*
X65117522Y-38571789D01*
X65270262Y-38475816D01*
X65397816Y-38348262D01*
X65493789Y-38195522D01*
X65553368Y-38025255D01*
X65553594Y-38023255D01*
X65568876Y-37887616D01*
X65595942Y-37823202D01*
X65653537Y-37783647D01*
X65692092Y-37777499D01*
X65715767Y-37777499D01*
X65782805Y-37797184D01*
X65828560Y-37849988D01*
X65838986Y-37887616D01*
X65846924Y-37958071D01*
X65846925Y-37958075D01*
X65899419Y-38188079D01*
X65899420Y-38188081D01*
X65977338Y-38410765D01*
X66079698Y-38623325D01*
X66079699Y-38623326D01*
X66079699Y-38623327D01*
X66205211Y-38823082D01*
X66205217Y-38823091D01*
X66352307Y-39007540D01*
X66406833Y-39062067D01*
X66406878Y-39062114D01*
X66494341Y-39149577D01*
X66494347Y-39149582D01*
X66699138Y-39354373D01*
X66716610Y-39371845D01*
X66721954Y-39377938D01*
X66750020Y-39414515D01*
X66775213Y-39479683D01*
X66761175Y-39548127D01*
X66712361Y-39598117D01*
X66651643Y-39614000D01*
X66571000Y-39614000D01*
X66571000Y-40410000D01*
X66551315Y-40477039D01*
X66498511Y-40522794D01*
X66447000Y-40534000D01*
X65601000Y-40534000D01*
X65601000Y-40583135D01*
X65603832Y-40619123D01*
X65603833Y-40619129D01*
X65648592Y-40773188D01*
X65648592Y-40773189D01*
X65682419Y-40830388D01*
X65699601Y-40898112D01*
X65682419Y-40956628D01*
X65648130Y-41014607D01*
X65648129Y-41014611D01*
X65603335Y-41168791D01*
X65603334Y-41168797D01*
X65600500Y-41204811D01*
X65600500Y-41603169D01*
X65600501Y-41603191D01*
X65603335Y-41639205D01*
X65648129Y-41793388D01*
X65648130Y-41793392D01*
X65652990Y-41801609D01*
X65670169Y-41869334D01*
X65663297Y-41905679D01*
X65635631Y-41984745D01*
X65635631Y-41984746D01*
X65621025Y-42114383D01*
X65593959Y-42178797D01*
X65536364Y-42218352D01*
X65497805Y-42224500D01*
X65312272Y-42224500D01*
X65226478Y-42235796D01*
X65199764Y-42239313D01*
X65199762Y-42239313D01*
X65191708Y-42240374D01*
X65191315Y-42237395D01*
X65158686Y-42237386D01*
X65158293Y-42240374D01*
X65150236Y-42239313D01*
X65123522Y-42235796D01*
X65037727Y-42224500D01*
X65037720Y-42224500D01*
X64812280Y-42224500D01*
X64812272Y-42224500D01*
X64726478Y-42235796D01*
X64699764Y-42239313D01*
X64699762Y-42239313D01*
X64691708Y-42240374D01*
X64691315Y-42237395D01*
X64658686Y-42237386D01*
X64658293Y-42240374D01*
X64650236Y-42239313D01*
X64623522Y-42235796D01*
X64537727Y-42224500D01*
X64537720Y-42224500D01*
X64312280Y-42224500D01*
X64312272Y-42224500D01*
X64226478Y-42235796D01*
X64199764Y-42239313D01*
X64199762Y-42239313D01*
X64191708Y-42240374D01*
X64191316Y-42237399D01*
X64158684Y-42237399D01*
X64158292Y-42240374D01*
X64150237Y-42239313D01*
X64150236Y-42239313D01*
X64121271Y-42235499D01*
X64037727Y-42224500D01*
X64037720Y-42224500D01*
X63812280Y-42224500D01*
X63812274Y-42224500D01*
X63812269Y-42224501D01*
X63752991Y-42232305D01*
X63683955Y-42221539D01*
X63649125Y-42197047D01*
X63621262Y-42169184D01*
X63468523Y-42073211D01*
X63298254Y-42013631D01*
X63298249Y-42013630D01*
X63119004Y-41993435D01*
X63118996Y-41993435D01*
X62939746Y-42013631D01*
X62939745Y-42013631D01*
X62835208Y-42050209D01*
X62765429Y-42053770D01*
X62731139Y-42039902D01*
X62725394Y-42036505D01*
X62569997Y-41991357D01*
X62569991Y-41991356D01*
X62533697Y-41988500D01*
X62533690Y-41988500D01*
X62124310Y-41988500D01*
X62124302Y-41988500D01*
X62088008Y-41991356D01*
X62088002Y-41991357D01*
X61932609Y-42036504D01*
X61932604Y-42036506D01*
X61911628Y-42048911D01*
X61843903Y-42066092D01*
X61785389Y-42048911D01*
X61765195Y-42036968D01*
X61609909Y-41991854D01*
X61573644Y-41989000D01*
X61518999Y-41989000D01*
X61519000Y-42649000D01*
X61519000Y-43841000D01*
X61499315Y-43908039D01*
X61446511Y-43953794D01*
X61395000Y-43965000D01*
X61211000Y-43965000D01*
X61143961Y-43945315D01*
X61098206Y-43892511D01*
X61087000Y-43841000D01*
X61087000Y-43789000D01*
X61106685Y-43721961D01*
X61159489Y-43676206D01*
X61211000Y-43665000D01*
X61219000Y-43665000D01*
X61219000Y-42949000D01*
X60589001Y-42949000D01*
X60589001Y-43033649D01*
X60591854Y-43069910D01*
X60636969Y-43225196D01*
X60648019Y-43243882D01*
X60665199Y-43311606D01*
X60648019Y-43370118D01*
X60636969Y-43388803D01*
X60591854Y-43544089D01*
X60591854Y-43544092D01*
X60589000Y-43580355D01*
X60589000Y-43639193D01*
X60579561Y-43686646D01*
X60579000Y-43688000D01*
X60579000Y-43942000D01*
X60579001Y-43942001D01*
X60579562Y-43943355D01*
X60589001Y-43990809D01*
X60589001Y-44049649D01*
X60591854Y-44085910D01*
X60636969Y-44241196D01*
X60719278Y-44380374D01*
X60719285Y-44380383D01*
X60833616Y-44494714D01*
X60833625Y-44494721D01*
X60972803Y-44577030D01*
X61128090Y-44622145D01*
X61161487Y-44624773D01*
X61226777Y-44649655D01*
X61268249Y-44705885D01*
X61268979Y-44712534D01*
X61279912Y-44725000D01*
X61314365Y-44725000D01*
X61381404Y-44744685D01*
X61427159Y-44797489D01*
X61437103Y-44866647D01*
X61412741Y-44924485D01*
X61399822Y-44941323D01*
X61372840Y-44976486D01*
X61316412Y-45017689D01*
X61280894Y-45023879D01*
X61279911Y-45025000D01*
X61290804Y-45107729D01*
X61288595Y-45141472D01*
X61290374Y-45141707D01*
X61274500Y-45262272D01*
X61274500Y-45487727D01*
X61290374Y-45608292D01*
X61287399Y-45608683D01*
X61287399Y-45641316D01*
X61290374Y-45641708D01*
X61274500Y-45762272D01*
X61274500Y-45987727D01*
X61284412Y-46063011D01*
X61286032Y-46075318D01*
X61290374Y-46108292D01*
X61287399Y-46108683D01*
X61287399Y-46141316D01*
X61290374Y-46141708D01*
X61274500Y-46262272D01*
X61274500Y-46487727D01*
X61282092Y-46545390D01*
X61287806Y-46588792D01*
X61290374Y-46608292D01*
X61287399Y-46608683D01*
X61287399Y-46641316D01*
X61290374Y-46641708D01*
X61274500Y-46762272D01*
X61274500Y-46987713D01*
X61274501Y-46987732D01*
X61280429Y-47032763D01*
X61269663Y-47101799D01*
X61223282Y-47154054D01*
X61156013Y-47172938D01*
X61123164Y-47168101D01*
X61028474Y-47140823D01*
X61021906Y-47138525D01*
X60779736Y-47038218D01*
X60773467Y-47035199D01*
X60687557Y-46987720D01*
X60544047Y-46908407D01*
X60538168Y-46904712D01*
X60324394Y-46753033D01*
X60318962Y-46748702D01*
X60122587Y-46573214D01*
X60120059Y-46570824D01*
X56970808Y-43421573D01*
X56958530Y-43409294D01*
X56956142Y-43406768D01*
X56877001Y-43318208D01*
X56780318Y-43210017D01*
X56775990Y-43204591D01*
X56624313Y-42990817D01*
X56620614Y-42984931D01*
X56616153Y-42976860D01*
X56564065Y-42882609D01*
X56493826Y-42755516D01*
X56490807Y-42749247D01*
X56449285Y-42649000D01*
X60589000Y-42649000D01*
X61218999Y-42649000D01*
X61219000Y-41989000D01*
X61218999Y-41988999D01*
X61164363Y-41989000D01*
X61128089Y-41991854D01*
X60972803Y-42036969D01*
X60833625Y-42119278D01*
X60833616Y-42119285D01*
X60719285Y-42233616D01*
X60719278Y-42233625D01*
X60636969Y-42372803D01*
X60591854Y-42528089D01*
X60591854Y-42528092D01*
X60589000Y-42564355D01*
X60589000Y-42649000D01*
X56449285Y-42649000D01*
X56444708Y-42637951D01*
X56437240Y-42568482D01*
X56468516Y-42506003D01*
X56528606Y-42470351D01*
X56559270Y-42466500D01*
X56818682Y-42466500D01*
X56818690Y-42466500D01*
X56854993Y-42463643D01*
X56854995Y-42463642D01*
X56854997Y-42463642D01*
X57010389Y-42418496D01*
X57010389Y-42418495D01*
X57010395Y-42418494D01*
X57143393Y-42339838D01*
X57211113Y-42322657D01*
X57272484Y-42341579D01*
X57336478Y-42381789D01*
X57336481Y-42381790D01*
X57506737Y-42441366D01*
X57506743Y-42441367D01*
X57506745Y-42441368D01*
X57506746Y-42441368D01*
X57506750Y-42441369D01*
X57685996Y-42461565D01*
X57686000Y-42461565D01*
X57686004Y-42461565D01*
X57865249Y-42441369D01*
X57865252Y-42441368D01*
X57865255Y-42441368D01*
X58035522Y-42381789D01*
X58188262Y-42285816D01*
X58315816Y-42158262D01*
X58411789Y-42005522D01*
X58471368Y-41835255D01*
X58476085Y-41793392D01*
X58491565Y-41656003D01*
X58491565Y-41655997D01*
X58477840Y-41534184D01*
X58489894Y-41465362D01*
X58496000Y-41456848D01*
X58496000Y-40790000D01*
X58796000Y-40790000D01*
X58796000Y-41449999D01*
X58850624Y-41449999D01*
X58850649Y-41449998D01*
X58886910Y-41447145D01*
X59042196Y-41402030D01*
X59181374Y-41319721D01*
X59181383Y-41319714D01*
X59295714Y-41205383D01*
X59295721Y-41205374D01*
X59378030Y-41066196D01*
X59423145Y-40910910D01*
X59423145Y-40910907D01*
X59425999Y-40874644D01*
X59426000Y-40874629D01*
X59426000Y-40790000D01*
X58796000Y-40790000D01*
X58496000Y-40790000D01*
X58496000Y-40614000D01*
X58515685Y-40546961D01*
X58568489Y-40501206D01*
X58620000Y-40490000D01*
X59425999Y-40490000D01*
X59425999Y-40405375D01*
X59425998Y-40405350D01*
X59423145Y-40369089D01*
X59383898Y-40234000D01*
X65601000Y-40234000D01*
X66271000Y-40234000D01*
X66271000Y-39614000D01*
X66171864Y-39614000D01*
X66135876Y-39616832D01*
X66135870Y-39616833D01*
X65981811Y-39661592D01*
X65981808Y-39661593D01*
X65843714Y-39743261D01*
X65843705Y-39743268D01*
X65730268Y-39856705D01*
X65730261Y-39856714D01*
X65648593Y-39994808D01*
X65648592Y-39994811D01*
X65603833Y-40148870D01*
X65603832Y-40148876D01*
X65601000Y-40184864D01*
X65601000Y-40234000D01*
X59383898Y-40234000D01*
X59378030Y-40213803D01*
X59295721Y-40074625D01*
X59295714Y-40074616D01*
X59181383Y-39960285D01*
X59181374Y-39960278D01*
X59042195Y-39877968D01*
X59042190Y-39877966D01*
X58985709Y-39861557D01*
X58926823Y-39823951D01*
X58897617Y-39760479D01*
X58896686Y-39732755D01*
X58899731Y-39694053D01*
X58922760Y-39631268D01*
X58927994Y-39624005D01*
X58928000Y-39624000D01*
X59055000Y-39370000D01*
X59055000Y-36830000D01*
X59050468Y-36820937D01*
X58937293Y-36594586D01*
X58928000Y-36576000D01*
X58674000Y-36322000D01*
X58673997Y-36321997D01*
X58420001Y-36195000D01*
X58420000Y-36195000D01*
X58065702Y-36195000D01*
X57998663Y-36175315D01*
X57952908Y-36122511D01*
X57942482Y-36057116D01*
X57955565Y-35941001D01*
X57955565Y-35940995D01*
X57935369Y-35761749D01*
X57935368Y-35761744D01*
X57896171Y-35649725D01*
X57875789Y-35591477D01*
X57870963Y-35583797D01*
X57820081Y-35502819D01*
X57779816Y-35438737D01*
X57652262Y-35311183D01*
X57652261Y-35311182D01*
X57499523Y-35215210D01*
X57329254Y-35155630D01*
X57329249Y-35155629D01*
X57150004Y-35135434D01*
X57149996Y-35135434D01*
X56970750Y-35155629D01*
X56970745Y-35155630D01*
X56800476Y-35215210D01*
X56647737Y-35311183D01*
X56520184Y-35438736D01*
X56424211Y-35591475D01*
X56364631Y-35761744D01*
X56364630Y-35761749D01*
X56344435Y-35940995D01*
X56344435Y-35941001D01*
X56357518Y-36057116D01*
X56345464Y-36125938D01*
X56298115Y-36177318D01*
X56234298Y-36195000D01*
X55879999Y-36195000D01*
X55625999Y-36322000D01*
X55372000Y-36575999D01*
X55245000Y-36829999D01*
X55245000Y-39370000D01*
X55371998Y-39623997D01*
X55376676Y-39630487D01*
X55399702Y-39693268D01*
X55401468Y-39715714D01*
X55387102Y-39784091D01*
X55338050Y-39833847D01*
X55312446Y-39844516D01*
X55234610Y-39867129D01*
X55234606Y-39867131D01*
X55096404Y-39948863D01*
X55096396Y-39948869D01*
X54982869Y-40062396D01*
X54982863Y-40062404D01*
X54901131Y-40200606D01*
X54901129Y-40200611D01*
X54856335Y-40354791D01*
X54856334Y-40354797D01*
X54853500Y-40390811D01*
X54853500Y-40889169D01*
X54853501Y-40889191D01*
X54856335Y-40925205D01*
X54901129Y-41079388D01*
X54901132Y-41079396D01*
X54918406Y-41108604D01*
X54935589Y-41176328D01*
X54922339Y-41221463D01*
X54924605Y-41222444D01*
X54921504Y-41229610D01*
X54876357Y-41385002D01*
X54876356Y-41385008D01*
X54873500Y-41421302D01*
X54873500Y-41890697D01*
X54876356Y-41926991D01*
X54876357Y-41926997D01*
X54921504Y-42082390D01*
X54921505Y-42082393D01*
X55003881Y-42221684D01*
X55003887Y-42221692D01*
X55077911Y-42295716D01*
X55111396Y-42357039D01*
X55111848Y-42359206D01*
X55134200Y-42471581D01*
X55152644Y-42564310D01*
X55157210Y-42587263D01*
X55187972Y-42688675D01*
X55259895Y-42925785D01*
X55383911Y-43225196D01*
X55395268Y-43252614D01*
X55395269Y-43252618D01*
X55562026Y-43564606D01*
X55562029Y-43564612D01*
X55758561Y-43858750D01*
X55758563Y-43858753D01*
X55758565Y-43858755D01*
X55934987Y-44073731D01*
X55982982Y-44132214D01*
X55982990Y-44132223D01*
X56079184Y-44228419D01*
X56079206Y-44228442D01*
X56166681Y-44315917D01*
X56166687Y-44315922D01*
X59234740Y-47383975D01*
X59234791Y-47384069D01*
X59396757Y-47546031D01*
X59396762Y-47546035D01*
X59396763Y-47546036D01*
X59670229Y-47770459D01*
X59670233Y-47770462D01*
X59799058Y-47856538D01*
X59964375Y-47966997D01*
X60103095Y-48041142D01*
X60152939Y-48090103D01*
X60168400Y-48158240D01*
X60144569Y-48223920D01*
X60089012Y-48266290D01*
X60044642Y-48274500D01*
X53291652Y-48274500D01*
X53290782Y-48274527D01*
X53155772Y-48274527D01*
X53155771Y-48274527D01*
X53155769Y-48274527D01*
X53026253Y-48287281D01*
X52803715Y-48309196D01*
X52803710Y-48309196D01*
X52456740Y-48378209D01*
X52456738Y-48378209D01*
X52118213Y-48480895D01*
X52118206Y-48480898D01*
X51791385Y-48616268D01*
X51791381Y-48616269D01*
X51479394Y-48783025D01*
X51479388Y-48783028D01*
X51185250Y-48979560D01*
X51185243Y-48979565D01*
X50911788Y-49203980D01*
X50911782Y-49203985D01*
X50911783Y-49203985D01*
X50814538Y-49301226D01*
X50814536Y-49301229D01*
X50810208Y-49305557D01*
X50810207Y-49305556D01*
X50810204Y-49305560D01*
X50021888Y-50093877D01*
X49985294Y-50130469D01*
X49982768Y-50132858D01*
X49786025Y-50308675D01*
X49780585Y-50313013D01*
X49566823Y-50464682D01*
X49560931Y-50468385D01*
X49331516Y-50595173D01*
X49325247Y-50598192D01*
X49083080Y-50698498D01*
X49076512Y-50700796D01*
X48824650Y-50773353D01*
X48817866Y-50774902D01*
X48559461Y-50818803D01*
X48552547Y-50819582D01*
X48288592Y-50834401D01*
X48285116Y-50834499D01*
X48210714Y-50834499D01*
X48210698Y-50834500D01*
X47039302Y-50834500D01*
X47039286Y-50834499D01*
X46964371Y-50834499D01*
X46960895Y-50834402D01*
X46697449Y-50819611D01*
X46690536Y-50818832D01*
X46432121Y-50774929D01*
X46425342Y-50773381D01*
X46173475Y-50700823D01*
X46166907Y-50698525D01*
X45924736Y-50598218D01*
X45918467Y-50595199D01*
X45826027Y-50544111D01*
X45689047Y-50468407D01*
X45683168Y-50464712D01*
X45629686Y-50426765D01*
X45469394Y-50313033D01*
X45463962Y-50308702D01*
X45267587Y-50133214D01*
X45265059Y-50130824D01*
X42826998Y-47692763D01*
X45770787Y-47692763D01*
X45800413Y-47962013D01*
X45800415Y-47962024D01*
X45845312Y-48133756D01*
X45868928Y-48224088D01*
X45974870Y-48473390D01*
X46062068Y-48616269D01*
X46115979Y-48704605D01*
X46115986Y-48704615D01*
X46289253Y-48912819D01*
X46289259Y-48912824D01*
X46426346Y-49035654D01*
X46490998Y-49093582D01*
X46716910Y-49243044D01*
X46962176Y-49358020D01*
X46962183Y-49358022D01*
X46962185Y-49358023D01*
X47221557Y-49436057D01*
X47221564Y-49436058D01*
X47221569Y-49436060D01*
X47489561Y-49475500D01*
X47489566Y-49475500D01*
X47692629Y-49475500D01*
X47692631Y-49475500D01*
X47692636Y-49475499D01*
X47692648Y-49475499D01*
X47730191Y-49472750D01*
X47895156Y-49460677D01*
X48007758Y-49435593D01*
X48159546Y-49401782D01*
X48159548Y-49401781D01*
X48159553Y-49401780D01*
X48412558Y-49305014D01*
X48648777Y-49172441D01*
X48863177Y-49006888D01*
X49051186Y-48811881D01*
X49208799Y-48591579D01*
X49300295Y-48413618D01*
X49332649Y-48350690D01*
X49332651Y-48350684D01*
X49332656Y-48350675D01*
X49420118Y-48094305D01*
X49469319Y-47827933D01*
X49479212Y-47557235D01*
X49449586Y-47287982D01*
X49381072Y-47025912D01*
X49275130Y-46776610D01*
X49134018Y-46545390D01*
X49086025Y-46487720D01*
X48960746Y-46337180D01*
X48960740Y-46337175D01*
X48759002Y-46156418D01*
X48533092Y-46006957D01*
X48520022Y-46000830D01*
X48287824Y-45891980D01*
X48287819Y-45891978D01*
X48287814Y-45891976D01*
X48028442Y-45813942D01*
X48028428Y-45813939D01*
X47912791Y-45796921D01*
X47760439Y-45774500D01*
X47557369Y-45774500D01*
X47557351Y-45774500D01*
X47354844Y-45789323D01*
X47354831Y-45789325D01*
X47090453Y-45848217D01*
X47090446Y-45848220D01*
X46837439Y-45944987D01*
X46601226Y-46077557D01*
X46601224Y-46077558D01*
X46601223Y-46077559D01*
X46546515Y-46119803D01*
X46386822Y-46243112D01*
X46198822Y-46438109D01*
X46198816Y-46438116D01*
X46041202Y-46658419D01*
X46041199Y-46658424D01*
X45917350Y-46899309D01*
X45917343Y-46899327D01*
X45829884Y-47155685D01*
X45829881Y-47155699D01*
X45780681Y-47422068D01*
X45780680Y-47422075D01*
X45770787Y-47692763D01*
X42826998Y-47692763D01*
X37792764Y-42658529D01*
X37759279Y-42597206D01*
X37764263Y-42527514D01*
X37806135Y-42471581D01*
X37845843Y-42451774D01*
X37960395Y-42418494D01*
X38093393Y-42339838D01*
X38161113Y-42322657D01*
X38222484Y-42341579D01*
X38286478Y-42381789D01*
X38286481Y-42381790D01*
X38456737Y-42441366D01*
X38456743Y-42441367D01*
X38456745Y-42441368D01*
X38456746Y-42441368D01*
X38456750Y-42441369D01*
X38635996Y-42461565D01*
X38636000Y-42461565D01*
X38636004Y-42461565D01*
X38815249Y-42441369D01*
X38815252Y-42441368D01*
X38815255Y-42441368D01*
X38985522Y-42381789D01*
X39138262Y-42285816D01*
X39265816Y-42158262D01*
X39361789Y-42005522D01*
X39421368Y-41835255D01*
X39426085Y-41793392D01*
X39441565Y-41656003D01*
X39441565Y-41655997D01*
X39427840Y-41534184D01*
X39439894Y-41465362D01*
X39446000Y-41456848D01*
X39446000Y-40790000D01*
X39746000Y-40790000D01*
X39746000Y-41449999D01*
X39800624Y-41449999D01*
X39800649Y-41449998D01*
X39836910Y-41447145D01*
X39992196Y-41402030D01*
X40131374Y-41319721D01*
X40131383Y-41319714D01*
X40245714Y-41205383D01*
X40245721Y-41205374D01*
X40328030Y-41066196D01*
X40373145Y-40910910D01*
X40373145Y-40910907D01*
X40375999Y-40874644D01*
X40376000Y-40874629D01*
X40376000Y-40790000D01*
X39746000Y-40790000D01*
X39446000Y-40790000D01*
X39446000Y-40614000D01*
X39465685Y-40546961D01*
X39518489Y-40501206D01*
X39570000Y-40490000D01*
X40375999Y-40490000D01*
X40375999Y-40405375D01*
X40375998Y-40405350D01*
X40373145Y-40369089D01*
X40328030Y-40213803D01*
X40245721Y-40074625D01*
X40245714Y-40074616D01*
X40131383Y-39960285D01*
X40131374Y-39960278D01*
X39992195Y-39877968D01*
X39992190Y-39877966D01*
X39935709Y-39861557D01*
X39876823Y-39823951D01*
X39847617Y-39760479D01*
X39846686Y-39732755D01*
X39849731Y-39694053D01*
X39872761Y-39631267D01*
X39877996Y-39624003D01*
X39878000Y-39624000D01*
X39887296Y-39605408D01*
X40005000Y-39370001D01*
X40005000Y-38047401D01*
X42075746Y-38047401D01*
X42085745Y-38257327D01*
X42135296Y-38461578D01*
X42135298Y-38461582D01*
X42222598Y-38652743D01*
X42222601Y-38652748D01*
X42222602Y-38652750D01*
X42222604Y-38652753D01*
X42343899Y-38823088D01*
X42344515Y-38823953D01*
X42344520Y-38823959D01*
X42496620Y-38968985D01*
X42591578Y-39030011D01*
X42673428Y-39082613D01*
X42868543Y-39160725D01*
X42971729Y-39180612D01*
X43074914Y-39200500D01*
X43074915Y-39200500D01*
X43232419Y-39200500D01*
X43232425Y-39200500D01*
X43389218Y-39185528D01*
X43590875Y-39126316D01*
X43777682Y-39030011D01*
X43942886Y-38900092D01*
X44080519Y-38741256D01*
X44108860Y-38692169D01*
X44185601Y-38559249D01*
X44185600Y-38559249D01*
X44185604Y-38559244D01*
X44254344Y-38360633D01*
X44284254Y-38152602D01*
X44279243Y-38047401D01*
X50965746Y-38047401D01*
X50975745Y-38257327D01*
X51025296Y-38461578D01*
X51025298Y-38461582D01*
X51112598Y-38652743D01*
X51112601Y-38652748D01*
X51112602Y-38652750D01*
X51112604Y-38652753D01*
X51233899Y-38823088D01*
X51234515Y-38823953D01*
X51234520Y-38823959D01*
X51386620Y-38968985D01*
X51481578Y-39030011D01*
X51563428Y-39082613D01*
X51758543Y-39160725D01*
X51861729Y-39180612D01*
X51964914Y-39200500D01*
X51964915Y-39200500D01*
X52122419Y-39200500D01*
X52122425Y-39200500D01*
X52279218Y-39185528D01*
X52480875Y-39126316D01*
X52667682Y-39030011D01*
X52832886Y-38900092D01*
X52970519Y-38741256D01*
X52998860Y-38692169D01*
X53075601Y-38559249D01*
X53075600Y-38559249D01*
X53075604Y-38559244D01*
X53144344Y-38360633D01*
X53174254Y-38152602D01*
X53164254Y-37942670D01*
X53114704Y-37738424D01*
X53097796Y-37701401D01*
X53027401Y-37547256D01*
X53027398Y-37547251D01*
X53027397Y-37547250D01*
X53027396Y-37547247D01*
X52905486Y-37376048D01*
X52905484Y-37376046D01*
X52905479Y-37376040D01*
X52753379Y-37231014D01*
X52576574Y-37117388D01*
X52574553Y-37116579D01*
X52381457Y-37039275D01*
X52381455Y-37039274D01*
X52175086Y-36999500D01*
X52175085Y-36999500D01*
X52017575Y-36999500D01*
X51860781Y-37014472D01*
X51860782Y-37014472D01*
X51860778Y-37014473D01*
X51659127Y-37073683D01*
X51472313Y-37169991D01*
X51307116Y-37299905D01*
X51307112Y-37299909D01*
X51169478Y-37458746D01*
X51064398Y-37640750D01*
X50995656Y-37839365D01*
X50995656Y-37839367D01*
X50969218Y-38023255D01*
X50965746Y-38047401D01*
X44279243Y-38047401D01*
X44274254Y-37942670D01*
X44224704Y-37738424D01*
X44207796Y-37701401D01*
X44137401Y-37547256D01*
X44137398Y-37547251D01*
X44137397Y-37547250D01*
X44137396Y-37547247D01*
X44015486Y-37376048D01*
X44015484Y-37376046D01*
X44015479Y-37376040D01*
X43863379Y-37231014D01*
X43686574Y-37117388D01*
X43684553Y-37116579D01*
X43491457Y-37039275D01*
X43491455Y-37039274D01*
X43285086Y-36999500D01*
X43285085Y-36999500D01*
X43127575Y-36999500D01*
X42970781Y-37014472D01*
X42970782Y-37014472D01*
X42970778Y-37014473D01*
X42769127Y-37073683D01*
X42582313Y-37169991D01*
X42417116Y-37299905D01*
X42417112Y-37299909D01*
X42279478Y-37458746D01*
X42174398Y-37640750D01*
X42105656Y-37839365D01*
X42105656Y-37839367D01*
X42079218Y-38023255D01*
X42075746Y-38047401D01*
X40005000Y-38047401D01*
X40005000Y-36829998D01*
X39878002Y-36576003D01*
X39877999Y-36575999D01*
X39623997Y-36321997D01*
X39370001Y-36195000D01*
X39370000Y-36195000D01*
X39015702Y-36195000D01*
X38948663Y-36175315D01*
X38902908Y-36122511D01*
X38892482Y-36057116D01*
X38905565Y-35941001D01*
X38905565Y-35940995D01*
X38885369Y-35761749D01*
X38885368Y-35761744D01*
X38846171Y-35649725D01*
X38825789Y-35591477D01*
X38820963Y-35583797D01*
X38770081Y-35502819D01*
X38729816Y-35438737D01*
X38602262Y-35311183D01*
X38602261Y-35311182D01*
X38488981Y-35240003D01*
X42628435Y-35240003D01*
X42648630Y-35419249D01*
X42648631Y-35419254D01*
X42708211Y-35589523D01*
X42761720Y-35674681D01*
X42804184Y-35742262D01*
X42931738Y-35869816D01*
X42941580Y-35876000D01*
X43073036Y-35958600D01*
X43084478Y-35965789D01*
X43254745Y-36025367D01*
X43254745Y-36025368D01*
X43254750Y-36025369D01*
X43433996Y-36045565D01*
X43434000Y-36045565D01*
X43434002Y-36045565D01*
X43446599Y-36044145D01*
X43475497Y-36040889D01*
X43482436Y-36040500D01*
X43666770Y-36040500D01*
X43733809Y-36060185D01*
X43754451Y-36076819D01*
X43760344Y-36082712D01*
X43909666Y-36174814D01*
X44076203Y-36229999D01*
X44178991Y-36240500D01*
X45229008Y-36240499D01*
X45229016Y-36240498D01*
X45229019Y-36240498D01*
X45285302Y-36234748D01*
X45331797Y-36229999D01*
X45498334Y-36174814D01*
X45647656Y-36082712D01*
X45653549Y-36076818D01*
X45714872Y-36043334D01*
X45741230Y-36040500D01*
X46034306Y-36040500D01*
X46642546Y-36040500D01*
X47957564Y-36040500D01*
X47964502Y-36040889D01*
X47993400Y-36044145D01*
X48005998Y-36045565D01*
X48006000Y-36045565D01*
X48006002Y-36045565D01*
X48018599Y-36044145D01*
X48047497Y-36040889D01*
X48054436Y-36040500D01*
X49227564Y-36040500D01*
X49234502Y-36040889D01*
X49263400Y-36044145D01*
X49275998Y-36045565D01*
X49276000Y-36045565D01*
X49276002Y-36045565D01*
X49288599Y-36044145D01*
X49317497Y-36040889D01*
X49324436Y-36040500D01*
X49508770Y-36040500D01*
X49575809Y-36060185D01*
X49596451Y-36076819D01*
X49602344Y-36082712D01*
X49751666Y-36174814D01*
X49918203Y-36229999D01*
X50020991Y-36240500D01*
X51071008Y-36240499D01*
X51071016Y-36240498D01*
X51071019Y-36240498D01*
X51127302Y-36234748D01*
X51173797Y-36229999D01*
X51340334Y-36174814D01*
X51489656Y-36082712D01*
X51613712Y-35958656D01*
X51705814Y-35809334D01*
X51760999Y-35642797D01*
X51771500Y-35540009D01*
X51771499Y-34939992D01*
X51760999Y-34837203D01*
X51705814Y-34670666D01*
X51613712Y-34521344D01*
X51489656Y-34397288D01*
X51486819Y-34395538D01*
X51485283Y-34393830D01*
X51483989Y-34392807D01*
X51484163Y-34392585D01*
X51440096Y-34343594D01*
X51428872Y-34274632D01*
X51456713Y-34210549D01*
X51486817Y-34184462D01*
X51489656Y-34182712D01*
X51545549Y-34126819D01*
X51606872Y-34093334D01*
X51633230Y-34090500D01*
X54500501Y-34090500D01*
X54567540Y-34110185D01*
X54613295Y-34162989D01*
X54624501Y-34214500D01*
X54624501Y-34330018D01*
X54635000Y-34432796D01*
X54635001Y-34432799D01*
X54667045Y-34529500D01*
X54690186Y-34599334D01*
X54782288Y-34748656D01*
X54906344Y-34872712D01*
X55055666Y-34964814D01*
X55222203Y-35019999D01*
X55324991Y-35030500D01*
X56175008Y-35030499D01*
X56175016Y-35030498D01*
X56175019Y-35030498D01*
X56231302Y-35024748D01*
X56277797Y-35019999D01*
X56444334Y-34964814D01*
X56593656Y-34872712D01*
X56717712Y-34748656D01*
X56809814Y-34599334D01*
X56864999Y-34432797D01*
X56875500Y-34330009D01*
X56875499Y-32979992D01*
X56874080Y-32966105D01*
X56864999Y-32877203D01*
X56864998Y-32877200D01*
X56859202Y-32859710D01*
X56809814Y-32710666D01*
X56717712Y-32561344D01*
X56593656Y-32437288D01*
X56452938Y-32350493D01*
X56444336Y-32345187D01*
X56444331Y-32345185D01*
X56427175Y-32339500D01*
X56277797Y-32290001D01*
X56277795Y-32290000D01*
X56175010Y-32279500D01*
X55324998Y-32279500D01*
X55324980Y-32279501D01*
X55222203Y-32290000D01*
X55222200Y-32290001D01*
X55055668Y-32345185D01*
X55055663Y-32345187D01*
X54906342Y-32437289D01*
X54790451Y-32553181D01*
X54729128Y-32586666D01*
X54702770Y-32589500D01*
X51633230Y-32589500D01*
X51566191Y-32569815D01*
X51545549Y-32553181D01*
X51489657Y-32497289D01*
X51489656Y-32497288D01*
X51340334Y-32405186D01*
X51173797Y-32350001D01*
X51173795Y-32350000D01*
X51071010Y-32339500D01*
X50020998Y-32339500D01*
X50020980Y-32339501D01*
X49918203Y-32350000D01*
X49918200Y-32350001D01*
X49751668Y-32405185D01*
X49751663Y-32405187D01*
X49699620Y-32437288D01*
X49608421Y-32493539D01*
X49543326Y-32512000D01*
X45705722Y-32512000D01*
X45640625Y-32493539D01*
X45498124Y-32405643D01*
X45498119Y-32405641D01*
X45331697Y-32350494D01*
X45331690Y-32350493D01*
X45228986Y-32340000D01*
X44854000Y-32340000D01*
X44854000Y-33190000D01*
X45469000Y-33190000D01*
X45536039Y-33209685D01*
X45581794Y-33262489D01*
X45593000Y-33314000D01*
X45593000Y-33366000D01*
X45573315Y-33433039D01*
X45520511Y-33478794D01*
X45469000Y-33490000D01*
X43479001Y-33490000D01*
X43479001Y-33639986D01*
X43489494Y-33742697D01*
X43544641Y-33909119D01*
X43544643Y-33909124D01*
X43636684Y-34058345D01*
X43760655Y-34182316D01*
X43760659Y-34182319D01*
X43763656Y-34184168D01*
X43765279Y-34185972D01*
X43766323Y-34186798D01*
X43766181Y-34186976D01*
X43810381Y-34236116D01*
X43821602Y-34305079D01*
X43793759Y-34369161D01*
X43763661Y-34395241D01*
X43760349Y-34397283D01*
X43760343Y-34397288D01*
X43754451Y-34403181D01*
X43693128Y-34436666D01*
X43666770Y-34439500D01*
X43482436Y-34439500D01*
X43475497Y-34439110D01*
X43446599Y-34435854D01*
X43434002Y-34434435D01*
X43433998Y-34434435D01*
X43404030Y-34437811D01*
X43389046Y-34439500D01*
X43376168Y-34440951D01*
X43363289Y-34442402D01*
X43254750Y-34454630D01*
X43254745Y-34454631D01*
X43084476Y-34514211D01*
X42931737Y-34610184D01*
X42804184Y-34737737D01*
X42708211Y-34890476D01*
X42648631Y-35060745D01*
X42648630Y-35060750D01*
X42628435Y-35239996D01*
X42628435Y-35240003D01*
X38488981Y-35240003D01*
X38449523Y-35215210D01*
X38279254Y-35155630D01*
X38279249Y-35155629D01*
X38100004Y-35135434D01*
X38099996Y-35135434D01*
X37920750Y-35155629D01*
X37920745Y-35155630D01*
X37750476Y-35215210D01*
X37597737Y-35311183D01*
X37470184Y-35438736D01*
X37374211Y-35591475D01*
X37314631Y-35761744D01*
X37314630Y-35761749D01*
X37294435Y-35940995D01*
X37294435Y-35941001D01*
X37307518Y-36057116D01*
X37295464Y-36125938D01*
X37248115Y-36177318D01*
X37184298Y-36195000D01*
X36829999Y-36195000D01*
X36575999Y-36322000D01*
X36322000Y-36575999D01*
X36195001Y-36829998D01*
X36195000Y-36830000D01*
X36195000Y-39370000D01*
X36322000Y-39624000D01*
X36322002Y-39624002D01*
X36326677Y-39630488D01*
X36349702Y-39693268D01*
X36351468Y-39715714D01*
X36337102Y-39784091D01*
X36288050Y-39833847D01*
X36262446Y-39844516D01*
X36184610Y-39867129D01*
X36184606Y-39867131D01*
X36046404Y-39948863D01*
X36046396Y-39948869D01*
X35932869Y-40062396D01*
X35932863Y-40062404D01*
X35851131Y-40200606D01*
X35851129Y-40200611D01*
X35806335Y-40354791D01*
X35806334Y-40354797D01*
X35803500Y-40390811D01*
X35803500Y-40889169D01*
X31415500Y-40889169D01*
X31415500Y-38047401D01*
X31915746Y-38047401D01*
X31925745Y-38257327D01*
X31975296Y-38461578D01*
X31975298Y-38461582D01*
X32062598Y-38652743D01*
X32062601Y-38652748D01*
X32062602Y-38652750D01*
X32062604Y-38652753D01*
X32183899Y-38823088D01*
X32184515Y-38823953D01*
X32184520Y-38823959D01*
X32336620Y-38968985D01*
X32431578Y-39030011D01*
X32513428Y-39082613D01*
X32708543Y-39160725D01*
X32811729Y-39180612D01*
X32914914Y-39200500D01*
X32914915Y-39200500D01*
X33072419Y-39200500D01*
X33072425Y-39200500D01*
X33229218Y-39185528D01*
X33430875Y-39126316D01*
X33617682Y-39030011D01*
X33782886Y-38900092D01*
X33920519Y-38741256D01*
X33948860Y-38692169D01*
X34025601Y-38559249D01*
X34025600Y-38559249D01*
X34025604Y-38559244D01*
X34094344Y-38360633D01*
X34124254Y-38152602D01*
X34114254Y-37942670D01*
X34064704Y-37738424D01*
X34047796Y-37701401D01*
X33977401Y-37547256D01*
X33977398Y-37547251D01*
X33977397Y-37547250D01*
X33977396Y-37547247D01*
X33855486Y-37376048D01*
X33855484Y-37376046D01*
X33855479Y-37376040D01*
X33703379Y-37231014D01*
X33526574Y-37117388D01*
X33524553Y-37116579D01*
X33331457Y-37039275D01*
X33331455Y-37039274D01*
X33125086Y-36999500D01*
X33125085Y-36999500D01*
X32967575Y-36999500D01*
X32810781Y-37014472D01*
X32810782Y-37014472D01*
X32810778Y-37014473D01*
X32609127Y-37073683D01*
X32422313Y-37169991D01*
X32257116Y-37299905D01*
X32257112Y-37299909D01*
X32119478Y-37458746D01*
X32014398Y-37640750D01*
X31945656Y-37839365D01*
X31945656Y-37839367D01*
X31919218Y-38023255D01*
X31915746Y-38047401D01*
X31415500Y-38047401D01*
X31415500Y-33190000D01*
X43479000Y-33190000D01*
X44554000Y-33190000D01*
X44554000Y-32340000D01*
X44179028Y-32340000D01*
X44179012Y-32340001D01*
X44076302Y-32350494D01*
X43909880Y-32405641D01*
X43909875Y-32405643D01*
X43760654Y-32497684D01*
X43636684Y-32621654D01*
X43544643Y-32770875D01*
X43544641Y-32770880D01*
X43489494Y-32937302D01*
X43489493Y-32937309D01*
X43479000Y-33040013D01*
X43479000Y-33190000D01*
X31415500Y-33190000D01*
X31415500Y-31539500D01*
X31435185Y-31472461D01*
X31487989Y-31426706D01*
X31539500Y-31415500D01*
X60056321Y-31415500D01*
X60056324Y-31415500D01*
X60278687Y-31383529D01*
X60431850Y-31338557D01*
X60494227Y-31320242D01*
X60494233Y-31320240D01*
X60494233Y-31320239D01*
X60494236Y-31320239D01*
X60698583Y-31226916D01*
X60887570Y-31105462D01*
X61057348Y-30958348D01*
X61204462Y-30788570D01*
X61221863Y-30761492D01*
X61274666Y-30715739D01*
X61343824Y-30705795D01*
X61407380Y-30734820D01*
X61434597Y-30768356D01*
X61529589Y-30939499D01*
X61529592Y-30939504D01*
X61662132Y-31093893D01*
X61662134Y-31093895D01*
X61823037Y-31218445D01*
X61823038Y-31218445D01*
X61823042Y-31218448D01*
X62005729Y-31308060D01*
X62202715Y-31359063D01*
X62405936Y-31369369D01*
X62607071Y-31338556D01*
X62797887Y-31267886D01*
X62970571Y-31160252D01*
X63118053Y-31020059D01*
X63234295Y-30853049D01*
X63314540Y-30666058D01*
X63355500Y-30466741D01*
X63355500Y-29714258D01*
X63340074Y-29562562D01*
X63340074Y-29562560D01*
X63279162Y-29368420D01*
X63279160Y-29368416D01*
X63279159Y-29368412D01*
X63180409Y-29190498D01*
X63180408Y-29190497D01*
X63180407Y-29190495D01*
X63085781Y-29080270D01*
X63057049Y-29016582D01*
X63067311Y-28947470D01*
X63113308Y-28894877D01*
X63179867Y-28875500D01*
X70168152Y-28875500D01*
X70235191Y-28895185D01*
G37*
%TD.AperFunction*%
%TD*%
%TA.AperFunction,Conductor*%
%TO.N,+3.3V*%
G36*
X85090413Y-40662805D02*
G01*
X85058890Y-40725160D01*
X85039595Y-40741880D01*
X84853922Y-40871890D01*
X84853920Y-40871891D01*
X84686891Y-41038920D01*
X84686886Y-41038926D01*
X84551400Y-41232420D01*
X84551399Y-41232422D01*
X84451570Y-41446507D01*
X84451567Y-41446513D01*
X84394364Y-41659999D01*
X84394364Y-41660000D01*
X85291314Y-41660000D01*
X85265507Y-41700156D01*
X85225000Y-41838111D01*
X85225000Y-41981889D01*
X85265507Y-42119844D01*
X85291314Y-42160000D01*
X84394364Y-42160000D01*
X84451567Y-42373486D01*
X84451570Y-42373492D01*
X84551399Y-42587578D01*
X84686894Y-42781082D01*
X84853917Y-42948105D01*
X84917005Y-42992280D01*
X84960629Y-43046857D01*
X84967822Y-43116356D01*
X84936300Y-43178710D01*
X84876070Y-43214124D01*
X84858033Y-43217258D01*
X84533715Y-43249196D01*
X84533706Y-43249197D01*
X84328000Y-43290111D01*
X84328000Y-40640000D01*
X85088052Y-40640000D01*
X85090413Y-40662805D01*
G37*
%TD.AperFunction*%
%TA.AperFunction,Conductor*%
G36*
X87122000Y-43214500D02*
G01*
X86608911Y-43214500D01*
X86541872Y-43194815D01*
X86496117Y-43142011D01*
X86486173Y-43072853D01*
X86515198Y-43009297D01*
X86537787Y-42988926D01*
X86596078Y-42948109D01*
X86763105Y-42781082D01*
X86898600Y-42587578D01*
X86998429Y-42373492D01*
X86998432Y-42373486D01*
X87055636Y-42160000D01*
X86158686Y-42160000D01*
X86184493Y-42119844D01*
X86225000Y-41981889D01*
X86225000Y-41838111D01*
X86184493Y-41700156D01*
X86158686Y-41660000D01*
X87055636Y-41660000D01*
X87055635Y-41659999D01*
X86998432Y-41446513D01*
X86998429Y-41446507D01*
X86898600Y-41232422D01*
X86898599Y-41232420D01*
X86763113Y-41038926D01*
X86763108Y-41038920D01*
X86596078Y-40871890D01*
X86410405Y-40741879D01*
X86366780Y-40687302D01*
X86361885Y-40640000D01*
X87122000Y-40640000D01*
X87122000Y-43214500D01*
G37*
%TD.AperFunction*%
%TD*%
%TA.AperFunction,Conductor*%
%TO.N,GND*%
G36*
X71114227Y-33288906D02*
G01*
X71145491Y-33297284D01*
X71235916Y-33334739D01*
X71263946Y-33350921D01*
X71341607Y-33410513D01*
X71364486Y-33433392D01*
X71424076Y-33511050D01*
X71440260Y-33539083D01*
X71477715Y-33629508D01*
X71486093Y-33660775D01*
X71500468Y-33769965D01*
X71500999Y-33778066D01*
X71500999Y-35436934D01*
X71500468Y-35445035D01*
X71486092Y-35554224D01*
X71477714Y-35585491D01*
X71440258Y-35675918D01*
X71424073Y-35703951D01*
X71364492Y-35781599D01*
X71341602Y-35804489D01*
X71263948Y-35864075D01*
X71235914Y-35880260D01*
X71145489Y-35917715D01*
X71114223Y-35926093D01*
X71025782Y-35937737D01*
X71005030Y-35940469D01*
X70996933Y-35941000D01*
X70100067Y-35941000D01*
X70091968Y-35940469D01*
X70059539Y-35936199D01*
X70033313Y-35932747D01*
X69969417Y-35904480D01*
X69930946Y-35846156D01*
X69925499Y-35809814D01*
X69925499Y-34541118D01*
X69945184Y-34474080D01*
X69997988Y-34428325D01*
X70030105Y-34418646D01*
X70040500Y-34417000D01*
X70485000Y-34417000D01*
X70485000Y-33778065D01*
X70485531Y-33769964D01*
X70499906Y-33660776D01*
X70508284Y-33629508D01*
X70545740Y-33539081D01*
X70561923Y-33511050D01*
X70621513Y-33433392D01*
X70644392Y-33410513D01*
X70722050Y-33350923D01*
X70750079Y-33334740D01*
X70840509Y-33297283D01*
X70871773Y-33288906D01*
X70976819Y-33275077D01*
X71009181Y-33275077D01*
X71114227Y-33288906D01*
G37*
%TD.AperFunction*%
%TD*%
%TA.AperFunction,Conductor*%
%TO.N,GND*%
G36*
X62478224Y-33288906D02*
G01*
X62509491Y-33297284D01*
X62599918Y-33334740D01*
X62627952Y-33350925D01*
X62705602Y-33410509D01*
X62728490Y-33433397D01*
X62748115Y-33458973D01*
X62788074Y-33511048D01*
X62804259Y-33539081D01*
X62841715Y-33629508D01*
X62850093Y-33660775D01*
X62864469Y-33769964D01*
X62865000Y-33778065D01*
X62864999Y-33972505D01*
X62865000Y-33972511D01*
X62865000Y-34417000D01*
X63309500Y-34417000D01*
X63319895Y-34418646D01*
X63383026Y-34448570D01*
X63419962Y-34507879D01*
X63424500Y-34541119D01*
X63424501Y-35701500D01*
X63404816Y-35768539D01*
X63352013Y-35814294D01*
X63300501Y-35825500D01*
X62080343Y-35825500D01*
X62013304Y-35805815D01*
X61981968Y-35776987D01*
X61925925Y-35703951D01*
X61909739Y-35675916D01*
X61872284Y-35585491D01*
X61863906Y-35554224D01*
X61849531Y-35445034D01*
X61849000Y-35436933D01*
X61849000Y-34724142D01*
X61849000Y-33778049D01*
X61849529Y-33769984D01*
X61863907Y-33660773D01*
X61872285Y-33629508D01*
X61909741Y-33539081D01*
X61925926Y-33511048D01*
X61985510Y-33433396D01*
X62008397Y-33410510D01*
X62086051Y-33350924D01*
X62114085Y-33334739D01*
X62204510Y-33297284D01*
X62235774Y-33288906D01*
X62340820Y-33275077D01*
X62373181Y-33275077D01*
X62478224Y-33288906D01*
G37*
%TD.AperFunction*%
%TD*%
%TA.AperFunction,Conductor*%
%TO.N,VBUS*%
G36*
X69091033Y-33166685D02*
G01*
X69136788Y-33219489D01*
X69146732Y-33288647D01*
X69122369Y-33346487D01*
X69062302Y-33424765D01*
X69062300Y-33424769D01*
X69004313Y-33564763D01*
X69004312Y-33564765D01*
X68984534Y-33714999D01*
X68984534Y-33715000D01*
X69004312Y-33865234D01*
X69004313Y-33865236D01*
X69062302Y-34005233D01*
X69154549Y-34125451D01*
X69274767Y-34217698D01*
X69308288Y-34231583D01*
X69362692Y-34275422D01*
X69384758Y-34341716D01*
X69382454Y-34370335D01*
X69374500Y-34410321D01*
X69374500Y-35817001D01*
X69354815Y-35884040D01*
X69302011Y-35929795D01*
X69250500Y-35941001D01*
X68949500Y-35941001D01*
X68882461Y-35921316D01*
X68836706Y-35868512D01*
X68825500Y-35817001D01*
X68825500Y-34410323D01*
X68825499Y-34410321D01*
X68810967Y-34337264D01*
X68810966Y-34337260D01*
X68771070Y-34277551D01*
X68755601Y-34254399D01*
X68672740Y-34199034D01*
X68672739Y-34199033D01*
X68672735Y-34199032D01*
X68599677Y-34184500D01*
X68599674Y-34184500D01*
X68250326Y-34184500D01*
X68199190Y-34194671D01*
X68150810Y-34194671D01*
X68099674Y-34184500D01*
X67851957Y-34184500D01*
X67784918Y-34164815D01*
X67740237Y-34114302D01*
X67679279Y-33987723D01*
X67679277Y-33987720D01*
X67653518Y-33955420D01*
X67587883Y-33873117D01*
X67522246Y-33820773D01*
X67473279Y-33781722D01*
X67473276Y-33781720D01*
X67341209Y-33718120D01*
X67341207Y-33718119D01*
X67341206Y-33718119D01*
X67296154Y-33707836D01*
X67198297Y-33685500D01*
X67198294Y-33685500D01*
X67183488Y-33685500D01*
X66780514Y-33685500D01*
X66725000Y-33685500D01*
X66651706Y-33685500D01*
X66651702Y-33685500D01*
X66508790Y-33718120D01*
X66376723Y-33781720D01*
X66376720Y-33781722D01*
X66262117Y-33873117D01*
X66170722Y-33987720D01*
X66170720Y-33987723D01*
X66109763Y-34114302D01*
X66062940Y-34166161D01*
X65998043Y-34184500D01*
X65750326Y-34184500D01*
X65699190Y-34194671D01*
X65650810Y-34194671D01*
X65599674Y-34184500D01*
X65250326Y-34184500D01*
X65199190Y-34194671D01*
X65150810Y-34194671D01*
X65099674Y-34184500D01*
X64750326Y-34184500D01*
X64750323Y-34184500D01*
X64677264Y-34199032D01*
X64677260Y-34199033D01*
X64594399Y-34254399D01*
X64539033Y-34337260D01*
X64539032Y-34337264D01*
X64524500Y-34410321D01*
X64524500Y-35817001D01*
X64504815Y-35884040D01*
X64452011Y-35929795D01*
X64400500Y-35941001D01*
X64099500Y-35941001D01*
X64032461Y-35921316D01*
X63986706Y-35868512D01*
X63975500Y-35817001D01*
X63975500Y-35445205D01*
X63975500Y-34410326D01*
X63975448Y-34410068D01*
X63967546Y-34370335D01*
X63973773Y-34300744D01*
X64016636Y-34245566D01*
X64041709Y-34231584D01*
X64075233Y-34217698D01*
X64195451Y-34125451D01*
X64287698Y-34005233D01*
X64345687Y-33865236D01*
X64365466Y-33715000D01*
X64365095Y-33712185D01*
X64345687Y-33564765D01*
X64345687Y-33564764D01*
X64287698Y-33424767D01*
X64287697Y-33424765D01*
X64227631Y-33346487D01*
X64202436Y-33281318D01*
X64216474Y-33212873D01*
X64265288Y-33162883D01*
X64326006Y-33147000D01*
X69023994Y-33147000D01*
X69091033Y-33166685D01*
G37*
%TD.AperFunction*%
%TD*%
M02*
