%TF.GenerationSoftware,KiCad,Pcbnew,7.0.5*%
%TF.CreationDate,2024-04-29T12:28:37+10:00*%
%TF.ProjectId,8 key thingy,38206b65-7920-4746-9869-6e67792e6b69,rev?*%
%TF.SameCoordinates,Original*%
%TF.FileFunction,Copper,L1,Top*%
%TF.FilePolarity,Positive*%
%FSLAX46Y46*%
G04 Gerber Fmt 4.6, Leading zero omitted, Abs format (unit mm)*
G04 Created by KiCad (PCBNEW 7.0.5) date 2024-04-29 12:28:37*
%MOMM*%
%LPD*%
G01*
G04 APERTURE LIST*
%TA.AperFunction,ComponentPad*%
%ADD10R,1.700000X1.700000*%
%TD*%
%TA.AperFunction,ComponentPad*%
%ADD11O,1.700000X1.700000*%
%TD*%
%TA.AperFunction,ComponentPad*%
%ADD12O,1.000000X1.600000*%
%TD*%
%TA.AperFunction,ComponentPad*%
%ADD13O,1.000000X2.100000*%
%TD*%
%TA.AperFunction,ViaPad*%
%ADD14C,0.600000*%
%TD*%
%TA.AperFunction,Conductor*%
%ADD15C,0.200000*%
%TD*%
%TA.AperFunction,Conductor*%
%ADD16C,0.500000*%
%TD*%
G04 APERTURE END LIST*
D10*
%TO.P,J2,1,Pin_1*%
%TO.N,GND*%
X85725000Y-34290000D03*
D11*
%TO.P,J2,2,Pin_2*%
%TO.N,SWDIO*%
X85725000Y-36830000D03*
%TO.P,J2,3,Pin_3*%
%TO.N,SWCLK*%
X85725000Y-39370000D03*
%TO.P,J2,4,Pin_4*%
%TO.N,+3.3V*%
X85725000Y-41910000D03*
%TD*%
D12*
%TO.P,J1,S1,SHIELD*%
%TO.N,GND*%
X62355000Y-30065000D03*
D13*
X62355000Y-34245000D03*
D12*
X70995000Y-30065000D03*
D13*
X70995000Y-34245000D03*
%TD*%
D14*
%TO.N,USB_D+*%
X66421000Y-42164000D03*
X66421000Y-44704000D03*
%TO.N,GND*%
X75664000Y-53594000D03*
X57686000Y-41656000D03*
X76200000Y-35940999D03*
X48006000Y-35240000D03*
X43434000Y-35240000D03*
X71501000Y-44069000D03*
X94714000Y-53594000D03*
X76200000Y-59309000D03*
X49276000Y-35240000D03*
X68925000Y-44704000D03*
X64897000Y-58508000D03*
X57150000Y-59309000D03*
X38636000Y-41656000D03*
X84328000Y-53594000D03*
X56614000Y-53594000D03*
X66294000Y-54328000D03*
X95250000Y-59309000D03*
X66294000Y-53086000D03*
X69596000Y-49875000D03*
X63119000Y-43815000D03*
X70485000Y-44069000D03*
X37564000Y-53594000D03*
X72136000Y-52578000D03*
X95250000Y-35940999D03*
X63754000Y-45375000D03*
X67816000Y-37844000D03*
X63119000Y-42799000D03*
X69469000Y-56808000D03*
X38100000Y-59309000D03*
X64768000Y-37846000D03*
X38100000Y-35940999D03*
X76736000Y-41656000D03*
X64897000Y-55372000D03*
X57150000Y-35940999D03*
X68072000Y-54328000D03*
X69469000Y-55372000D03*
X95786000Y-41656000D03*
X63500000Y-54328000D03*
X68453000Y-38989000D03*
X70231000Y-51435000D03*
%TO.N,RESET*%
X68072000Y-53086000D03*
X66425000Y-50546000D03*
%TO.N,SWDIO*%
X69596000Y-38989000D03*
%TO.N,SWCLK*%
X70104000Y-39624000D03*
X69596000Y-42037000D03*
X72390000Y-44704000D03*
%TO.N,ADC3*%
X69596000Y-48895000D03*
X72390000Y-49022000D03*
%TO.N,ADC5*%
X72390000Y-47752000D03*
X69596000Y-47879000D03*
%TO.N,ADC7*%
X69596000Y-46863000D03*
X72390000Y-46736000D03*
%TO.N,ADC9*%
X69596000Y-45847000D03*
X72390000Y-45720000D03*
%TD*%
D15*
%TO.N,SWDIO*%
X75797113Y-34036009D02*
G75*
G03*
X74100057Y-34738943I-13J-2399991D01*
G01*
%TO.N,SWCLK*%
X71017000Y-39494800D02*
G75*
G03*
X72517000Y-37994842I0J1500000D01*
G01*
X81484787Y-35129787D02*
X85725000Y-39370000D01*
X72809893Y-36791107D02*
X74471214Y-35129786D01*
X75885427Y-34544000D02*
X80070573Y-34544000D01*
X70233158Y-39494842D02*
X71017000Y-39494842D01*
X72517000Y-37994842D02*
X72517000Y-37498214D01*
X81484801Y-35129773D02*
G75*
G03*
X80070573Y-34544000I-1414201J-1414227D01*
G01*
X70104000Y-39624000D02*
X70233158Y-39494842D01*
X75885427Y-34544020D02*
G75*
G03*
X74471215Y-35129787I-27J-1999980D01*
G01*
X72809886Y-36791100D02*
G75*
G03*
X72517000Y-37498214I707114J-707100D01*
G01*
%TO.N,SWDIO*%
X71223000Y-36703000D02*
G75*
G03*
X69723000Y-38203000I0J-1500000D01*
G01*
X71721786Y-36702990D02*
G75*
G03*
X72428893Y-36410107I14J999990D01*
G01*
X84775427Y-36830000D02*
X85725000Y-36830000D01*
X81885233Y-34768233D02*
X83361214Y-36244214D01*
X69723000Y-38862000D02*
X69723000Y-38203000D01*
X69596000Y-38989000D02*
X69723000Y-38862000D01*
X83361200Y-36244228D02*
G75*
G03*
X84775427Y-36830000I1414200J1414228D01*
G01*
X75797113Y-34036000D02*
X80117466Y-34036000D01*
X81885250Y-34768216D02*
G75*
G03*
X80117466Y-34036000I-1767750J-1767784D01*
G01*
X71223000Y-36703000D02*
X71721786Y-36703000D01*
X72428893Y-36410107D02*
X74100057Y-34738943D01*
D16*
%TO.N,GND*%
X70995000Y-34245000D02*
X72009000Y-34245000D01*
X70995000Y-34245000D02*
X70995000Y-35814000D01*
D15*
%TO.N,USB_D+*%
X66421000Y-42164000D02*
X66421000Y-44704000D01*
D16*
%TO.N,GND*%
X62355000Y-34245000D02*
X62355000Y-35814000D01*
X62355000Y-30065000D02*
X70995000Y-30065000D01*
X70995000Y-34245000D02*
X70995000Y-30065000D01*
X62355000Y-34245000D02*
X61341000Y-34245000D01*
X62355000Y-34245000D02*
X62355000Y-30065000D01*
D15*
%TO.N,RESET*%
X66425000Y-50546000D02*
X67779107Y-51900107D01*
X68072000Y-52607214D02*
X68072000Y-53086000D01*
X68071990Y-52607214D02*
G75*
G03*
X67779107Y-51900107I-999990J14D01*
G01*
%TO.N,SWCLK*%
X72388009Y-44702009D02*
X72388009Y-44037000D01*
X70388009Y-42037000D02*
X69596000Y-42037000D01*
X72390000Y-44704000D02*
X72388009Y-44702009D01*
X72388000Y-44037000D02*
G75*
G03*
X70388009Y-42037000I-2000000J0D01*
G01*
%TO.N,ADC3*%
X69596000Y-48895000D02*
X72263000Y-48895000D01*
X72263000Y-48895000D02*
X72390000Y-49022000D01*
%TO.N,ADC5*%
X72263000Y-47879000D02*
X72390000Y-47752000D01*
X69596000Y-47879000D02*
X72263000Y-47879000D01*
%TO.N,ADC7*%
X69596000Y-46863000D02*
X72263000Y-46863000D01*
X72263000Y-46863000D02*
X72390000Y-46736000D01*
%TO.N,ADC9*%
X72263000Y-45847000D02*
X72390000Y-45720000D01*
X69596000Y-45847000D02*
X72263000Y-45847000D01*
%TD*%
%TA.AperFunction,Conductor*%
%TO.N,GND*%
G36*
X70235916Y-28895185D02*
G01*
X70281671Y-28947989D01*
X70291615Y-29017147D01*
X70262590Y-29080703D01*
X70254308Y-29089375D01*
X70232331Y-29110265D01*
X70232330Y-29110266D01*
X70116143Y-29277195D01*
X70035940Y-29464092D01*
X69995000Y-29663309D01*
X69995000Y-29915000D01*
X70695000Y-29915000D01*
X70695000Y-30215000D01*
X69995000Y-30215000D01*
X69995000Y-30415713D01*
X70010418Y-30567338D01*
X70071299Y-30761381D01*
X70071304Y-30761391D01*
X70170005Y-30939215D01*
X70170005Y-30939216D01*
X70302478Y-31093530D01*
X70302479Y-31093531D01*
X70463304Y-31218018D01*
X70645907Y-31307589D01*
X70645906Y-31307589D01*
X70842783Y-31358564D01*
X70842787Y-31358565D01*
X70845000Y-31358677D01*
X70845000Y-30627657D01*
X70858962Y-30638201D01*
X70966840Y-30668895D01*
X71078521Y-30658546D01*
X71145000Y-30625443D01*
X71145000Y-31353685D01*
X71246938Y-31338070D01*
X71437665Y-31267434D01*
X71610267Y-31159850D01*
X71757668Y-31019735D01*
X71757669Y-31019733D01*
X71873857Y-30852803D01*
X71907103Y-30775328D01*
X71951628Y-30721484D01*
X72018197Y-30700260D01*
X72085672Y-30718394D01*
X72125369Y-30757187D01*
X72145537Y-30788569D01*
X72292651Y-30958348D01*
X72462430Y-31105462D01*
X72462436Y-31105466D01*
X72651405Y-31226909D01*
X72651413Y-31226913D01*
X72651417Y-31226916D01*
X72651420Y-31226917D01*
X72651423Y-31226919D01*
X72855766Y-31320240D01*
X72855772Y-31320242D01*
X73037969Y-31373738D01*
X73071313Y-31383529D01*
X73293676Y-31415500D01*
X73349827Y-31415500D01*
X101810500Y-31415500D01*
X101877539Y-31435185D01*
X101923294Y-31487989D01*
X101934500Y-31539500D01*
X101934500Y-63710500D01*
X101914815Y-63777539D01*
X101862011Y-63823294D01*
X101810500Y-63834500D01*
X31539500Y-63834500D01*
X31472461Y-63814815D01*
X31426706Y-63762011D01*
X31415500Y-63710500D01*
X31415500Y-58420001D01*
X36195000Y-58420001D01*
X36321997Y-58673997D01*
X36322000Y-58674000D01*
X36576000Y-58928000D01*
X36703000Y-58991500D01*
X36829999Y-59055000D01*
X36830000Y-59055000D01*
X39370001Y-59055000D01*
X39496999Y-58991500D01*
X39624000Y-58928000D01*
X39878000Y-58674000D01*
X40005000Y-58420000D01*
X55245000Y-58420000D01*
X55372000Y-58674000D01*
X55626000Y-58928000D01*
X55753001Y-58991500D01*
X55879999Y-59055000D01*
X55880000Y-59055000D01*
X58420001Y-59055000D01*
X58546999Y-58991500D01*
X58674000Y-58928000D01*
X58928000Y-58674000D01*
X59055000Y-58420000D01*
X74295000Y-58420000D01*
X74422000Y-58674000D01*
X74675999Y-58927999D01*
X74676003Y-58928002D01*
X74929999Y-59055000D01*
X74930000Y-59055000D01*
X77470001Y-59055000D01*
X77723997Y-58928002D01*
X77723998Y-58928000D01*
X77724000Y-58928000D01*
X77978000Y-58674000D01*
X78105000Y-58420001D01*
X93345000Y-58420001D01*
X93471998Y-58673997D01*
X93472000Y-58674000D01*
X93725999Y-58927999D01*
X93726003Y-58928002D01*
X93979999Y-59055000D01*
X93980000Y-59055000D01*
X96520001Y-59055000D01*
X96646998Y-58991500D01*
X96774000Y-58928000D01*
X97028000Y-58674000D01*
X97155000Y-58420000D01*
X97155000Y-57097401D01*
X99225746Y-57097401D01*
X99235745Y-57307327D01*
X99285296Y-57511578D01*
X99285298Y-57511582D01*
X99372598Y-57702743D01*
X99372601Y-57702748D01*
X99372602Y-57702750D01*
X99372604Y-57702753D01*
X99435627Y-57791256D01*
X99494515Y-57873953D01*
X99494520Y-57873959D01*
X99646620Y-58018985D01*
X99741578Y-58080011D01*
X99823428Y-58132613D01*
X100018543Y-58210725D01*
X100121728Y-58230612D01*
X100224914Y-58250500D01*
X100224915Y-58250500D01*
X100382419Y-58250500D01*
X100382425Y-58250500D01*
X100539218Y-58235528D01*
X100740875Y-58176316D01*
X100927682Y-58080011D01*
X101092886Y-57950092D01*
X101230519Y-57791256D01*
X101335604Y-57609244D01*
X101404344Y-57410633D01*
X101434254Y-57202602D01*
X101424254Y-56992670D01*
X101374704Y-56788424D01*
X101374701Y-56788417D01*
X101287401Y-56597256D01*
X101287398Y-56597251D01*
X101287397Y-56597250D01*
X101287396Y-56597247D01*
X101165486Y-56426048D01*
X101165484Y-56426046D01*
X101165479Y-56426040D01*
X101013379Y-56281014D01*
X100836574Y-56167388D01*
X100641455Y-56089274D01*
X100435086Y-56049500D01*
X100435085Y-56049500D01*
X100277575Y-56049500D01*
X100120782Y-56064472D01*
X100120778Y-56064473D01*
X99919127Y-56123683D01*
X99732313Y-56219991D01*
X99567116Y-56349905D01*
X99567112Y-56349909D01*
X99429478Y-56508746D01*
X99324398Y-56690750D01*
X99255656Y-56889365D01*
X99255656Y-56889367D01*
X99240804Y-56992670D01*
X99225746Y-57097401D01*
X97155000Y-57097401D01*
X97155000Y-55880000D01*
X97155000Y-55879999D01*
X97155000Y-55879998D01*
X97028001Y-55626002D01*
X97027999Y-55625999D01*
X96773997Y-55371997D01*
X96520001Y-55245000D01*
X96520000Y-55245000D01*
X93980000Y-55245000D01*
X93979999Y-55245000D01*
X93726002Y-55371998D01*
X93725999Y-55372000D01*
X93472000Y-55625999D01*
X93471997Y-55626003D01*
X93345000Y-55879998D01*
X93345000Y-58420001D01*
X78105000Y-58420001D01*
X78105000Y-58420000D01*
X78105000Y-57097401D01*
X80175746Y-57097401D01*
X80185745Y-57307327D01*
X80235296Y-57511578D01*
X80235298Y-57511582D01*
X80322598Y-57702743D01*
X80322601Y-57702748D01*
X80322602Y-57702750D01*
X80322604Y-57702753D01*
X80385627Y-57791256D01*
X80444515Y-57873953D01*
X80444520Y-57873959D01*
X80596620Y-58018985D01*
X80691578Y-58080011D01*
X80773428Y-58132613D01*
X80968543Y-58210725D01*
X81071729Y-58230612D01*
X81174914Y-58250500D01*
X81174915Y-58250500D01*
X81332419Y-58250500D01*
X81332425Y-58250500D01*
X81489218Y-58235528D01*
X81690875Y-58176316D01*
X81877682Y-58080011D01*
X82042886Y-57950092D01*
X82180519Y-57791256D01*
X82285604Y-57609244D01*
X82354344Y-57410633D01*
X82384254Y-57202602D01*
X82379243Y-57097401D01*
X89065746Y-57097401D01*
X89075745Y-57307327D01*
X89125296Y-57511578D01*
X89125298Y-57511582D01*
X89212598Y-57702743D01*
X89212601Y-57702748D01*
X89212602Y-57702750D01*
X89212604Y-57702753D01*
X89275627Y-57791256D01*
X89334515Y-57873953D01*
X89334520Y-57873959D01*
X89486620Y-58018985D01*
X89581578Y-58080011D01*
X89663428Y-58132613D01*
X89858543Y-58210725D01*
X89961728Y-58230612D01*
X90064914Y-58250500D01*
X90064915Y-58250500D01*
X90222419Y-58250500D01*
X90222425Y-58250500D01*
X90379218Y-58235528D01*
X90580875Y-58176316D01*
X90767682Y-58080011D01*
X90932886Y-57950092D01*
X91070519Y-57791256D01*
X91175604Y-57609244D01*
X91244344Y-57410633D01*
X91274254Y-57202602D01*
X91264254Y-56992670D01*
X91214704Y-56788424D01*
X91214701Y-56788417D01*
X91127401Y-56597256D01*
X91127398Y-56597251D01*
X91127397Y-56597250D01*
X91127396Y-56597247D01*
X91005486Y-56426048D01*
X91005484Y-56426046D01*
X91005479Y-56426040D01*
X90853379Y-56281014D01*
X90676574Y-56167388D01*
X90481455Y-56089274D01*
X90275086Y-56049500D01*
X90275085Y-56049500D01*
X90117575Y-56049500D01*
X89960782Y-56064472D01*
X89960778Y-56064473D01*
X89759127Y-56123683D01*
X89572313Y-56219991D01*
X89407116Y-56349905D01*
X89407112Y-56349909D01*
X89269478Y-56508746D01*
X89164398Y-56690750D01*
X89095656Y-56889365D01*
X89095656Y-56889367D01*
X89080804Y-56992670D01*
X89065746Y-57097401D01*
X82379243Y-57097401D01*
X82374254Y-56992670D01*
X82324704Y-56788424D01*
X82324701Y-56788417D01*
X82237401Y-56597256D01*
X82237398Y-56597251D01*
X82237397Y-56597250D01*
X82237396Y-56597247D01*
X82115486Y-56426048D01*
X82115484Y-56426046D01*
X82115479Y-56426040D01*
X81963379Y-56281014D01*
X81786574Y-56167388D01*
X81591455Y-56089274D01*
X81385086Y-56049500D01*
X81385085Y-56049500D01*
X81227575Y-56049500D01*
X81070781Y-56064472D01*
X81070782Y-56064472D01*
X81070778Y-56064473D01*
X80869127Y-56123683D01*
X80682313Y-56219991D01*
X80517116Y-56349905D01*
X80517112Y-56349909D01*
X80379478Y-56508746D01*
X80274398Y-56690750D01*
X80205656Y-56889365D01*
X80205656Y-56889367D01*
X80190804Y-56992670D01*
X80175746Y-57097401D01*
X78105000Y-57097401D01*
X78105000Y-55880000D01*
X78105000Y-55879999D01*
X78105000Y-55879998D01*
X78020333Y-55710667D01*
X77978000Y-55626000D01*
X77724000Y-55372000D01*
X77723997Y-55371997D01*
X77470001Y-55245000D01*
X77470000Y-55245000D01*
X74930000Y-55245000D01*
X74929999Y-55245000D01*
X74676003Y-55371997D01*
X74675999Y-55372000D01*
X74422000Y-55625999D01*
X74421998Y-55626002D01*
X74295000Y-55879999D01*
X74295000Y-58420000D01*
X59055000Y-58420000D01*
X59055000Y-57097401D01*
X61125746Y-57097401D01*
X61135745Y-57307327D01*
X61185296Y-57511578D01*
X61185298Y-57511582D01*
X61272598Y-57702743D01*
X61272601Y-57702748D01*
X61272602Y-57702750D01*
X61272604Y-57702753D01*
X61335627Y-57791256D01*
X61394515Y-57873953D01*
X61394520Y-57873959D01*
X61546620Y-58018985D01*
X61641578Y-58080011D01*
X61723428Y-58132613D01*
X61918543Y-58210725D01*
X62021729Y-58230612D01*
X62124914Y-58250500D01*
X62124915Y-58250500D01*
X62282419Y-58250500D01*
X62282425Y-58250500D01*
X62439218Y-58235528D01*
X62640875Y-58176316D01*
X62827682Y-58080011D01*
X62992886Y-57950092D01*
X63130519Y-57791256D01*
X63235604Y-57609244D01*
X63304344Y-57410633D01*
X63334254Y-57202602D01*
X63329243Y-57097401D01*
X70015746Y-57097401D01*
X70025745Y-57307327D01*
X70075296Y-57511578D01*
X70075298Y-57511582D01*
X70162598Y-57702743D01*
X70162601Y-57702748D01*
X70162602Y-57702750D01*
X70162604Y-57702753D01*
X70225627Y-57791256D01*
X70284515Y-57873953D01*
X70284520Y-57873959D01*
X70436620Y-58018985D01*
X70531578Y-58080011D01*
X70613428Y-58132613D01*
X70808543Y-58210725D01*
X70911729Y-58230612D01*
X71014914Y-58250500D01*
X71014915Y-58250500D01*
X71172419Y-58250500D01*
X71172425Y-58250500D01*
X71329218Y-58235528D01*
X71530875Y-58176316D01*
X71717682Y-58080011D01*
X71882886Y-57950092D01*
X72020519Y-57791256D01*
X72125604Y-57609244D01*
X72194344Y-57410633D01*
X72224254Y-57202602D01*
X72214254Y-56992670D01*
X72164704Y-56788424D01*
X72164701Y-56788417D01*
X72077401Y-56597256D01*
X72077398Y-56597251D01*
X72077397Y-56597250D01*
X72077396Y-56597247D01*
X71955486Y-56426048D01*
X71955484Y-56426046D01*
X71955479Y-56426040D01*
X71803379Y-56281014D01*
X71626574Y-56167388D01*
X71431455Y-56089274D01*
X71225086Y-56049500D01*
X71225085Y-56049500D01*
X71067575Y-56049500D01*
X70910781Y-56064472D01*
X70910782Y-56064472D01*
X70910778Y-56064473D01*
X70709127Y-56123683D01*
X70522313Y-56219991D01*
X70357116Y-56349905D01*
X70357112Y-56349909D01*
X70219478Y-56508746D01*
X70114398Y-56690750D01*
X70045656Y-56889365D01*
X70045656Y-56889367D01*
X70030804Y-56992670D01*
X70015746Y-57097401D01*
X63329243Y-57097401D01*
X63324254Y-56992670D01*
X63274704Y-56788424D01*
X63274701Y-56788417D01*
X63187401Y-56597256D01*
X63187398Y-56597251D01*
X63187397Y-56597250D01*
X63187396Y-56597247D01*
X63065486Y-56426048D01*
X63065484Y-56426046D01*
X63065479Y-56426040D01*
X62913379Y-56281014D01*
X62736574Y-56167388D01*
X62541455Y-56089274D01*
X62335086Y-56049500D01*
X62335085Y-56049500D01*
X62177575Y-56049500D01*
X62020782Y-56064472D01*
X62020778Y-56064473D01*
X61819127Y-56123683D01*
X61632313Y-56219991D01*
X61467116Y-56349905D01*
X61467112Y-56349909D01*
X61329478Y-56508746D01*
X61224398Y-56690750D01*
X61155656Y-56889365D01*
X61155656Y-56889367D01*
X61140804Y-56992670D01*
X61125746Y-57097401D01*
X59055000Y-57097401D01*
X59055000Y-55880000D01*
X59055000Y-55879999D01*
X59055000Y-55879998D01*
X58970334Y-55710668D01*
X58928000Y-55626000D01*
X58674000Y-55372000D01*
X58673997Y-55371998D01*
X58420001Y-55245000D01*
X58420000Y-55245000D01*
X55880000Y-55245000D01*
X55879999Y-55245000D01*
X55626002Y-55371998D01*
X55625999Y-55372000D01*
X55372000Y-55625999D01*
X55371998Y-55626002D01*
X55245000Y-55879998D01*
X55245000Y-55879999D01*
X55245000Y-55880000D01*
X55245000Y-58420000D01*
X40005000Y-58420000D01*
X40005000Y-57097401D01*
X42075746Y-57097401D01*
X42085745Y-57307327D01*
X42135296Y-57511578D01*
X42135298Y-57511582D01*
X42222598Y-57702743D01*
X42222601Y-57702748D01*
X42222602Y-57702750D01*
X42222604Y-57702753D01*
X42285627Y-57791256D01*
X42344515Y-57873953D01*
X42344520Y-57873959D01*
X42496620Y-58018985D01*
X42591578Y-58080011D01*
X42673428Y-58132613D01*
X42868543Y-58210725D01*
X42971728Y-58230612D01*
X43074914Y-58250500D01*
X43074915Y-58250500D01*
X43232419Y-58250500D01*
X43232425Y-58250500D01*
X43389218Y-58235528D01*
X43590875Y-58176316D01*
X43777682Y-58080011D01*
X43942886Y-57950092D01*
X44080519Y-57791256D01*
X44185604Y-57609244D01*
X44254344Y-57410633D01*
X44284254Y-57202602D01*
X44279243Y-57097401D01*
X50965746Y-57097401D01*
X50975745Y-57307327D01*
X51025296Y-57511578D01*
X51025298Y-57511582D01*
X51112598Y-57702743D01*
X51112601Y-57702748D01*
X51112602Y-57702750D01*
X51112604Y-57702753D01*
X51175627Y-57791256D01*
X51234515Y-57873953D01*
X51234520Y-57873959D01*
X51386620Y-58018985D01*
X51481578Y-58080011D01*
X51563428Y-58132613D01*
X51758543Y-58210725D01*
X51861729Y-58230612D01*
X51964914Y-58250500D01*
X51964915Y-58250500D01*
X52122419Y-58250500D01*
X52122425Y-58250500D01*
X52279218Y-58235528D01*
X52480875Y-58176316D01*
X52667682Y-58080011D01*
X52832886Y-57950092D01*
X52970519Y-57791256D01*
X53075604Y-57609244D01*
X53144344Y-57410633D01*
X53174254Y-57202602D01*
X53164254Y-56992670D01*
X53114704Y-56788424D01*
X53114701Y-56788417D01*
X53027401Y-56597256D01*
X53027398Y-56597251D01*
X53027397Y-56597250D01*
X53027396Y-56597247D01*
X52905486Y-56426048D01*
X52905484Y-56426046D01*
X52905479Y-56426040D01*
X52753379Y-56281014D01*
X52576574Y-56167388D01*
X52381455Y-56089274D01*
X52175086Y-56049500D01*
X52175085Y-56049500D01*
X52017575Y-56049500D01*
X51860782Y-56064472D01*
X51860778Y-56064473D01*
X51659127Y-56123683D01*
X51472313Y-56219991D01*
X51307116Y-56349905D01*
X51307112Y-56349909D01*
X51169478Y-56508746D01*
X51064398Y-56690750D01*
X50995656Y-56889365D01*
X50995656Y-56889367D01*
X50980804Y-56992670D01*
X50965746Y-57097401D01*
X44279243Y-57097401D01*
X44274254Y-56992670D01*
X44224704Y-56788424D01*
X44224701Y-56788417D01*
X44137401Y-56597256D01*
X44137398Y-56597251D01*
X44137397Y-56597250D01*
X44137396Y-56597247D01*
X44015486Y-56426048D01*
X44015484Y-56426046D01*
X44015479Y-56426040D01*
X43863379Y-56281014D01*
X43686574Y-56167388D01*
X43491455Y-56089274D01*
X43285086Y-56049500D01*
X43285085Y-56049500D01*
X43127575Y-56049500D01*
X42970781Y-56064472D01*
X42970782Y-56064472D01*
X42970778Y-56064473D01*
X42769127Y-56123683D01*
X42582313Y-56219991D01*
X42417116Y-56349905D01*
X42417112Y-56349909D01*
X42279478Y-56508746D01*
X42174398Y-56690750D01*
X42105656Y-56889365D01*
X42105656Y-56889367D01*
X42090804Y-56992670D01*
X42075746Y-57097401D01*
X40005000Y-57097401D01*
X40005000Y-55880000D01*
X40005000Y-55879999D01*
X40005000Y-55879998D01*
X39878002Y-55626003D01*
X39877999Y-55625999D01*
X39624000Y-55372000D01*
X39623996Y-55371998D01*
X39370001Y-55245000D01*
X39370000Y-55245000D01*
X36830000Y-55245000D01*
X36829999Y-55245000D01*
X36575999Y-55372000D01*
X36322000Y-55625999D01*
X36321998Y-55626003D01*
X36195000Y-55879998D01*
X36195000Y-58420001D01*
X31415500Y-58420001D01*
X31415500Y-57097401D01*
X31915746Y-57097401D01*
X31925745Y-57307327D01*
X31975296Y-57511578D01*
X31975298Y-57511582D01*
X32062598Y-57702743D01*
X32062601Y-57702748D01*
X32062602Y-57702750D01*
X32062604Y-57702753D01*
X32125627Y-57791256D01*
X32184515Y-57873953D01*
X32184520Y-57873959D01*
X32336620Y-58018985D01*
X32431578Y-58080011D01*
X32513428Y-58132613D01*
X32708543Y-58210725D01*
X32811728Y-58230612D01*
X32914914Y-58250500D01*
X32914915Y-58250500D01*
X33072419Y-58250500D01*
X33072425Y-58250500D01*
X33229218Y-58235528D01*
X33430875Y-58176316D01*
X33617682Y-58080011D01*
X33782886Y-57950092D01*
X33920519Y-57791256D01*
X34025604Y-57609244D01*
X34094344Y-57410633D01*
X34124254Y-57202602D01*
X34114254Y-56992670D01*
X34064704Y-56788424D01*
X34064701Y-56788417D01*
X33977401Y-56597256D01*
X33977398Y-56597251D01*
X33977397Y-56597250D01*
X33977396Y-56597247D01*
X33855486Y-56426048D01*
X33855484Y-56426046D01*
X33855479Y-56426040D01*
X33703379Y-56281014D01*
X33526574Y-56167388D01*
X33331455Y-56089274D01*
X33125086Y-56049500D01*
X33125085Y-56049500D01*
X32967575Y-56049500D01*
X32810781Y-56064472D01*
X32810782Y-56064472D01*
X32810778Y-56064473D01*
X32609127Y-56123683D01*
X32422313Y-56219991D01*
X32257116Y-56349905D01*
X32257112Y-56349909D01*
X32119478Y-56508746D01*
X32014398Y-56690750D01*
X31945656Y-56889365D01*
X31945656Y-56889367D01*
X31930804Y-56992670D01*
X31915746Y-57097401D01*
X31415500Y-57097401D01*
X31415500Y-50546003D01*
X65619435Y-50546003D01*
X65639630Y-50725249D01*
X65639631Y-50725254D01*
X65699211Y-50895523D01*
X65795184Y-51048261D01*
X65795184Y-51048262D01*
X65922738Y-51175816D01*
X66075478Y-51271789D01*
X66245745Y-51331368D01*
X66332669Y-51341161D01*
X66397080Y-51368226D01*
X66406465Y-51376700D01*
X67351610Y-52321845D01*
X67356956Y-52327942D01*
X67408031Y-52394505D01*
X67424217Y-52422539D01*
X67447083Y-52477744D01*
X67454551Y-52547214D01*
X67437515Y-52591168D01*
X67346211Y-52736476D01*
X67286631Y-52906745D01*
X67286630Y-52906750D01*
X67266435Y-53085996D01*
X67266435Y-53086003D01*
X67286630Y-53265249D01*
X67286631Y-53265254D01*
X67346211Y-53435523D01*
X67442184Y-53588262D01*
X67569738Y-53715816D01*
X67722478Y-53811789D01*
X67892745Y-53871368D01*
X67892750Y-53871369D01*
X68071996Y-53891565D01*
X68072000Y-53891565D01*
X68072004Y-53891565D01*
X68251249Y-53871369D01*
X68251252Y-53871368D01*
X68251255Y-53871368D01*
X68421522Y-53811789D01*
X68574262Y-53715816D01*
X68701816Y-53588262D01*
X68797789Y-53435522D01*
X68857368Y-53265255D01*
X68877565Y-53086000D01*
X68857368Y-52906745D01*
X68797789Y-52736478D01*
X68701816Y-52583738D01*
X68701813Y-52583735D01*
X68699547Y-52580894D01*
X68698653Y-52578704D01*
X68698111Y-52577842D01*
X68698262Y-52577747D01*
X68673135Y-52516209D01*
X68672490Y-52503572D01*
X68672491Y-52502320D01*
X68660004Y-52407459D01*
X68645110Y-52294314D01*
X68645109Y-52294311D01*
X68590812Y-52091659D01*
X68590810Y-52091654D01*
X68510524Y-51897819D01*
X68405624Y-51716122D01*
X68277905Y-51549672D01*
X68277901Y-51549668D01*
X68277898Y-51549664D01*
X68233367Y-51505133D01*
X68233343Y-51505107D01*
X67255700Y-50527465D01*
X67222215Y-50466142D01*
X67220163Y-50453686D01*
X67210368Y-50366745D01*
X67150789Y-50196478D01*
X67054816Y-50043738D01*
X66927262Y-49916184D01*
X66927262Y-49916183D01*
X66774523Y-49820211D01*
X66604254Y-49760631D01*
X66604249Y-49760630D01*
X66425004Y-49740435D01*
X66424996Y-49740435D01*
X66245750Y-49760630D01*
X66245745Y-49760631D01*
X66075476Y-49820211D01*
X65922737Y-49916184D01*
X65795184Y-50043737D01*
X65699211Y-50196476D01*
X65639631Y-50366745D01*
X65639630Y-50366750D01*
X65619435Y-50545996D01*
X65619435Y-50546003D01*
X31415500Y-50546003D01*
X31415500Y-47692763D01*
X45770787Y-47692763D01*
X45800413Y-47962013D01*
X45800415Y-47962024D01*
X45836885Y-48101522D01*
X45868928Y-48224088D01*
X45974870Y-48473390D01*
X46018865Y-48545478D01*
X46115979Y-48704605D01*
X46115986Y-48704615D01*
X46289253Y-48912819D01*
X46289259Y-48912824D01*
X46490998Y-49093582D01*
X46716910Y-49243044D01*
X46962176Y-49358020D01*
X46962183Y-49358022D01*
X46962185Y-49358023D01*
X47221557Y-49436057D01*
X47221564Y-49436058D01*
X47221569Y-49436060D01*
X47489561Y-49475500D01*
X47489566Y-49475500D01*
X47692629Y-49475500D01*
X47692631Y-49475500D01*
X47692636Y-49475499D01*
X47692648Y-49475499D01*
X47730191Y-49472750D01*
X47895156Y-49460677D01*
X48007758Y-49435593D01*
X48159546Y-49401782D01*
X48159548Y-49401781D01*
X48159553Y-49401780D01*
X48412558Y-49305014D01*
X48648777Y-49172441D01*
X48863177Y-49006888D01*
X48971047Y-48895003D01*
X68790435Y-48895003D01*
X68810630Y-49074249D01*
X68810631Y-49074254D01*
X68870211Y-49244523D01*
X68941528Y-49358023D01*
X68966184Y-49397262D01*
X69093738Y-49524816D01*
X69246478Y-49620789D01*
X69335148Y-49651816D01*
X69416745Y-49680368D01*
X69416750Y-49680369D01*
X69595996Y-49700565D01*
X69596000Y-49700565D01*
X69596004Y-49700565D01*
X69775249Y-49680369D01*
X69775252Y-49680368D01*
X69775255Y-49680368D01*
X69945522Y-49620789D01*
X70098262Y-49524816D01*
X70098267Y-49524810D01*
X70101097Y-49522555D01*
X70103275Y-49521665D01*
X70104158Y-49521111D01*
X70104255Y-49521265D01*
X70165783Y-49496145D01*
X70178412Y-49495500D01*
X71680059Y-49495500D01*
X71747098Y-49515185D01*
X71767740Y-49531817D01*
X71887738Y-49651816D01*
X72040478Y-49747789D01*
X72210744Y-49807367D01*
X72210745Y-49807368D01*
X72210750Y-49807369D01*
X72389996Y-49827565D01*
X72390000Y-49827565D01*
X72390004Y-49827565D01*
X72569249Y-49807369D01*
X72569252Y-49807368D01*
X72569255Y-49807368D01*
X72739522Y-49747789D01*
X72892262Y-49651816D01*
X73019816Y-49524262D01*
X73115789Y-49371522D01*
X73175368Y-49201255D01*
X73175369Y-49201249D01*
X73195565Y-49022003D01*
X73195565Y-49021996D01*
X73175369Y-48842750D01*
X73175368Y-48842745D01*
X73164568Y-48811881D01*
X73115789Y-48672478D01*
X73019816Y-48519738D01*
X72974758Y-48474680D01*
X72941274Y-48413358D01*
X72946258Y-48343666D01*
X72974759Y-48299319D01*
X72974758Y-48299318D01*
X73019816Y-48254262D01*
X73115789Y-48101522D01*
X73175368Y-47931255D01*
X73175369Y-47931249D01*
X73195565Y-47752003D01*
X73195565Y-47751996D01*
X73188891Y-47692763D01*
X83870787Y-47692763D01*
X83900413Y-47962013D01*
X83900415Y-47962024D01*
X83936885Y-48101522D01*
X83968928Y-48224088D01*
X84074870Y-48473390D01*
X84118865Y-48545478D01*
X84215979Y-48704605D01*
X84215986Y-48704615D01*
X84389253Y-48912819D01*
X84389259Y-48912824D01*
X84590998Y-49093582D01*
X84816910Y-49243044D01*
X85062176Y-49358020D01*
X85062183Y-49358022D01*
X85062185Y-49358023D01*
X85321557Y-49436057D01*
X85321564Y-49436058D01*
X85321569Y-49436060D01*
X85589561Y-49475500D01*
X85589566Y-49475500D01*
X85792629Y-49475500D01*
X85792631Y-49475500D01*
X85792636Y-49475499D01*
X85792648Y-49475499D01*
X85830191Y-49472750D01*
X85995156Y-49460677D01*
X86107758Y-49435593D01*
X86259546Y-49401782D01*
X86259548Y-49401781D01*
X86259553Y-49401780D01*
X86512558Y-49305014D01*
X86748777Y-49172441D01*
X86963177Y-49006888D01*
X87151186Y-48811881D01*
X87308799Y-48591579D01*
X87413331Y-48388263D01*
X87432649Y-48350690D01*
X87432651Y-48350684D01*
X87432656Y-48350675D01*
X87520118Y-48094305D01*
X87569319Y-47827933D01*
X87579212Y-47557235D01*
X87549586Y-47287982D01*
X87481072Y-47025912D01*
X87375130Y-46776610D01*
X87234018Y-46545390D01*
X87207461Y-46513478D01*
X87060746Y-46337180D01*
X87060740Y-46337175D01*
X86859002Y-46156418D01*
X86633092Y-46006957D01*
X86633090Y-46006956D01*
X86387824Y-45891980D01*
X86387819Y-45891978D01*
X86387814Y-45891976D01*
X86128442Y-45813942D01*
X86128428Y-45813939D01*
X86012791Y-45796921D01*
X85860439Y-45774500D01*
X85657369Y-45774500D01*
X85657351Y-45774500D01*
X85454844Y-45789323D01*
X85454831Y-45789325D01*
X85190453Y-45848217D01*
X85190446Y-45848220D01*
X84937439Y-45944987D01*
X84701226Y-46077557D01*
X84486822Y-46243112D01*
X84298822Y-46438109D01*
X84298816Y-46438116D01*
X84141202Y-46658419D01*
X84141199Y-46658424D01*
X84017350Y-46899309D01*
X84017343Y-46899327D01*
X83929884Y-47155685D01*
X83929881Y-47155699D01*
X83905449Y-47287975D01*
X83890114Y-47371000D01*
X83880681Y-47422068D01*
X83880680Y-47422075D01*
X83870787Y-47692763D01*
X73188891Y-47692763D01*
X73175369Y-47572750D01*
X73175368Y-47572745D01*
X73115788Y-47402475D01*
X73057664Y-47309973D01*
X73038663Y-47242736D01*
X73057664Y-47178027D01*
X73115788Y-47085524D01*
X73115789Y-47085522D01*
X73175368Y-46915255D01*
X73177165Y-46899309D01*
X73195565Y-46736003D01*
X73195565Y-46735996D01*
X73175369Y-46556750D01*
X73175368Y-46556745D01*
X73115788Y-46386475D01*
X73057664Y-46293973D01*
X73038663Y-46226736D01*
X73057664Y-46162027D01*
X73061189Y-46156418D01*
X73115789Y-46069522D01*
X73175368Y-45899255D01*
X73176188Y-45891976D01*
X73195565Y-45720003D01*
X73195565Y-45719996D01*
X73175369Y-45540750D01*
X73175368Y-45540745D01*
X73115788Y-45370475D01*
X73057664Y-45277973D01*
X73038663Y-45210736D01*
X73057664Y-45146027D01*
X73115788Y-45053524D01*
X73175368Y-44883254D01*
X73175369Y-44883249D01*
X73195565Y-44704003D01*
X73195565Y-44703996D01*
X73175369Y-44524750D01*
X73175368Y-44524745D01*
X73115788Y-44354476D01*
X73076581Y-44292080D01*
X73019816Y-44201738D01*
X73019815Y-44201737D01*
X73015562Y-44196404D01*
X72989154Y-44131717D01*
X72988509Y-44119091D01*
X72988509Y-43995711D01*
X72988500Y-43995442D01*
X72988501Y-43890959D01*
X72955798Y-43600715D01*
X72890804Y-43315957D01*
X72794336Y-43040266D01*
X72667607Y-42777110D01*
X72512211Y-42529798D01*
X72330102Y-42301439D01*
X72330100Y-42301437D01*
X72330097Y-42301433D01*
X72123569Y-42094905D01*
X71985433Y-41984745D01*
X71895212Y-41912796D01*
X71807599Y-41857745D01*
X71647901Y-41757399D01*
X71475939Y-41674586D01*
X71384745Y-41630669D01*
X71384742Y-41630668D01*
X71384738Y-41630666D01*
X71109055Y-41534199D01*
X71109046Y-41534197D01*
X70985862Y-41506080D01*
X70824297Y-41469204D01*
X70824293Y-41469203D01*
X70824284Y-41469202D01*
X70534056Y-41436500D01*
X70534052Y-41436500D01*
X70427370Y-41436500D01*
X70178412Y-41436500D01*
X70111373Y-41416815D01*
X70101097Y-41409445D01*
X70098263Y-41407185D01*
X70098262Y-41407184D01*
X70041496Y-41371515D01*
X69945523Y-41311211D01*
X69775254Y-41251631D01*
X69775249Y-41251630D01*
X69596004Y-41231435D01*
X69595996Y-41231435D01*
X69416750Y-41251630D01*
X69416745Y-41251631D01*
X69246476Y-41311211D01*
X69093737Y-41407184D01*
X68966184Y-41534737D01*
X68870211Y-41687476D01*
X68810631Y-41857745D01*
X68810630Y-41857750D01*
X68790435Y-42036996D01*
X68790435Y-42037003D01*
X68810630Y-42216249D01*
X68810631Y-42216254D01*
X68870211Y-42386523D01*
X68950010Y-42513522D01*
X68966184Y-42539262D01*
X69093738Y-42666816D01*
X69156096Y-42705998D01*
X69200329Y-42733792D01*
X69246478Y-42762789D01*
X69416744Y-42822368D01*
X69416745Y-42822368D01*
X69416750Y-42822369D01*
X69595996Y-42842565D01*
X69596000Y-42842565D01*
X69596004Y-42842565D01*
X69775249Y-42822369D01*
X69775252Y-42822368D01*
X69775255Y-42822368D01*
X69945522Y-42762789D01*
X70098262Y-42666816D01*
X70098267Y-42666810D01*
X70101097Y-42664555D01*
X70103275Y-42663665D01*
X70104158Y-42663111D01*
X70104255Y-42663265D01*
X70165783Y-42638145D01*
X70178412Y-42637500D01*
X70385566Y-42637500D01*
X70390432Y-42637690D01*
X70597208Y-42653965D01*
X70616423Y-42657008D01*
X70810986Y-42703720D01*
X70829491Y-42709733D01*
X71014349Y-42786304D01*
X71031686Y-42795138D01*
X71202291Y-42899685D01*
X71218024Y-42911116D01*
X71361614Y-43033754D01*
X71370176Y-43041067D01*
X71383934Y-43054826D01*
X71513882Y-43206976D01*
X71525320Y-43222718D01*
X71629865Y-43393322D01*
X71638698Y-43410658D01*
X71715269Y-43595515D01*
X71721282Y-43614021D01*
X71767991Y-43808580D01*
X71771035Y-43827798D01*
X71787318Y-44034685D01*
X71787509Y-44039552D01*
X71787509Y-44124084D01*
X71767824Y-44191123D01*
X71760458Y-44201395D01*
X71760183Y-44201739D01*
X71664211Y-44354476D01*
X71604631Y-44524745D01*
X71604630Y-44524750D01*
X71584435Y-44703996D01*
X71584435Y-44704003D01*
X71604630Y-44883249D01*
X71604631Y-44883254D01*
X71664211Y-45053523D01*
X71666097Y-45056524D01*
X71666723Y-45058741D01*
X71667231Y-45059795D01*
X71667046Y-45059883D01*
X71685100Y-45123760D01*
X71664735Y-45190596D01*
X71611469Y-45235812D01*
X71561106Y-45246500D01*
X70178412Y-45246500D01*
X70111373Y-45226815D01*
X70101097Y-45219445D01*
X70098263Y-45217185D01*
X70098262Y-45217184D01*
X70041496Y-45181515D01*
X69945523Y-45121211D01*
X69775254Y-45061631D01*
X69775249Y-45061630D01*
X69596004Y-45041435D01*
X69595996Y-45041435D01*
X69416750Y-45061630D01*
X69416745Y-45061631D01*
X69246476Y-45121211D01*
X69093737Y-45217184D01*
X68966184Y-45344737D01*
X68870211Y-45497476D01*
X68810631Y-45667745D01*
X68810630Y-45667750D01*
X68790435Y-45846996D01*
X68790435Y-45847003D01*
X68810630Y-46026249D01*
X68810631Y-46026254D01*
X68825772Y-46069524D01*
X68870211Y-46196522D01*
X68899485Y-46243112D01*
X68928336Y-46289027D01*
X68947336Y-46356263D01*
X68928336Y-46420970D01*
X68870212Y-46513474D01*
X68810631Y-46683745D01*
X68810630Y-46683750D01*
X68790435Y-46862996D01*
X68790435Y-46863003D01*
X68810630Y-47042249D01*
X68810631Y-47042254D01*
X68870211Y-47212523D01*
X68928336Y-47305028D01*
X68947336Y-47372265D01*
X68928336Y-47436972D01*
X68870211Y-47529476D01*
X68810631Y-47699745D01*
X68810630Y-47699750D01*
X68790435Y-47878996D01*
X68790435Y-47879003D01*
X68810630Y-48058249D01*
X68810631Y-48058254D01*
X68870211Y-48228522D01*
X68928336Y-48321027D01*
X68947336Y-48388263D01*
X68928336Y-48452970D01*
X68870212Y-48545474D01*
X68810631Y-48715745D01*
X68810630Y-48715750D01*
X68790435Y-48894996D01*
X68790435Y-48895003D01*
X48971047Y-48895003D01*
X49051186Y-48811881D01*
X49208799Y-48591579D01*
X49313331Y-48388263D01*
X49332649Y-48350690D01*
X49332651Y-48350684D01*
X49332656Y-48350675D01*
X49420118Y-48094305D01*
X49469319Y-47827933D01*
X49479212Y-47557235D01*
X49449586Y-47287982D01*
X49381072Y-47025912D01*
X49275130Y-46776610D01*
X49134018Y-46545390D01*
X49107461Y-46513478D01*
X48960746Y-46337180D01*
X48960740Y-46337175D01*
X48759002Y-46156418D01*
X48533092Y-46006957D01*
X48533090Y-46006956D01*
X48287824Y-45891980D01*
X48287819Y-45891978D01*
X48287814Y-45891976D01*
X48028442Y-45813942D01*
X48028428Y-45813939D01*
X47912791Y-45796921D01*
X47760439Y-45774500D01*
X47557369Y-45774500D01*
X47557351Y-45774500D01*
X47354844Y-45789323D01*
X47354831Y-45789325D01*
X47090453Y-45848217D01*
X47090446Y-45848220D01*
X46837439Y-45944987D01*
X46601226Y-46077557D01*
X46386822Y-46243112D01*
X46198822Y-46438109D01*
X46198816Y-46438116D01*
X46041202Y-46658419D01*
X46041199Y-46658424D01*
X45917350Y-46899309D01*
X45917343Y-46899327D01*
X45829884Y-47155685D01*
X45829881Y-47155699D01*
X45805449Y-47287975D01*
X45790114Y-47371000D01*
X45780681Y-47422068D01*
X45780680Y-47422075D01*
X45770787Y-47692763D01*
X31415500Y-47692763D01*
X31415500Y-44704003D01*
X65615435Y-44704003D01*
X65635630Y-44883249D01*
X65635631Y-44883254D01*
X65695211Y-45053523D01*
X65753336Y-45146027D01*
X65791184Y-45206262D01*
X65918738Y-45333816D01*
X66071478Y-45429789D01*
X66241745Y-45489367D01*
X66241745Y-45489368D01*
X66241750Y-45489369D01*
X66420996Y-45509565D01*
X66421000Y-45509565D01*
X66421004Y-45509565D01*
X66600249Y-45489369D01*
X66600252Y-45489368D01*
X66600255Y-45489368D01*
X66770522Y-45429789D01*
X66923262Y-45333816D01*
X67050816Y-45206262D01*
X67146789Y-45053522D01*
X67206368Y-44883255D01*
X67226565Y-44704000D01*
X67206368Y-44524745D01*
X67146789Y-44354478D01*
X67050816Y-44201738D01*
X67050814Y-44201736D01*
X67050813Y-44201734D01*
X67048550Y-44198896D01*
X67047659Y-44196715D01*
X67047111Y-44195842D01*
X67047264Y-44195745D01*
X67022144Y-44134209D01*
X67021500Y-44121587D01*
X67021500Y-42746412D01*
X67041185Y-42679373D01*
X67048555Y-42669097D01*
X67050810Y-42666267D01*
X67050816Y-42666262D01*
X67146789Y-42513522D01*
X67206368Y-42343255D01*
X67206369Y-42343249D01*
X67226565Y-42164003D01*
X67226565Y-42163996D01*
X67206369Y-41984750D01*
X67206368Y-41984745D01*
X67181192Y-41912796D01*
X67146789Y-41814478D01*
X67050816Y-41661738D01*
X66923262Y-41534184D01*
X66770523Y-41438211D01*
X66600254Y-41378631D01*
X66600249Y-41378630D01*
X66421004Y-41358435D01*
X66420996Y-41358435D01*
X66241750Y-41378630D01*
X66241745Y-41378631D01*
X66071476Y-41438211D01*
X65918737Y-41534184D01*
X65791184Y-41661737D01*
X65695211Y-41814476D01*
X65635631Y-41984745D01*
X65635630Y-41984750D01*
X65615435Y-42163996D01*
X65615435Y-42164003D01*
X65635630Y-42343249D01*
X65635631Y-42343254D01*
X65695211Y-42513523D01*
X65791185Y-42666264D01*
X65793450Y-42669104D01*
X65794339Y-42671284D01*
X65794889Y-42672158D01*
X65794735Y-42672254D01*
X65819855Y-42733792D01*
X65820499Y-42746412D01*
X65820499Y-44121587D01*
X65800814Y-44188626D01*
X65793455Y-44198889D01*
X65791187Y-44201733D01*
X65695211Y-44354476D01*
X65635631Y-44524745D01*
X65635630Y-44524750D01*
X65615435Y-44703996D01*
X65615435Y-44704003D01*
X31415500Y-44704003D01*
X31415500Y-39370001D01*
X36195000Y-39370001D01*
X36321997Y-39623997D01*
X36575999Y-39877999D01*
X36576003Y-39878002D01*
X36829999Y-40005000D01*
X36830000Y-40005000D01*
X39370001Y-40005000D01*
X39496999Y-39941500D01*
X39624000Y-39878000D01*
X39878000Y-39624000D01*
X40005000Y-39370000D01*
X55245000Y-39370000D01*
X55372000Y-39624000D01*
X55625999Y-39877999D01*
X55626003Y-39878002D01*
X55879999Y-40005000D01*
X55880000Y-40005000D01*
X58420001Y-40005000D01*
X58546998Y-39941500D01*
X58674000Y-39878000D01*
X58928000Y-39624000D01*
X59055000Y-39370000D01*
X59055000Y-38047401D01*
X61125746Y-38047401D01*
X61135745Y-38257327D01*
X61185296Y-38461578D01*
X61185298Y-38461582D01*
X61272598Y-38652743D01*
X61272601Y-38652748D01*
X61272602Y-38652750D01*
X61272604Y-38652753D01*
X61384401Y-38809750D01*
X61394515Y-38823953D01*
X61394520Y-38823959D01*
X61546620Y-38968985D01*
X61641578Y-39030011D01*
X61723428Y-39082613D01*
X61918543Y-39160725D01*
X62021729Y-39180612D01*
X62124914Y-39200500D01*
X62124915Y-39200500D01*
X62282419Y-39200500D01*
X62282425Y-39200500D01*
X62439218Y-39185528D01*
X62640875Y-39126316D01*
X62827682Y-39030011D01*
X62879827Y-38989003D01*
X68790435Y-38989003D01*
X68810630Y-39168249D01*
X68810631Y-39168254D01*
X68870211Y-39338523D01*
X68966183Y-39491261D01*
X68966184Y-39491262D01*
X69093738Y-39618816D01*
X69246478Y-39714789D01*
X69246481Y-39714790D01*
X69251047Y-39716989D01*
X69302910Y-39763807D01*
X69318145Y-39801118D01*
X69318631Y-39803248D01*
X69318632Y-39803255D01*
X69329273Y-39833664D01*
X69378210Y-39973521D01*
X69397990Y-40005000D01*
X69474184Y-40126262D01*
X69601738Y-40253816D01*
X69754478Y-40349789D01*
X69922244Y-40408493D01*
X69924745Y-40409368D01*
X69924750Y-40409369D01*
X70103996Y-40429565D01*
X70104000Y-40429565D01*
X70104004Y-40429565D01*
X70283249Y-40409369D01*
X70283252Y-40409368D01*
X70283255Y-40409368D01*
X70453522Y-40349789D01*
X70606262Y-40253816D01*
X70728417Y-40131661D01*
X70789740Y-40098176D01*
X70816098Y-40095342D01*
X71057753Y-40095342D01*
X71059034Y-40095300D01*
X71154673Y-40095300D01*
X71209269Y-40088112D01*
X71427659Y-40059361D01*
X71693621Y-39988098D01*
X71693633Y-39988092D01*
X71693636Y-39988092D01*
X71784304Y-39950536D01*
X71948005Y-39882731D01*
X72186461Y-39745062D01*
X72404907Y-39577446D01*
X72599607Y-39382752D01*
X72609392Y-39370000D01*
X74295000Y-39370000D01*
X74421998Y-39623997D01*
X74422000Y-39624000D01*
X74675999Y-39877999D01*
X74676003Y-39878002D01*
X74929999Y-40005000D01*
X74930000Y-40005000D01*
X77470001Y-40005000D01*
X77596998Y-39941500D01*
X77724000Y-39878000D01*
X77978000Y-39624000D01*
X77980593Y-39618815D01*
X78105000Y-39370001D01*
X78105000Y-38047401D01*
X80175746Y-38047401D01*
X80185745Y-38257327D01*
X80235296Y-38461578D01*
X80235298Y-38461582D01*
X80322598Y-38652743D01*
X80322601Y-38652748D01*
X80322602Y-38652750D01*
X80322604Y-38652753D01*
X80434401Y-38809750D01*
X80444515Y-38823953D01*
X80444520Y-38823959D01*
X80596620Y-38968985D01*
X80691578Y-39030011D01*
X80773428Y-39082613D01*
X80968543Y-39160725D01*
X81071729Y-39180612D01*
X81174914Y-39200500D01*
X81174915Y-39200500D01*
X81332419Y-39200500D01*
X81332425Y-39200500D01*
X81489218Y-39185528D01*
X81690875Y-39126316D01*
X81877682Y-39030011D01*
X82042886Y-38900092D01*
X82180519Y-38741256D01*
X82208860Y-38692169D01*
X82285601Y-38559249D01*
X82285600Y-38559249D01*
X82285604Y-38559244D01*
X82354344Y-38360633D01*
X82384254Y-38152602D01*
X82374254Y-37942670D01*
X82324704Y-37738424D01*
X82307796Y-37701401D01*
X82237401Y-37547256D01*
X82237398Y-37547251D01*
X82237397Y-37547250D01*
X82237396Y-37547247D01*
X82115486Y-37376048D01*
X82115484Y-37376046D01*
X82115479Y-37376040D01*
X81963379Y-37231014D01*
X81786574Y-37117388D01*
X81591455Y-37039274D01*
X81385086Y-36999500D01*
X81385085Y-36999500D01*
X81227575Y-36999500D01*
X81070782Y-37014472D01*
X81070778Y-37014473D01*
X80869127Y-37073683D01*
X80682313Y-37169991D01*
X80517116Y-37299905D01*
X80517112Y-37299909D01*
X80379478Y-37458746D01*
X80274398Y-37640750D01*
X80205656Y-37839365D01*
X80205656Y-37839367D01*
X80177644Y-38034203D01*
X80175746Y-38047401D01*
X78105000Y-38047401D01*
X78105000Y-36829998D01*
X77987293Y-36594586D01*
X77978000Y-36576000D01*
X77724000Y-36322000D01*
X77723997Y-36321997D01*
X77470001Y-36195000D01*
X77470000Y-36195000D01*
X74930000Y-36195000D01*
X74929999Y-36195000D01*
X74675999Y-36322000D01*
X74422000Y-36575999D01*
X74421997Y-36576003D01*
X74295000Y-36829999D01*
X74295000Y-39370000D01*
X72609392Y-39370000D01*
X72764203Y-39168254D01*
X72767223Y-39164318D01*
X72767223Y-39164317D01*
X72767229Y-39164310D01*
X72904905Y-38925858D01*
X73010280Y-38671477D01*
X73081550Y-38405517D01*
X73117496Y-38132530D01*
X73117497Y-38041813D01*
X73117500Y-38041788D01*
X73117500Y-37994826D01*
X73117501Y-37942670D01*
X73117502Y-37921945D01*
X73117500Y-37921940D01*
X73117501Y-37918431D01*
X73117500Y-37918395D01*
X73117500Y-37571123D01*
X73117501Y-37571119D01*
X73117500Y-37502270D01*
X73118031Y-37494170D01*
X73122694Y-37458746D01*
X73128980Y-37410990D01*
X73137355Y-37379732D01*
X73164777Y-37313527D01*
X73180953Y-37285509D01*
X73232000Y-37218980D01*
X73237328Y-37212905D01*
X74894399Y-35555835D01*
X74897331Y-35553089D01*
X75030420Y-35436377D01*
X75036833Y-35431456D01*
X75129986Y-35369215D01*
X75182293Y-35334266D01*
X75189324Y-35330207D01*
X75285450Y-35282804D01*
X75346211Y-35252840D01*
X75353707Y-35249736D01*
X75519367Y-35193504D01*
X75527181Y-35191410D01*
X75698768Y-35157281D01*
X75706808Y-35156224D01*
X75883705Y-35144633D01*
X75887760Y-35144500D01*
X75958333Y-35144501D01*
X75958337Y-35144500D01*
X79997663Y-35144500D01*
X79997667Y-35144501D01*
X80068543Y-35144500D01*
X80072599Y-35144633D01*
X80234316Y-35155229D01*
X80249197Y-35156205D01*
X80257233Y-35157262D01*
X80428819Y-35191390D01*
X80436651Y-35193489D01*
X80602303Y-35249719D01*
X80609803Y-35252826D01*
X80766685Y-35330190D01*
X80773716Y-35334249D01*
X80919169Y-35431434D01*
X80925610Y-35436377D01*
X81058431Y-35552856D01*
X81061393Y-35555629D01*
X81085938Y-35580174D01*
X81085953Y-35580188D01*
X84392233Y-38886468D01*
X84425718Y-38947791D01*
X84424327Y-39006241D01*
X84389939Y-39134583D01*
X84389936Y-39134596D01*
X84369341Y-39369999D01*
X84369341Y-39370000D01*
X84389936Y-39605403D01*
X84389938Y-39605413D01*
X84451094Y-39833655D01*
X84451096Y-39833659D01*
X84451097Y-39833663D01*
X84530993Y-40005000D01*
X84550965Y-40047830D01*
X84550967Y-40047834D01*
X84686501Y-40241395D01*
X84686506Y-40241402D01*
X84853597Y-40408493D01*
X84853603Y-40408498D01*
X85039158Y-40538425D01*
X85082783Y-40593002D01*
X85089977Y-40662500D01*
X85058454Y-40724855D01*
X85039158Y-40741575D01*
X84853597Y-40871505D01*
X84686505Y-41038597D01*
X84550965Y-41232169D01*
X84550964Y-41232171D01*
X84451098Y-41446335D01*
X84451094Y-41446344D01*
X84389938Y-41674586D01*
X84389936Y-41674596D01*
X84369341Y-41909999D01*
X84369341Y-41910000D01*
X84389936Y-42145403D01*
X84389938Y-42145413D01*
X84451094Y-42373655D01*
X84451096Y-42373659D01*
X84451097Y-42373663D01*
X84528317Y-42539262D01*
X84550965Y-42587830D01*
X84550967Y-42587834D01*
X84609400Y-42671284D01*
X84686505Y-42781401D01*
X84853599Y-42948495D01*
X84950384Y-43016265D01*
X85047165Y-43084032D01*
X85047167Y-43084033D01*
X85047170Y-43084035D01*
X85261337Y-43183903D01*
X85489592Y-43245063D01*
X85677918Y-43261539D01*
X85724999Y-43265659D01*
X85725000Y-43265659D01*
X85725001Y-43265659D01*
X85764234Y-43262226D01*
X85960408Y-43245063D01*
X86188663Y-43183903D01*
X86402830Y-43084035D01*
X86596401Y-42948495D01*
X86763495Y-42781401D01*
X86899035Y-42587830D01*
X86998903Y-42373663D01*
X87060063Y-42145408D01*
X87080659Y-41910000D01*
X87060063Y-41674592D01*
X86998903Y-41446337D01*
X86899035Y-41232171D01*
X86763495Y-41038599D01*
X86763494Y-41038597D01*
X86596402Y-40871506D01*
X86596396Y-40871501D01*
X86410842Y-40741575D01*
X86367217Y-40686998D01*
X86360023Y-40617500D01*
X86391546Y-40555145D01*
X86410842Y-40538425D01*
X86433026Y-40522891D01*
X86596401Y-40408495D01*
X86763495Y-40241401D01*
X86899035Y-40047830D01*
X86998903Y-39833663D01*
X87060063Y-39605408D01*
X87080659Y-39370001D01*
X93345000Y-39370001D01*
X93471998Y-39623997D01*
X93472000Y-39624000D01*
X93725999Y-39877999D01*
X93726003Y-39878002D01*
X93979999Y-40005000D01*
X93980000Y-40005000D01*
X96520001Y-40005000D01*
X96646999Y-39941500D01*
X96774000Y-39878000D01*
X97028000Y-39624000D01*
X97030593Y-39618815D01*
X97155000Y-39370001D01*
X97155000Y-38047401D01*
X99225746Y-38047401D01*
X99235745Y-38257327D01*
X99285296Y-38461578D01*
X99285298Y-38461582D01*
X99372598Y-38652743D01*
X99372601Y-38652748D01*
X99372602Y-38652750D01*
X99372604Y-38652753D01*
X99484401Y-38809750D01*
X99494515Y-38823953D01*
X99494520Y-38823959D01*
X99646620Y-38968985D01*
X99741578Y-39030011D01*
X99823428Y-39082613D01*
X100018543Y-39160725D01*
X100121729Y-39180612D01*
X100224914Y-39200500D01*
X100224915Y-39200500D01*
X100382419Y-39200500D01*
X100382425Y-39200500D01*
X100539218Y-39185528D01*
X100740875Y-39126316D01*
X100927682Y-39030011D01*
X101092886Y-38900092D01*
X101230519Y-38741256D01*
X101258860Y-38692169D01*
X101335601Y-38559249D01*
X101335600Y-38559249D01*
X101335604Y-38559244D01*
X101404344Y-38360633D01*
X101434254Y-38152602D01*
X101424254Y-37942670D01*
X101374704Y-37738424D01*
X101357796Y-37701401D01*
X101287401Y-37547256D01*
X101287398Y-37547251D01*
X101287397Y-37547250D01*
X101287396Y-37547247D01*
X101165486Y-37376048D01*
X101165484Y-37376046D01*
X101165479Y-37376040D01*
X101013379Y-37231014D01*
X100836574Y-37117388D01*
X100641455Y-37039274D01*
X100435086Y-36999500D01*
X100435085Y-36999500D01*
X100277575Y-36999500D01*
X100120781Y-37014472D01*
X100120782Y-37014472D01*
X100120778Y-37014473D01*
X99919127Y-37073683D01*
X99732313Y-37169991D01*
X99567116Y-37299905D01*
X99567112Y-37299909D01*
X99429478Y-37458746D01*
X99324398Y-37640750D01*
X99255656Y-37839365D01*
X99255656Y-37839367D01*
X99227644Y-38034203D01*
X99225746Y-38047401D01*
X97155000Y-38047401D01*
X97155000Y-36829998D01*
X97037293Y-36594586D01*
X97028000Y-36576000D01*
X96774000Y-36322000D01*
X96773997Y-36321998D01*
X96520001Y-36195000D01*
X96520000Y-36195000D01*
X93980000Y-36195000D01*
X93979999Y-36195000D01*
X93726002Y-36321998D01*
X93725999Y-36322000D01*
X93472000Y-36575999D01*
X93471997Y-36576003D01*
X93345000Y-36829999D01*
X93345000Y-39370001D01*
X87080659Y-39370001D01*
X87080659Y-39370000D01*
X87060063Y-39134592D01*
X86998903Y-38906337D01*
X86899035Y-38692171D01*
X86871435Y-38652753D01*
X86763494Y-38498597D01*
X86596402Y-38331506D01*
X86596401Y-38331505D01*
X86474746Y-38246321D01*
X86410841Y-38201574D01*
X86367216Y-38146997D01*
X86360024Y-38077498D01*
X86375239Y-38047401D01*
X89065746Y-38047401D01*
X89075745Y-38257327D01*
X89125296Y-38461578D01*
X89125298Y-38461582D01*
X89212598Y-38652743D01*
X89212601Y-38652748D01*
X89212602Y-38652750D01*
X89212604Y-38652753D01*
X89324401Y-38809750D01*
X89334515Y-38823953D01*
X89334520Y-38823959D01*
X89486620Y-38968985D01*
X89581578Y-39030011D01*
X89663428Y-39082613D01*
X89858543Y-39160725D01*
X89961729Y-39180612D01*
X90064914Y-39200500D01*
X90064915Y-39200500D01*
X90222419Y-39200500D01*
X90222425Y-39200500D01*
X90379218Y-39185528D01*
X90580875Y-39126316D01*
X90767682Y-39030011D01*
X90932886Y-38900092D01*
X91070519Y-38741256D01*
X91098860Y-38692169D01*
X91175601Y-38559249D01*
X91175600Y-38559249D01*
X91175604Y-38559244D01*
X91244344Y-38360633D01*
X91274254Y-38152602D01*
X91264254Y-37942670D01*
X91214704Y-37738424D01*
X91197796Y-37701401D01*
X91127401Y-37547256D01*
X91127398Y-37547251D01*
X91127397Y-37547250D01*
X91127396Y-37547247D01*
X91005486Y-37376048D01*
X91005484Y-37376046D01*
X91005479Y-37376040D01*
X90853379Y-37231014D01*
X90676574Y-37117388D01*
X90481455Y-37039274D01*
X90275086Y-36999500D01*
X90275085Y-36999500D01*
X90117575Y-36999500D01*
X89960781Y-37014472D01*
X89960782Y-37014472D01*
X89960778Y-37014473D01*
X89759127Y-37073683D01*
X89572313Y-37169991D01*
X89407116Y-37299905D01*
X89407112Y-37299909D01*
X89269478Y-37458746D01*
X89164398Y-37640750D01*
X89095656Y-37839365D01*
X89095656Y-37839367D01*
X89067644Y-38034203D01*
X89065746Y-38047401D01*
X86375239Y-38047401D01*
X86391546Y-38015144D01*
X86410836Y-37998428D01*
X86596401Y-37868495D01*
X86763495Y-37701401D01*
X86899035Y-37507830D01*
X86998903Y-37293663D01*
X87060063Y-37065408D01*
X87080659Y-36830000D01*
X87060063Y-36594592D01*
X86998903Y-36366337D01*
X86899035Y-36152171D01*
X86889421Y-36138441D01*
X86763496Y-35958600D01*
X86742519Y-35937623D01*
X86641179Y-35836283D01*
X86607696Y-35774963D01*
X86612680Y-35705271D01*
X86654551Y-35649337D01*
X86685529Y-35632422D01*
X86817086Y-35583354D01*
X86817093Y-35583350D01*
X86848284Y-35560000D01*
X87122000Y-35560000D01*
X87122000Y-32893000D01*
X84328000Y-32893000D01*
X84328000Y-35560000D01*
X84601715Y-35560000D01*
X84632906Y-35583350D01*
X84632913Y-35583354D01*
X84764470Y-35632421D01*
X84820403Y-35674292D01*
X84844821Y-35739756D01*
X84829970Y-35808029D01*
X84808819Y-35836284D01*
X84686505Y-35958598D01*
X84562310Y-36135967D01*
X84507733Y-36179592D01*
X84438234Y-36186784D01*
X84436547Y-36186461D01*
X84417189Y-36182611D01*
X84409346Y-36180510D01*
X84243703Y-36124283D01*
X84236202Y-36121176D01*
X84079311Y-36043809D01*
X84072280Y-36039749D01*
X83926831Y-35942566D01*
X83920390Y-35937623D01*
X83787554Y-35821132D01*
X83784592Y-35818357D01*
X82368475Y-34402240D01*
X82368473Y-34402237D01*
X82345406Y-34379170D01*
X82345366Y-34379097D01*
X82202157Y-34235890D01*
X82170727Y-34210097D01*
X81966667Y-34042633D01*
X81966665Y-34042631D01*
X81966662Y-34042629D01*
X81713370Y-33873388D01*
X81713364Y-33873385D01*
X81444700Y-33729785D01*
X81444696Y-33729784D01*
X81163261Y-33613213D01*
X81163253Y-33613210D01*
X80871738Y-33524783D01*
X80871732Y-33524782D01*
X80710237Y-33492661D01*
X80572947Y-33465354D01*
X80572943Y-33465353D01*
X80572940Y-33465353D01*
X80572931Y-33465352D01*
X80394207Y-33447751D01*
X80269776Y-33435498D01*
X80269773Y-33435498D01*
X80117457Y-33435500D01*
X75756051Y-33435500D01*
X75755782Y-33435508D01*
X75649711Y-33435508D01*
X75571875Y-33443173D01*
X75356333Y-33464401D01*
X75356330Y-33464401D01*
X75230699Y-33489390D01*
X75067175Y-33521916D01*
X74785060Y-33607493D01*
X74785058Y-33607493D01*
X74785054Y-33607495D01*
X74512703Y-33720305D01*
X74512689Y-33720311D01*
X74252695Y-33859279D01*
X74252674Y-33859291D01*
X74007566Y-34023065D01*
X74007561Y-34023069D01*
X73779667Y-34210097D01*
X73685833Y-34303929D01*
X73685829Y-34303935D01*
X72007162Y-35982603D01*
X72001057Y-35987956D01*
X71934494Y-36039031D01*
X71906459Y-36055217D01*
X71840271Y-36082632D01*
X71809003Y-36091009D01*
X71725753Y-36101968D01*
X71717653Y-36102499D01*
X71645142Y-36102499D01*
X71645126Y-36102500D01*
X71295914Y-36102500D01*
X71223000Y-36102500D01*
X71085326Y-36102500D01*
X71085320Y-36102500D01*
X71085315Y-36102501D01*
X70812344Y-36138438D01*
X70812337Y-36138439D01*
X70812334Y-36138440D01*
X70761096Y-36152169D01*
X70546369Y-36209704D01*
X70291982Y-36315075D01*
X70291971Y-36315080D01*
X70053516Y-36452754D01*
X69835073Y-36620370D01*
X69835066Y-36620376D01*
X69640376Y-36815066D01*
X69640370Y-36815073D01*
X69472754Y-37033516D01*
X69472751Y-37033520D01*
X69472751Y-37033521D01*
X69469429Y-37039275D01*
X69335080Y-37271971D01*
X69335075Y-37271982D01*
X69229704Y-37526369D01*
X69158441Y-37792331D01*
X69158438Y-37792344D01*
X69122501Y-38065315D01*
X69122500Y-38065332D01*
X69122500Y-38279059D01*
X69102815Y-38346098D01*
X69086182Y-38366740D01*
X68966183Y-38486739D01*
X68870211Y-38639476D01*
X68810631Y-38809745D01*
X68810630Y-38809750D01*
X68790435Y-38988996D01*
X68790435Y-38989003D01*
X62879827Y-38989003D01*
X62992886Y-38900092D01*
X63130519Y-38741256D01*
X63158860Y-38692169D01*
X63235601Y-38559249D01*
X63235600Y-38559249D01*
X63235604Y-38559244D01*
X63304344Y-38360633D01*
X63334254Y-38152602D01*
X63324254Y-37942670D01*
X63274704Y-37738424D01*
X63257796Y-37701401D01*
X63187401Y-37547256D01*
X63187398Y-37547251D01*
X63187397Y-37547250D01*
X63187396Y-37547247D01*
X63065486Y-37376048D01*
X63065484Y-37376046D01*
X63065479Y-37376040D01*
X62913379Y-37231014D01*
X62736574Y-37117388D01*
X62541455Y-37039274D01*
X62335086Y-36999500D01*
X62335085Y-36999500D01*
X62177575Y-36999500D01*
X62020781Y-37014472D01*
X62020782Y-37014472D01*
X62020778Y-37014473D01*
X61819127Y-37073683D01*
X61632313Y-37169991D01*
X61467116Y-37299905D01*
X61467112Y-37299909D01*
X61329478Y-37458746D01*
X61224398Y-37640750D01*
X61155656Y-37839365D01*
X61155656Y-37839367D01*
X61127644Y-38034203D01*
X61125746Y-38047401D01*
X59055000Y-38047401D01*
X59055000Y-36830000D01*
X59047536Y-36815073D01*
X58937293Y-36594586D01*
X58928000Y-36576000D01*
X58674000Y-36322000D01*
X58673997Y-36321997D01*
X58420001Y-36195000D01*
X58420000Y-36195000D01*
X55880000Y-36195000D01*
X55879999Y-36195000D01*
X55625999Y-36322000D01*
X55372000Y-36575999D01*
X55245000Y-36829999D01*
X55245000Y-39370000D01*
X40005000Y-39370000D01*
X40005000Y-38047401D01*
X42075746Y-38047401D01*
X42085745Y-38257327D01*
X42135296Y-38461578D01*
X42135298Y-38461582D01*
X42222598Y-38652743D01*
X42222601Y-38652748D01*
X42222602Y-38652750D01*
X42222604Y-38652753D01*
X42334401Y-38809750D01*
X42344515Y-38823953D01*
X42344520Y-38823959D01*
X42496620Y-38968985D01*
X42591578Y-39030011D01*
X42673428Y-39082613D01*
X42868543Y-39160725D01*
X42971729Y-39180612D01*
X43074914Y-39200500D01*
X43074915Y-39200500D01*
X43232419Y-39200500D01*
X43232425Y-39200500D01*
X43389218Y-39185528D01*
X43590875Y-39126316D01*
X43777682Y-39030011D01*
X43942886Y-38900092D01*
X44080519Y-38741256D01*
X44108860Y-38692169D01*
X44185601Y-38559249D01*
X44185600Y-38559249D01*
X44185604Y-38559244D01*
X44254344Y-38360633D01*
X44284254Y-38152602D01*
X44279243Y-38047401D01*
X50965746Y-38047401D01*
X50975745Y-38257327D01*
X51025296Y-38461578D01*
X51025298Y-38461582D01*
X51112598Y-38652743D01*
X51112601Y-38652748D01*
X51112602Y-38652750D01*
X51112604Y-38652753D01*
X51224401Y-38809750D01*
X51234515Y-38823953D01*
X51234520Y-38823959D01*
X51386620Y-38968985D01*
X51481578Y-39030011D01*
X51563428Y-39082613D01*
X51758543Y-39160725D01*
X51861729Y-39180612D01*
X51964914Y-39200500D01*
X51964915Y-39200500D01*
X52122419Y-39200500D01*
X52122425Y-39200500D01*
X52279218Y-39185528D01*
X52480875Y-39126316D01*
X52667682Y-39030011D01*
X52832886Y-38900092D01*
X52970519Y-38741256D01*
X52998860Y-38692169D01*
X53075601Y-38559249D01*
X53075600Y-38559249D01*
X53075604Y-38559244D01*
X53144344Y-38360633D01*
X53174254Y-38152602D01*
X53164254Y-37942670D01*
X53114704Y-37738424D01*
X53097796Y-37701401D01*
X53027401Y-37547256D01*
X53027398Y-37547251D01*
X53027397Y-37547250D01*
X53027396Y-37547247D01*
X52905486Y-37376048D01*
X52905484Y-37376046D01*
X52905479Y-37376040D01*
X52753379Y-37231014D01*
X52576574Y-37117388D01*
X52381455Y-37039274D01*
X52175086Y-36999500D01*
X52175085Y-36999500D01*
X52017575Y-36999500D01*
X51860781Y-37014472D01*
X51860782Y-37014472D01*
X51860778Y-37014473D01*
X51659127Y-37073683D01*
X51472313Y-37169991D01*
X51307116Y-37299905D01*
X51307112Y-37299909D01*
X51169478Y-37458746D01*
X51064398Y-37640750D01*
X50995656Y-37839365D01*
X50995656Y-37839367D01*
X50967644Y-38034203D01*
X50965746Y-38047401D01*
X44279243Y-38047401D01*
X44274254Y-37942670D01*
X44224704Y-37738424D01*
X44207796Y-37701401D01*
X44137401Y-37547256D01*
X44137398Y-37547251D01*
X44137397Y-37547250D01*
X44137396Y-37547247D01*
X44015486Y-37376048D01*
X44015484Y-37376046D01*
X44015479Y-37376040D01*
X43863379Y-37231014D01*
X43686574Y-37117388D01*
X43491455Y-37039274D01*
X43285086Y-36999500D01*
X43285085Y-36999500D01*
X43127575Y-36999500D01*
X42970781Y-37014472D01*
X42970782Y-37014472D01*
X42970778Y-37014473D01*
X42769127Y-37073683D01*
X42582313Y-37169991D01*
X42417116Y-37299905D01*
X42417112Y-37299909D01*
X42279478Y-37458746D01*
X42174398Y-37640750D01*
X42105656Y-37839365D01*
X42105656Y-37839367D01*
X42077644Y-38034203D01*
X42075746Y-38047401D01*
X40005000Y-38047401D01*
X40005000Y-36830000D01*
X40005000Y-36829999D01*
X40005000Y-36829998D01*
X39878002Y-36576003D01*
X39877999Y-36575999D01*
X39623997Y-36321997D01*
X39370001Y-36195000D01*
X39370000Y-36195000D01*
X36830000Y-36195000D01*
X36829999Y-36195000D01*
X36575999Y-36322000D01*
X36322000Y-36575999D01*
X36195000Y-36829999D01*
X36195000Y-39370001D01*
X31415500Y-39370001D01*
X31415500Y-38047401D01*
X31915746Y-38047401D01*
X31925745Y-38257327D01*
X31975296Y-38461578D01*
X31975298Y-38461582D01*
X32062598Y-38652743D01*
X32062601Y-38652748D01*
X32062602Y-38652750D01*
X32062604Y-38652753D01*
X32174401Y-38809750D01*
X32184515Y-38823953D01*
X32184520Y-38823959D01*
X32336620Y-38968985D01*
X32431578Y-39030011D01*
X32513428Y-39082613D01*
X32708543Y-39160725D01*
X32811729Y-39180612D01*
X32914914Y-39200500D01*
X32914915Y-39200500D01*
X33072419Y-39200500D01*
X33072425Y-39200500D01*
X33229218Y-39185528D01*
X33430875Y-39126316D01*
X33617682Y-39030011D01*
X33782886Y-38900092D01*
X33920519Y-38741256D01*
X33948860Y-38692169D01*
X34025601Y-38559249D01*
X34025600Y-38559249D01*
X34025604Y-38559244D01*
X34094344Y-38360633D01*
X34124254Y-38152602D01*
X34114254Y-37942670D01*
X34064704Y-37738424D01*
X34047796Y-37701401D01*
X33977401Y-37547256D01*
X33977398Y-37547251D01*
X33977397Y-37547250D01*
X33977396Y-37547247D01*
X33855486Y-37376048D01*
X33855484Y-37376046D01*
X33855479Y-37376040D01*
X33703379Y-37231014D01*
X33526574Y-37117388D01*
X33331455Y-37039274D01*
X33125086Y-36999500D01*
X33125085Y-36999500D01*
X32967575Y-36999500D01*
X32810781Y-37014472D01*
X32810782Y-37014472D01*
X32810778Y-37014473D01*
X32609127Y-37073683D01*
X32422313Y-37169991D01*
X32257116Y-37299905D01*
X32257112Y-37299909D01*
X32119478Y-37458746D01*
X32014398Y-37640750D01*
X31945656Y-37839365D01*
X31945656Y-37839367D01*
X31917644Y-38034203D01*
X31915746Y-38047401D01*
X31415500Y-38047401D01*
X31415500Y-34095000D01*
X61354999Y-34095000D01*
X62055000Y-34095000D01*
X62055000Y-34395000D01*
X61355000Y-34395000D01*
X61355000Y-34845713D01*
X61370418Y-34997338D01*
X61431299Y-35191381D01*
X61431302Y-35191387D01*
X61530005Y-35369215D01*
X61530005Y-35369216D01*
X61662478Y-35523530D01*
X61662479Y-35523531D01*
X61823304Y-35648018D01*
X62005907Y-35737589D01*
X62005906Y-35737589D01*
X62202783Y-35788564D01*
X62202787Y-35788565D01*
X62205000Y-35788677D01*
X62205000Y-35057657D01*
X62218962Y-35068201D01*
X62326840Y-35098895D01*
X62438521Y-35088546D01*
X62505000Y-35055443D01*
X62505000Y-35783685D01*
X62606938Y-35768070D01*
X62797665Y-35697434D01*
X62970267Y-35589850D01*
X63117668Y-35449735D01*
X63117669Y-35449733D01*
X63233856Y-35282804D01*
X63314059Y-35095907D01*
X63354999Y-34896690D01*
X63355000Y-34345384D01*
X63374685Y-34278345D01*
X63427489Y-34232590D01*
X63496647Y-34222646D01*
X63526454Y-34230823D01*
X63634764Y-34275687D01*
X63747280Y-34290500D01*
X63747287Y-34290500D01*
X63822713Y-34290500D01*
X63822720Y-34290500D01*
X63935236Y-34275687D01*
X64075233Y-34217698D01*
X64195451Y-34125451D01*
X64287698Y-34005233D01*
X64345687Y-33865236D01*
X64365466Y-33715000D01*
X68984534Y-33715000D01*
X69004312Y-33865234D01*
X69004313Y-33865236D01*
X69062302Y-34005233D01*
X69154549Y-34125451D01*
X69274767Y-34217698D01*
X69414764Y-34275687D01*
X69527280Y-34290500D01*
X69527287Y-34290500D01*
X69602713Y-34290500D01*
X69602720Y-34290500D01*
X69715236Y-34275687D01*
X69823546Y-34230823D01*
X69893017Y-34223354D01*
X69955496Y-34254629D01*
X69991148Y-34314718D01*
X69995000Y-34345384D01*
X69995000Y-34845713D01*
X70010418Y-34997338D01*
X70071299Y-35191381D01*
X70071302Y-35191387D01*
X70170005Y-35369215D01*
X70170005Y-35369216D01*
X70302478Y-35523530D01*
X70302479Y-35523531D01*
X70463304Y-35648018D01*
X70645907Y-35737589D01*
X70645906Y-35737589D01*
X70842783Y-35788564D01*
X70842787Y-35788565D01*
X70845000Y-35788677D01*
X70845000Y-35057657D01*
X70858962Y-35068201D01*
X70966840Y-35098895D01*
X71078521Y-35088546D01*
X71145000Y-35055443D01*
X71145000Y-35783685D01*
X71246938Y-35768070D01*
X71437665Y-35697434D01*
X71610267Y-35589850D01*
X71757668Y-35449735D01*
X71757669Y-35449733D01*
X71873856Y-35282804D01*
X71954059Y-35095907D01*
X71995000Y-34896690D01*
X71995000Y-34395000D01*
X71295000Y-34395000D01*
X71295000Y-34095000D01*
X71995000Y-34095000D01*
X71995000Y-33644286D01*
X71979581Y-33492661D01*
X71918700Y-33298618D01*
X71918695Y-33298608D01*
X71819994Y-33120784D01*
X71819994Y-33120783D01*
X71687521Y-32966469D01*
X71687520Y-32966468D01*
X71526695Y-32841981D01*
X71344096Y-32752412D01*
X71147201Y-32701433D01*
X71145001Y-32701320D01*
X71145000Y-32701322D01*
X71145000Y-33432342D01*
X71131038Y-33421799D01*
X71023160Y-33391105D01*
X70911479Y-33401454D01*
X70845000Y-33434556D01*
X70845000Y-32706312D01*
X70743061Y-32721929D01*
X70743046Y-32721933D01*
X70552342Y-32792562D01*
X70552335Y-32792565D01*
X70379732Y-32900149D01*
X70232331Y-33040264D01*
X70232330Y-33040266D01*
X70116142Y-33207197D01*
X70116140Y-33207200D01*
X70112760Y-33215078D01*
X70068232Y-33268921D01*
X70001663Y-33290142D01*
X69934189Y-33272005D01*
X69923332Y-33264556D01*
X69855233Y-33212302D01*
X69855232Y-33212301D01*
X69855230Y-33212300D01*
X69764731Y-33174814D01*
X69715236Y-33154313D01*
X69701171Y-33152461D01*
X69602727Y-33139500D01*
X69602720Y-33139500D01*
X69527280Y-33139500D01*
X69527272Y-33139500D01*
X69414764Y-33154313D01*
X69414763Y-33154313D01*
X69274770Y-33212300D01*
X69274767Y-33212301D01*
X69274767Y-33212302D01*
X69154549Y-33304549D01*
X69064580Y-33421799D01*
X69062300Y-33424770D01*
X69004313Y-33564763D01*
X69004312Y-33564765D01*
X68984534Y-33714999D01*
X68984534Y-33715000D01*
X64365466Y-33715000D01*
X64345687Y-33564764D01*
X64287698Y-33424767D01*
X64195451Y-33304549D01*
X64075233Y-33212302D01*
X64075229Y-33212300D01*
X64011801Y-33186027D01*
X63935236Y-33154313D01*
X63921171Y-33152461D01*
X63822727Y-33139500D01*
X63822720Y-33139500D01*
X63747280Y-33139500D01*
X63747272Y-33139500D01*
X63634764Y-33154313D01*
X63634763Y-33154313D01*
X63494769Y-33212300D01*
X63472821Y-33229142D01*
X63423743Y-33266800D01*
X63358575Y-33291994D01*
X63290131Y-33277956D01*
X63240141Y-33229142D01*
X63239839Y-33228602D01*
X63179994Y-33120784D01*
X63179994Y-33120783D01*
X63047521Y-32966469D01*
X63047520Y-32966468D01*
X62886695Y-32841981D01*
X62704096Y-32752412D01*
X62507201Y-32701433D01*
X62505001Y-32701320D01*
X62505000Y-32701322D01*
X62505000Y-33432342D01*
X62491038Y-33421799D01*
X62383160Y-33391105D01*
X62271479Y-33401454D01*
X62204999Y-33434557D01*
X62204999Y-32706312D01*
X62103061Y-32721929D01*
X62103046Y-32721933D01*
X61912342Y-32792562D01*
X61912335Y-32792565D01*
X61739732Y-32900149D01*
X61592331Y-33040264D01*
X61592330Y-33040266D01*
X61476143Y-33207195D01*
X61395940Y-33394092D01*
X61355000Y-33593309D01*
X61354999Y-34095000D01*
X31415500Y-34095000D01*
X31415500Y-31539500D01*
X31435185Y-31472461D01*
X31487989Y-31426706D01*
X31539500Y-31415500D01*
X60056321Y-31415500D01*
X60056324Y-31415500D01*
X60278687Y-31383529D01*
X60394204Y-31349610D01*
X60494227Y-31320242D01*
X60494233Y-31320240D01*
X60494233Y-31320239D01*
X60494236Y-31320239D01*
X60698583Y-31226916D01*
X60887570Y-31105462D01*
X61057348Y-30958348D01*
X61204462Y-30788570D01*
X61222169Y-30761016D01*
X61274972Y-30715261D01*
X61344131Y-30705317D01*
X61407687Y-30734341D01*
X61434904Y-30767877D01*
X61530005Y-30939215D01*
X61530005Y-30939216D01*
X61662478Y-31093530D01*
X61662479Y-31093531D01*
X61823304Y-31218018D01*
X62005907Y-31307589D01*
X62005906Y-31307589D01*
X62202783Y-31358564D01*
X62202787Y-31358565D01*
X62205000Y-31358677D01*
X62205000Y-30627657D01*
X62218962Y-30638201D01*
X62326840Y-30668895D01*
X62438521Y-30658546D01*
X62505000Y-30625443D01*
X62505000Y-31353685D01*
X62606938Y-31338070D01*
X62797665Y-31267434D01*
X62970267Y-31159850D01*
X63117668Y-31019735D01*
X63117669Y-31019733D01*
X63233856Y-30852804D01*
X63314059Y-30665907D01*
X63355000Y-30466690D01*
X63355000Y-30215000D01*
X62655000Y-30215000D01*
X62655000Y-29915000D01*
X63355000Y-29915000D01*
X63355000Y-29714286D01*
X63339581Y-29562661D01*
X63278700Y-29368618D01*
X63278695Y-29368608D01*
X63179994Y-29190784D01*
X63179994Y-29190783D01*
X63085122Y-29080270D01*
X63056390Y-29016581D01*
X63066652Y-28947469D01*
X63112650Y-28894877D01*
X63179208Y-28875500D01*
X70168877Y-28875500D01*
X70235916Y-28895185D01*
G37*
%TD.AperFunction*%
%TD*%
%TA.AperFunction,Conductor*%
%TO.N,GND*%
G36*
X87122000Y-35560000D02*
G01*
X86848285Y-35560000D01*
X86932187Y-35497190D01*
X86932190Y-35497187D01*
X87018350Y-35382093D01*
X87018354Y-35382086D01*
X87068596Y-35247379D01*
X87068598Y-35247372D01*
X87074999Y-35187844D01*
X87075000Y-35187827D01*
X87075000Y-34540000D01*
X86158686Y-34540000D01*
X86184493Y-34499844D01*
X86225000Y-34361889D01*
X86225000Y-34218111D01*
X86184493Y-34080156D01*
X86158686Y-34040000D01*
X87075000Y-34040000D01*
X87075000Y-33392172D01*
X87074999Y-33392155D01*
X87068598Y-33332627D01*
X87068596Y-33332620D01*
X87018354Y-33197913D01*
X87018350Y-33197906D01*
X86932190Y-33082812D01*
X86932187Y-33082809D01*
X86817093Y-32996649D01*
X86817086Y-32996645D01*
X86682379Y-32946403D01*
X86682372Y-32946401D01*
X86622844Y-32940000D01*
X85975000Y-32940000D01*
X85975000Y-33854498D01*
X85867315Y-33805320D01*
X85760763Y-33790000D01*
X85689237Y-33790000D01*
X85582685Y-33805320D01*
X85475000Y-33854498D01*
X85475000Y-32940000D01*
X84827155Y-32940000D01*
X84767627Y-32946401D01*
X84767620Y-32946403D01*
X84632913Y-32996645D01*
X84632906Y-32996649D01*
X84517812Y-33082809D01*
X84517809Y-33082812D01*
X84431649Y-33197906D01*
X84431645Y-33197913D01*
X84381403Y-33332620D01*
X84381401Y-33332627D01*
X84375000Y-33392155D01*
X84375000Y-34040000D01*
X85291314Y-34040000D01*
X85265507Y-34080156D01*
X85225000Y-34218111D01*
X85225000Y-34361889D01*
X85265507Y-34499844D01*
X85291314Y-34540000D01*
X84375000Y-34540000D01*
X84375000Y-35187844D01*
X84381401Y-35247372D01*
X84381403Y-35247379D01*
X84431645Y-35382086D01*
X84431649Y-35382093D01*
X84517809Y-35497187D01*
X84517812Y-35497190D01*
X84601714Y-35560000D01*
X84328000Y-35560000D01*
X84328000Y-32893000D01*
X87122000Y-32893000D01*
X87122000Y-35560000D01*
G37*
%TD.AperFunction*%
%TD*%
M02*
