%TF.GenerationSoftware,KiCad,Pcbnew,7.0.5*%
%TF.CreationDate,2024-04-29T12:28:37+10:00*%
%TF.ProjectId,8 key thingy,38206b65-7920-4746-9869-6e67792e6b69,rev?*%
%TF.SameCoordinates,Original*%
%TF.FileFunction,Legend,Bot*%
%TF.FilePolarity,Positive*%
%FSLAX46Y46*%
G04 Gerber Fmt 4.6, Leading zero omitted, Abs format (unit mm)*
G04 Created by KiCad (PCBNEW 7.0.5) date 2024-04-29 12:28:37*
%MOMM*%
%LPD*%
G01*
G04 APERTURE LIST*
G04 Aperture macros list*
%AMRoundRect*
0 Rectangle with rounded corners*
0 $1 Rounding radius*
0 $2 $3 $4 $5 $6 $7 $8 $9 X,Y pos of 4 corners*
0 Add a 4 corners polygon primitive as box body*
4,1,4,$2,$3,$4,$5,$6,$7,$8,$9,$2,$3,0*
0 Add four circle primitives for the rounded corners*
1,1,$1+$1,$2,$3*
1,1,$1+$1,$4,$5*
1,1,$1+$1,$6,$7*
1,1,$1+$1,$8,$9*
0 Add four rect primitives between the rounded corners*
20,1,$1+$1,$2,$3,$4,$5,0*
20,1,$1+$1,$4,$5,$6,$7,0*
20,1,$1+$1,$6,$7,$8,$9,0*
20,1,$1+$1,$8,$9,$2,$3,0*%
G04 Aperture macros list end*
%ADD10C,0.150000*%
%ADD11C,0.200000*%
%ADD12C,0.120000*%
%ADD13C,0.100000*%
%ADD14RoundRect,0.135000X-0.185000X0.135000X-0.185000X-0.135000X0.185000X-0.135000X0.185000X0.135000X0*%
%ADD15C,1.700000*%
%ADD16C,3.200000*%
%ADD17RoundRect,0.150000X0.150000X-0.587500X0.150000X0.587500X-0.150000X0.587500X-0.150000X-0.587500X0*%
%ADD18RoundRect,0.135000X-0.135000X-0.185000X0.135000X-0.185000X0.135000X0.185000X-0.135000X0.185000X0*%
%ADD19RoundRect,0.140000X0.140000X0.170000X-0.140000X0.170000X-0.140000X-0.170000X0.140000X-0.170000X0*%
%ADD20RoundRect,0.140000X-0.170000X0.140000X-0.170000X-0.140000X0.170000X-0.140000X0.170000X0.140000X0*%
%ADD21R,1.700000X1.000000*%
%ADD22RoundRect,0.140000X-0.140000X-0.170000X0.140000X-0.170000X0.140000X0.170000X-0.140000X0.170000X0*%
%ADD23RoundRect,0.150000X-0.587500X-0.150000X0.587500X-0.150000X0.587500X0.150000X-0.587500X0.150000X0*%
%ADD24RoundRect,0.135000X0.135000X0.185000X-0.135000X0.185000X-0.135000X-0.185000X0.135000X-0.185000X0*%
%ADD25RoundRect,0.250000X-0.475000X0.250000X-0.475000X-0.250000X0.475000X-0.250000X0.475000X0.250000X0*%
%ADD26R,0.200000X0.675000*%
%ADD27R,0.400000X0.775000*%
%ADD28RoundRect,0.250000X0.475000X-0.250000X0.475000X0.250000X-0.475000X0.250000X-0.475000X-0.250000X0*%
%ADD29RoundRect,0.150000X-0.150000X0.587500X-0.150000X-0.587500X0.150000X-0.587500X0.150000X0.587500X0*%
%ADD30R,1.700000X1.700000*%
%ADD31O,1.700000X1.700000*%
%ADD32RoundRect,0.075000X0.075000X-0.662500X0.075000X0.662500X-0.075000X0.662500X-0.075000X-0.662500X0*%
%ADD33RoundRect,0.075000X0.662500X-0.075000X0.662500X0.075000X-0.662500X0.075000X-0.662500X-0.075000X0*%
%ADD34R,1.400000X1.200000*%
%ADD35RoundRect,0.250000X0.375000X0.625000X-0.375000X0.625000X-0.375000X-0.625000X0.375000X-0.625000X0*%
%ADD36C,0.650000*%
%ADD37R,0.600000X1.450000*%
%ADD38R,0.300000X1.450000*%
%ADD39O,1.000000X1.600000*%
%ADD40O,1.000000X2.100000*%
G04 APERTURE END LIST*
D10*
X83846200Y-37108095D02*
X83893819Y-37250952D01*
X83893819Y-37250952D02*
X83893819Y-37489047D01*
X83893819Y-37489047D02*
X83846200Y-37584285D01*
X83846200Y-37584285D02*
X83798580Y-37631904D01*
X83798580Y-37631904D02*
X83703342Y-37679523D01*
X83703342Y-37679523D02*
X83608104Y-37679523D01*
X83608104Y-37679523D02*
X83512866Y-37631904D01*
X83512866Y-37631904D02*
X83465247Y-37584285D01*
X83465247Y-37584285D02*
X83417628Y-37489047D01*
X83417628Y-37489047D02*
X83370009Y-37298571D01*
X83370009Y-37298571D02*
X83322390Y-37203333D01*
X83322390Y-37203333D02*
X83274771Y-37155714D01*
X83274771Y-37155714D02*
X83179533Y-37108095D01*
X83179533Y-37108095D02*
X83084295Y-37108095D01*
X83084295Y-37108095D02*
X82989057Y-37155714D01*
X82989057Y-37155714D02*
X82941438Y-37203333D01*
X82941438Y-37203333D02*
X82893819Y-37298571D01*
X82893819Y-37298571D02*
X82893819Y-37536666D01*
X82893819Y-37536666D02*
X82941438Y-37679523D01*
X82893819Y-38012857D02*
X83893819Y-38250952D01*
X83893819Y-38250952D02*
X83179533Y-38441428D01*
X83179533Y-38441428D02*
X83893819Y-38631904D01*
X83893819Y-38631904D02*
X82893819Y-38870000D01*
X83798580Y-39822380D02*
X83846200Y-39774761D01*
X83846200Y-39774761D02*
X83893819Y-39631904D01*
X83893819Y-39631904D02*
X83893819Y-39536666D01*
X83893819Y-39536666D02*
X83846200Y-39393809D01*
X83846200Y-39393809D02*
X83750961Y-39298571D01*
X83750961Y-39298571D02*
X83655723Y-39250952D01*
X83655723Y-39250952D02*
X83465247Y-39203333D01*
X83465247Y-39203333D02*
X83322390Y-39203333D01*
X83322390Y-39203333D02*
X83131914Y-39250952D01*
X83131914Y-39250952D02*
X83036676Y-39298571D01*
X83036676Y-39298571D02*
X82941438Y-39393809D01*
X82941438Y-39393809D02*
X82893819Y-39536666D01*
X82893819Y-39536666D02*
X82893819Y-39631904D01*
X82893819Y-39631904D02*
X82941438Y-39774761D01*
X82941438Y-39774761D02*
X82989057Y-39822380D01*
X83893819Y-40727142D02*
X83893819Y-40250952D01*
X83893819Y-40250952D02*
X82893819Y-40250952D01*
X83893819Y-41060476D02*
X82893819Y-41060476D01*
X83893819Y-41631904D02*
X83322390Y-41203333D01*
X82893819Y-41631904D02*
X83465247Y-41060476D01*
X82941438Y-33528095D02*
X82893819Y-33432857D01*
X82893819Y-33432857D02*
X82893819Y-33290000D01*
X82893819Y-33290000D02*
X82941438Y-33147143D01*
X82941438Y-33147143D02*
X83036676Y-33051905D01*
X83036676Y-33051905D02*
X83131914Y-33004286D01*
X83131914Y-33004286D02*
X83322390Y-32956667D01*
X83322390Y-32956667D02*
X83465247Y-32956667D01*
X83465247Y-32956667D02*
X83655723Y-33004286D01*
X83655723Y-33004286D02*
X83750961Y-33051905D01*
X83750961Y-33051905D02*
X83846200Y-33147143D01*
X83846200Y-33147143D02*
X83893819Y-33290000D01*
X83893819Y-33290000D02*
X83893819Y-33385238D01*
X83893819Y-33385238D02*
X83846200Y-33528095D01*
X83846200Y-33528095D02*
X83798580Y-33575714D01*
X83798580Y-33575714D02*
X83465247Y-33575714D01*
X83465247Y-33575714D02*
X83465247Y-33385238D01*
X83893819Y-34004286D02*
X82893819Y-34004286D01*
X82893819Y-34004286D02*
X83893819Y-34575714D01*
X83893819Y-34575714D02*
X82893819Y-34575714D01*
X83893819Y-35051905D02*
X82893819Y-35051905D01*
X82893819Y-35051905D02*
X82893819Y-35290000D01*
X82893819Y-35290000D02*
X82941438Y-35432857D01*
X82941438Y-35432857D02*
X83036676Y-35528095D01*
X83036676Y-35528095D02*
X83131914Y-35575714D01*
X83131914Y-35575714D02*
X83322390Y-35623333D01*
X83322390Y-35623333D02*
X83465247Y-35623333D01*
X83465247Y-35623333D02*
X83655723Y-35575714D01*
X83655723Y-35575714D02*
X83750961Y-35528095D01*
X83750961Y-35528095D02*
X83846200Y-35432857D01*
X83846200Y-35432857D02*
X83893819Y-35290000D01*
X83893819Y-35290000D02*
X83893819Y-35051905D01*
X88545200Y-34710953D02*
X88592819Y-34853810D01*
X88592819Y-34853810D02*
X88592819Y-35091905D01*
X88592819Y-35091905D02*
X88545200Y-35187143D01*
X88545200Y-35187143D02*
X88497580Y-35234762D01*
X88497580Y-35234762D02*
X88402342Y-35282381D01*
X88402342Y-35282381D02*
X88307104Y-35282381D01*
X88307104Y-35282381D02*
X88211866Y-35234762D01*
X88211866Y-35234762D02*
X88164247Y-35187143D01*
X88164247Y-35187143D02*
X88116628Y-35091905D01*
X88116628Y-35091905D02*
X88069009Y-34901429D01*
X88069009Y-34901429D02*
X88021390Y-34806191D01*
X88021390Y-34806191D02*
X87973771Y-34758572D01*
X87973771Y-34758572D02*
X87878533Y-34710953D01*
X87878533Y-34710953D02*
X87783295Y-34710953D01*
X87783295Y-34710953D02*
X87688057Y-34758572D01*
X87688057Y-34758572D02*
X87640438Y-34806191D01*
X87640438Y-34806191D02*
X87592819Y-34901429D01*
X87592819Y-34901429D02*
X87592819Y-35139524D01*
X87592819Y-35139524D02*
X87640438Y-35282381D01*
X87592819Y-35615715D02*
X88592819Y-35853810D01*
X88592819Y-35853810D02*
X87878533Y-36044286D01*
X87878533Y-36044286D02*
X88592819Y-36234762D01*
X88592819Y-36234762D02*
X87592819Y-36472858D01*
X88592819Y-36853810D02*
X87592819Y-36853810D01*
X87592819Y-36853810D02*
X87592819Y-37091905D01*
X87592819Y-37091905D02*
X87640438Y-37234762D01*
X87640438Y-37234762D02*
X87735676Y-37330000D01*
X87735676Y-37330000D02*
X87830914Y-37377619D01*
X87830914Y-37377619D02*
X88021390Y-37425238D01*
X88021390Y-37425238D02*
X88164247Y-37425238D01*
X88164247Y-37425238D02*
X88354723Y-37377619D01*
X88354723Y-37377619D02*
X88449961Y-37330000D01*
X88449961Y-37330000D02*
X88545200Y-37234762D01*
X88545200Y-37234762D02*
X88592819Y-37091905D01*
X88592819Y-37091905D02*
X88592819Y-36853810D01*
X88592819Y-37853810D02*
X87592819Y-37853810D01*
X87592819Y-38520476D02*
X87592819Y-38710952D01*
X87592819Y-38710952D02*
X87640438Y-38806190D01*
X87640438Y-38806190D02*
X87735676Y-38901428D01*
X87735676Y-38901428D02*
X87926152Y-38949047D01*
X87926152Y-38949047D02*
X88259485Y-38949047D01*
X88259485Y-38949047D02*
X88449961Y-38901428D01*
X88449961Y-38901428D02*
X88545200Y-38806190D01*
X88545200Y-38806190D02*
X88592819Y-38710952D01*
X88592819Y-38710952D02*
X88592819Y-38520476D01*
X88592819Y-38520476D02*
X88545200Y-38425238D01*
X88545200Y-38425238D02*
X88449961Y-38330000D01*
X88449961Y-38330000D02*
X88259485Y-38282381D01*
X88259485Y-38282381D02*
X87926152Y-38282381D01*
X87926152Y-38282381D02*
X87735676Y-38330000D01*
X87735676Y-38330000D02*
X87640438Y-38425238D01*
X87640438Y-38425238D02*
X87592819Y-38520476D01*
X88211866Y-39957619D02*
X88211866Y-40719524D01*
X88592819Y-40338571D02*
X87830914Y-40338571D01*
X87592819Y-41100476D02*
X87592819Y-41719523D01*
X87592819Y-41719523D02*
X87973771Y-41386190D01*
X87973771Y-41386190D02*
X87973771Y-41529047D01*
X87973771Y-41529047D02*
X88021390Y-41624285D01*
X88021390Y-41624285D02*
X88069009Y-41671904D01*
X88069009Y-41671904D02*
X88164247Y-41719523D01*
X88164247Y-41719523D02*
X88402342Y-41719523D01*
X88402342Y-41719523D02*
X88497580Y-41671904D01*
X88497580Y-41671904D02*
X88545200Y-41624285D01*
X88545200Y-41624285D02*
X88592819Y-41529047D01*
X88592819Y-41529047D02*
X88592819Y-41243333D01*
X88592819Y-41243333D02*
X88545200Y-41148095D01*
X88545200Y-41148095D02*
X88497580Y-41100476D01*
X88497580Y-42148095D02*
X88545200Y-42195714D01*
X88545200Y-42195714D02*
X88592819Y-42148095D01*
X88592819Y-42148095D02*
X88545200Y-42100476D01*
X88545200Y-42100476D02*
X88497580Y-42148095D01*
X88497580Y-42148095D02*
X88592819Y-42148095D01*
X87592819Y-42529047D02*
X87592819Y-43148094D01*
X87592819Y-43148094D02*
X87973771Y-42814761D01*
X87973771Y-42814761D02*
X87973771Y-42957618D01*
X87973771Y-42957618D02*
X88021390Y-43052856D01*
X88021390Y-43052856D02*
X88069009Y-43100475D01*
X88069009Y-43100475D02*
X88164247Y-43148094D01*
X88164247Y-43148094D02*
X88402342Y-43148094D01*
X88402342Y-43148094D02*
X88497580Y-43100475D01*
X88497580Y-43100475D02*
X88545200Y-43052856D01*
X88545200Y-43052856D02*
X88592819Y-42957618D01*
X88592819Y-42957618D02*
X88592819Y-42671904D01*
X88592819Y-42671904D02*
X88545200Y-42576666D01*
X88545200Y-42576666D02*
X88497580Y-42529047D01*
X87926152Y-43481428D02*
X88592819Y-43719523D01*
X88592819Y-43719523D02*
X87926152Y-43957618D01*
D11*
X88439285Y-62097219D02*
X88153571Y-62192457D01*
X88153571Y-62192457D02*
X88058333Y-62287695D01*
X88058333Y-62287695D02*
X87963095Y-62478171D01*
X87963095Y-62478171D02*
X87963095Y-62763885D01*
X87963095Y-62763885D02*
X88058333Y-62954361D01*
X88058333Y-62954361D02*
X88153571Y-63049600D01*
X88153571Y-63049600D02*
X88344047Y-63144838D01*
X88344047Y-63144838D02*
X89105952Y-63144838D01*
X89105952Y-63144838D02*
X89105952Y-61144838D01*
X89105952Y-61144838D02*
X88439285Y-61144838D01*
X88439285Y-61144838D02*
X88248809Y-61240076D01*
X88248809Y-61240076D02*
X88153571Y-61335314D01*
X88153571Y-61335314D02*
X88058333Y-61525790D01*
X88058333Y-61525790D02*
X88058333Y-61716266D01*
X88058333Y-61716266D02*
X88153571Y-61906742D01*
X88153571Y-61906742D02*
X88248809Y-62001980D01*
X88248809Y-62001980D02*
X88439285Y-62097219D01*
X88439285Y-62097219D02*
X89105952Y-62097219D01*
X86725000Y-61144838D02*
X86344047Y-61144838D01*
X86344047Y-61144838D02*
X86153571Y-61240076D01*
X86153571Y-61240076D02*
X85963095Y-61430552D01*
X85963095Y-61430552D02*
X85867857Y-61811504D01*
X85867857Y-61811504D02*
X85867857Y-62478171D01*
X85867857Y-62478171D02*
X85963095Y-62859123D01*
X85963095Y-62859123D02*
X86153571Y-63049600D01*
X86153571Y-63049600D02*
X86344047Y-63144838D01*
X86344047Y-63144838D02*
X86725000Y-63144838D01*
X86725000Y-63144838D02*
X86915476Y-63049600D01*
X86915476Y-63049600D02*
X87105952Y-62859123D01*
X87105952Y-62859123D02*
X87201190Y-62478171D01*
X87201190Y-62478171D02*
X87201190Y-61811504D01*
X87201190Y-61811504D02*
X87105952Y-61430552D01*
X87105952Y-61430552D02*
X86915476Y-61240076D01*
X86915476Y-61240076D02*
X86725000Y-61144838D01*
X84629762Y-61144838D02*
X84248809Y-61144838D01*
X84248809Y-61144838D02*
X84058333Y-61240076D01*
X84058333Y-61240076D02*
X83867857Y-61430552D01*
X83867857Y-61430552D02*
X83772619Y-61811504D01*
X83772619Y-61811504D02*
X83772619Y-62478171D01*
X83772619Y-62478171D02*
X83867857Y-62859123D01*
X83867857Y-62859123D02*
X84058333Y-63049600D01*
X84058333Y-63049600D02*
X84248809Y-63144838D01*
X84248809Y-63144838D02*
X84629762Y-63144838D01*
X84629762Y-63144838D02*
X84820238Y-63049600D01*
X84820238Y-63049600D02*
X85010714Y-62859123D01*
X85010714Y-62859123D02*
X85105952Y-62478171D01*
X85105952Y-62478171D02*
X85105952Y-61811504D01*
X85105952Y-61811504D02*
X85010714Y-61430552D01*
X85010714Y-61430552D02*
X84820238Y-61240076D01*
X84820238Y-61240076D02*
X84629762Y-61144838D01*
X83201190Y-61144838D02*
X82058333Y-61144838D01*
X82629762Y-63144838D02*
X82629762Y-61144838D01*
D10*
%TO.C,R5*%
X65605819Y-40727333D02*
X65129628Y-40394000D01*
X65605819Y-40155905D02*
X64605819Y-40155905D01*
X64605819Y-40155905D02*
X64605819Y-40536857D01*
X64605819Y-40536857D02*
X64653438Y-40632095D01*
X64653438Y-40632095D02*
X64701057Y-40679714D01*
X64701057Y-40679714D02*
X64796295Y-40727333D01*
X64796295Y-40727333D02*
X64939152Y-40727333D01*
X64939152Y-40727333D02*
X65034390Y-40679714D01*
X65034390Y-40679714D02*
X65082009Y-40632095D01*
X65082009Y-40632095D02*
X65129628Y-40536857D01*
X65129628Y-40536857D02*
X65129628Y-40155905D01*
X64605819Y-41632095D02*
X64605819Y-41155905D01*
X64605819Y-41155905D02*
X65082009Y-41108286D01*
X65082009Y-41108286D02*
X65034390Y-41155905D01*
X65034390Y-41155905D02*
X64986771Y-41251143D01*
X64986771Y-41251143D02*
X64986771Y-41489238D01*
X64986771Y-41489238D02*
X65034390Y-41584476D01*
X65034390Y-41584476D02*
X65082009Y-41632095D01*
X65082009Y-41632095D02*
X65177247Y-41679714D01*
X65177247Y-41679714D02*
X65415342Y-41679714D01*
X65415342Y-41679714D02*
X65510580Y-41632095D01*
X65510580Y-41632095D02*
X65558200Y-41584476D01*
X65558200Y-41584476D02*
X65605819Y-41489238D01*
X65605819Y-41489238D02*
X65605819Y-41251143D01*
X65605819Y-41251143D02*
X65558200Y-41155905D01*
X65558200Y-41155905D02*
X65510580Y-41108286D01*
%TO.C,HALL2*%
X59149999Y-35760819D02*
X59149999Y-34760819D01*
X59149999Y-35237009D02*
X58578571Y-35237009D01*
X58578571Y-35760819D02*
X58578571Y-34760819D01*
X58149999Y-35475104D02*
X57673809Y-35475104D01*
X58245237Y-35760819D02*
X57911904Y-34760819D01*
X57911904Y-34760819D02*
X57578571Y-35760819D01*
X56769047Y-35760819D02*
X57245237Y-35760819D01*
X57245237Y-35760819D02*
X57245237Y-34760819D01*
X55959523Y-35760819D02*
X56435713Y-35760819D01*
X56435713Y-35760819D02*
X56435713Y-34760819D01*
X55673808Y-34856057D02*
X55626189Y-34808438D01*
X55626189Y-34808438D02*
X55530951Y-34760819D01*
X55530951Y-34760819D02*
X55292856Y-34760819D01*
X55292856Y-34760819D02*
X55197618Y-34808438D01*
X55197618Y-34808438D02*
X55149999Y-34856057D01*
X55149999Y-34856057D02*
X55102380Y-34951295D01*
X55102380Y-34951295D02*
X55102380Y-35046533D01*
X55102380Y-35046533D02*
X55149999Y-35189390D01*
X55149999Y-35189390D02*
X55721427Y-35760819D01*
X55721427Y-35760819D02*
X55102380Y-35760819D01*
%TO.C,R8*%
X75350666Y-43380819D02*
X75683999Y-42904628D01*
X75922094Y-43380819D02*
X75922094Y-42380819D01*
X75922094Y-42380819D02*
X75541142Y-42380819D01*
X75541142Y-42380819D02*
X75445904Y-42428438D01*
X75445904Y-42428438D02*
X75398285Y-42476057D01*
X75398285Y-42476057D02*
X75350666Y-42571295D01*
X75350666Y-42571295D02*
X75350666Y-42714152D01*
X75350666Y-42714152D02*
X75398285Y-42809390D01*
X75398285Y-42809390D02*
X75445904Y-42857009D01*
X75445904Y-42857009D02*
X75541142Y-42904628D01*
X75541142Y-42904628D02*
X75922094Y-42904628D01*
X74779237Y-42809390D02*
X74874475Y-42761771D01*
X74874475Y-42761771D02*
X74922094Y-42714152D01*
X74922094Y-42714152D02*
X74969713Y-42618914D01*
X74969713Y-42618914D02*
X74969713Y-42571295D01*
X74969713Y-42571295D02*
X74922094Y-42476057D01*
X74922094Y-42476057D02*
X74874475Y-42428438D01*
X74874475Y-42428438D02*
X74779237Y-42380819D01*
X74779237Y-42380819D02*
X74588761Y-42380819D01*
X74588761Y-42380819D02*
X74493523Y-42428438D01*
X74493523Y-42428438D02*
X74445904Y-42476057D01*
X74445904Y-42476057D02*
X74398285Y-42571295D01*
X74398285Y-42571295D02*
X74398285Y-42618914D01*
X74398285Y-42618914D02*
X74445904Y-42714152D01*
X74445904Y-42714152D02*
X74493523Y-42761771D01*
X74493523Y-42761771D02*
X74588761Y-42809390D01*
X74588761Y-42809390D02*
X74779237Y-42809390D01*
X74779237Y-42809390D02*
X74874475Y-42857009D01*
X74874475Y-42857009D02*
X74922094Y-42904628D01*
X74922094Y-42904628D02*
X74969713Y-42999866D01*
X74969713Y-42999866D02*
X74969713Y-43190342D01*
X74969713Y-43190342D02*
X74922094Y-43285580D01*
X74922094Y-43285580D02*
X74874475Y-43333200D01*
X74874475Y-43333200D02*
X74779237Y-43380819D01*
X74779237Y-43380819D02*
X74588761Y-43380819D01*
X74588761Y-43380819D02*
X74493523Y-43333200D01*
X74493523Y-43333200D02*
X74445904Y-43285580D01*
X74445904Y-43285580D02*
X74398285Y-43190342D01*
X74398285Y-43190342D02*
X74398285Y-42999866D01*
X74398285Y-42999866D02*
X74445904Y-42904628D01*
X74445904Y-42904628D02*
X74493523Y-42857009D01*
X74493523Y-42857009D02*
X74588761Y-42809390D01*
%TO.C,C15*%
X42425857Y-40999580D02*
X42473476Y-41047200D01*
X42473476Y-41047200D02*
X42616333Y-41094819D01*
X42616333Y-41094819D02*
X42711571Y-41094819D01*
X42711571Y-41094819D02*
X42854428Y-41047200D01*
X42854428Y-41047200D02*
X42949666Y-40951961D01*
X42949666Y-40951961D02*
X42997285Y-40856723D01*
X42997285Y-40856723D02*
X43044904Y-40666247D01*
X43044904Y-40666247D02*
X43044904Y-40523390D01*
X43044904Y-40523390D02*
X42997285Y-40332914D01*
X42997285Y-40332914D02*
X42949666Y-40237676D01*
X42949666Y-40237676D02*
X42854428Y-40142438D01*
X42854428Y-40142438D02*
X42711571Y-40094819D01*
X42711571Y-40094819D02*
X42616333Y-40094819D01*
X42616333Y-40094819D02*
X42473476Y-40142438D01*
X42473476Y-40142438D02*
X42425857Y-40190057D01*
X41473476Y-41094819D02*
X42044904Y-41094819D01*
X41759190Y-41094819D02*
X41759190Y-40094819D01*
X41759190Y-40094819D02*
X41854428Y-40237676D01*
X41854428Y-40237676D02*
X41949666Y-40332914D01*
X41949666Y-40332914D02*
X42044904Y-40380533D01*
X40568714Y-40094819D02*
X41044904Y-40094819D01*
X41044904Y-40094819D02*
X41092523Y-40571009D01*
X41092523Y-40571009D02*
X41044904Y-40523390D01*
X41044904Y-40523390D02*
X40949666Y-40475771D01*
X40949666Y-40475771D02*
X40711571Y-40475771D01*
X40711571Y-40475771D02*
X40616333Y-40523390D01*
X40616333Y-40523390D02*
X40568714Y-40571009D01*
X40568714Y-40571009D02*
X40521095Y-40666247D01*
X40521095Y-40666247D02*
X40521095Y-40904342D01*
X40521095Y-40904342D02*
X40568714Y-40999580D01*
X40568714Y-40999580D02*
X40616333Y-41047200D01*
X40616333Y-41047200D02*
X40711571Y-41094819D01*
X40711571Y-41094819D02*
X40949666Y-41094819D01*
X40949666Y-41094819D02*
X41044904Y-41047200D01*
X41044904Y-41047200D02*
X41092523Y-40999580D01*
%TO.C,SW2*%
X87058332Y-57557200D02*
X86915475Y-57604819D01*
X86915475Y-57604819D02*
X86677380Y-57604819D01*
X86677380Y-57604819D02*
X86582142Y-57557200D01*
X86582142Y-57557200D02*
X86534523Y-57509580D01*
X86534523Y-57509580D02*
X86486904Y-57414342D01*
X86486904Y-57414342D02*
X86486904Y-57319104D01*
X86486904Y-57319104D02*
X86534523Y-57223866D01*
X86534523Y-57223866D02*
X86582142Y-57176247D01*
X86582142Y-57176247D02*
X86677380Y-57128628D01*
X86677380Y-57128628D02*
X86867856Y-57081009D01*
X86867856Y-57081009D02*
X86963094Y-57033390D01*
X86963094Y-57033390D02*
X87010713Y-56985771D01*
X87010713Y-56985771D02*
X87058332Y-56890533D01*
X87058332Y-56890533D02*
X87058332Y-56795295D01*
X87058332Y-56795295D02*
X87010713Y-56700057D01*
X87010713Y-56700057D02*
X86963094Y-56652438D01*
X86963094Y-56652438D02*
X86867856Y-56604819D01*
X86867856Y-56604819D02*
X86629761Y-56604819D01*
X86629761Y-56604819D02*
X86486904Y-56652438D01*
X86153570Y-56604819D02*
X85915475Y-57604819D01*
X85915475Y-57604819D02*
X85724999Y-56890533D01*
X85724999Y-56890533D02*
X85534523Y-57604819D01*
X85534523Y-57604819D02*
X85296428Y-56604819D01*
X84963094Y-56700057D02*
X84915475Y-56652438D01*
X84915475Y-56652438D02*
X84820237Y-56604819D01*
X84820237Y-56604819D02*
X84582142Y-56604819D01*
X84582142Y-56604819D02*
X84486904Y-56652438D01*
X84486904Y-56652438D02*
X84439285Y-56700057D01*
X84439285Y-56700057D02*
X84391666Y-56795295D01*
X84391666Y-56795295D02*
X84391666Y-56890533D01*
X84391666Y-56890533D02*
X84439285Y-57033390D01*
X84439285Y-57033390D02*
X85010713Y-57604819D01*
X85010713Y-57604819D02*
X84391666Y-57604819D01*
%TO.C,C29*%
X92209857Y-54969580D02*
X92257476Y-55017200D01*
X92257476Y-55017200D02*
X92400333Y-55064819D01*
X92400333Y-55064819D02*
X92495571Y-55064819D01*
X92495571Y-55064819D02*
X92638428Y-55017200D01*
X92638428Y-55017200D02*
X92733666Y-54921961D01*
X92733666Y-54921961D02*
X92781285Y-54826723D01*
X92781285Y-54826723D02*
X92828904Y-54636247D01*
X92828904Y-54636247D02*
X92828904Y-54493390D01*
X92828904Y-54493390D02*
X92781285Y-54302914D01*
X92781285Y-54302914D02*
X92733666Y-54207676D01*
X92733666Y-54207676D02*
X92638428Y-54112438D01*
X92638428Y-54112438D02*
X92495571Y-54064819D01*
X92495571Y-54064819D02*
X92400333Y-54064819D01*
X92400333Y-54064819D02*
X92257476Y-54112438D01*
X92257476Y-54112438D02*
X92209857Y-54160057D01*
X91828904Y-54160057D02*
X91781285Y-54112438D01*
X91781285Y-54112438D02*
X91686047Y-54064819D01*
X91686047Y-54064819D02*
X91447952Y-54064819D01*
X91447952Y-54064819D02*
X91352714Y-54112438D01*
X91352714Y-54112438D02*
X91305095Y-54160057D01*
X91305095Y-54160057D02*
X91257476Y-54255295D01*
X91257476Y-54255295D02*
X91257476Y-54350533D01*
X91257476Y-54350533D02*
X91305095Y-54493390D01*
X91305095Y-54493390D02*
X91876523Y-55064819D01*
X91876523Y-55064819D02*
X91257476Y-55064819D01*
X90781285Y-55064819D02*
X90590809Y-55064819D01*
X90590809Y-55064819D02*
X90495571Y-55017200D01*
X90495571Y-55017200D02*
X90447952Y-54969580D01*
X90447952Y-54969580D02*
X90352714Y-54826723D01*
X90352714Y-54826723D02*
X90305095Y-54636247D01*
X90305095Y-54636247D02*
X90305095Y-54255295D01*
X90305095Y-54255295D02*
X90352714Y-54160057D01*
X90352714Y-54160057D02*
X90400333Y-54112438D01*
X90400333Y-54112438D02*
X90495571Y-54064819D01*
X90495571Y-54064819D02*
X90686047Y-54064819D01*
X90686047Y-54064819D02*
X90781285Y-54112438D01*
X90781285Y-54112438D02*
X90828904Y-54160057D01*
X90828904Y-54160057D02*
X90876523Y-54255295D01*
X90876523Y-54255295D02*
X90876523Y-54493390D01*
X90876523Y-54493390D02*
X90828904Y-54588628D01*
X90828904Y-54588628D02*
X90781285Y-54636247D01*
X90781285Y-54636247D02*
X90686047Y-54683866D01*
X90686047Y-54683866D02*
X90495571Y-54683866D01*
X90495571Y-54683866D02*
X90400333Y-54636247D01*
X90400333Y-54636247D02*
X90352714Y-54588628D01*
X90352714Y-54588628D02*
X90305095Y-54493390D01*
%TO.C,U1*%
X48386904Y-36144819D02*
X48386904Y-36954342D01*
X48386904Y-36954342D02*
X48339285Y-37049580D01*
X48339285Y-37049580D02*
X48291666Y-37097200D01*
X48291666Y-37097200D02*
X48196428Y-37144819D01*
X48196428Y-37144819D02*
X48005952Y-37144819D01*
X48005952Y-37144819D02*
X47910714Y-37097200D01*
X47910714Y-37097200D02*
X47863095Y-37049580D01*
X47863095Y-37049580D02*
X47815476Y-36954342D01*
X47815476Y-36954342D02*
X47815476Y-36144819D01*
X46815476Y-37144819D02*
X47386904Y-37144819D01*
X47101190Y-37144819D02*
X47101190Y-36144819D01*
X47101190Y-36144819D02*
X47196428Y-36287676D01*
X47196428Y-36287676D02*
X47291666Y-36382914D01*
X47291666Y-36382914D02*
X47386904Y-36430533D01*
%TO.C,HALL1*%
X40099999Y-35760819D02*
X40099999Y-34760819D01*
X40099999Y-35237009D02*
X39528571Y-35237009D01*
X39528571Y-35760819D02*
X39528571Y-34760819D01*
X39099999Y-35475104D02*
X38623809Y-35475104D01*
X39195237Y-35760819D02*
X38861904Y-34760819D01*
X38861904Y-34760819D02*
X38528571Y-35760819D01*
X37719047Y-35760819D02*
X38195237Y-35760819D01*
X38195237Y-35760819D02*
X38195237Y-34760819D01*
X36909523Y-35760819D02*
X37385713Y-35760819D01*
X37385713Y-35760819D02*
X37385713Y-34760819D01*
X36052380Y-35760819D02*
X36623808Y-35760819D01*
X36338094Y-35760819D02*
X36338094Y-34760819D01*
X36338094Y-34760819D02*
X36433332Y-34903676D01*
X36433332Y-34903676D02*
X36528570Y-34998914D01*
X36528570Y-34998914D02*
X36623808Y-35046533D01*
%TO.C,C18*%
X54109857Y-42142580D02*
X54157476Y-42190200D01*
X54157476Y-42190200D02*
X54300333Y-42237819D01*
X54300333Y-42237819D02*
X54395571Y-42237819D01*
X54395571Y-42237819D02*
X54538428Y-42190200D01*
X54538428Y-42190200D02*
X54633666Y-42094961D01*
X54633666Y-42094961D02*
X54681285Y-41999723D01*
X54681285Y-41999723D02*
X54728904Y-41809247D01*
X54728904Y-41809247D02*
X54728904Y-41666390D01*
X54728904Y-41666390D02*
X54681285Y-41475914D01*
X54681285Y-41475914D02*
X54633666Y-41380676D01*
X54633666Y-41380676D02*
X54538428Y-41285438D01*
X54538428Y-41285438D02*
X54395571Y-41237819D01*
X54395571Y-41237819D02*
X54300333Y-41237819D01*
X54300333Y-41237819D02*
X54157476Y-41285438D01*
X54157476Y-41285438D02*
X54109857Y-41333057D01*
X53157476Y-42237819D02*
X53728904Y-42237819D01*
X53443190Y-42237819D02*
X53443190Y-41237819D01*
X53443190Y-41237819D02*
X53538428Y-41380676D01*
X53538428Y-41380676D02*
X53633666Y-41475914D01*
X53633666Y-41475914D02*
X53728904Y-41523533D01*
X52586047Y-41666390D02*
X52681285Y-41618771D01*
X52681285Y-41618771D02*
X52728904Y-41571152D01*
X52728904Y-41571152D02*
X52776523Y-41475914D01*
X52776523Y-41475914D02*
X52776523Y-41428295D01*
X52776523Y-41428295D02*
X52728904Y-41333057D01*
X52728904Y-41333057D02*
X52681285Y-41285438D01*
X52681285Y-41285438D02*
X52586047Y-41237819D01*
X52586047Y-41237819D02*
X52395571Y-41237819D01*
X52395571Y-41237819D02*
X52300333Y-41285438D01*
X52300333Y-41285438D02*
X52252714Y-41333057D01*
X52252714Y-41333057D02*
X52205095Y-41428295D01*
X52205095Y-41428295D02*
X52205095Y-41475914D01*
X52205095Y-41475914D02*
X52252714Y-41571152D01*
X52252714Y-41571152D02*
X52300333Y-41618771D01*
X52300333Y-41618771D02*
X52395571Y-41666390D01*
X52395571Y-41666390D02*
X52586047Y-41666390D01*
X52586047Y-41666390D02*
X52681285Y-41714009D01*
X52681285Y-41714009D02*
X52728904Y-41761628D01*
X52728904Y-41761628D02*
X52776523Y-41856866D01*
X52776523Y-41856866D02*
X52776523Y-42047342D01*
X52776523Y-42047342D02*
X52728904Y-42142580D01*
X52728904Y-42142580D02*
X52681285Y-42190200D01*
X52681285Y-42190200D02*
X52586047Y-42237819D01*
X52586047Y-42237819D02*
X52395571Y-42237819D01*
X52395571Y-42237819D02*
X52300333Y-42190200D01*
X52300333Y-42190200D02*
X52252714Y-42142580D01*
X52252714Y-42142580D02*
X52205095Y-42047342D01*
X52205095Y-42047342D02*
X52205095Y-41856866D01*
X52205095Y-41856866D02*
X52252714Y-41761628D01*
X52252714Y-41761628D02*
X52300333Y-41714009D01*
X52300333Y-41714009D02*
X52395571Y-41666390D01*
%TO.C,C3*%
X43285580Y-34123333D02*
X43333200Y-34075714D01*
X43333200Y-34075714D02*
X43380819Y-33932857D01*
X43380819Y-33932857D02*
X43380819Y-33837619D01*
X43380819Y-33837619D02*
X43333200Y-33694762D01*
X43333200Y-33694762D02*
X43237961Y-33599524D01*
X43237961Y-33599524D02*
X43142723Y-33551905D01*
X43142723Y-33551905D02*
X42952247Y-33504286D01*
X42952247Y-33504286D02*
X42809390Y-33504286D01*
X42809390Y-33504286D02*
X42618914Y-33551905D01*
X42618914Y-33551905D02*
X42523676Y-33599524D01*
X42523676Y-33599524D02*
X42428438Y-33694762D01*
X42428438Y-33694762D02*
X42380819Y-33837619D01*
X42380819Y-33837619D02*
X42380819Y-33932857D01*
X42380819Y-33932857D02*
X42428438Y-34075714D01*
X42428438Y-34075714D02*
X42476057Y-34123333D01*
X42380819Y-34456667D02*
X42380819Y-35075714D01*
X42380819Y-35075714D02*
X42761771Y-34742381D01*
X42761771Y-34742381D02*
X42761771Y-34885238D01*
X42761771Y-34885238D02*
X42809390Y-34980476D01*
X42809390Y-34980476D02*
X42857009Y-35028095D01*
X42857009Y-35028095D02*
X42952247Y-35075714D01*
X42952247Y-35075714D02*
X43190342Y-35075714D01*
X43190342Y-35075714D02*
X43285580Y-35028095D01*
X43285580Y-35028095D02*
X43333200Y-34980476D01*
X43333200Y-34980476D02*
X43380819Y-34885238D01*
X43380819Y-34885238D02*
X43380819Y-34599524D01*
X43380819Y-34599524D02*
X43333200Y-34504286D01*
X43333200Y-34504286D02*
X43285580Y-34456667D01*
%TO.C,U2*%
X71284180Y-41655904D02*
X70474657Y-41655904D01*
X70474657Y-41655904D02*
X70379419Y-41608285D01*
X70379419Y-41608285D02*
X70331800Y-41560666D01*
X70331800Y-41560666D02*
X70284180Y-41465428D01*
X70284180Y-41465428D02*
X70284180Y-41274952D01*
X70284180Y-41274952D02*
X70331800Y-41179714D01*
X70331800Y-41179714D02*
X70379419Y-41132095D01*
X70379419Y-41132095D02*
X70474657Y-41084476D01*
X70474657Y-41084476D02*
X71284180Y-41084476D01*
X71188942Y-40655904D02*
X71236561Y-40608285D01*
X71236561Y-40608285D02*
X71284180Y-40513047D01*
X71284180Y-40513047D02*
X71284180Y-40274952D01*
X71284180Y-40274952D02*
X71236561Y-40179714D01*
X71236561Y-40179714D02*
X71188942Y-40132095D01*
X71188942Y-40132095D02*
X71093704Y-40084476D01*
X71093704Y-40084476D02*
X70998466Y-40084476D01*
X70998466Y-40084476D02*
X70855609Y-40132095D01*
X70855609Y-40132095D02*
X70284180Y-40703523D01*
X70284180Y-40703523D02*
X70284180Y-40084476D01*
%TO.C,C25*%
X54109857Y-54969580D02*
X54157476Y-55017200D01*
X54157476Y-55017200D02*
X54300333Y-55064819D01*
X54300333Y-55064819D02*
X54395571Y-55064819D01*
X54395571Y-55064819D02*
X54538428Y-55017200D01*
X54538428Y-55017200D02*
X54633666Y-54921961D01*
X54633666Y-54921961D02*
X54681285Y-54826723D01*
X54681285Y-54826723D02*
X54728904Y-54636247D01*
X54728904Y-54636247D02*
X54728904Y-54493390D01*
X54728904Y-54493390D02*
X54681285Y-54302914D01*
X54681285Y-54302914D02*
X54633666Y-54207676D01*
X54633666Y-54207676D02*
X54538428Y-54112438D01*
X54538428Y-54112438D02*
X54395571Y-54064819D01*
X54395571Y-54064819D02*
X54300333Y-54064819D01*
X54300333Y-54064819D02*
X54157476Y-54112438D01*
X54157476Y-54112438D02*
X54109857Y-54160057D01*
X53728904Y-54160057D02*
X53681285Y-54112438D01*
X53681285Y-54112438D02*
X53586047Y-54064819D01*
X53586047Y-54064819D02*
X53347952Y-54064819D01*
X53347952Y-54064819D02*
X53252714Y-54112438D01*
X53252714Y-54112438D02*
X53205095Y-54160057D01*
X53205095Y-54160057D02*
X53157476Y-54255295D01*
X53157476Y-54255295D02*
X53157476Y-54350533D01*
X53157476Y-54350533D02*
X53205095Y-54493390D01*
X53205095Y-54493390D02*
X53776523Y-55064819D01*
X53776523Y-55064819D02*
X53157476Y-55064819D01*
X52252714Y-54064819D02*
X52728904Y-54064819D01*
X52728904Y-54064819D02*
X52776523Y-54541009D01*
X52776523Y-54541009D02*
X52728904Y-54493390D01*
X52728904Y-54493390D02*
X52633666Y-54445771D01*
X52633666Y-54445771D02*
X52395571Y-54445771D01*
X52395571Y-54445771D02*
X52300333Y-54493390D01*
X52300333Y-54493390D02*
X52252714Y-54541009D01*
X52252714Y-54541009D02*
X52205095Y-54636247D01*
X52205095Y-54636247D02*
X52205095Y-54874342D01*
X52205095Y-54874342D02*
X52252714Y-54969580D01*
X52252714Y-54969580D02*
X52300333Y-55017200D01*
X52300333Y-55017200D02*
X52395571Y-55064819D01*
X52395571Y-55064819D02*
X52633666Y-55064819D01*
X52633666Y-55064819D02*
X52728904Y-55017200D01*
X52728904Y-55017200D02*
X52776523Y-54969580D01*
%TO.C,C21*%
X99575857Y-40999580D02*
X99623476Y-41047200D01*
X99623476Y-41047200D02*
X99766333Y-41094819D01*
X99766333Y-41094819D02*
X99861571Y-41094819D01*
X99861571Y-41094819D02*
X100004428Y-41047200D01*
X100004428Y-41047200D02*
X100099666Y-40951961D01*
X100099666Y-40951961D02*
X100147285Y-40856723D01*
X100147285Y-40856723D02*
X100194904Y-40666247D01*
X100194904Y-40666247D02*
X100194904Y-40523390D01*
X100194904Y-40523390D02*
X100147285Y-40332914D01*
X100147285Y-40332914D02*
X100099666Y-40237676D01*
X100099666Y-40237676D02*
X100004428Y-40142438D01*
X100004428Y-40142438D02*
X99861571Y-40094819D01*
X99861571Y-40094819D02*
X99766333Y-40094819D01*
X99766333Y-40094819D02*
X99623476Y-40142438D01*
X99623476Y-40142438D02*
X99575857Y-40190057D01*
X99194904Y-40190057D02*
X99147285Y-40142438D01*
X99147285Y-40142438D02*
X99052047Y-40094819D01*
X99052047Y-40094819D02*
X98813952Y-40094819D01*
X98813952Y-40094819D02*
X98718714Y-40142438D01*
X98718714Y-40142438D02*
X98671095Y-40190057D01*
X98671095Y-40190057D02*
X98623476Y-40285295D01*
X98623476Y-40285295D02*
X98623476Y-40380533D01*
X98623476Y-40380533D02*
X98671095Y-40523390D01*
X98671095Y-40523390D02*
X99242523Y-41094819D01*
X99242523Y-41094819D02*
X98623476Y-41094819D01*
X97671095Y-41094819D02*
X98242523Y-41094819D01*
X97956809Y-41094819D02*
X97956809Y-40094819D01*
X97956809Y-40094819D02*
X98052047Y-40237676D01*
X98052047Y-40237676D02*
X98147285Y-40332914D01*
X98147285Y-40332914D02*
X98242523Y-40380533D01*
%TO.C,R7*%
X53633666Y-40967819D02*
X53966999Y-40491628D01*
X54205094Y-40967819D02*
X54205094Y-39967819D01*
X54205094Y-39967819D02*
X53824142Y-39967819D01*
X53824142Y-39967819D02*
X53728904Y-40015438D01*
X53728904Y-40015438D02*
X53681285Y-40063057D01*
X53681285Y-40063057D02*
X53633666Y-40158295D01*
X53633666Y-40158295D02*
X53633666Y-40301152D01*
X53633666Y-40301152D02*
X53681285Y-40396390D01*
X53681285Y-40396390D02*
X53728904Y-40444009D01*
X53728904Y-40444009D02*
X53824142Y-40491628D01*
X53824142Y-40491628D02*
X54205094Y-40491628D01*
X53300332Y-39967819D02*
X52633666Y-39967819D01*
X52633666Y-39967819D02*
X53062237Y-40967819D01*
%TO.C,C27*%
X73159857Y-54969580D02*
X73207476Y-55017200D01*
X73207476Y-55017200D02*
X73350333Y-55064819D01*
X73350333Y-55064819D02*
X73445571Y-55064819D01*
X73445571Y-55064819D02*
X73588428Y-55017200D01*
X73588428Y-55017200D02*
X73683666Y-54921961D01*
X73683666Y-54921961D02*
X73731285Y-54826723D01*
X73731285Y-54826723D02*
X73778904Y-54636247D01*
X73778904Y-54636247D02*
X73778904Y-54493390D01*
X73778904Y-54493390D02*
X73731285Y-54302914D01*
X73731285Y-54302914D02*
X73683666Y-54207676D01*
X73683666Y-54207676D02*
X73588428Y-54112438D01*
X73588428Y-54112438D02*
X73445571Y-54064819D01*
X73445571Y-54064819D02*
X73350333Y-54064819D01*
X73350333Y-54064819D02*
X73207476Y-54112438D01*
X73207476Y-54112438D02*
X73159857Y-54160057D01*
X72778904Y-54160057D02*
X72731285Y-54112438D01*
X72731285Y-54112438D02*
X72636047Y-54064819D01*
X72636047Y-54064819D02*
X72397952Y-54064819D01*
X72397952Y-54064819D02*
X72302714Y-54112438D01*
X72302714Y-54112438D02*
X72255095Y-54160057D01*
X72255095Y-54160057D02*
X72207476Y-54255295D01*
X72207476Y-54255295D02*
X72207476Y-54350533D01*
X72207476Y-54350533D02*
X72255095Y-54493390D01*
X72255095Y-54493390D02*
X72826523Y-55064819D01*
X72826523Y-55064819D02*
X72207476Y-55064819D01*
X71874142Y-54064819D02*
X71207476Y-54064819D01*
X71207476Y-54064819D02*
X71636047Y-55064819D01*
%TO.C,R10*%
X42425856Y-55191819D02*
X42759189Y-54715628D01*
X42997284Y-55191819D02*
X42997284Y-54191819D01*
X42997284Y-54191819D02*
X42616332Y-54191819D01*
X42616332Y-54191819D02*
X42521094Y-54239438D01*
X42521094Y-54239438D02*
X42473475Y-54287057D01*
X42473475Y-54287057D02*
X42425856Y-54382295D01*
X42425856Y-54382295D02*
X42425856Y-54525152D01*
X42425856Y-54525152D02*
X42473475Y-54620390D01*
X42473475Y-54620390D02*
X42521094Y-54668009D01*
X42521094Y-54668009D02*
X42616332Y-54715628D01*
X42616332Y-54715628D02*
X42997284Y-54715628D01*
X41473475Y-55191819D02*
X42044903Y-55191819D01*
X41759189Y-55191819D02*
X41759189Y-54191819D01*
X41759189Y-54191819D02*
X41854427Y-54334676D01*
X41854427Y-54334676D02*
X41949665Y-54429914D01*
X41949665Y-54429914D02*
X42044903Y-54477533D01*
X40854427Y-54191819D02*
X40759189Y-54191819D01*
X40759189Y-54191819D02*
X40663951Y-54239438D01*
X40663951Y-54239438D02*
X40616332Y-54287057D01*
X40616332Y-54287057D02*
X40568713Y-54382295D01*
X40568713Y-54382295D02*
X40521094Y-54572771D01*
X40521094Y-54572771D02*
X40521094Y-54810866D01*
X40521094Y-54810866D02*
X40568713Y-55001342D01*
X40568713Y-55001342D02*
X40616332Y-55096580D01*
X40616332Y-55096580D02*
X40663951Y-55144200D01*
X40663951Y-55144200D02*
X40759189Y-55191819D01*
X40759189Y-55191819D02*
X40854427Y-55191819D01*
X40854427Y-55191819D02*
X40949665Y-55144200D01*
X40949665Y-55144200D02*
X40997284Y-55096580D01*
X40997284Y-55096580D02*
X41044903Y-55001342D01*
X41044903Y-55001342D02*
X41092522Y-54810866D01*
X41092522Y-54810866D02*
X41092522Y-54572771D01*
X41092522Y-54572771D02*
X41044903Y-54382295D01*
X41044903Y-54382295D02*
X40997284Y-54287057D01*
X40997284Y-54287057D02*
X40949665Y-54239438D01*
X40949665Y-54239438D02*
X40854427Y-54191819D01*
%TO.C,C16*%
X35059857Y-42142580D02*
X35107476Y-42190200D01*
X35107476Y-42190200D02*
X35250333Y-42237819D01*
X35250333Y-42237819D02*
X35345571Y-42237819D01*
X35345571Y-42237819D02*
X35488428Y-42190200D01*
X35488428Y-42190200D02*
X35583666Y-42094961D01*
X35583666Y-42094961D02*
X35631285Y-41999723D01*
X35631285Y-41999723D02*
X35678904Y-41809247D01*
X35678904Y-41809247D02*
X35678904Y-41666390D01*
X35678904Y-41666390D02*
X35631285Y-41475914D01*
X35631285Y-41475914D02*
X35583666Y-41380676D01*
X35583666Y-41380676D02*
X35488428Y-41285438D01*
X35488428Y-41285438D02*
X35345571Y-41237819D01*
X35345571Y-41237819D02*
X35250333Y-41237819D01*
X35250333Y-41237819D02*
X35107476Y-41285438D01*
X35107476Y-41285438D02*
X35059857Y-41333057D01*
X34107476Y-42237819D02*
X34678904Y-42237819D01*
X34393190Y-42237819D02*
X34393190Y-41237819D01*
X34393190Y-41237819D02*
X34488428Y-41380676D01*
X34488428Y-41380676D02*
X34583666Y-41475914D01*
X34583666Y-41475914D02*
X34678904Y-41523533D01*
X33250333Y-41237819D02*
X33440809Y-41237819D01*
X33440809Y-41237819D02*
X33536047Y-41285438D01*
X33536047Y-41285438D02*
X33583666Y-41333057D01*
X33583666Y-41333057D02*
X33678904Y-41475914D01*
X33678904Y-41475914D02*
X33726523Y-41666390D01*
X33726523Y-41666390D02*
X33726523Y-42047342D01*
X33726523Y-42047342D02*
X33678904Y-42142580D01*
X33678904Y-42142580D02*
X33631285Y-42190200D01*
X33631285Y-42190200D02*
X33536047Y-42237819D01*
X33536047Y-42237819D02*
X33345571Y-42237819D01*
X33345571Y-42237819D02*
X33250333Y-42190200D01*
X33250333Y-42190200D02*
X33202714Y-42142580D01*
X33202714Y-42142580D02*
X33155095Y-42047342D01*
X33155095Y-42047342D02*
X33155095Y-41809247D01*
X33155095Y-41809247D02*
X33202714Y-41714009D01*
X33202714Y-41714009D02*
X33250333Y-41666390D01*
X33250333Y-41666390D02*
X33345571Y-41618771D01*
X33345571Y-41618771D02*
X33536047Y-41618771D01*
X33536047Y-41618771D02*
X33631285Y-41666390D01*
X33631285Y-41666390D02*
X33678904Y-41714009D01*
X33678904Y-41714009D02*
X33726523Y-41809247D01*
%TO.C,HALL4*%
X97249999Y-35760819D02*
X97249999Y-34760819D01*
X97249999Y-35237009D02*
X96678571Y-35237009D01*
X96678571Y-35760819D02*
X96678571Y-34760819D01*
X96249999Y-35475104D02*
X95773809Y-35475104D01*
X96345237Y-35760819D02*
X96011904Y-34760819D01*
X96011904Y-34760819D02*
X95678571Y-35760819D01*
X94869047Y-35760819D02*
X95345237Y-35760819D01*
X95345237Y-35760819D02*
X95345237Y-34760819D01*
X94059523Y-35760819D02*
X94535713Y-35760819D01*
X94535713Y-35760819D02*
X94535713Y-34760819D01*
X93297618Y-35094152D02*
X93297618Y-35760819D01*
X93535713Y-34713200D02*
X93773808Y-35427485D01*
X93773808Y-35427485D02*
X93154761Y-35427485D01*
%TO.C,C2*%
X52683580Y-34123333D02*
X52731200Y-34075714D01*
X52731200Y-34075714D02*
X52778819Y-33932857D01*
X52778819Y-33932857D02*
X52778819Y-33837619D01*
X52778819Y-33837619D02*
X52731200Y-33694762D01*
X52731200Y-33694762D02*
X52635961Y-33599524D01*
X52635961Y-33599524D02*
X52540723Y-33551905D01*
X52540723Y-33551905D02*
X52350247Y-33504286D01*
X52350247Y-33504286D02*
X52207390Y-33504286D01*
X52207390Y-33504286D02*
X52016914Y-33551905D01*
X52016914Y-33551905D02*
X51921676Y-33599524D01*
X51921676Y-33599524D02*
X51826438Y-33694762D01*
X51826438Y-33694762D02*
X51778819Y-33837619D01*
X51778819Y-33837619D02*
X51778819Y-33932857D01*
X51778819Y-33932857D02*
X51826438Y-34075714D01*
X51826438Y-34075714D02*
X51874057Y-34123333D01*
X51874057Y-34504286D02*
X51826438Y-34551905D01*
X51826438Y-34551905D02*
X51778819Y-34647143D01*
X51778819Y-34647143D02*
X51778819Y-34885238D01*
X51778819Y-34885238D02*
X51826438Y-34980476D01*
X51826438Y-34980476D02*
X51874057Y-35028095D01*
X51874057Y-35028095D02*
X51969295Y-35075714D01*
X51969295Y-35075714D02*
X52064533Y-35075714D01*
X52064533Y-35075714D02*
X52207390Y-35028095D01*
X52207390Y-35028095D02*
X52778819Y-34456667D01*
X52778819Y-34456667D02*
X52778819Y-35075714D01*
%TO.C,HALL3*%
X78199999Y-35760819D02*
X78199999Y-34760819D01*
X78199999Y-35237009D02*
X77628571Y-35237009D01*
X77628571Y-35760819D02*
X77628571Y-34760819D01*
X77199999Y-35475104D02*
X76723809Y-35475104D01*
X77295237Y-35760819D02*
X76961904Y-34760819D01*
X76961904Y-34760819D02*
X76628571Y-35760819D01*
X75819047Y-35760819D02*
X76295237Y-35760819D01*
X76295237Y-35760819D02*
X76295237Y-34760819D01*
X75009523Y-35760819D02*
X75485713Y-35760819D01*
X75485713Y-35760819D02*
X75485713Y-34760819D01*
X74771427Y-34760819D02*
X74152380Y-34760819D01*
X74152380Y-34760819D02*
X74485713Y-35141771D01*
X74485713Y-35141771D02*
X74342856Y-35141771D01*
X74342856Y-35141771D02*
X74247618Y-35189390D01*
X74247618Y-35189390D02*
X74199999Y-35237009D01*
X74199999Y-35237009D02*
X74152380Y-35332247D01*
X74152380Y-35332247D02*
X74152380Y-35570342D01*
X74152380Y-35570342D02*
X74199999Y-35665580D01*
X74199999Y-35665580D02*
X74247618Y-35713200D01*
X74247618Y-35713200D02*
X74342856Y-35760819D01*
X74342856Y-35760819D02*
X74628570Y-35760819D01*
X74628570Y-35760819D02*
X74723808Y-35713200D01*
X74723808Y-35713200D02*
X74771427Y-35665580D01*
%TO.C,R9*%
X91733666Y-40967819D02*
X92066999Y-40491628D01*
X92305094Y-40967819D02*
X92305094Y-39967819D01*
X92305094Y-39967819D02*
X91924142Y-39967819D01*
X91924142Y-39967819D02*
X91828904Y-40015438D01*
X91828904Y-40015438D02*
X91781285Y-40063057D01*
X91781285Y-40063057D02*
X91733666Y-40158295D01*
X91733666Y-40158295D02*
X91733666Y-40301152D01*
X91733666Y-40301152D02*
X91781285Y-40396390D01*
X91781285Y-40396390D02*
X91828904Y-40444009D01*
X91828904Y-40444009D02*
X91924142Y-40491628D01*
X91924142Y-40491628D02*
X92305094Y-40491628D01*
X91257475Y-40967819D02*
X91066999Y-40967819D01*
X91066999Y-40967819D02*
X90971761Y-40920200D01*
X90971761Y-40920200D02*
X90924142Y-40872580D01*
X90924142Y-40872580D02*
X90828904Y-40729723D01*
X90828904Y-40729723D02*
X90781285Y-40539247D01*
X90781285Y-40539247D02*
X90781285Y-40158295D01*
X90781285Y-40158295D02*
X90828904Y-40063057D01*
X90828904Y-40063057D02*
X90876523Y-40015438D01*
X90876523Y-40015438D02*
X90971761Y-39967819D01*
X90971761Y-39967819D02*
X91162237Y-39967819D01*
X91162237Y-39967819D02*
X91257475Y-40015438D01*
X91257475Y-40015438D02*
X91305094Y-40063057D01*
X91305094Y-40063057D02*
X91352713Y-40158295D01*
X91352713Y-40158295D02*
X91352713Y-40396390D01*
X91352713Y-40396390D02*
X91305094Y-40491628D01*
X91305094Y-40491628D02*
X91257475Y-40539247D01*
X91257475Y-40539247D02*
X91162237Y-40586866D01*
X91162237Y-40586866D02*
X90971761Y-40586866D01*
X90971761Y-40586866D02*
X90876523Y-40539247D01*
X90876523Y-40539247D02*
X90828904Y-40491628D01*
X90828904Y-40491628D02*
X90781285Y-40396390D01*
%TO.C,HALL5*%
X40099999Y-60398819D02*
X40099999Y-59398819D01*
X40099999Y-59875009D02*
X39528571Y-59875009D01*
X39528571Y-60398819D02*
X39528571Y-59398819D01*
X39099999Y-60113104D02*
X38623809Y-60113104D01*
X39195237Y-60398819D02*
X38861904Y-59398819D01*
X38861904Y-59398819D02*
X38528571Y-60398819D01*
X37719047Y-60398819D02*
X38195237Y-60398819D01*
X38195237Y-60398819D02*
X38195237Y-59398819D01*
X36909523Y-60398819D02*
X37385713Y-60398819D01*
X37385713Y-60398819D02*
X37385713Y-59398819D01*
X36099999Y-59398819D02*
X36576189Y-59398819D01*
X36576189Y-59398819D02*
X36623808Y-59875009D01*
X36623808Y-59875009D02*
X36576189Y-59827390D01*
X36576189Y-59827390D02*
X36480951Y-59779771D01*
X36480951Y-59779771D02*
X36242856Y-59779771D01*
X36242856Y-59779771D02*
X36147618Y-59827390D01*
X36147618Y-59827390D02*
X36099999Y-59875009D01*
X36099999Y-59875009D02*
X36052380Y-59970247D01*
X36052380Y-59970247D02*
X36052380Y-60208342D01*
X36052380Y-60208342D02*
X36099999Y-60303580D01*
X36099999Y-60303580D02*
X36147618Y-60351200D01*
X36147618Y-60351200D02*
X36242856Y-60398819D01*
X36242856Y-60398819D02*
X36480951Y-60398819D01*
X36480951Y-60398819D02*
X36576189Y-60351200D01*
X36576189Y-60351200D02*
X36623808Y-60303580D01*
%TO.C,J2*%
X87997203Y-32489201D02*
X87492127Y-32994277D01*
X87492127Y-32994277D02*
X87424783Y-33128964D01*
X87424783Y-33128964D02*
X87424783Y-33263651D01*
X87424783Y-33263651D02*
X87492127Y-33398338D01*
X87492127Y-33398338D02*
X87559470Y-33465682D01*
X87626814Y-32253498D02*
X87626814Y-32186155D01*
X87626814Y-32186155D02*
X87593142Y-32085140D01*
X87593142Y-32085140D02*
X87424783Y-31916781D01*
X87424783Y-31916781D02*
X87323768Y-31883109D01*
X87323768Y-31883109D02*
X87256424Y-31883109D01*
X87256424Y-31883109D02*
X87155409Y-31916781D01*
X87155409Y-31916781D02*
X87088066Y-31984124D01*
X87088066Y-31984124D02*
X87020722Y-32118811D01*
X87020722Y-32118811D02*
X87020722Y-32926933D01*
X87020722Y-32926933D02*
X86582989Y-32489201D01*
%TO.C,C19*%
X80525857Y-40999580D02*
X80573476Y-41047200D01*
X80573476Y-41047200D02*
X80716333Y-41094819D01*
X80716333Y-41094819D02*
X80811571Y-41094819D01*
X80811571Y-41094819D02*
X80954428Y-41047200D01*
X80954428Y-41047200D02*
X81049666Y-40951961D01*
X81049666Y-40951961D02*
X81097285Y-40856723D01*
X81097285Y-40856723D02*
X81144904Y-40666247D01*
X81144904Y-40666247D02*
X81144904Y-40523390D01*
X81144904Y-40523390D02*
X81097285Y-40332914D01*
X81097285Y-40332914D02*
X81049666Y-40237676D01*
X81049666Y-40237676D02*
X80954428Y-40142438D01*
X80954428Y-40142438D02*
X80811571Y-40094819D01*
X80811571Y-40094819D02*
X80716333Y-40094819D01*
X80716333Y-40094819D02*
X80573476Y-40142438D01*
X80573476Y-40142438D02*
X80525857Y-40190057D01*
X79573476Y-41094819D02*
X80144904Y-41094819D01*
X79859190Y-41094819D02*
X79859190Y-40094819D01*
X79859190Y-40094819D02*
X79954428Y-40237676D01*
X79954428Y-40237676D02*
X80049666Y-40332914D01*
X80049666Y-40332914D02*
X80144904Y-40380533D01*
X79097285Y-41094819D02*
X78906809Y-41094819D01*
X78906809Y-41094819D02*
X78811571Y-41047200D01*
X78811571Y-41047200D02*
X78763952Y-40999580D01*
X78763952Y-40999580D02*
X78668714Y-40856723D01*
X78668714Y-40856723D02*
X78621095Y-40666247D01*
X78621095Y-40666247D02*
X78621095Y-40285295D01*
X78621095Y-40285295D02*
X78668714Y-40190057D01*
X78668714Y-40190057D02*
X78716333Y-40142438D01*
X78716333Y-40142438D02*
X78811571Y-40094819D01*
X78811571Y-40094819D02*
X79002047Y-40094819D01*
X79002047Y-40094819D02*
X79097285Y-40142438D01*
X79097285Y-40142438D02*
X79144904Y-40190057D01*
X79144904Y-40190057D02*
X79192523Y-40285295D01*
X79192523Y-40285295D02*
X79192523Y-40523390D01*
X79192523Y-40523390D02*
X79144904Y-40618628D01*
X79144904Y-40618628D02*
X79097285Y-40666247D01*
X79097285Y-40666247D02*
X79002047Y-40713866D01*
X79002047Y-40713866D02*
X78811571Y-40713866D01*
X78811571Y-40713866D02*
X78716333Y-40666247D01*
X78716333Y-40666247D02*
X78668714Y-40618628D01*
X78668714Y-40618628D02*
X78621095Y-40523390D01*
%TO.C,C30*%
X99575856Y-53826580D02*
X99623475Y-53874200D01*
X99623475Y-53874200D02*
X99766332Y-53921819D01*
X99766332Y-53921819D02*
X99861570Y-53921819D01*
X99861570Y-53921819D02*
X100004427Y-53874200D01*
X100004427Y-53874200D02*
X100099665Y-53778961D01*
X100099665Y-53778961D02*
X100147284Y-53683723D01*
X100147284Y-53683723D02*
X100194903Y-53493247D01*
X100194903Y-53493247D02*
X100194903Y-53350390D01*
X100194903Y-53350390D02*
X100147284Y-53159914D01*
X100147284Y-53159914D02*
X100099665Y-53064676D01*
X100099665Y-53064676D02*
X100004427Y-52969438D01*
X100004427Y-52969438D02*
X99861570Y-52921819D01*
X99861570Y-52921819D02*
X99766332Y-52921819D01*
X99766332Y-52921819D02*
X99623475Y-52969438D01*
X99623475Y-52969438D02*
X99575856Y-53017057D01*
X99242522Y-52921819D02*
X98623475Y-52921819D01*
X98623475Y-52921819D02*
X98956808Y-53302771D01*
X98956808Y-53302771D02*
X98813951Y-53302771D01*
X98813951Y-53302771D02*
X98718713Y-53350390D01*
X98718713Y-53350390D02*
X98671094Y-53398009D01*
X98671094Y-53398009D02*
X98623475Y-53493247D01*
X98623475Y-53493247D02*
X98623475Y-53731342D01*
X98623475Y-53731342D02*
X98671094Y-53826580D01*
X98671094Y-53826580D02*
X98718713Y-53874200D01*
X98718713Y-53874200D02*
X98813951Y-53921819D01*
X98813951Y-53921819D02*
X99099665Y-53921819D01*
X99099665Y-53921819D02*
X99194903Y-53874200D01*
X99194903Y-53874200D02*
X99242522Y-53826580D01*
X98004427Y-52921819D02*
X97909189Y-52921819D01*
X97909189Y-52921819D02*
X97813951Y-52969438D01*
X97813951Y-52969438D02*
X97766332Y-53017057D01*
X97766332Y-53017057D02*
X97718713Y-53112295D01*
X97718713Y-53112295D02*
X97671094Y-53302771D01*
X97671094Y-53302771D02*
X97671094Y-53540866D01*
X97671094Y-53540866D02*
X97718713Y-53731342D01*
X97718713Y-53731342D02*
X97766332Y-53826580D01*
X97766332Y-53826580D02*
X97813951Y-53874200D01*
X97813951Y-53874200D02*
X97909189Y-53921819D01*
X97909189Y-53921819D02*
X98004427Y-53921819D01*
X98004427Y-53921819D02*
X98099665Y-53874200D01*
X98099665Y-53874200D02*
X98147284Y-53826580D01*
X98147284Y-53826580D02*
X98194903Y-53731342D01*
X98194903Y-53731342D02*
X98242522Y-53540866D01*
X98242522Y-53540866D02*
X98242522Y-53302771D01*
X98242522Y-53302771D02*
X98194903Y-53112295D01*
X98194903Y-53112295D02*
X98147284Y-53017057D01*
X98147284Y-53017057D02*
X98099665Y-52969438D01*
X98099665Y-52969438D02*
X98004427Y-52921819D01*
%TO.C,R4*%
X85129666Y-54048819D02*
X85462999Y-53572628D01*
X85701094Y-54048819D02*
X85701094Y-53048819D01*
X85701094Y-53048819D02*
X85320142Y-53048819D01*
X85320142Y-53048819D02*
X85224904Y-53096438D01*
X85224904Y-53096438D02*
X85177285Y-53144057D01*
X85177285Y-53144057D02*
X85129666Y-53239295D01*
X85129666Y-53239295D02*
X85129666Y-53382152D01*
X85129666Y-53382152D02*
X85177285Y-53477390D01*
X85177285Y-53477390D02*
X85224904Y-53525009D01*
X85224904Y-53525009D02*
X85320142Y-53572628D01*
X85320142Y-53572628D02*
X85701094Y-53572628D01*
X84272523Y-53382152D02*
X84272523Y-54048819D01*
X84510618Y-53001200D02*
X84748713Y-53715485D01*
X84748713Y-53715485D02*
X84129666Y-53715485D01*
%TO.C,R11*%
X61475856Y-55191819D02*
X61809189Y-54715628D01*
X62047284Y-55191819D02*
X62047284Y-54191819D01*
X62047284Y-54191819D02*
X61666332Y-54191819D01*
X61666332Y-54191819D02*
X61571094Y-54239438D01*
X61571094Y-54239438D02*
X61523475Y-54287057D01*
X61523475Y-54287057D02*
X61475856Y-54382295D01*
X61475856Y-54382295D02*
X61475856Y-54525152D01*
X61475856Y-54525152D02*
X61523475Y-54620390D01*
X61523475Y-54620390D02*
X61571094Y-54668009D01*
X61571094Y-54668009D02*
X61666332Y-54715628D01*
X61666332Y-54715628D02*
X62047284Y-54715628D01*
X60523475Y-55191819D02*
X61094903Y-55191819D01*
X60809189Y-55191819D02*
X60809189Y-54191819D01*
X60809189Y-54191819D02*
X60904427Y-54334676D01*
X60904427Y-54334676D02*
X60999665Y-54429914D01*
X60999665Y-54429914D02*
X61094903Y-54477533D01*
X59571094Y-55191819D02*
X60142522Y-55191819D01*
X59856808Y-55191819D02*
X59856808Y-54191819D01*
X59856808Y-54191819D02*
X59952046Y-54334676D01*
X59952046Y-54334676D02*
X60047284Y-54429914D01*
X60047284Y-54429914D02*
X60142522Y-54477533D01*
%TO.C,C17*%
X61475857Y-40999580D02*
X61523476Y-41047200D01*
X61523476Y-41047200D02*
X61666333Y-41094819D01*
X61666333Y-41094819D02*
X61761571Y-41094819D01*
X61761571Y-41094819D02*
X61904428Y-41047200D01*
X61904428Y-41047200D02*
X61999666Y-40951961D01*
X61999666Y-40951961D02*
X62047285Y-40856723D01*
X62047285Y-40856723D02*
X62094904Y-40666247D01*
X62094904Y-40666247D02*
X62094904Y-40523390D01*
X62094904Y-40523390D02*
X62047285Y-40332914D01*
X62047285Y-40332914D02*
X61999666Y-40237676D01*
X61999666Y-40237676D02*
X61904428Y-40142438D01*
X61904428Y-40142438D02*
X61761571Y-40094819D01*
X61761571Y-40094819D02*
X61666333Y-40094819D01*
X61666333Y-40094819D02*
X61523476Y-40142438D01*
X61523476Y-40142438D02*
X61475857Y-40190057D01*
X60523476Y-41094819D02*
X61094904Y-41094819D01*
X60809190Y-41094819D02*
X60809190Y-40094819D01*
X60809190Y-40094819D02*
X60904428Y-40237676D01*
X60904428Y-40237676D02*
X60999666Y-40332914D01*
X60999666Y-40332914D02*
X61094904Y-40380533D01*
X60190142Y-40094819D02*
X59523476Y-40094819D01*
X59523476Y-40094819D02*
X59952047Y-41094819D01*
%TO.C,R13*%
X99575856Y-55191819D02*
X99909189Y-54715628D01*
X100147284Y-55191819D02*
X100147284Y-54191819D01*
X100147284Y-54191819D02*
X99766332Y-54191819D01*
X99766332Y-54191819D02*
X99671094Y-54239438D01*
X99671094Y-54239438D02*
X99623475Y-54287057D01*
X99623475Y-54287057D02*
X99575856Y-54382295D01*
X99575856Y-54382295D02*
X99575856Y-54525152D01*
X99575856Y-54525152D02*
X99623475Y-54620390D01*
X99623475Y-54620390D02*
X99671094Y-54668009D01*
X99671094Y-54668009D02*
X99766332Y-54715628D01*
X99766332Y-54715628D02*
X100147284Y-54715628D01*
X98623475Y-55191819D02*
X99194903Y-55191819D01*
X98909189Y-55191819D02*
X98909189Y-54191819D01*
X98909189Y-54191819D02*
X99004427Y-54334676D01*
X99004427Y-54334676D02*
X99099665Y-54429914D01*
X99099665Y-54429914D02*
X99194903Y-54477533D01*
X98290141Y-54191819D02*
X97671094Y-54191819D01*
X97671094Y-54191819D02*
X98004427Y-54572771D01*
X98004427Y-54572771D02*
X97861570Y-54572771D01*
X97861570Y-54572771D02*
X97766332Y-54620390D01*
X97766332Y-54620390D02*
X97718713Y-54668009D01*
X97718713Y-54668009D02*
X97671094Y-54763247D01*
X97671094Y-54763247D02*
X97671094Y-55001342D01*
X97671094Y-55001342D02*
X97718713Y-55096580D01*
X97718713Y-55096580D02*
X97766332Y-55144200D01*
X97766332Y-55144200D02*
X97861570Y-55191819D01*
X97861570Y-55191819D02*
X98147284Y-55191819D01*
X98147284Y-55191819D02*
X98242522Y-55144200D01*
X98242522Y-55144200D02*
X98290141Y-55096580D01*
%TO.C,C26*%
X61475856Y-53826580D02*
X61523475Y-53874200D01*
X61523475Y-53874200D02*
X61666332Y-53921819D01*
X61666332Y-53921819D02*
X61761570Y-53921819D01*
X61761570Y-53921819D02*
X61904427Y-53874200D01*
X61904427Y-53874200D02*
X61999665Y-53778961D01*
X61999665Y-53778961D02*
X62047284Y-53683723D01*
X62047284Y-53683723D02*
X62094903Y-53493247D01*
X62094903Y-53493247D02*
X62094903Y-53350390D01*
X62094903Y-53350390D02*
X62047284Y-53159914D01*
X62047284Y-53159914D02*
X61999665Y-53064676D01*
X61999665Y-53064676D02*
X61904427Y-52969438D01*
X61904427Y-52969438D02*
X61761570Y-52921819D01*
X61761570Y-52921819D02*
X61666332Y-52921819D01*
X61666332Y-52921819D02*
X61523475Y-52969438D01*
X61523475Y-52969438D02*
X61475856Y-53017057D01*
X61094903Y-53017057D02*
X61047284Y-52969438D01*
X61047284Y-52969438D02*
X60952046Y-52921819D01*
X60952046Y-52921819D02*
X60713951Y-52921819D01*
X60713951Y-52921819D02*
X60618713Y-52969438D01*
X60618713Y-52969438D02*
X60571094Y-53017057D01*
X60571094Y-53017057D02*
X60523475Y-53112295D01*
X60523475Y-53112295D02*
X60523475Y-53207533D01*
X60523475Y-53207533D02*
X60571094Y-53350390D01*
X60571094Y-53350390D02*
X61142522Y-53921819D01*
X61142522Y-53921819D02*
X60523475Y-53921819D01*
X59666332Y-52921819D02*
X59856808Y-52921819D01*
X59856808Y-52921819D02*
X59952046Y-52969438D01*
X59952046Y-52969438D02*
X59999665Y-53017057D01*
X59999665Y-53017057D02*
X60094903Y-53159914D01*
X60094903Y-53159914D02*
X60142522Y-53350390D01*
X60142522Y-53350390D02*
X60142522Y-53731342D01*
X60142522Y-53731342D02*
X60094903Y-53826580D01*
X60094903Y-53826580D02*
X60047284Y-53874200D01*
X60047284Y-53874200D02*
X59952046Y-53921819D01*
X59952046Y-53921819D02*
X59761570Y-53921819D01*
X59761570Y-53921819D02*
X59666332Y-53874200D01*
X59666332Y-53874200D02*
X59618713Y-53826580D01*
X59618713Y-53826580D02*
X59571094Y-53731342D01*
X59571094Y-53731342D02*
X59571094Y-53493247D01*
X59571094Y-53493247D02*
X59618713Y-53398009D01*
X59618713Y-53398009D02*
X59666332Y-53350390D01*
X59666332Y-53350390D02*
X59761570Y-53302771D01*
X59761570Y-53302771D02*
X59952046Y-53302771D01*
X59952046Y-53302771D02*
X60047284Y-53350390D01*
X60047284Y-53350390D02*
X60094903Y-53398009D01*
X60094903Y-53398009D02*
X60142522Y-53493247D01*
%TO.C,C20*%
X75826857Y-44555580D02*
X75874476Y-44603200D01*
X75874476Y-44603200D02*
X76017333Y-44650819D01*
X76017333Y-44650819D02*
X76112571Y-44650819D01*
X76112571Y-44650819D02*
X76255428Y-44603200D01*
X76255428Y-44603200D02*
X76350666Y-44507961D01*
X76350666Y-44507961D02*
X76398285Y-44412723D01*
X76398285Y-44412723D02*
X76445904Y-44222247D01*
X76445904Y-44222247D02*
X76445904Y-44079390D01*
X76445904Y-44079390D02*
X76398285Y-43888914D01*
X76398285Y-43888914D02*
X76350666Y-43793676D01*
X76350666Y-43793676D02*
X76255428Y-43698438D01*
X76255428Y-43698438D02*
X76112571Y-43650819D01*
X76112571Y-43650819D02*
X76017333Y-43650819D01*
X76017333Y-43650819D02*
X75874476Y-43698438D01*
X75874476Y-43698438D02*
X75826857Y-43746057D01*
X75445904Y-43746057D02*
X75398285Y-43698438D01*
X75398285Y-43698438D02*
X75303047Y-43650819D01*
X75303047Y-43650819D02*
X75064952Y-43650819D01*
X75064952Y-43650819D02*
X74969714Y-43698438D01*
X74969714Y-43698438D02*
X74922095Y-43746057D01*
X74922095Y-43746057D02*
X74874476Y-43841295D01*
X74874476Y-43841295D02*
X74874476Y-43936533D01*
X74874476Y-43936533D02*
X74922095Y-44079390D01*
X74922095Y-44079390D02*
X75493523Y-44650819D01*
X75493523Y-44650819D02*
X74874476Y-44650819D01*
X74255428Y-43650819D02*
X74160190Y-43650819D01*
X74160190Y-43650819D02*
X74064952Y-43698438D01*
X74064952Y-43698438D02*
X74017333Y-43746057D01*
X74017333Y-43746057D02*
X73969714Y-43841295D01*
X73969714Y-43841295D02*
X73922095Y-44031771D01*
X73922095Y-44031771D02*
X73922095Y-44269866D01*
X73922095Y-44269866D02*
X73969714Y-44460342D01*
X73969714Y-44460342D02*
X74017333Y-44555580D01*
X74017333Y-44555580D02*
X74064952Y-44603200D01*
X74064952Y-44603200D02*
X74160190Y-44650819D01*
X74160190Y-44650819D02*
X74255428Y-44650819D01*
X74255428Y-44650819D02*
X74350666Y-44603200D01*
X74350666Y-44603200D02*
X74398285Y-44555580D01*
X74398285Y-44555580D02*
X74445904Y-44460342D01*
X74445904Y-44460342D02*
X74493523Y-44269866D01*
X74493523Y-44269866D02*
X74493523Y-44031771D01*
X74493523Y-44031771D02*
X74445904Y-43841295D01*
X74445904Y-43841295D02*
X74398285Y-43746057D01*
X74398285Y-43746057D02*
X74350666Y-43698438D01*
X74350666Y-43698438D02*
X74255428Y-43650819D01*
%TO.C,HALL8*%
X97249999Y-60398819D02*
X97249999Y-59398819D01*
X97249999Y-59875009D02*
X96678571Y-59875009D01*
X96678571Y-60398819D02*
X96678571Y-59398819D01*
X96249999Y-60113104D02*
X95773809Y-60113104D01*
X96345237Y-60398819D02*
X96011904Y-59398819D01*
X96011904Y-59398819D02*
X95678571Y-60398819D01*
X94869047Y-60398819D02*
X95345237Y-60398819D01*
X95345237Y-60398819D02*
X95345237Y-59398819D01*
X94059523Y-60398819D02*
X94535713Y-60398819D01*
X94535713Y-60398819D02*
X94535713Y-59398819D01*
X93583332Y-59827390D02*
X93678570Y-59779771D01*
X93678570Y-59779771D02*
X93726189Y-59732152D01*
X93726189Y-59732152D02*
X93773808Y-59636914D01*
X93773808Y-59636914D02*
X93773808Y-59589295D01*
X93773808Y-59589295D02*
X93726189Y-59494057D01*
X93726189Y-59494057D02*
X93678570Y-59446438D01*
X93678570Y-59446438D02*
X93583332Y-59398819D01*
X93583332Y-59398819D02*
X93392856Y-59398819D01*
X93392856Y-59398819D02*
X93297618Y-59446438D01*
X93297618Y-59446438D02*
X93249999Y-59494057D01*
X93249999Y-59494057D02*
X93202380Y-59589295D01*
X93202380Y-59589295D02*
X93202380Y-59636914D01*
X93202380Y-59636914D02*
X93249999Y-59732152D01*
X93249999Y-59732152D02*
X93297618Y-59779771D01*
X93297618Y-59779771D02*
X93392856Y-59827390D01*
X93392856Y-59827390D02*
X93583332Y-59827390D01*
X93583332Y-59827390D02*
X93678570Y-59875009D01*
X93678570Y-59875009D02*
X93726189Y-59922628D01*
X93726189Y-59922628D02*
X93773808Y-60017866D01*
X93773808Y-60017866D02*
X93773808Y-60208342D01*
X93773808Y-60208342D02*
X93726189Y-60303580D01*
X93726189Y-60303580D02*
X93678570Y-60351200D01*
X93678570Y-60351200D02*
X93583332Y-60398819D01*
X93583332Y-60398819D02*
X93392856Y-60398819D01*
X93392856Y-60398819D02*
X93297618Y-60351200D01*
X93297618Y-60351200D02*
X93249999Y-60303580D01*
X93249999Y-60303580D02*
X93202380Y-60208342D01*
X93202380Y-60208342D02*
X93202380Y-60017866D01*
X93202380Y-60017866D02*
X93249999Y-59922628D01*
X93249999Y-59922628D02*
X93297618Y-59875009D01*
X93297618Y-59875009D02*
X93392856Y-59827390D01*
%TO.C,U3*%
X67944904Y-53302819D02*
X67944904Y-54112342D01*
X67944904Y-54112342D02*
X67897285Y-54207580D01*
X67897285Y-54207580D02*
X67849666Y-54255200D01*
X67849666Y-54255200D02*
X67754428Y-54302819D01*
X67754428Y-54302819D02*
X67563952Y-54302819D01*
X67563952Y-54302819D02*
X67468714Y-54255200D01*
X67468714Y-54255200D02*
X67421095Y-54207580D01*
X67421095Y-54207580D02*
X67373476Y-54112342D01*
X67373476Y-54112342D02*
X67373476Y-53302819D01*
X66992523Y-53302819D02*
X66373476Y-53302819D01*
X66373476Y-53302819D02*
X66706809Y-53683771D01*
X66706809Y-53683771D02*
X66563952Y-53683771D01*
X66563952Y-53683771D02*
X66468714Y-53731390D01*
X66468714Y-53731390D02*
X66421095Y-53779009D01*
X66421095Y-53779009D02*
X66373476Y-53874247D01*
X66373476Y-53874247D02*
X66373476Y-54112342D01*
X66373476Y-54112342D02*
X66421095Y-54207580D01*
X66421095Y-54207580D02*
X66468714Y-54255200D01*
X66468714Y-54255200D02*
X66563952Y-54302819D01*
X66563952Y-54302819D02*
X66849666Y-54302819D01*
X66849666Y-54302819D02*
X66944904Y-54255200D01*
X66944904Y-54255200D02*
X66992523Y-54207580D01*
%TO.C,C22*%
X92209857Y-42142580D02*
X92257476Y-42190200D01*
X92257476Y-42190200D02*
X92400333Y-42237819D01*
X92400333Y-42237819D02*
X92495571Y-42237819D01*
X92495571Y-42237819D02*
X92638428Y-42190200D01*
X92638428Y-42190200D02*
X92733666Y-42094961D01*
X92733666Y-42094961D02*
X92781285Y-41999723D01*
X92781285Y-41999723D02*
X92828904Y-41809247D01*
X92828904Y-41809247D02*
X92828904Y-41666390D01*
X92828904Y-41666390D02*
X92781285Y-41475914D01*
X92781285Y-41475914D02*
X92733666Y-41380676D01*
X92733666Y-41380676D02*
X92638428Y-41285438D01*
X92638428Y-41285438D02*
X92495571Y-41237819D01*
X92495571Y-41237819D02*
X92400333Y-41237819D01*
X92400333Y-41237819D02*
X92257476Y-41285438D01*
X92257476Y-41285438D02*
X92209857Y-41333057D01*
X91828904Y-41333057D02*
X91781285Y-41285438D01*
X91781285Y-41285438D02*
X91686047Y-41237819D01*
X91686047Y-41237819D02*
X91447952Y-41237819D01*
X91447952Y-41237819D02*
X91352714Y-41285438D01*
X91352714Y-41285438D02*
X91305095Y-41333057D01*
X91305095Y-41333057D02*
X91257476Y-41428295D01*
X91257476Y-41428295D02*
X91257476Y-41523533D01*
X91257476Y-41523533D02*
X91305095Y-41666390D01*
X91305095Y-41666390D02*
X91876523Y-42237819D01*
X91876523Y-42237819D02*
X91257476Y-42237819D01*
X90876523Y-41333057D02*
X90828904Y-41285438D01*
X90828904Y-41285438D02*
X90733666Y-41237819D01*
X90733666Y-41237819D02*
X90495571Y-41237819D01*
X90495571Y-41237819D02*
X90400333Y-41285438D01*
X90400333Y-41285438D02*
X90352714Y-41333057D01*
X90352714Y-41333057D02*
X90305095Y-41428295D01*
X90305095Y-41428295D02*
X90305095Y-41523533D01*
X90305095Y-41523533D02*
X90352714Y-41666390D01*
X90352714Y-41666390D02*
X90924142Y-42237819D01*
X90924142Y-42237819D02*
X90305095Y-42237819D01*
%TO.C,Y1*%
X67659190Y-60176628D02*
X67659190Y-60652819D01*
X67992523Y-59652819D02*
X67659190Y-60176628D01*
X67659190Y-60176628D02*
X67325857Y-59652819D01*
X66468714Y-60652819D02*
X67040142Y-60652819D01*
X66754428Y-60652819D02*
X66754428Y-59652819D01*
X66754428Y-59652819D02*
X66849666Y-59795676D01*
X66849666Y-59795676D02*
X66944904Y-59890914D01*
X66944904Y-59890914D02*
X67040142Y-59938533D01*
%TO.C,F1*%
X60256009Y-33321666D02*
X60256009Y-32988333D01*
X60779819Y-32988333D02*
X59779819Y-32988333D01*
X59779819Y-32988333D02*
X59779819Y-33464523D01*
X60779819Y-34369285D02*
X60779819Y-33797857D01*
X60779819Y-34083571D02*
X59779819Y-34083571D01*
X59779819Y-34083571D02*
X59922676Y-33988333D01*
X59922676Y-33988333D02*
X60017914Y-33893095D01*
X60017914Y-33893095D02*
X60065533Y-33797857D01*
%TO.C,C23*%
X35059857Y-54969580D02*
X35107476Y-55017200D01*
X35107476Y-55017200D02*
X35250333Y-55064819D01*
X35250333Y-55064819D02*
X35345571Y-55064819D01*
X35345571Y-55064819D02*
X35488428Y-55017200D01*
X35488428Y-55017200D02*
X35583666Y-54921961D01*
X35583666Y-54921961D02*
X35631285Y-54826723D01*
X35631285Y-54826723D02*
X35678904Y-54636247D01*
X35678904Y-54636247D02*
X35678904Y-54493390D01*
X35678904Y-54493390D02*
X35631285Y-54302914D01*
X35631285Y-54302914D02*
X35583666Y-54207676D01*
X35583666Y-54207676D02*
X35488428Y-54112438D01*
X35488428Y-54112438D02*
X35345571Y-54064819D01*
X35345571Y-54064819D02*
X35250333Y-54064819D01*
X35250333Y-54064819D02*
X35107476Y-54112438D01*
X35107476Y-54112438D02*
X35059857Y-54160057D01*
X34678904Y-54160057D02*
X34631285Y-54112438D01*
X34631285Y-54112438D02*
X34536047Y-54064819D01*
X34536047Y-54064819D02*
X34297952Y-54064819D01*
X34297952Y-54064819D02*
X34202714Y-54112438D01*
X34202714Y-54112438D02*
X34155095Y-54160057D01*
X34155095Y-54160057D02*
X34107476Y-54255295D01*
X34107476Y-54255295D02*
X34107476Y-54350533D01*
X34107476Y-54350533D02*
X34155095Y-54493390D01*
X34155095Y-54493390D02*
X34726523Y-55064819D01*
X34726523Y-55064819D02*
X34107476Y-55064819D01*
X33774142Y-54064819D02*
X33155095Y-54064819D01*
X33155095Y-54064819D02*
X33488428Y-54445771D01*
X33488428Y-54445771D02*
X33345571Y-54445771D01*
X33345571Y-54445771D02*
X33250333Y-54493390D01*
X33250333Y-54493390D02*
X33202714Y-54541009D01*
X33202714Y-54541009D02*
X33155095Y-54636247D01*
X33155095Y-54636247D02*
X33155095Y-54874342D01*
X33155095Y-54874342D02*
X33202714Y-54969580D01*
X33202714Y-54969580D02*
X33250333Y-55017200D01*
X33250333Y-55017200D02*
X33345571Y-55064819D01*
X33345571Y-55064819D02*
X33631285Y-55064819D01*
X33631285Y-55064819D02*
X33726523Y-55017200D01*
X33726523Y-55017200D02*
X33774142Y-54969580D01*
%TO.C,J1*%
X67008333Y-30569819D02*
X67008333Y-31284104D01*
X67008333Y-31284104D02*
X67055952Y-31426961D01*
X67055952Y-31426961D02*
X67151190Y-31522200D01*
X67151190Y-31522200D02*
X67294047Y-31569819D01*
X67294047Y-31569819D02*
X67389285Y-31569819D01*
X66008333Y-31569819D02*
X66579761Y-31569819D01*
X66294047Y-31569819D02*
X66294047Y-30569819D01*
X66294047Y-30569819D02*
X66389285Y-30712676D01*
X66389285Y-30712676D02*
X66484523Y-30807914D01*
X66484523Y-30807914D02*
X66579761Y-30855533D01*
%TO.C,R6*%
X34583666Y-40967819D02*
X34916999Y-40491628D01*
X35155094Y-40967819D02*
X35155094Y-39967819D01*
X35155094Y-39967819D02*
X34774142Y-39967819D01*
X34774142Y-39967819D02*
X34678904Y-40015438D01*
X34678904Y-40015438D02*
X34631285Y-40063057D01*
X34631285Y-40063057D02*
X34583666Y-40158295D01*
X34583666Y-40158295D02*
X34583666Y-40301152D01*
X34583666Y-40301152D02*
X34631285Y-40396390D01*
X34631285Y-40396390D02*
X34678904Y-40444009D01*
X34678904Y-40444009D02*
X34774142Y-40491628D01*
X34774142Y-40491628D02*
X35155094Y-40491628D01*
X33726523Y-39967819D02*
X33916999Y-39967819D01*
X33916999Y-39967819D02*
X34012237Y-40015438D01*
X34012237Y-40015438D02*
X34059856Y-40063057D01*
X34059856Y-40063057D02*
X34155094Y-40205914D01*
X34155094Y-40205914D02*
X34202713Y-40396390D01*
X34202713Y-40396390D02*
X34202713Y-40777342D01*
X34202713Y-40777342D02*
X34155094Y-40872580D01*
X34155094Y-40872580D02*
X34107475Y-40920200D01*
X34107475Y-40920200D02*
X34012237Y-40967819D01*
X34012237Y-40967819D02*
X33821761Y-40967819D01*
X33821761Y-40967819D02*
X33726523Y-40920200D01*
X33726523Y-40920200D02*
X33678904Y-40872580D01*
X33678904Y-40872580D02*
X33631285Y-40777342D01*
X33631285Y-40777342D02*
X33631285Y-40539247D01*
X33631285Y-40539247D02*
X33678904Y-40444009D01*
X33678904Y-40444009D02*
X33726523Y-40396390D01*
X33726523Y-40396390D02*
X33821761Y-40348771D01*
X33821761Y-40348771D02*
X34012237Y-40348771D01*
X34012237Y-40348771D02*
X34107475Y-40396390D01*
X34107475Y-40396390D02*
X34155094Y-40444009D01*
X34155094Y-40444009D02*
X34202713Y-40539247D01*
%TO.C,HALL7*%
X78199999Y-60398819D02*
X78199999Y-59398819D01*
X78199999Y-59875009D02*
X77628571Y-59875009D01*
X77628571Y-60398819D02*
X77628571Y-59398819D01*
X77199999Y-60113104D02*
X76723809Y-60113104D01*
X77295237Y-60398819D02*
X76961904Y-59398819D01*
X76961904Y-59398819D02*
X76628571Y-60398819D01*
X75819047Y-60398819D02*
X76295237Y-60398819D01*
X76295237Y-60398819D02*
X76295237Y-59398819D01*
X75009523Y-60398819D02*
X75485713Y-60398819D01*
X75485713Y-60398819D02*
X75485713Y-59398819D01*
X74771427Y-59398819D02*
X74104761Y-59398819D01*
X74104761Y-59398819D02*
X74533332Y-60398819D01*
%TO.C,HALL6*%
X59149999Y-60398819D02*
X59149999Y-59398819D01*
X59149999Y-59875009D02*
X58578571Y-59875009D01*
X58578571Y-60398819D02*
X58578571Y-59398819D01*
X58149999Y-60113104D02*
X57673809Y-60113104D01*
X58245237Y-60398819D02*
X57911904Y-59398819D01*
X57911904Y-59398819D02*
X57578571Y-60398819D01*
X56769047Y-60398819D02*
X57245237Y-60398819D01*
X57245237Y-60398819D02*
X57245237Y-59398819D01*
X55959523Y-60398819D02*
X56435713Y-60398819D01*
X56435713Y-60398819D02*
X56435713Y-59398819D01*
X55197618Y-59398819D02*
X55388094Y-59398819D01*
X55388094Y-59398819D02*
X55483332Y-59446438D01*
X55483332Y-59446438D02*
X55530951Y-59494057D01*
X55530951Y-59494057D02*
X55626189Y-59636914D01*
X55626189Y-59636914D02*
X55673808Y-59827390D01*
X55673808Y-59827390D02*
X55673808Y-60208342D01*
X55673808Y-60208342D02*
X55626189Y-60303580D01*
X55626189Y-60303580D02*
X55578570Y-60351200D01*
X55578570Y-60351200D02*
X55483332Y-60398819D01*
X55483332Y-60398819D02*
X55292856Y-60398819D01*
X55292856Y-60398819D02*
X55197618Y-60351200D01*
X55197618Y-60351200D02*
X55149999Y-60303580D01*
X55149999Y-60303580D02*
X55102380Y-60208342D01*
X55102380Y-60208342D02*
X55102380Y-59970247D01*
X55102380Y-59970247D02*
X55149999Y-59875009D01*
X55149999Y-59875009D02*
X55197618Y-59827390D01*
X55197618Y-59827390D02*
X55292856Y-59779771D01*
X55292856Y-59779771D02*
X55483332Y-59779771D01*
X55483332Y-59779771D02*
X55578570Y-59827390D01*
X55578570Y-59827390D02*
X55626189Y-59875009D01*
X55626189Y-59875009D02*
X55673808Y-59970247D01*
%TO.C,C24*%
X42425856Y-53826580D02*
X42473475Y-53874200D01*
X42473475Y-53874200D02*
X42616332Y-53921819D01*
X42616332Y-53921819D02*
X42711570Y-53921819D01*
X42711570Y-53921819D02*
X42854427Y-53874200D01*
X42854427Y-53874200D02*
X42949665Y-53778961D01*
X42949665Y-53778961D02*
X42997284Y-53683723D01*
X42997284Y-53683723D02*
X43044903Y-53493247D01*
X43044903Y-53493247D02*
X43044903Y-53350390D01*
X43044903Y-53350390D02*
X42997284Y-53159914D01*
X42997284Y-53159914D02*
X42949665Y-53064676D01*
X42949665Y-53064676D02*
X42854427Y-52969438D01*
X42854427Y-52969438D02*
X42711570Y-52921819D01*
X42711570Y-52921819D02*
X42616332Y-52921819D01*
X42616332Y-52921819D02*
X42473475Y-52969438D01*
X42473475Y-52969438D02*
X42425856Y-53017057D01*
X42044903Y-53017057D02*
X41997284Y-52969438D01*
X41997284Y-52969438D02*
X41902046Y-52921819D01*
X41902046Y-52921819D02*
X41663951Y-52921819D01*
X41663951Y-52921819D02*
X41568713Y-52969438D01*
X41568713Y-52969438D02*
X41521094Y-53017057D01*
X41521094Y-53017057D02*
X41473475Y-53112295D01*
X41473475Y-53112295D02*
X41473475Y-53207533D01*
X41473475Y-53207533D02*
X41521094Y-53350390D01*
X41521094Y-53350390D02*
X42092522Y-53921819D01*
X42092522Y-53921819D02*
X41473475Y-53921819D01*
X40616332Y-53255152D02*
X40616332Y-53921819D01*
X40854427Y-52874200D02*
X41092522Y-53588485D01*
X41092522Y-53588485D02*
X40473475Y-53588485D01*
%TO.C,R12*%
X80525856Y-55191819D02*
X80859189Y-54715628D01*
X81097284Y-55191819D02*
X81097284Y-54191819D01*
X81097284Y-54191819D02*
X80716332Y-54191819D01*
X80716332Y-54191819D02*
X80621094Y-54239438D01*
X80621094Y-54239438D02*
X80573475Y-54287057D01*
X80573475Y-54287057D02*
X80525856Y-54382295D01*
X80525856Y-54382295D02*
X80525856Y-54525152D01*
X80525856Y-54525152D02*
X80573475Y-54620390D01*
X80573475Y-54620390D02*
X80621094Y-54668009D01*
X80621094Y-54668009D02*
X80716332Y-54715628D01*
X80716332Y-54715628D02*
X81097284Y-54715628D01*
X79573475Y-55191819D02*
X80144903Y-55191819D01*
X79859189Y-55191819D02*
X79859189Y-54191819D01*
X79859189Y-54191819D02*
X79954427Y-54334676D01*
X79954427Y-54334676D02*
X80049665Y-54429914D01*
X80049665Y-54429914D02*
X80144903Y-54477533D01*
X79192522Y-54287057D02*
X79144903Y-54239438D01*
X79144903Y-54239438D02*
X79049665Y-54191819D01*
X79049665Y-54191819D02*
X78811570Y-54191819D01*
X78811570Y-54191819D02*
X78716332Y-54239438D01*
X78716332Y-54239438D02*
X78668713Y-54287057D01*
X78668713Y-54287057D02*
X78621094Y-54382295D01*
X78621094Y-54382295D02*
X78621094Y-54477533D01*
X78621094Y-54477533D02*
X78668713Y-54620390D01*
X78668713Y-54620390D02*
X79240141Y-55191819D01*
X79240141Y-55191819D02*
X78621094Y-55191819D01*
%TO.C,C28*%
X80525856Y-53826580D02*
X80573475Y-53874200D01*
X80573475Y-53874200D02*
X80716332Y-53921819D01*
X80716332Y-53921819D02*
X80811570Y-53921819D01*
X80811570Y-53921819D02*
X80954427Y-53874200D01*
X80954427Y-53874200D02*
X81049665Y-53778961D01*
X81049665Y-53778961D02*
X81097284Y-53683723D01*
X81097284Y-53683723D02*
X81144903Y-53493247D01*
X81144903Y-53493247D02*
X81144903Y-53350390D01*
X81144903Y-53350390D02*
X81097284Y-53159914D01*
X81097284Y-53159914D02*
X81049665Y-53064676D01*
X81049665Y-53064676D02*
X80954427Y-52969438D01*
X80954427Y-52969438D02*
X80811570Y-52921819D01*
X80811570Y-52921819D02*
X80716332Y-52921819D01*
X80716332Y-52921819D02*
X80573475Y-52969438D01*
X80573475Y-52969438D02*
X80525856Y-53017057D01*
X80144903Y-53017057D02*
X80097284Y-52969438D01*
X80097284Y-52969438D02*
X80002046Y-52921819D01*
X80002046Y-52921819D02*
X79763951Y-52921819D01*
X79763951Y-52921819D02*
X79668713Y-52969438D01*
X79668713Y-52969438D02*
X79621094Y-53017057D01*
X79621094Y-53017057D02*
X79573475Y-53112295D01*
X79573475Y-53112295D02*
X79573475Y-53207533D01*
X79573475Y-53207533D02*
X79621094Y-53350390D01*
X79621094Y-53350390D02*
X80192522Y-53921819D01*
X80192522Y-53921819D02*
X79573475Y-53921819D01*
X79002046Y-53350390D02*
X79097284Y-53302771D01*
X79097284Y-53302771D02*
X79144903Y-53255152D01*
X79144903Y-53255152D02*
X79192522Y-53159914D01*
X79192522Y-53159914D02*
X79192522Y-53112295D01*
X79192522Y-53112295D02*
X79144903Y-53017057D01*
X79144903Y-53017057D02*
X79097284Y-52969438D01*
X79097284Y-52969438D02*
X79002046Y-52921819D01*
X79002046Y-52921819D02*
X78811570Y-52921819D01*
X78811570Y-52921819D02*
X78716332Y-52969438D01*
X78716332Y-52969438D02*
X78668713Y-53017057D01*
X78668713Y-53017057D02*
X78621094Y-53112295D01*
X78621094Y-53112295D02*
X78621094Y-53159914D01*
X78621094Y-53159914D02*
X78668713Y-53255152D01*
X78668713Y-53255152D02*
X78716332Y-53302771D01*
X78716332Y-53302771D02*
X78811570Y-53350390D01*
X78811570Y-53350390D02*
X79002046Y-53350390D01*
X79002046Y-53350390D02*
X79097284Y-53398009D01*
X79097284Y-53398009D02*
X79144903Y-53445628D01*
X79144903Y-53445628D02*
X79192522Y-53540866D01*
X79192522Y-53540866D02*
X79192522Y-53731342D01*
X79192522Y-53731342D02*
X79144903Y-53826580D01*
X79144903Y-53826580D02*
X79097284Y-53874200D01*
X79097284Y-53874200D02*
X79002046Y-53921819D01*
X79002046Y-53921819D02*
X78811570Y-53921819D01*
X78811570Y-53921819D02*
X78716332Y-53874200D01*
X78716332Y-53874200D02*
X78668713Y-53826580D01*
X78668713Y-53826580D02*
X78621094Y-53731342D01*
X78621094Y-53731342D02*
X78621094Y-53540866D01*
X78621094Y-53540866D02*
X78668713Y-53445628D01*
X78668713Y-53445628D02*
X78716332Y-53398009D01*
X78716332Y-53398009D02*
X78811570Y-53350390D01*
D12*
%TO.C,R5*%
X66041000Y-40740359D02*
X66041000Y-41047641D01*
X66801000Y-40740359D02*
X66801000Y-41047641D01*
%TO.C,HALL2*%
X55590000Y-38100000D02*
X55590000Y-38750000D01*
X55590000Y-38100000D02*
X55590000Y-37450000D01*
X58710000Y-38100000D02*
X58710000Y-39775000D01*
X58710000Y-38100000D02*
X58710000Y-37450000D01*
%TO.C,R8*%
X75030359Y-40260000D02*
X75337641Y-40260000D01*
X75030359Y-41020000D02*
X75337641Y-41020000D01*
%TO.C,C15*%
X39223836Y-41000000D02*
X39008164Y-41000000D01*
X39223836Y-40280000D02*
X39008164Y-40280000D01*
%TO.C,C14*%
X69321000Y-53740164D02*
X69321000Y-53955836D01*
X68601000Y-53740164D02*
X68601000Y-53955836D01*
%TO.C,C9*%
X71608836Y-51795000D02*
X71393164Y-51795000D01*
X71608836Y-51075000D02*
X71393164Y-51075000D01*
%TO.C,SW2*%
X88475000Y-56150000D02*
X88475000Y-58150000D01*
X87425000Y-59450000D02*
X86975000Y-59900000D01*
X87425000Y-54850000D02*
X86975000Y-54400000D01*
X86975000Y-59900000D02*
X84475000Y-59900000D01*
X86975000Y-54400000D02*
X84475000Y-54400000D01*
X84025000Y-59450000D02*
X84475000Y-59900000D01*
X84025000Y-54850000D02*
X84475000Y-54400000D01*
X82975000Y-56150000D02*
X82975000Y-58150000D01*
%TO.C,C29*%
X94126164Y-54250000D02*
X94341836Y-54250000D01*
X94126164Y-54970000D02*
X94341836Y-54970000D01*
%TO.C,U1*%
X47625000Y-32730000D02*
X46975000Y-32730000D01*
X47625000Y-32730000D02*
X48275000Y-32730000D01*
X47625000Y-35850000D02*
X45950000Y-35850000D01*
X47625000Y-35850000D02*
X48275000Y-35850000D01*
%TO.C,R2*%
X68479641Y-37337000D02*
X68172359Y-37337000D01*
X68479641Y-36577000D02*
X68172359Y-36577000D01*
%TO.C,HALL1*%
X36540000Y-38100000D02*
X36540000Y-38750000D01*
X36540000Y-38100000D02*
X36540000Y-37450000D01*
X39660000Y-38100000D02*
X39660000Y-39775000D01*
X39660000Y-38100000D02*
X39660000Y-37450000D01*
%TO.C,C18*%
X56241836Y-42016000D02*
X56026164Y-42016000D01*
X56241836Y-41296000D02*
X56026164Y-41296000D01*
%TO.C,C3*%
X45439000Y-34028748D02*
X45439000Y-34551252D01*
X43969000Y-34028748D02*
X43969000Y-34551252D01*
%TO.C,C11*%
X65765000Y-53740164D02*
X65765000Y-53955836D01*
X65045000Y-53740164D02*
X65045000Y-53955836D01*
%TO.C,C5*%
X61741164Y-42439000D02*
X61956836Y-42439000D01*
X61741164Y-43159000D02*
X61956836Y-43159000D01*
D13*
%TO.C,U2*%
X69753000Y-41910000D02*
X69753000Y-40294000D01*
X67153000Y-41494000D02*
X67153000Y-40294000D01*
D12*
%TO.C,C25*%
X56026164Y-54250000D02*
X56241836Y-54250000D01*
X56026164Y-54970000D02*
X56241836Y-54970000D01*
%TO.C,C21*%
X96373836Y-41000000D02*
X96158164Y-41000000D01*
X96373836Y-40280000D02*
X96158164Y-40280000D01*
%TO.C,R7*%
X55980359Y-40260000D02*
X56287641Y-40260000D01*
X55980359Y-41020000D02*
X56287641Y-41020000D01*
%TO.C,C7*%
X71861000Y-42691164D02*
X71861000Y-42906836D01*
X71141000Y-42691164D02*
X71141000Y-42906836D01*
%TO.C,C27*%
X75076164Y-54250000D02*
X75291836Y-54250000D01*
X75076164Y-54970000D02*
X75291836Y-54970000D01*
%TO.C,R10*%
X39269640Y-54990000D02*
X38962358Y-54990000D01*
X39269640Y-54230000D02*
X38962358Y-54230000D01*
%TO.C,C16*%
X37191836Y-42016000D02*
X36976164Y-42016000D01*
X37191836Y-41296000D02*
X36976164Y-41296000D01*
%TO.C,HALL4*%
X93690000Y-38100000D02*
X93690000Y-38750000D01*
X93690000Y-38100000D02*
X93690000Y-37450000D01*
X96810000Y-38100000D02*
X96810000Y-39775000D01*
X96810000Y-38100000D02*
X96810000Y-37450000D01*
%TO.C,C2*%
X49811000Y-34551252D02*
X49811000Y-34028748D01*
X51281000Y-34551252D02*
X51281000Y-34028748D01*
%TO.C,HALL3*%
X74640000Y-38100000D02*
X74640000Y-38750000D01*
X74640000Y-38100000D02*
X74640000Y-37450000D01*
X77760000Y-38100000D02*
X77760000Y-39775000D01*
X77760000Y-38100000D02*
X77760000Y-37450000D01*
%TO.C,R9*%
X94080359Y-40260000D02*
X94387641Y-40260000D01*
X94080359Y-41020000D02*
X94387641Y-41020000D01*
%TO.C,HALL5*%
X39660000Y-57150000D02*
X39660000Y-56500000D01*
X39660000Y-57150000D02*
X39660000Y-57800000D01*
X36540000Y-57150000D02*
X36540000Y-55475000D01*
X36540000Y-57150000D02*
X36540000Y-57800000D01*
%TO.C,J2*%
X87055000Y-43240000D02*
X84395000Y-43240000D01*
X87055000Y-35560000D02*
X87055000Y-43240000D01*
X87055000Y-35560000D02*
X84395000Y-35560000D01*
X85725000Y-32960000D02*
X84395000Y-32960000D01*
X84395000Y-35560000D02*
X84395000Y-43240000D01*
X84395000Y-32960000D02*
X84395000Y-34290000D01*
%TO.C,C19*%
X77323836Y-41000000D02*
X77108164Y-41000000D01*
X77323836Y-40280000D02*
X77108164Y-40280000D01*
%TO.C,C30*%
X96158163Y-53234000D02*
X96373835Y-53234000D01*
X96158163Y-53954000D02*
X96373835Y-53954000D01*
%TO.C,R4*%
X83211641Y-53974000D02*
X82904359Y-53974000D01*
X83211641Y-53214000D02*
X82904359Y-53214000D01*
%TO.C,R11*%
X58319640Y-54990000D02*
X58012358Y-54990000D01*
X58319640Y-54230000D02*
X58012358Y-54230000D01*
%TO.C,C17*%
X58273836Y-41000000D02*
X58058164Y-41000000D01*
X58273836Y-40280000D02*
X58058164Y-40280000D01*
%TO.C,R3*%
X65431641Y-37337000D02*
X65124359Y-37337000D01*
X65431641Y-36577000D02*
X65124359Y-36577000D01*
%TO.C,R13*%
X96419640Y-54990000D02*
X96112358Y-54990000D01*
X96419640Y-54230000D02*
X96112358Y-54230000D01*
%TO.C,C26*%
X58058163Y-53234000D02*
X58273835Y-53234000D01*
X58058163Y-53954000D02*
X58273835Y-53954000D01*
%TO.C,C20*%
X75291836Y-42016000D02*
X75076164Y-42016000D01*
X75291836Y-41296000D02*
X75076164Y-41296000D01*
%TO.C,HALL8*%
X96810000Y-57150000D02*
X96810000Y-56500000D01*
X96810000Y-57150000D02*
X96810000Y-57800000D01*
X93690000Y-57150000D02*
X93690000Y-55475000D01*
X93690000Y-57150000D02*
X93690000Y-57800000D01*
%TO.C,U3*%
X63065000Y-51235000D02*
X63515000Y-51235000D01*
X69835000Y-51235000D02*
X69835000Y-52525000D01*
X70285000Y-51235000D02*
X69835000Y-51235000D01*
X63065000Y-50785000D02*
X63065000Y-51235000D01*
X70285000Y-50785000D02*
X70285000Y-51235000D01*
X63065000Y-44465000D02*
X63065000Y-44015000D01*
X70285000Y-44465000D02*
X70285000Y-44015000D01*
X63065000Y-44015000D02*
X63515000Y-44015000D01*
X70285000Y-44015000D02*
X69835000Y-44015000D01*
%TO.C,C22*%
X94341836Y-42016000D02*
X94126164Y-42016000D01*
X94341836Y-41296000D02*
X94126164Y-41296000D01*
%TO.C,Y1*%
X69183000Y-59308000D02*
X65183000Y-59308000D01*
X69183000Y-56008000D02*
X69183000Y-59308000D01*
%TO.C,F1*%
X57752064Y-34565000D02*
X56547936Y-34565000D01*
X57752064Y-32745000D02*
X56547936Y-32745000D01*
%TO.C,C23*%
X36976164Y-54250000D02*
X37191836Y-54250000D01*
X36976164Y-54970000D02*
X37191836Y-54970000D01*
%TO.C,J1*%
X61975000Y-33015000D02*
X61975000Y-31015000D01*
X71375000Y-33015000D02*
X71375000Y-31015000D01*
%TO.C,C10*%
X64749000Y-53740164D02*
X64749000Y-53955836D01*
X64029000Y-53740164D02*
X64029000Y-53955836D01*
%TO.C,R6*%
X36930359Y-40260000D02*
X37237641Y-40260000D01*
X36930359Y-41020000D02*
X37237641Y-41020000D01*
%TO.C,C13*%
X66274836Y-55732000D02*
X66059164Y-55732000D01*
X66274836Y-55012000D02*
X66059164Y-55012000D01*
%TO.C,HALL7*%
X77760000Y-57150000D02*
X77760000Y-56500000D01*
X77760000Y-57150000D02*
X77760000Y-57800000D01*
X74640000Y-57150000D02*
X74640000Y-55475000D01*
X74640000Y-57150000D02*
X74640000Y-57800000D01*
%TO.C,C4*%
X70758164Y-52218000D02*
X70973836Y-52218000D01*
X70758164Y-52938000D02*
X70973836Y-52938000D01*
%TO.C,C6*%
X61741164Y-43455000D02*
X61956836Y-43455000D01*
X61741164Y-44175000D02*
X61956836Y-44175000D01*
%TO.C,HALL6*%
X58710000Y-57150000D02*
X58710000Y-56500000D01*
X58710000Y-57150000D02*
X58710000Y-57800000D01*
X55590000Y-57150000D02*
X55590000Y-55475000D01*
X55590000Y-57150000D02*
X55590000Y-57800000D01*
%TO.C,C24*%
X39008163Y-53234000D02*
X39223835Y-53234000D01*
X39008163Y-53954000D02*
X39223835Y-53954000D01*
%TO.C,C8*%
X70845000Y-42691164D02*
X70845000Y-42906836D01*
X70125000Y-42691164D02*
X70125000Y-42906836D01*
%TO.C,C12*%
X68306836Y-55732000D02*
X68091164Y-55732000D01*
X68306836Y-55012000D02*
X68091164Y-55012000D01*
%TO.C,R12*%
X77369640Y-54990000D02*
X77062358Y-54990000D01*
X77369640Y-54230000D02*
X77062358Y-54230000D01*
%TO.C,C28*%
X77108163Y-53234000D02*
X77323835Y-53234000D01*
X77108163Y-53954000D02*
X77323835Y-53954000D01*
%TD*%
%LPC*%
D14*
%TO.C,R5*%
X66421000Y-40384000D03*
X66421000Y-41404000D03*
%TD*%
D15*
%TO.C,H_SW2*%
X52070000Y-38100000D03*
X62230000Y-38100000D03*
%TD*%
D16*
%TO.C,H1*%
X47625000Y-47625000D03*
%TD*%
D15*
%TO.C,H_SW3*%
X71120000Y-38100000D03*
X81280000Y-38100000D03*
%TD*%
%TO.C,H_SW5*%
X43180000Y-57150000D03*
X33020000Y-57150000D03*
%TD*%
%TO.C,H_SW1*%
X33020000Y-38100000D03*
X43180000Y-38100000D03*
%TD*%
%TO.C,H_SW7*%
X81280000Y-57150000D03*
X71120000Y-57150000D03*
%TD*%
%TO.C,H_SW4*%
X90170000Y-38100000D03*
X100330000Y-38100000D03*
%TD*%
%TO.C,H_SW6*%
X62230000Y-57150000D03*
X52070000Y-57150000D03*
%TD*%
D16*
%TO.C,H2*%
X85725000Y-47625000D03*
%TD*%
D15*
%TO.C,H_SW8*%
X100330000Y-57150000D03*
X90170000Y-57150000D03*
%TD*%
D17*
%TO.C,HALL2*%
X58100000Y-39037500D03*
X56200000Y-39037500D03*
X57150000Y-37162500D03*
%TD*%
D18*
%TO.C,R8*%
X74674000Y-40640000D03*
X75694000Y-40640000D03*
%TD*%
D19*
%TO.C,C15*%
X39596000Y-40640000D03*
X38636000Y-40640000D03*
%TD*%
D20*
%TO.C,C14*%
X68961000Y-53368000D03*
X68961000Y-54328000D03*
%TD*%
D19*
%TO.C,C9*%
X71981000Y-51435000D03*
X71021000Y-51435000D03*
%TD*%
D21*
%TO.C,SW2*%
X88875000Y-55250000D03*
X82575000Y-55250000D03*
X88875000Y-59050000D03*
X82575000Y-59050000D03*
%TD*%
D22*
%TO.C,C29*%
X93754000Y-54610000D03*
X94714000Y-54610000D03*
%TD*%
D23*
%TO.C,U1*%
X46687500Y-35240000D03*
X46687500Y-33340000D03*
X48562500Y-34290000D03*
%TD*%
D24*
%TO.C,R2*%
X68836000Y-36957000D03*
X67816000Y-36957000D03*
%TD*%
D17*
%TO.C,HALL1*%
X39050000Y-39037500D03*
X37150000Y-39037500D03*
X38100000Y-37162500D03*
%TD*%
D19*
%TO.C,C18*%
X56614000Y-41656000D03*
X55654000Y-41656000D03*
%TD*%
D25*
%TO.C,C3*%
X44704000Y-33340000D03*
X44704000Y-35240000D03*
%TD*%
D20*
%TO.C,C11*%
X65405000Y-53368000D03*
X65405000Y-54328000D03*
%TD*%
D22*
%TO.C,C5*%
X61369000Y-42799000D03*
X62329000Y-42799000D03*
%TD*%
D26*
%TO.C,U2*%
X69453000Y-41331500D03*
X68953000Y-41331500D03*
D27*
X68453000Y-41281500D03*
D26*
X67953000Y-41331500D03*
X67453000Y-41331500D03*
X67453000Y-40456500D03*
X67953000Y-40456500D03*
D27*
X68453000Y-40506500D03*
D26*
X68953000Y-40456500D03*
X69453000Y-40456500D03*
%TD*%
D22*
%TO.C,C25*%
X55654000Y-54610000D03*
X56614000Y-54610000D03*
%TD*%
D19*
%TO.C,C21*%
X96746000Y-40640000D03*
X95786000Y-40640000D03*
%TD*%
D18*
%TO.C,R7*%
X55624000Y-40640000D03*
X56644000Y-40640000D03*
%TD*%
D20*
%TO.C,C7*%
X71501000Y-42319000D03*
X71501000Y-43279000D03*
%TD*%
D22*
%TO.C,C27*%
X74704000Y-54610000D03*
X75664000Y-54610000D03*
%TD*%
D24*
%TO.C,R10*%
X39625999Y-54610000D03*
X38605999Y-54610000D03*
%TD*%
D19*
%TO.C,C16*%
X37564000Y-41656000D03*
X36604000Y-41656000D03*
%TD*%
D17*
%TO.C,HALL4*%
X96200000Y-39037500D03*
X94300000Y-39037500D03*
X95250000Y-37162500D03*
%TD*%
D28*
%TO.C,C2*%
X50546000Y-35240000D03*
X50546000Y-33340000D03*
%TD*%
D17*
%TO.C,HALL3*%
X77150000Y-39037500D03*
X75250000Y-39037500D03*
X76200000Y-37162500D03*
%TD*%
D18*
%TO.C,R9*%
X93724000Y-40640000D03*
X94744000Y-40640000D03*
%TD*%
D29*
%TO.C,HALL5*%
X37150000Y-56212500D03*
X39050000Y-56212500D03*
X38100000Y-58087500D03*
%TD*%
D30*
%TO.C,J2*%
X85725000Y-34290000D03*
D31*
X85725000Y-36830000D03*
X85725000Y-39370000D03*
X85725000Y-41910000D03*
%TD*%
D19*
%TO.C,C19*%
X77696000Y-40640000D03*
X76736000Y-40640000D03*
%TD*%
D22*
%TO.C,C30*%
X95785999Y-53594000D03*
X96745999Y-53594000D03*
%TD*%
D24*
%TO.C,R4*%
X83568000Y-53594000D03*
X82548000Y-53594000D03*
%TD*%
%TO.C,R11*%
X58675999Y-54610000D03*
X57655999Y-54610000D03*
%TD*%
D19*
%TO.C,C17*%
X58646000Y-40640000D03*
X57686000Y-40640000D03*
%TD*%
D24*
%TO.C,R3*%
X65788000Y-36957000D03*
X64768000Y-36957000D03*
%TD*%
%TO.C,R13*%
X96775999Y-54610000D03*
X95755999Y-54610000D03*
%TD*%
D22*
%TO.C,C26*%
X57685999Y-53594000D03*
X58645999Y-53594000D03*
%TD*%
D19*
%TO.C,C20*%
X75664000Y-41656000D03*
X74704000Y-41656000D03*
%TD*%
D29*
%TO.C,HALL8*%
X94300000Y-56212500D03*
X96200000Y-56212500D03*
X95250000Y-58087500D03*
%TD*%
D32*
%TO.C,U3*%
X69425000Y-51787500D03*
X68925000Y-51787500D03*
X68425000Y-51787500D03*
X67925000Y-51787500D03*
X67425000Y-51787500D03*
X66925000Y-51787500D03*
X66425000Y-51787500D03*
X65925000Y-51787500D03*
X65425000Y-51787500D03*
X64925000Y-51787500D03*
X64425000Y-51787500D03*
X63925000Y-51787500D03*
D33*
X62512500Y-50375000D03*
X62512500Y-49875000D03*
X62512500Y-49375000D03*
X62512500Y-48875000D03*
X62512500Y-48375000D03*
X62512500Y-47875000D03*
X62512500Y-47375000D03*
X62512500Y-46875000D03*
X62512500Y-46375000D03*
X62512500Y-45875000D03*
X62512500Y-45375000D03*
X62512500Y-44875000D03*
D32*
X63925000Y-43462500D03*
X64425000Y-43462500D03*
X64925000Y-43462500D03*
X65425000Y-43462500D03*
X65925000Y-43462500D03*
X66425000Y-43462500D03*
X66925000Y-43462500D03*
X67425000Y-43462500D03*
X67925000Y-43462500D03*
X68425000Y-43462500D03*
X68925000Y-43462500D03*
X69425000Y-43462500D03*
D33*
X70837500Y-44875000D03*
X70837500Y-45375000D03*
X70837500Y-45875000D03*
X70837500Y-46375000D03*
X70837500Y-46875000D03*
X70837500Y-47375000D03*
X70837500Y-47875000D03*
X70837500Y-48375000D03*
X70837500Y-48875000D03*
X70837500Y-49375000D03*
X70837500Y-49875000D03*
X70837500Y-50375000D03*
%TD*%
D19*
%TO.C,C22*%
X94714000Y-41656000D03*
X93754000Y-41656000D03*
%TD*%
D34*
%TO.C,Y1*%
X68283000Y-58508000D03*
X66083000Y-58508000D03*
X66083000Y-56808000D03*
X68283000Y-56808000D03*
%TD*%
D35*
%TO.C,F1*%
X58550000Y-33655000D03*
X55750000Y-33655000D03*
%TD*%
D22*
%TO.C,C23*%
X36604000Y-54610000D03*
X37564000Y-54610000D03*
%TD*%
D36*
%TO.C,J1*%
X63785000Y-33715000D03*
X69565000Y-33715000D03*
D37*
X63425000Y-35160000D03*
X64225000Y-35160000D03*
D38*
X65425000Y-35160000D03*
X66425000Y-35160000D03*
X66925000Y-35160000D03*
X67925000Y-35160000D03*
D37*
X69125000Y-35160000D03*
X69925000Y-35160000D03*
X69925000Y-35160000D03*
X69125000Y-35160000D03*
D38*
X68425000Y-35160000D03*
X67425000Y-35160000D03*
X65925000Y-35160000D03*
X64925000Y-35160000D03*
D37*
X64225000Y-35160000D03*
X63425000Y-35160000D03*
D39*
X62355000Y-30065000D03*
D40*
X62355000Y-34245000D03*
D39*
X70995000Y-30065000D03*
D40*
X70995000Y-34245000D03*
%TD*%
D20*
%TO.C,C10*%
X64389000Y-53368000D03*
X64389000Y-54328000D03*
%TD*%
D18*
%TO.C,R6*%
X36574000Y-40640000D03*
X37594000Y-40640000D03*
%TD*%
D19*
%TO.C,C13*%
X66647000Y-55372000D03*
X65687000Y-55372000D03*
%TD*%
D29*
%TO.C,HALL7*%
X75250000Y-56212500D03*
X77150000Y-56212500D03*
X76200000Y-58087500D03*
%TD*%
D22*
%TO.C,C4*%
X70386000Y-52578000D03*
X71346000Y-52578000D03*
%TD*%
%TO.C,C6*%
X61369000Y-43815000D03*
X62329000Y-43815000D03*
%TD*%
D29*
%TO.C,HALL6*%
X56200000Y-56212500D03*
X58100000Y-56212500D03*
X57150000Y-58087500D03*
%TD*%
D22*
%TO.C,C24*%
X38635999Y-53594000D03*
X39595999Y-53594000D03*
%TD*%
D20*
%TO.C,C8*%
X70485000Y-42319000D03*
X70485000Y-43279000D03*
%TD*%
D19*
%TO.C,C12*%
X68679000Y-55372000D03*
X67719000Y-55372000D03*
%TD*%
D24*
%TO.C,R12*%
X77725999Y-54610000D03*
X76705999Y-54610000D03*
%TD*%
D22*
%TO.C,C28*%
X76735999Y-53594000D03*
X77695999Y-53594000D03*
%TD*%
%LPD*%
M02*
