M48
; DRILL file {KiCad 7.0.5} date Mon Apr 29 12:28:37 2024
; FORMAT={-:-/ absolute / inch / decimal}
; #@! TF.CreationDate,2024-04-29T12:28:37+10:00
; #@! TF.GenerationSoftware,Kicad,Pcbnew,7.0.5
; #@! TF.FileFunction,Plated,1,2,PTH
FMAT,2
INCH
; #@! TA.AperFunction,Plated,PTH,ViaDrill
T1C0.0118
; #@! TA.AperFunction,Plated,PTH,ComponentDrill
T2C0.0236
; #@! TA.AperFunction,Plated,PTH,ComponentDrill
T3C0.0394
%
G90
G05
T1
X1.4789Y-2.11
X1.5Y-1.415
X1.5Y-2.335
X1.5211Y-1.64
X1.71Y-1.3874
X1.89Y-1.3874
X1.94Y-1.3874
X2.2289Y-2.11
X2.25Y-1.415
X2.25Y-2.335
X2.2711Y-1.64
X2.485Y-1.685
X2.485Y-1.725
X2.5Y-2.1389
X2.51Y-1.7864
X2.5499Y-1.49
X2.555Y-2.18
X2.555Y-2.3035
X2.61Y-2.09
X2.61Y-2.1389
X2.615Y-1.66
X2.615Y-1.76
X2.6152Y-1.99
X2.6699Y-1.4899
X2.68Y-2.09
X2.68Y-2.1389
X2.695Y-1.535
X2.7136Y-1.76
X2.735Y-2.18
X2.735Y-2.2365
X2.74Y-1.535
X2.74Y-1.655
X2.74Y-1.805
X2.74Y-1.845
X2.74Y-1.885
X2.74Y-1.925
X2.74Y-1.9636
X2.76Y-1.56
X2.765Y-2.025
X2.775Y-1.735
X2.815Y-1.735
X2.84Y-2.07
X2.85Y-1.76
X2.85Y-1.8
X2.85Y-1.84
X2.85Y-1.88
X2.85Y-1.93
X2.9789Y-2.11
X3.0Y-1.415
X3.0Y-2.335
X3.0211Y-1.64
X3.32Y-2.11
X3.7289Y-2.11
X3.75Y-1.415
X3.75Y-2.335
X3.7711Y-1.64
T3
X3.375Y-1.35
X3.375Y-1.45
X3.375Y-1.55
X3.375Y-1.65
T2
G00X2.4549Y-1.1719
M15
G01X2.4549Y-1.1955
M16
G05
G00X2.4549Y-1.3266
M15
G01X2.4549Y-1.3699
M16
G05
G00X2.7951Y-1.1719
M15
G01X2.7951Y-1.1955
M16
G05
G00X2.7951Y-1.3266
M15
G01X2.7951Y-1.3699
M16
G05
T0
M30
